<svg width="1440" height="1024" viewBox="0 0 1440 1024" fill="none" xmlns="http://www.w3.org/2000/svg">
<g clip-path="url(#clip0_1_2)">
<rect width="1440" height="1024" fill="black"/>
<path d="M1451.05 977.488C1391.71 925.168 1357.88 854.34 1328.9 779.535C1301 707.532 1274.59 633.001 1224.73 574.668C1121.94 454.413 960.012 420.823 814.372 420.645C651.634 420.445 485.495 454.941 324.572 415.318C245.662 395.888 169.054 354.63 121.683 281.846C82.4343 221.543 75.803 150.568 88.782 79.8173C96.1511 39.6275 108.249 0.826562 120.86 -37.8023L104.743 -44.923C101.151 -33.9767 97.6087 -23.0378 94.2253 -12.0779C74.5642 51.6021 57.8033 119.393 67.3597 186.928C78.2086 263.635 124.191 329.61 183.237 372.295C255.289 424.384 343.201 443.922 428.58 450.264C510.851 456.373 593.328 450.156 675.481 444.946C832.285 435.006 1003.65 430.317 1141.62 524.685C1173.89 546.765 1203.02 574.01 1226.73 606.346C1250.13 638.264 1267.68 674.343 1283.07 711.317C1313.19 783.664 1335.99 860.838 1380.41 925.144C1426.32 991.623 1493.22 1041.51 1567.14 1064.68L1567.47 1064.77L1574.26 1047.03C1529.46 1033.21 1487.38 1009.51 1451.05 977.488Z" fill="#FFDA00"/>
<path d="M1465.61 674.864C1333.78 543.504 1139.66 526.805 1000.03 535.936C928.183 540.632 855.657 551.821 785.52 562.643C694.728 576.646 600.845 591.129 507.727 591.605C416.838 592.072 193.506 574.225 82.9395 398.937C19.3314 298.097 2.47558 156.459 32.8333 -22.0487C35.6926 -38.8448 38.9062 -55.7018 42.2378 -72.5386L38.9299 -74.0001C35.5426 -56.9082 32.2695 -39.7962 29.372 -22.7309C-1.1593 156.789 15.8843 299.37 80.0231 401.06C191.555 577.876 416.295 595.862 507.74 595.391C601.104 594.91 695.111 580.411 786.022 566.387C856.088 555.58 928.538 544.4 1000.24 539.715C1139.19 530.628 1332.3 547.171 1463.22 677.639C1509.88 724.136 1546.18 782.896 1581.28 839.727C1595.92 863.422 1610.74 887.368 1626.41 910.611L1627.98 906.498C1612.82 883.898 1598.43 860.641 1584.21 837.627C1549 780.617 1512.58 721.664 1465.61 674.864Z" fill="white"/>
</g>
<defs>
<clipPath id="clip0_1_2">
<rect width="1440" height="1024" fill="white"/>
</clipPath>
</defs>
</svg>
