<svg width="1440" height="1024" viewBox="0 0 1440 1024" fill="none" xmlns="http://www.w3.org/2000/svg">
<g clip-path="url(#clip0_1_2)">
<rect width="1440" height="1024" fill="black"/>
<path d="M1376.12 802.513C1266.82 651.878 1077.82 604.553 938.511 591.387C866.834 584.611 793.451 584.136 722.486 583.68C630.622 583.082 535.63 582.467 443.619 568.144C353.811 554.167 136.15 501.069 54.833 310.442C8.05163 200.779 13.91 58.2617 72.2394 -113.157C77.7306 -129.286 83.5813 -145.418 89.5452 -161.512L86.5114 -163.48C80.452 -147.144 74.5021 -130.769 68.9304 -114.38C10.269 58.0093 4.44615 201.487 51.6163 312.075C133.643 504.363 352.673 557.823 443.031 571.885C535.286 586.241 630.403 586.86 722.387 587.456C793.28 587.916 866.586 588.388 938.119 595.152C1076.75 608.254 1264.78 655.264 1373.31 804.873C1411.99 858.191 1438.5 921.971 1464.13 983.657C1474.81 1009.38 1485.64 1035.37 1497.42 1060.81L1499.63 1057C1488.24 1032.28 1477.74 1007.03 1467.35 982.049C1441.64 920.169 1415.05 856.18 1376.12 802.513Z" fill="white"/>
</g>
<defs>
<clipPath id="clip0_1_2">
<rect width="1440" height="1024" fill="white"/>
</clipPath>
</defs>
</svg>
