<svg width="889" height="401" viewBox="0 0 889 401" fill="none" xmlns="http://www.w3.org/2000/svg">
<path d="M696.799 147.193C695.239 147.218 693.752 147.856 692.658 148.968C691.564 150.081 690.95 151.578 690.95 153.139C690.95 154.699 691.564 156.197 692.658 157.309C693.752 158.421 695.239 159.059 696.799 159.085H845.885C846.667 159.098 847.443 158.958 848.17 158.671C848.897 158.385 849.561 157.958 850.122 157.415C850.684 156.871 851.134 156.223 851.445 155.506C851.756 154.789 851.923 154.018 851.935 153.236C851.948 152.455 851.807 151.679 851.519 150.952C851.232 150.225 850.804 149.562 850.261 149.001C849.717 148.44 849.068 147.991 848.35 147.681C847.633 147.37 846.862 147.205 846.08 147.193C846.015 147.192 845.95 147.192 845.885 147.193H696.799Z" fill="#0F0F0F"/>
<path d="M879.694 145.537C879.586 145.646 879.499 145.775 879.441 145.917C879.382 146.059 879.351 146.211 879.351 146.364C879.351 146.518 879.382 146.67 879.441 146.812C879.499 146.954 879.586 147.083 879.694 147.192L884.717 152.215H872.331C872.021 152.215 871.723 152.338 871.504 152.557C871.284 152.777 871.161 153.074 871.161 153.385C871.161 153.695 871.284 153.993 871.504 154.212C871.723 154.431 872.021 154.555 872.331 154.555H884.717L879.694 159.578C879.586 159.686 879.499 159.815 879.441 159.957C879.382 160.099 879.351 160.251 879.351 160.405C879.351 160.559 879.382 160.711 879.441 160.853C879.499 160.995 879.586 161.124 879.694 161.232C879.803 161.341 879.932 161.427 880.074 161.486C880.216 161.545 880.368 161.575 880.521 161.575C880.675 161.575 880.827 161.545 880.969 161.486C881.111 161.427 881.24 161.341 881.349 161.232L888.369 154.212C888.589 153.993 888.712 153.695 888.712 153.385C888.712 153.074 888.589 152.777 888.369 152.557L881.349 145.537C881.24 145.428 881.111 145.342 880.969 145.283C880.827 145.225 880.675 145.194 880.521 145.194C880.368 145.194 880.216 145.225 880.074 145.283C879.932 145.342 879.803 145.428 879.694 145.537Z" fill="white"/>
<path d="M662.927 145.537C663.036 145.646 663.122 145.775 663.181 145.917C663.24 146.059 663.27 146.211 663.27 146.364C663.27 146.518 663.24 146.67 663.181 146.812C663.122 146.954 663.036 147.083 662.927 147.192L657.904 152.215H670.29C670.444 152.214 670.597 152.244 670.739 152.303C670.881 152.361 671.011 152.447 671.12 152.556C671.229 152.665 671.315 152.794 671.374 152.936C671.433 153.078 671.464 153.231 671.464 153.385C671.464 153.539 671.433 153.691 671.374 153.833C671.315 153.975 671.229 154.105 671.12 154.213C671.011 154.322 670.881 154.408 670.739 154.467C670.597 154.525 670.444 154.555 670.29 154.555H657.904L662.927 159.578C663.147 159.797 663.27 160.095 663.27 160.405C663.27 160.715 663.147 161.013 662.927 161.232C662.708 161.452 662.41 161.575 662.1 161.575C661.79 161.575 661.492 161.452 661.273 161.232L654.252 154.212C654.033 153.993 653.91 153.695 653.91 153.385C653.91 153.074 654.033 152.777 654.252 152.557L661.273 145.537C661.381 145.428 661.51 145.342 661.652 145.283C661.794 145.225 661.946 145.194 662.1 145.194C662.254 145.194 662.406 145.225 662.548 145.283C662.69 145.342 662.819 145.428 662.927 145.537Z" fill="white"/>
<g opacity="0.4">
<path d="M702.82 23.7798C706.349 23.7798 709.21 20.9189 709.21 17.3899C709.21 13.8609 706.349 11 702.82 11C699.291 11 696.43 13.8609 696.43 17.3899C696.43 20.9189 699.291 23.7798 702.82 23.7798Z" fill="white"/>
<path d="M729.445 23.7798C732.974 23.7798 735.834 20.9189 735.834 17.3899C735.834 13.8609 732.974 11 729.445 11C725.916 11 723.055 13.8609 723.055 17.3899C723.055 20.9189 725.916 23.7798 729.445 23.7798Z" fill="white"/>
<path d="M756.069 23.7798C759.598 23.7798 762.459 20.9189 762.459 17.3899C762.459 13.8609 759.598 11 756.069 11C752.54 11 749.679 13.8609 749.679 17.3899C749.679 20.9189 752.54 23.7798 756.069 23.7798Z" fill="white"/>
<path d="M782.694 23.7798C786.223 23.7798 789.083 20.9189 789.083 17.3899C789.083 13.8609 786.223 11 782.694 11C779.165 11 776.304 13.8609 776.304 17.3899C776.304 20.9189 779.165 23.7798 782.694 23.7798Z" fill="white"/>
<path d="M809.318 23.7798C812.847 23.7798 815.708 20.9189 815.708 17.3899C815.708 13.8609 812.847 11 809.318 11C805.789 11 802.928 13.8609 802.928 17.3899C802.928 20.9189 805.789 23.7798 809.318 23.7798Z" fill="white"/>
<path d="M835.943 23.7798C839.472 23.7798 842.333 20.9189 842.333 17.3899C842.333 13.8609 839.472 11 835.943 11C832.414 11 829.553 13.8609 829.553 17.3899C829.553 20.9189 832.414 23.7798 835.943 23.7798Z" fill="white"/>
<path d="M862.567 23.7798C866.096 23.7798 868.957 20.9189 868.957 17.3899C868.957 13.8609 866.096 11 862.567 11C859.038 11 856.177 13.8609 856.177 17.3899C856.177 20.9189 859.038 23.7798 862.567 23.7798Z" fill="white"/>
<path d="M702.82 44.0145C706.349 44.0145 709.21 41.1536 709.21 37.6246C709.21 34.0955 706.349 31.2347 702.82 31.2347C699.291 31.2347 696.43 34.0955 696.43 37.6246C696.43 41.1536 699.291 44.0145 702.82 44.0145Z" fill="white"/>
<path d="M729.445 44.0145C732.974 44.0145 735.834 41.1536 735.834 37.6246C735.834 34.0955 732.974 31.2347 729.445 31.2347C725.916 31.2347 723.055 34.0955 723.055 37.6246C723.055 41.1536 725.916 44.0145 729.445 44.0145Z" fill="white"/>
<path d="M756.069 44.0145C759.598 44.0145 762.459 41.1536 762.459 37.6246C762.459 34.0955 759.598 31.2347 756.069 31.2347C752.54 31.2347 749.679 34.0955 749.679 37.6246C749.679 41.1536 752.54 44.0145 756.069 44.0145Z" fill="white"/>
<path d="M782.694 44.0145C786.223 44.0145 789.083 41.1536 789.083 37.6246C789.083 34.0955 786.223 31.2347 782.694 31.2347C779.165 31.2347 776.304 34.0955 776.304 37.6246C776.304 41.1536 779.165 44.0145 782.694 44.0145Z" fill="white"/>
<path d="M809.318 44.0145C812.847 44.0145 815.708 41.1536 815.708 37.6246C815.708 34.0955 812.847 31.2347 809.318 31.2347C805.789 31.2347 802.928 34.0955 802.928 37.6246C802.928 41.1536 805.789 44.0145 809.318 44.0145Z" fill="white"/>
<path d="M835.943 44.0145C839.472 44.0145 842.333 41.1536 842.333 37.6246C842.333 34.0955 839.472 31.2347 835.943 31.2347C832.414 31.2347 829.553 34.0955 829.553 37.6246C829.553 41.1536 832.414 44.0145 835.943 44.0145Z" fill="white"/>
<path d="M862.567 44.0145C866.096 44.0145 868.957 41.1536 868.957 37.6246C868.957 34.0955 866.096 31.2347 862.567 31.2347C859.038 31.2347 856.177 34.0955 856.177 37.6246C856.177 41.1536 859.038 44.0145 862.567 44.0145Z" fill="white"/>
<path d="M702.82 64.2492C706.349 64.2492 709.21 61.3883 709.21 57.8593C709.21 54.3302 706.349 51.4694 702.82 51.4694C699.291 51.4694 696.43 54.3302 696.43 57.8593C696.43 61.3883 699.291 64.2492 702.82 64.2492Z" fill="white"/>
<path d="M729.445 64.2492C732.974 64.2492 735.834 61.3883 735.834 57.8593C735.834 54.3302 732.974 51.4694 729.445 51.4694C725.916 51.4694 723.055 54.3302 723.055 57.8593C723.055 61.3883 725.916 64.2492 729.445 64.2492Z" fill="white"/>
<path d="M756.069 64.2492C759.598 64.2492 762.459 61.3883 762.459 57.8593C762.459 54.3302 759.598 51.4694 756.069 51.4694C752.54 51.4694 749.679 54.3302 749.679 57.8593C749.679 61.3883 752.54 64.2492 756.069 64.2492Z" fill="white"/>
<path d="M782.694 64.2492C786.223 64.2492 789.083 61.3883 789.083 57.8593C789.083 54.3302 786.223 51.4694 782.694 51.4694C779.165 51.4694 776.304 54.3302 776.304 57.8593C776.304 61.3883 779.165 64.2492 782.694 64.2492Z" fill="white"/>
<path d="M809.318 64.2492C812.847 64.2492 815.708 61.3883 815.708 57.8593C815.708 54.3302 812.847 51.4694 809.318 51.4694C805.789 51.4694 802.928 54.3302 802.928 57.8593C802.928 61.3883 805.789 64.2492 809.318 64.2492Z" fill="white"/>
<path d="M835.943 64.2492C839.472 64.2492 842.333 61.3883 842.333 57.8593C842.333 54.3302 839.472 51.4694 835.943 51.4694C832.414 51.4694 829.553 54.3302 829.553 57.8593C829.553 61.3883 832.414 64.2492 835.943 64.2492Z" fill="white"/>
<path d="M862.567 64.2492C866.096 64.2492 868.957 61.3883 868.957 57.8593C868.957 54.3302 866.096 51.4694 862.567 51.4694C859.038 51.4694 856.177 54.3302 856.177 57.8593C856.177 61.3883 859.038 64.2492 862.567 64.2492Z" fill="white"/>
<path d="M702.82 84.4839C706.349 84.4839 709.21 81.623 709.21 78.094C709.21 74.5649 706.349 71.7041 702.82 71.7041C699.291 71.7041 696.43 74.5649 696.43 78.094C696.43 81.623 699.291 84.4839 702.82 84.4839Z" fill="white"/>
<path d="M729.445 84.4839C732.974 84.4839 735.834 81.623 735.834 78.094C735.834 74.5649 732.974 71.7041 729.445 71.7041C725.916 71.7041 723.055 74.5649 723.055 78.094C723.055 81.623 725.916 84.4839 729.445 84.4839Z" fill="white"/>
<path d="M702.82 104.719C706.349 104.719 709.21 101.858 709.21 98.3286C709.21 94.7996 706.349 91.9387 702.82 91.9387C699.291 91.9387 696.43 94.7996 696.43 98.3286C696.43 101.858 699.291 104.719 702.82 104.719Z" fill="white"/>
<path d="M729.445 104.719C732.974 104.719 735.834 101.858 735.834 98.3286C735.834 94.7996 732.974 91.9387 729.445 91.9387C725.916 91.9387 723.055 94.7996 723.055 98.3286C723.055 101.858 725.916 104.719 729.445 104.719Z" fill="white"/>
<path d="M756.069 104.719C759.598 104.719 762.459 101.858 762.459 98.3286C762.459 94.7996 759.598 91.9387 756.069 91.9387C752.54 91.9387 749.679 94.7996 749.679 98.3286C749.679 101.858 752.54 104.719 756.069 104.719Z" fill="white"/>
<path d="M756.069 84.4839C759.598 84.4839 762.459 81.623 762.459 78.094C762.459 74.5649 759.598 71.7041 756.069 71.7041C752.54 71.7041 749.679 74.5649 749.679 78.094C749.679 81.623 752.54 84.4839 756.069 84.4839Z" fill="white"/>
<path d="M782.694 84.4839C786.223 84.4839 789.083 81.623 789.083 78.094C789.083 74.5649 786.223 71.7041 782.694 71.7041C779.165 71.7041 776.304 74.5649 776.304 78.094C776.304 81.623 779.165 84.4839 782.694 84.4839Z" fill="white"/>
<path d="M809.318 84.4839C812.847 84.4839 815.708 81.623 815.708 78.094C815.708 74.5649 812.847 71.7041 809.318 71.7041C805.789 71.7041 802.928 74.5649 802.928 78.094C802.928 81.623 805.789 84.4839 809.318 84.4839Z" fill="white"/>
<path d="M835.943 84.4839C839.472 84.4839 842.333 81.623 842.333 78.094C842.333 74.5649 839.472 71.7041 835.943 71.7041C832.414 71.7041 829.553 74.5649 829.553 78.094C829.553 81.623 832.414 84.4839 835.943 84.4839Z" fill="white"/>
<path d="M862.567 84.4839C866.096 84.4839 868.957 81.623 868.957 78.094C868.957 74.5649 866.096 71.7041 862.567 71.7041C859.038 71.7041 856.177 74.5649 856.177 78.094C856.177 81.623 859.038 84.4839 862.567 84.4839Z" fill="white"/>
</g>
<path d="M611.157 342.459C604.181 342.459 597.361 340.39 591.561 336.515C585.76 332.639 581.239 327.13 578.57 320.685C575.9 314.24 575.202 307.147 576.563 300.305C577.924 293.463 581.283 287.178 586.216 282.245C591.149 277.312 597.434 273.953 604.276 272.592C611.118 271.231 618.21 271.929 624.655 274.599C631.101 277.269 636.609 281.79 640.485 287.59C644.361 293.391 646.43 300.21 646.43 307.187C646.419 316.538 642.7 325.504 636.087 332.116C629.474 338.729 620.509 342.448 611.157 342.459ZM611.157 273.914C604.577 273.914 598.144 275.865 592.672 279.521C587.2 283.178 582.936 288.374 580.418 294.454C577.899 300.533 577.24 307.223 578.524 313.678C579.808 320.132 582.977 326.06 587.63 330.714C592.283 335.367 598.212 338.536 604.666 339.82C611.12 341.103 617.81 340.445 623.89 337.926C629.97 335.408 635.166 331.143 638.822 325.672C642.478 320.2 644.43 313.767 644.43 307.187C644.42 298.365 640.911 289.908 634.673 283.67C628.436 277.433 619.979 273.924 611.157 273.914Z" fill="#3F3D56"/>
<path d="M624.681 303.806H614.538V293.663C614.538 292.767 614.182 291.907 613.548 291.273C612.914 290.639 612.054 290.283 611.158 290.283C610.261 290.283 609.401 290.639 608.767 291.273C608.133 291.907 607.777 292.767 607.777 293.663V303.806H597.634C596.738 303.806 595.878 304.162 595.244 304.796C594.61 305.43 594.254 306.29 594.254 307.186C594.254 308.083 594.61 308.943 595.244 309.577C595.878 310.211 596.738 310.567 597.634 310.567H607.777V320.71C607.777 321.606 608.133 322.466 608.767 323.1C609.401 323.734 610.261 324.09 611.158 324.09C612.054 324.09 612.914 323.734 613.548 323.1C614.182 322.466 614.538 321.606 614.538 320.71V310.567H624.681C625.577 310.567 626.437 310.211 627.071 309.577C627.705 308.943 628.061 308.083 628.061 307.186C628.061 306.29 627.705 305.43 627.071 304.796C626.437 304.162 625.577 303.806 624.681 303.806Z" fill="white"/>
<g opacity="0.4">
<path d="M5.02391 346.789C7.79854 346.789 10.0478 344.54 10.0478 341.766C10.0478 338.991 7.79854 336.742 5.02391 336.742C2.24928 336.742 0 338.991 0 341.766C0 344.54 2.24928 346.789 5.02391 346.789Z" fill="white"/>
<path d="M5.02391 325.856C7.79854 325.856 10.0478 323.607 10.0478 320.833C10.0478 318.058 7.79854 315.809 5.02391 315.809C2.24928 315.809 0 318.058 0 320.833C0 323.607 2.24928 325.856 5.02391 325.856Z" fill="white"/>
<path d="M5.02391 304.924C7.79854 304.924 10.0478 302.674 10.0478 299.9C10.0478 297.125 7.79854 294.876 5.02391 294.876C2.24928 294.876 0 297.125 0 299.9C0 302.674 2.24928 304.924 5.02391 304.924Z" fill="white"/>
<path d="M5.02391 283.991C7.79854 283.991 10.0478 281.741 10.0478 278.967C10.0478 276.192 7.79854 273.943 5.02391 273.943C2.24928 273.943 0 276.192 0 278.967C0 281.741 2.24928 283.991 5.02391 283.991Z" fill="white"/>
<path d="M5.02391 263.058C7.79854 263.058 10.0478 260.808 10.0478 258.034C10.0478 255.259 7.79854 253.01 5.02391 253.01C2.24928 253.01 0 255.259 0 258.034C0 260.808 2.24928 263.058 5.02391 263.058Z" fill="white"/>
<path d="M5.02391 242.125C7.79854 242.125 10.0478 239.875 10.0478 237.101C10.0478 234.326 7.79854 232.077 5.02391 232.077C2.24928 232.077 0 234.326 0 237.101C0 239.875 2.24928 242.125 5.02391 242.125Z" fill="white"/>
<path d="M5.02391 221.192C7.79854 221.192 10.0478 218.942 10.0478 216.168C10.0478 213.393 7.79854 211.144 5.02391 211.144C2.24928 211.144 0 213.393 0 216.168C0 218.942 2.24928 221.192 5.02391 221.192Z" fill="white"/>
<path d="M20.9328 346.789C23.7075 346.789 25.9568 344.54 25.9568 341.766C25.9568 338.991 23.7075 336.742 20.9328 336.742C18.1582 336.742 15.9089 338.991 15.9089 341.766C15.9089 344.54 18.1582 346.789 20.9328 346.789Z" fill="white"/>
<path d="M20.9328 325.856C23.7075 325.856 25.9568 323.607 25.9568 320.833C25.9568 318.058 23.7075 315.809 20.9328 315.809C18.1582 315.809 15.9089 318.058 15.9089 320.833C15.9089 323.607 18.1582 325.856 20.9328 325.856Z" fill="white"/>
<path d="M20.9328 304.924C23.7075 304.924 25.9568 302.674 25.9568 299.9C25.9568 297.125 23.7075 294.876 20.9328 294.876C18.1582 294.876 15.9089 297.125 15.9089 299.9C15.9089 302.674 18.1582 304.924 20.9328 304.924Z" fill="white"/>
<path d="M20.9328 283.991C23.7075 283.991 25.9568 281.741 25.9568 278.967C25.9568 276.192 23.7075 273.943 20.9328 273.943C18.1582 273.943 15.9089 276.192 15.9089 278.967C15.9089 281.741 18.1582 283.991 20.9328 283.991Z" fill="white"/>
<path d="M20.9328 263.058C23.7075 263.058 25.9568 260.808 25.9568 258.034C25.9568 255.259 23.7075 253.01 20.9328 253.01C18.1582 253.01 15.9089 255.259 15.9089 258.034C15.9089 260.808 18.1582 263.058 20.9328 263.058Z" fill="white"/>
<path d="M20.9328 242.125C23.7075 242.125 25.9568 239.875 25.9568 237.101C25.9568 234.326 23.7075 232.077 20.9328 232.077C18.1582 232.077 15.9089 234.326 15.9089 237.101C15.9089 239.875 18.1582 242.125 20.9328 242.125Z" fill="white"/>
<path d="M20.9328 221.192C23.7075 221.192 25.9568 218.942 25.9568 216.168C25.9568 213.393 23.7075 211.144 20.9328 211.144C18.1582 211.144 15.9089 213.393 15.9089 216.168C15.9089 218.942 18.1582 221.192 20.9328 221.192Z" fill="white"/>
<path d="M36.842 346.789C39.6167 346.789 41.8659 344.54 41.8659 341.766C41.8659 338.991 39.6167 336.742 36.842 336.742C34.0674 336.742 31.8181 338.991 31.8181 341.766C31.8181 344.54 34.0674 346.789 36.842 346.789Z" fill="white"/>
<path d="M36.842 325.856C39.6167 325.856 41.8659 323.607 41.8659 320.833C41.8659 318.058 39.6167 315.809 36.842 315.809C34.0674 315.809 31.8181 318.058 31.8181 320.833C31.8181 323.607 34.0674 325.856 36.842 325.856Z" fill="white"/>
<path d="M36.842 304.924C39.6167 304.924 41.8659 302.674 41.8659 299.9C41.8659 297.125 39.6167 294.876 36.842 294.876C34.0674 294.876 31.8181 297.125 31.8181 299.9C31.8181 302.674 34.0674 304.924 36.842 304.924Z" fill="white"/>
<path d="M36.842 283.991C39.6167 283.991 41.8659 281.741 41.8659 278.967C41.8659 276.192 39.6167 273.943 36.842 273.943C34.0674 273.943 31.8181 276.192 31.8181 278.967C31.8181 281.741 34.0674 283.991 36.842 283.991Z" fill="white"/>
<path d="M36.842 263.058C39.6167 263.058 41.8659 260.808 41.8659 258.034C41.8659 255.259 39.6167 253.01 36.842 253.01C34.0674 253.01 31.8181 255.259 31.8181 258.034C31.8181 260.808 34.0674 263.058 36.842 263.058Z" fill="white"/>
<path d="M36.842 242.125C39.6167 242.125 41.8659 239.875 41.8659 237.101C41.8659 234.326 39.6167 232.077 36.842 232.077C34.0674 232.077 31.8181 234.326 31.8181 237.101C31.8181 239.875 34.0674 242.125 36.842 242.125Z" fill="white"/>
<path d="M36.842 221.192C39.6167 221.192 41.8659 218.942 41.8659 216.168C41.8659 213.393 39.6167 211.144 36.842 211.144C34.0674 211.144 31.8181 213.393 31.8181 216.168C31.8181 218.942 34.0674 221.192 36.842 221.192Z" fill="white"/>
<path d="M52.751 346.789C55.5256 346.789 57.7749 344.54 57.7749 341.766C57.7749 338.991 55.5256 336.742 52.751 336.742C49.9763 336.742 47.7271 338.991 47.7271 341.766C47.7271 344.54 49.9763 346.789 52.751 346.789Z" fill="white"/>
<path d="M52.751 325.856C55.5256 325.856 57.7749 323.607 57.7749 320.833C57.7749 318.058 55.5256 315.809 52.751 315.809C49.9763 315.809 47.7271 318.058 47.7271 320.833C47.7271 323.607 49.9763 325.856 52.751 325.856Z" fill="white"/>
<path d="M68.6601 346.789C71.4348 346.789 73.6841 344.54 73.6841 341.766C73.6841 338.991 71.4348 336.742 68.6601 336.742C65.8855 336.742 63.6362 338.991 63.6362 341.766C63.6362 344.54 65.8855 346.789 68.6601 346.789Z" fill="white"/>
<path d="M68.6601 325.856C71.4348 325.856 73.6841 323.607 73.6841 320.833C73.6841 318.058 71.4348 315.809 68.6601 315.809C65.8855 315.809 63.6362 318.058 63.6362 320.833C63.6362 323.607 65.8855 325.856 68.6601 325.856Z" fill="white"/>
<path d="M68.6601 304.924C71.4348 304.924 73.6841 302.674 73.6841 299.9C73.6841 297.125 71.4348 294.876 68.6601 294.876C65.8855 294.876 63.6362 297.125 63.6362 299.9C63.6362 302.674 65.8855 304.924 68.6601 304.924Z" fill="white"/>
<path d="M52.751 304.924C55.5256 304.924 57.7749 302.674 57.7749 299.9C57.7749 297.125 55.5256 294.876 52.751 294.876C49.9763 294.876 47.7271 297.125 47.7271 299.9C47.7271 302.674 49.9763 304.924 52.751 304.924Z" fill="white"/>
<path d="M52.751 283.991C55.5256 283.991 57.7749 281.741 57.7749 278.967C57.7749 276.192 55.5256 273.943 52.751 273.943C49.9763 273.943 47.7271 276.192 47.7271 278.967C47.7271 281.741 49.9763 283.991 52.751 283.991Z" fill="white"/>
<path d="M52.751 263.058C55.5256 263.058 57.7749 260.808 57.7749 258.034C57.7749 255.259 55.5256 253.01 52.751 253.01C49.9763 253.01 47.7271 255.259 47.7271 258.034C47.7271 260.808 49.9763 263.058 52.751 263.058Z" fill="white"/>
<path d="M52.751 242.125C55.5256 242.125 57.7749 239.875 57.7749 237.101C57.7749 234.326 55.5256 232.077 52.751 232.077C49.9763 232.077 47.7271 234.326 47.7271 237.101C47.7271 239.875 49.9763 242.125 52.751 242.125Z" fill="white"/>
<path d="M52.751 221.192C55.5256 221.192 57.7749 218.942 57.7749 216.168C57.7749 213.393 55.5256 211.144 52.751 211.144C49.9763 211.144 47.7271 213.393 47.7271 216.168C47.7271 218.942 49.9763 221.192 52.751 221.192Z" fill="white"/>
</g>
<path d="M448.408 0.00222397H114.666C113.027 0.00388122 111.455 0.655784 110.296 1.81485C109.137 2.97391 108.486 4.54545 108.484 6.1846V291.568C108.486 293.207 109.137 294.778 110.296 295.938C111.455 297.097 113.027 297.749 114.666 297.75H448.408C450.047 297.749 451.619 297.097 452.778 295.938C453.937 294.778 454.589 293.207 454.591 291.568V6.18457C454.589 4.54541 453.937 2.97387 452.778 1.81482C451.619 0.655761 450.047 0.00387589 448.408 0.00222397ZM452.113 291.568C452.113 292.551 451.722 293.495 451.028 294.191C450.334 294.888 449.392 295.281 448.408 295.284H114.666C113.682 295.283 112.739 294.89 112.044 294.193C111.349 293.496 110.96 292.552 110.961 291.568V6.18457C110.96 5.20048 111.349 4.2561 112.044 3.55915C112.739 2.86221 113.682 2.46977 114.666 2.4682H448.408C449.392 2.47173 450.334 2.86477 451.028 3.56129C451.722 4.25781 452.113 5.20107 452.113 6.18457V291.568Z" fill="#0F0F0F"/>
<path d="M191.702 247.006C191.702 247.446 191.691 247.886 191.668 248.315C191.331 254.755 188.536 260.821 183.858 265.261C179.18 269.7 172.977 272.176 166.527 272.176C160.078 272.176 153.875 269.7 149.197 265.261C144.519 260.821 141.724 254.755 141.387 248.315C141.364 247.886 141.352 247.446 141.352 247.006C141.35 243.699 142 240.424 143.264 237.367C144.528 234.311 146.382 231.534 148.72 229.195C151.058 226.855 153.834 224.999 156.89 223.733C159.945 222.467 163.22 221.815 166.527 221.815C169.835 221.815 173.11 222.467 176.165 223.733C179.221 224.999 181.997 226.855 184.334 229.195C186.672 231.534 188.526 234.311 189.791 237.367C191.055 240.424 191.705 243.699 191.702 247.006Z" fill="white"/>
<path d="M422.475 230.219H224.663C223.551 230.221 222.485 230.664 221.7 231.451C220.914 232.237 220.473 233.304 220.473 234.416C220.473 235.528 220.914 236.594 221.7 237.381C222.485 238.168 223.551 238.611 224.663 238.613H422.475C423.587 238.611 424.653 238.168 425.438 237.381C426.224 236.594 426.665 235.528 426.665 234.416C426.665 233.304 426.224 232.237 425.438 231.451C424.653 230.664 423.587 230.221 422.475 230.219Z" fill="#0F0F0F"/>
<path d="M309.781 255.4H224.663C223.552 255.4 222.486 255.842 221.7 256.627C220.914 257.413 220.472 258.479 220.472 259.591C220.472 260.702 220.914 261.768 221.7 262.554C222.486 263.34 223.552 263.782 224.663 263.782H309.781C310.892 263.782 311.958 263.34 312.744 262.554C313.53 261.768 313.972 260.702 313.972 259.591C313.972 258.479 313.53 257.413 312.744 256.627C311.958 255.842 310.892 255.4 309.781 255.4Z" fill="white"/>
<path d="M527.698 200.581H193.958C191.691 200.578 189.518 199.677 187.916 198.074C186.313 196.471 185.412 194.298 185.409 192.031V45.5693C185.412 43.3028 186.313 41.1298 187.916 39.527C189.518 37.9243 191.691 37.0227 193.958 37.02H527.698C529.965 37.0227 532.138 37.9243 533.74 39.527C535.343 41.1298 536.245 43.3028 536.247 45.5693V192.031C536.245 194.298 535.343 196.471 533.741 198.074C532.138 199.677 529.965 200.578 527.698 200.581ZM193.958 40.02C192.487 40.0217 191.076 40.607 190.036 41.6473C188.996 42.6876 188.411 44.0981 188.409 45.5693V192.031C188.411 193.502 188.996 194.913 190.036 195.953C191.076 196.994 192.487 197.579 193.958 197.581H527.698C529.169 197.579 530.58 196.994 531.62 195.953C532.66 194.913 533.246 193.502 533.247 192.031V45.5693C533.245 44.0981 532.66 42.6876 531.62 41.6473C530.58 40.607 529.169 40.0217 527.698 40.02H193.958Z" fill="white"/>
<path d="M261.924 90.4394C260.811 90.4394 259.744 90.8815 258.957 91.6684C258.17 92.4553 257.728 93.5225 257.728 94.6354C257.728 95.7482 258.17 96.8154 258.957 97.6023C259.744 98.3892 260.811 98.8313 261.924 98.8313H459.732C460.844 98.8313 461.912 98.3892 462.698 97.6023C463.485 96.8154 463.927 95.7482 463.927 94.6354C463.927 93.5225 463.485 92.4553 462.698 91.6684C461.912 90.8815 460.844 90.4394 459.732 90.4394H261.924Z" fill="white"/>
<path d="M261.924 114.752C260.811 114.752 259.744 115.194 258.957 115.981C258.17 116.768 257.728 117.835 257.728 118.948C257.728 120.061 258.17 121.128 258.957 121.915C259.744 122.702 260.811 123.144 261.924 123.144H459.732C460.843 123.142 461.909 122.699 462.694 121.913C463.48 121.126 463.921 120.06 463.921 118.948C463.921 117.836 463.48 116.77 462.694 115.983C461.909 115.197 460.843 114.754 459.732 114.752H261.924Z" fill="white"/>
<path d="M261.924 138.77C260.811 138.77 259.744 139.212 258.957 139.999C258.17 140.786 257.728 141.853 257.728 142.966C257.728 144.078 258.17 145.146 258.957 145.933C259.744 146.72 260.811 147.162 261.924 147.162H347.041C348.153 147.16 349.219 146.717 350.004 145.93C350.79 145.144 351.231 144.077 351.231 142.966C351.231 141.854 350.79 140.788 350.004 140.001C349.219 139.214 348.153 138.771 347.041 138.77H261.924Z" fill="white"/>
<path d="M582.724 262.633L549.204 215.326L560.055 217.587C560.248 217.627 560.447 217.629 560.641 217.592C560.834 217.555 561.019 217.481 561.184 217.373C561.349 217.265 561.491 217.125 561.602 216.962C561.713 216.799 561.79 216.616 561.831 216.423C561.871 216.23 561.873 216.031 561.836 215.837C561.799 215.644 561.725 215.459 561.617 215.294C561.508 215.129 561.369 214.987 561.206 214.876C561.043 214.765 560.86 214.688 560.667 214.647L544.496 211.281L542.314 227.652C542.287 227.847 542.299 228.046 542.35 228.237C542.4 228.428 542.488 228.607 542.607 228.765C542.727 228.922 542.877 229.054 543.048 229.153C543.219 229.252 543.407 229.316 543.603 229.342C543.799 229.368 543.998 229.356 544.189 229.305C544.379 229.254 544.558 229.166 544.715 229.045C544.872 228.925 545.003 228.775 545.102 228.604C545.2 228.433 545.264 228.244 545.29 228.048L546.753 217.055L580.276 264.367C580.39 264.528 580.535 264.665 580.701 264.77C580.868 264.874 581.054 264.945 581.248 264.978C581.442 265.012 581.641 265.006 581.833 264.962C582.025 264.919 582.206 264.838 582.367 264.724C582.528 264.61 582.664 264.465 582.769 264.299C582.874 264.132 582.945 263.946 582.978 263.752C583.012 263.558 583.006 263.359 582.962 263.167C582.919 262.975 582.837 262.794 582.724 262.633Z" fill="white"/>
<path d="M400.666 400.321H162.409C161.239 400.319 160.118 399.854 159.29 399.027C158.463 398.2 157.998 397.078 157.997 395.908V336.807C157.998 335.637 158.463 334.516 159.29 333.689C160.118 332.862 161.239 332.396 162.409 332.395H400.666C401.836 332.396 402.957 332.862 403.784 333.689C404.611 334.516 405.077 335.637 405.078 336.807V395.908C405.077 397.078 404.611 398.2 403.784 399.027C402.957 399.854 401.836 400.319 400.666 400.321ZM162.409 334.16C161.707 334.16 161.034 334.44 160.538 334.936C160.041 335.432 159.762 336.105 159.761 336.807V395.908C159.762 396.61 160.041 397.283 160.538 397.779C161.034 398.276 161.707 398.555 162.409 398.556H400.666C401.368 398.555 402.041 398.276 402.537 397.779C403.033 397.283 403.312 396.61 403.313 395.908V336.807C403.312 336.105 403.033 335.432 402.537 334.936C402.041 334.44 401.368 334.16 400.666 334.16H162.409Z" fill="#3F3D56"/>
<path d="M199.429 382.063C209.355 382.063 217.402 374.016 217.402 364.09C217.402 354.164 209.355 346.117 199.429 346.117C189.503 346.117 181.456 354.164 181.456 364.09C181.456 374.016 189.503 382.063 199.429 382.063Z" fill="white"/>
<path d="M240.938 352.108C240.544 352.107 240.154 352.184 239.79 352.335C239.426 352.485 239.095 352.705 238.816 352.984C238.537 353.262 238.316 353.592 238.165 353.956C238.014 354.32 237.937 354.71 237.937 355.104C237.937 355.497 238.014 355.887 238.165 356.251C238.316 356.615 238.537 356.945 238.816 357.224C239.095 357.502 239.426 357.722 239.79 357.873C240.154 358.023 240.544 358.1 240.938 358.099H382.153C382.947 358.099 383.709 357.783 384.271 357.222C384.833 356.66 385.148 355.898 385.148 355.104C385.148 354.309 384.833 353.547 384.271 352.985C383.709 352.424 382.947 352.108 382.153 352.108H240.938Z" fill="white"/>
<path d="M240.938 370.081C240.544 370.08 240.154 370.157 239.79 370.307C239.426 370.458 239.095 370.678 238.816 370.956C238.537 371.235 238.316 371.565 238.165 371.929C238.014 372.293 237.937 372.683 237.937 373.076C237.937 373.47 238.014 373.86 238.165 374.224C238.316 374.588 238.537 374.918 238.816 375.196C239.095 375.475 239.426 375.695 239.79 375.845C240.154 375.996 240.544 376.073 240.938 376.072H301.703C302.497 376.072 303.259 375.756 303.821 375.195C304.383 374.633 304.698 373.871 304.698 373.076C304.698 372.282 304.383 371.52 303.821 370.958C303.259 370.396 302.497 370.081 301.703 370.081H240.938Z" fill="white"/>
<path d="M715.024 189.756H820.917C822.087 189.757 823.208 190.223 824.035 191.05C824.862 191.877 825.328 192.998 825.329 194.168V304.45C825.328 305.62 824.862 306.742 824.035 307.569C823.208 308.396 822.087 308.861 820.917 308.863H715.024C713.855 308.861 712.733 308.396 711.906 307.569C711.079 306.742 710.614 305.62 710.612 304.45V194.168C710.614 192.998 711.079 191.877 711.906 191.05C712.733 190.223 713.855 189.757 715.024 189.756ZM820.917 307.098C821.619 307.097 822.292 306.818 822.788 306.322C823.284 305.825 823.563 305.152 823.564 304.45V194.168C823.563 193.466 823.284 192.793 822.788 192.297C822.292 191.801 821.619 191.521 820.917 191.521H715.024C714.323 191.521 713.65 191.801 713.153 192.297C712.657 192.793 712.378 193.466 712.377 194.168V304.45C712.378 305.152 712.657 305.825 713.153 306.322C713.65 306.818 714.323 307.097 715.024 307.098H820.917Z" fill="#3F3D56"/>
<path d="M798.353 286.12C799.148 286.12 799.91 285.805 800.471 285.243C801.033 284.681 801.349 283.919 801.349 283.125C801.349 282.33 801.033 281.569 800.471 281.007C799.91 280.445 799.148 280.129 798.353 280.129H737.588C736.794 280.129 736.032 280.445 735.47 281.007C734.908 281.569 734.593 282.33 734.593 283.125C734.593 283.919 734.908 284.681 735.47 285.243C736.032 285.805 736.794 286.12 737.588 286.12H798.353Z" fill="white"/>
<path d="M798.353 268.472C798.747 268.472 799.137 268.395 799.501 268.245C799.865 268.095 800.196 267.875 800.475 267.596C800.754 267.318 800.975 266.988 801.126 266.624C801.276 266.26 801.354 265.87 801.354 265.476C801.354 265.082 801.276 264.692 801.126 264.329C800.975 263.965 800.754 263.634 800.475 263.356C800.196 263.078 799.865 262.857 799.501 262.707C799.137 262.557 798.747 262.48 798.353 262.481H737.588C737.194 262.48 736.804 262.557 736.44 262.707C736.076 262.857 735.745 263.078 735.466 263.356C735.188 263.634 734.966 263.965 734.815 264.329C734.665 264.692 734.587 265.082 734.587 265.476C734.587 265.87 734.665 266.26 734.815 266.624C734.966 266.988 735.188 267.318 735.466 267.596C735.745 267.875 736.076 268.095 736.44 268.245C736.804 268.395 737.194 268.472 737.588 268.472H798.353Z" fill="white"/>
<path d="M767.97 212.498C771.699 212.498 775.345 213.604 778.446 215.676C781.546 217.748 783.963 220.692 785.39 224.138C786.817 227.583 787.191 231.374 786.463 235.032C785.736 238.689 783.94 242.049 781.303 244.686C778.666 247.323 775.306 249.118 771.649 249.846C767.991 250.574 764.2 250.2 760.755 248.773C757.309 247.346 754.365 244.929 752.293 241.828C750.221 238.728 749.115 235.082 749.115 231.353C749.121 226.354 751.109 221.562 754.644 218.027C758.179 214.492 762.971 212.504 767.97 212.498Z" fill="white"/>
</svg>
