<?xml version="1.0" standalone="no"?>
<!DOCTYPE svg PUBLIC "-//W3C//DTD SVG 20010904//EN"
 "http://www.w3.org/TR/2001/REC-SVG-20010904/DTD/svg10.dtd">
<svg version="1.0" xmlns="http://www.w3.org/2000/svg"
 width="1024.000000pt" height="1024.000000pt" viewBox="0 0 1024.000000 1024.000000"
 preserveAspectRatio="xMidYMid meet">
<metadata>
Created by potrace 1.16, written by Peter Selinger 2001-2019
</metadata>
<g transform="translate(0.000000,1024.000000) scale(0.100000,-0.100000)"
fill="#000000" stroke="none">
<path d="M0 5120 l0 -5120 5120 0 5120 0 0 5120 0 5120 -5120 0 -5120 0 0
-5120z m5456 4710 c99 -48 333 -315 514 -585 30 -44 103 -147 163 -229 176
-239 231 -346 340 -656 30 -85 62 -173 70 -195 9 -22 43 -114 75 -205 73 -201
83 -223 196 -425 93 -166 146 -288 210 -485 20 -63 52 -144 70 -180 76 -145
86 -168 101 -229 21 -78 16 -102 -40 -233 -58 -134 -106 -202 -180 -256 -106
-77 -291 -281 -478 -527 -95 -125 -182 -223 -191 -214 -3 3 25 43 62 90 102
126 285 378 331 455 29 49 55 78 87 98 24 15 43 31 40 33 -2 3 -30 -3 -61 -12
-32 -9 -59 -14 -62 -12 -5 6 79 34 130 43 51 9 142 69 199 132 52 59 106 176
114 250 9 79 -11 120 -85 171 -41 28 -81 68 -110 109 -25 36 -70 95 -99 131
-29 36 -71 90 -93 119 -62 81 -346 375 -382 394 -18 9 -38 17 -46 18 -24 0
-251 133 -251 146 0 7 47 -14 105 -47 57 -32 130 -69 162 -81 60 -22 129 -86
375 -348 l80 -85 -6 43 c-8 51 -33 104 -90 187 -37 54 -41 66 -42 125 0 50 -7
77 -28 119 -46 90 -176 212 -176 166 0 -8 16 -64 35 -123 32 -99 56 -225 41
-211 -4 3 -16 39 -27 80 -11 41 -36 119 -55 175 -19 55 -34 108 -34 116 0 28
-62 78 -191 154 -110 66 -138 89 -225 181 -54 59 -109 123 -121 142 l-22 36
-21 -49 c-28 -66 -39 -120 -40 -186 0 -85 7 -98 64 -125 62 -29 197 -173 195
-208 -1 -19 -2 -19 -9 4 -11 38 -147 171 -196 193 -52 23 -64 48 -64 141 0 58
7 93 30 156 l30 82 -49 72 c-27 40 -56 93 -65 117 -8 23 -25 68 -36 99 -32 87
-101 147 -218 189 -50 18 -92 36 -92 40 0 9 115 -32 178 -64 27 -14 64 -42 82
-62 30 -35 44 -60 96 -184 72 -170 284 -389 465 -481 69 -34 79 -36 72 -9 -12
45 42 9 132 -88 71 -76 148 -136 167 -130 12 4 -103 139 -169 199 -22 20 -98
75 -169 122 -71 47 -148 104 -171 126 -36 35 -42 48 -50 103 l-10 63 -8 -64
c-7 -57 -9 -62 -21 -46 -9 12 -14 47 -14 95 l0 77 -62 60 c-35 34 -79 75 -98
93 l-35 32 45 -24 c24 -12 68 -45 97 -73 l52 -50 6 75 c7 89 -9 288 -31 374
-26 104 -85 283 -99 303 -8 10 9 -52 38 -137 47 -143 51 -162 52 -250 0 -75
-4 -102 -18 -123 -9 -15 -21 -27 -25 -27 -4 0 -32 37 -62 82 l-54 82 -7 175
c-4 98 -14 206 -23 244 -9 38 -48 132 -91 218 -74 148 -85 179 -65 179 6 0 10
4 10 8 0 12 -110 156 -123 161 -6 2 -8 -12 -5 -40 6 -44 6 -44 -8 -14 -7 17
-13 35 -14 41 0 6 -9 19 -21 30 -18 16 -35 19 -123 17 -129 -3 -174 -18 -296
-97 -168 -110 -314 -193 -367 -211 -66 -21 -166 -111 -246 -222 -31 -45 -101
-157 -155 -249 -54 -93 -131 -223 -170 -289 -83 -140 -188 -369 -147 -320 14
17 59 95 100 175 73 144 116 215 96 160 -73 -204 -132 -334 -195 -433 -18 -28
-48 -86 -65 -128 -17 -42 -45 -89 -62 -105 -79 -74 -152 -224 -280 -574 -28
-74 -63 -168 -79 -209 -17 -41 -28 -76 -26 -78 12 -13 207 259 275 384 58 106
196 308 254 373 26 29 54 77 71 119 24 62 36 78 80 111 73 54 103 91 152 195
63 132 86 228 87 355 1 96 1 100 9 50 25 -159 -76 -456 -213 -631 -33 -41 -43
-63 -48 -108 -4 -31 -13 -66 -19 -78 -17 -31 -104 -136 -172 -208 -60 -63 -96
-125 -137 -235 -39 -103 -62 -136 -223 -311 -83 -90 -167 -188 -186 -217 -51
-76 -95 -202 -101 -292 l-6 -75 41 38 c39 38 53 64 88 162 12 36 39 72 94 130
90 93 102 112 95 157 l-5 33 11 -34 c15 -48 1 -75 -86 -161 -68 -67 -77 -82
-102 -155 -21 -65 -36 -90 -80 -136 -73 -77 -74 -90 -37 -319 l6 -35 23 62
c28 78 94 188 164 273 29 36 64 87 77 113 14 26 40 65 59 86 19 21 55 82 80
135 25 53 62 117 82 142 47 57 143 130 182 139 15 3 33 16 38 28 20 42 142
183 218 250 96 84 194 151 333 226 185 100 295 129 407 111 33 -6 116 -19 185
-30 69 -10 158 -31 199 -44 41 -14 110 -36 155 -47 45 -12 173 -55 286 -94
113 -40 229 -78 258 -86 29 -7 52 -18 52 -26 0 -7 -2 -13 -4 -13 -2 0 -109 36
-237 80 -206 71 -540 175 -624 195 -71 16 -282 45 -332 45 -30 0 -84 -8 -121
-17 -73 -18 -301 -131 -391 -193 -113 -78 -311 -271 -357 -349 -11 -18 -36
-40 -59 -50 -46 -20 -162 -120 -200 -171 -13 -18 -39 -67 -56 -109 -17 -42
-48 -94 -68 -116 -20 -22 -56 -74 -79 -116 -23 -41 -51 -84 -63 -95 -27 -23
-108 -143 -139 -204 -87 -171 -81 -305 25 -530 29 -63 74 -173 100 -245 75
-212 85 -234 164 -374 84 -149 120 -185 254 -256 48 -25 104 -68 167 -129 52
-50 118 -102 145 -116 28 -14 68 -37 90 -51 22 -15 51 -30 65 -34 14 -4 40
-21 58 -36 37 -33 33 -32 88 -19 68 16 85 5 186 -123 103 -131 117 -155 150
-242 18 -45 33 -67 66 -92 47 -36 48 -42 3 -18 -37 19 -81 71 -87 104 -4 18
-24 39 -60 64 -31 22 -71 63 -93 96 -22 32 -70 86 -107 120 -37 33 -63 61 -58
61 25 0 126 -95 166 -157 26 -38 58 -77 73 -87 14 -9 35 -26 46 -37 19 -19 19
-19 19 1 0 10 -19 43 -43 72 -24 29 -68 88 -100 130 -31 42 -65 82 -76 87 -28
16 -78 13 -105 -4 -21 -14 -24 -13 -50 14 -15 15 -88 59 -163 97 -120 61 -148
80 -235 162 -65 61 -121 104 -166 126 -109 55 -165 105 -221 200 -27 46 -68
111 -90 144 -23 32 -50 80 -61 106 -12 25 -23 46 -25 46 -6 0 10 -51 35 -107
22 -53 24 -83 4 -90 -14 -5 -97 103 -130 169 -13 25 -26 64 -30 85 -5 33 -2
44 21 71 15 18 33 32 40 32 7 0 24 -29 36 -64 13 -36 25 -63 27 -61 6 6 -84
257 -133 373 -57 131 -75 204 -75 302 0 41 -7 113 -15 160 -21 126 -21 198 1
408 9 90 70 283 128 408 30 66 85 202 121 304 116 320 142 379 447 990 137
274 165 327 304 556 186 307 317 446 455 484 20 6 94 47 165 92 248 157 297
176 458 177 81 1 108 -3 142 -19z m-721 -1229 c-6 -5 -35 -16 -65 -26 -69 -22
-119 -53 -195 -125 -33 -31 -85 -76 -115 -100 -91 -72 -180 -163 -202 -205
-19 -36 -20 -51 -15 -167 9 -183 -22 -288 -121 -407 -57 -68 -77 -117 -68
-170 4 -25 2 -31 -4 -21 -12 19 -13 82 0 114 5 13 31 49 59 80 58 64 65 76 98
170 22 61 25 85 22 176 -4 161 -2 195 16 229 21 42 100 121 215 216 52 43 118
100 146 126 54 50 90 72 168 100 59 20 74 23 61 10z m1137 -1299 c62 -40 235
-108 246 -97 3 2 -1 6 -9 9 -85 26 -124 45 -151 73 -18 18 -26 33 -20 33 7 0
15 -7 19 -16 3 -8 12 -13 20 -10 8 3 11 2 8 -4 -7 -12 28 -34 80 -50 22 -7 60
-23 85 -35 39 -19 131 -47 195 -58 11 -2 -2 -7 -28 -12 -34 -5 -63 -3 -100 8
-182 54 -264 80 -300 97 -56 26 -129 87 -157 130 l-23 35 34 -30 c19 -16 65
-50 101 -73z m-424 -134 c64 -17 92 -19 171 -14 52 4 97 9 100 11 2 3 -4 12
-15 20 -10 7 12 2 50 -13 l68 -27 -58 -13 c-33 -7 -104 -13 -159 -14 -91 -1
-109 2 -210 36 -60 21 -117 44 -126 52 -19 17 -33 19 -23 3 4 -8 0 -8 -15 0
-11 7 -21 14 -21 17 0 3 4 2 10 -1 5 -3 17 -2 26 3 12 7 33 2 71 -15 30 -13
89 -33 131 -45z m200 -653 l-3 -80 28 2 c24 2 27 -1 22 -15 -16 -38 -16 -55 0
-27 15 28 49 65 59 65 2 0 -1 -13 -7 -30 -6 -16 -8 -32 -5 -36 11 -10 65 34
115 94 25 31 44 53 42 47 -21 -50 -58 -111 -101 -170 -29 -38 -83 -113 -122
-165 -95 -129 -392 -425 -436 -434 -63 -12 -154 -7 -187 12 -109 59 -446 372
-495 459 -28 50 -43 69 -33 41 3 -7 16 -65 29 -128 13 -63 27 -124 31 -135 4
-11 -7 3 -25 32 -21 35 -35 75 -41 120 -17 119 -28 160 -57 220 -42 87 -47
103 -21 73 13 -16 19 -19 15 -7 -17 48 -14 47 13 -8 17 -33 44 -90 60 -126 27
-57 50 -84 198 -225 160 -152 296 -269 341 -293 22 -12 132 -13 169 -3 12 4
56 39 97 79 l76 72 0 58 c0 45 7 70 29 111 16 28 27 52 25 52 -3 0 -41 -19
-85 -41 -44 -23 -82 -39 -85 -36 -6 6 55 58 97 80 31 17 32 20 16 32 -16 12
-13 15 37 38 37 17 62 37 79 64 25 38 33 59 62 183 35 147 35 147 52 125 11
-15 14 -41 11 -100z m-1246 -119 c0 -27 3 -35 9 -25 6 9 9 -8 8 -51 -1 -36 1
-76 5 -88 4 -12 5 -22 2 -22 -3 0 -12 21 -20 48 l-15 47 0 -95 c-1 -77 -5
-101 -21 -125 -24 -36 -26 -30 -4 14 9 17 13 39 9 48 -3 9 -10 64 -16 121 -5
58 -13 110 -16 116 -4 5 -8 31 -9 56 -2 25 -6 66 -9 93 -3 26 -3 47 -1 47 6 0
26 -68 32 -110 3 -14 11 -47 19 -75 l15 -50 -5 50 c-2 28 -7 86 -9 130 l-5 80
16 -85 c9 -47 16 -103 15 -124z m1581 -71 c89 -52 156 -140 222 -292 36 -81
39 -95 38 -178 -1 -143 -41 -294 -103 -386 -16 -24 -51 -70 -78 -102 -27 -32
-73 -102 -103 -155 -84 -155 -144 -243 -200 -297 l-52 -50 46 58 c60 74 99
135 177 277 34 63 89 148 122 189 73 92 112 174 144 298 45 180 30 296 -61
459 -37 65 -123 152 -184 184 -20 10 -30 19 -23 20 7 0 32 -11 55 -25z m-1798
-88 c-70 -55 -206 -190 -237 -235 -42 -61 -48 -86 -61 -277 -17 -250 -14 -322
17 -455 33 -134 42 -152 102 -190 24 -15 61 -50 80 -76 l35 -49 -43 46 c-24
25 -59 56 -78 67 -62 36 -77 62 -103 167 -49 197 -50 208 -38 370 22 277 30
325 59 378 32 60 145 177 231 240 71 53 97 63 36 14z m380 -313 c26 -104 27
-116 15 -175 -22 -112 -22 -125 -6 -164 15 -35 15 -40 1 -54 -14 -15 -18 -14
-35 9 -32 41 -35 86 -11 144 37 91 26 301 -20 369 l-22 32 25 -25 c19 -19 33
-54 53 -136z m2192 -111 c14 -14 34 -23 54 -23 48 0 96 -28 133 -79 27 -37 63
-63 178 -129 78 -45 213 -130 298 -188 85 -58 184 -121 220 -139 121 -62 147
-103 204 -325 49 -191 143 -428 245 -620 137 -257 201 -395 201 -434 0 -35
-14 -78 -91 -290 -36 -98 -53 -129 -92 -173 -27 -29 -53 -50 -59 -47 -5 4 -24
-7 -41 -23 -18 -17 -43 -37 -57 -46 -23 -16 -23 -17 -4 -17 44 0 116 -34 163
-76 l48 -44 -1 123 c-1 121 -1 123 36 200 24 51 42 77 53 77 14 0 16 -6 11
-32 -17 -88 -18 -230 -3 -291 33 -129 50 -235 43 -270 -4 -20 -34 -91 -68
-159 -33 -68 -80 -181 -103 -251 -53 -158 -96 -218 -164 -228 -22 -3 -41 -4
-41 -3 0 7 61 105 101 164 39 57 94 188 84 198 -4 4 -32 -26 -87 -93 -42 -50
-129 -187 -153 -241 -23 -53 -119 -162 -189 -216 l-41 -32 46 50 c81 88 170
216 215 309 28 57 71 122 119 179 79 95 161 208 190 266 14 27 1 17 -56 -44
-41 -43 -92 -104 -113 -135 -85 -121 -121 -155 -213 -204 l-88 -47 55 50 c30
27 51 50 47 50 -5 0 -104 -31 -220 -69 -117 -38 -239 -74 -272 -81 -33 -6
-113 -25 -178 -42 -139 -37 -150 -34 -123 37 21 55 54 95 118 146 l49 38 -48
24 c-26 13 -64 27 -83 31 -20 3 -50 18 -68 34 -32 27 -155 236 -167 283 -7 30
39 343 61 411 9 26 45 89 81 140 37 51 86 136 110 188 73 158 81 171 158 270
73 92 82 109 122 235 11 33 23 69 27 80 4 11 -20 -9 -53 -45 -33 -36 -61 -59
-61 -51 0 19 129 337 179 440 40 82 40 85 24 110 -9 14 -41 64 -70 111 -30 47
-74 104 -99 127 -25 23 -43 47 -39 53 4 6 2 9 -3 8 -6 -2 -34 14 -63 36 -28
21 -90 65 -137 98 -127 89 -262 199 -262 214 0 23 44 -1 142 -78 51 -40 111
-87 133 -103 22 -16 73 -58 113 -93 39 -34 72 -57 72 -51 0 7 19 -14 41 -47
52 -74 47 -70 61 -56 16 16 33 15 20 -1 -9 -10 1 -33 40 -93 28 -43 56 -92 63
-109 l13 -29 15 36 c21 50 22 74 8 140 -12 55 -14 58 -79 99 -120 75 -191 139
-224 202 -24 44 -47 70 -95 104 -101 72 -81 83 50 29 45 -18 91 -35 102 -38
11 -3 29 -9 40 -13 51 -17 -45 29 -132 64 -54 22 -125 51 -158 65 -33 14 -88
28 -122 32 -35 3 -63 8 -63 10 0 3 11 27 25 54 33 65 33 120 0 157 l-25 28 7
-30 c15 -56 7 -101 -29 -178 -51 -106 -115 -173 -187 -193 -83 -24 -125 -48
-165 -96 l-36 -42 14 48 c8 26 38 80 67 119 89 122 109 154 116 189 6 31 5 32
-13 18 -57 -45 -153 -222 -189 -349 -40 -143 -106 -232 -320 -434 -95 -89
-199 -178 -230 -196 -35 -21 -95 -44 -152 -58 -104 -26 -200 -70 -308 -142
-89 -60 -95 -63 -95 -57 0 11 146 114 205 144 33 17 112 47 175 66 146 45 201
82 397 265 137 128 213 217 213 249 0 7 -24 -4 -54 -23 -30 -19 -88 -49 -128
-67 -152 -68 -178 -93 -178 -168 0 -51 -79 -129 -188 -184 -28 -14 -52 -25
-52 -22 0 2 30 22 68 44 73 44 139 104 153 140 5 13 9 39 9 58 0 20 8 42 19
53 11 11 87 54 168 95 82 41 159 86 171 99 14 15 32 61 48 118 49 184 108 299
215 416 30 33 39 51 39 78 0 38 15 75 29 75 9 0 45 -79 55 -123 11 -46 -11
-101 -70 -176 -30 -39 -52 -71 -48 -71 3 0 24 10 45 22 70 39 118 131 119 226
0 50 -31 164 -52 189 -6 8 -5 19 3 35 12 22 13 22 23 3 6 -10 21 -29 33 -42z
m-3401 -68 c-11 -8 -23 -15 -28 -15 -11 0 -38 -55 -38 -78 0 -14 -19 -30 -65
-53 -42 -22 -65 -40 -65 -51 0 -10 5 -18 11 -18 26 0 -11 -24 -129 -81 -70
-34 -181 -84 -247 -111 -143 -59 -210 -96 -249 -137 -35 -37 -46 -39 -46 -9 0
39 95 118 220 182 63 32 169 95 234 139 65 44 155 101 200 127 45 26 108 64
140 84 59 35 100 49 62 21z m-889 -495 c-9 -31 -7 -59 7 -131 21 -114 45 -178
96 -260 22 -35 61 -104 86 -154 25 -49 55 -100 67 -112 l20 -22 43 74 c60 101
152 191 329 319 83 60 161 118 175 130 20 17 22 18 10 2 -8 -11 -92 -76 -185
-146 -263 -195 -338 -294 -385 -503 -35 -153 -29 -190 64 -375 70 -138 116
-248 116 -276 0 -20 -18 9 -30 49 -6 22 -47 114 -91 205 -101 211 -108 245
-79 389 l22 108 -30 44 c-36 54 -162 283 -196 359 -15 32 -33 104 -44 169
l-18 114 -26 -31 c-32 -39 -43 -70 -63 -192 -16 -96 -101 -364 -149 -474 -23
-51 -24 -57 -7 -42 11 10 52 67 91 127 40 60 76 106 81 103 18 -10 8 -70 -19
-129 -37 -78 -107 -153 -232 -250 -61 -47 -103 -87 -106 -101 -10 -40 4 -86
50 -164 94 -161 228 -316 377 -436 63 -51 136 -115 162 -143 48 -51 131 -174
230 -341 31 -52 83 -126 117 -165 80 -93 104 -142 95 -197 -11 -72 -44 -162
-80 -219 -45 -71 -44 -56 5 53 52 114 66 178 51 228 -6 20 -42 73 -81 117 -38
45 -101 135 -139 202 -146 253 -207 323 -427 488 -125 94 -208 181 -310 323
-81 113 -85 118 -92 100 -3 -8 -27 -58 -55 -110 -49 -93 -49 -94 -16 -62 40
39 66 41 75 7 10 -41 -4 -73 -61 -135 -30 -33 -55 -68 -55 -77 0 -30 32 -68
191 -231 241 -245 357 -370 548 -586 201 -230 236 -272 283 -341 18 -28 39
-50 46 -49 6 1 17 2 22 3 6 0 33 22 60 47 37 34 47 40 43 24 -7 -26 -60 -80
-79 -80 -19 0 -19 -1 21 -59 19 -29 37 -68 41 -88 9 -49 -9 -122 -45 -179 -22
-34 -29 -55 -25 -73 6 -26 6 -26 -14 3 l-21 29 39 45 c46 52 59 111 40 175
-13 46 -79 139 -91 131 -5 -3 -17 12 -28 33 -48 95 -467 575 -606 695 -141
121 -400 385 -434 442 -58 98 -57 138 12 292 40 90 51 124 67 209 17 82 31
107 115 195 40 42 79 89 88 106 32 63 97 258 146 437 66 239 83 284 132 346
51 64 71 68 56 11z m1388 -277 c20 -41 22 -110 7 -193 l-10 -55 -1 50 c-1 28
-6 68 -11 90 -7 30 -8 15 -4 -57 2 -54 0 -149 -6 -210 -6 -62 -12 -313 -13
-558 -2 -245 -7 -494 -12 -555 -4 -60 -8 -150 -9 -200 -1 -56 -10 -126 -25
-185 -14 -58 -25 -136 -27 -200 -2 -58 -9 -129 -14 -159 -6 -30 -10 -72 -10
-92 0 -36 -14 -58 -28 -45 -3 4 1 37 11 74 9 37 21 142 27 233 7 119 16 186
31 235 18 57 22 98 24 234 1 91 8 413 15 715 17 688 17 699 0 820 -8 55 -13
104 -12 109 2 5 -14 27 -35 49 -33 36 -30 34 23 -11 34 -29 70 -69 79 -89z
m2514 -378 c-5 -66 -18 -194 -29 -285 -11 -91 -24 -230 -30 -310 -5 -80 -14
-208 -19 -285 -6 -77 -15 -237 -21 -355 -6 -118 -18 -262 -25 -320 -20 -146
-24 -422 -6 -444 11 -13 11 -22 -3 -56 -25 -63 -28 -108 -8 -119 9 -6 12 -11
7 -11 -37 -1 -46 73 -16 128 17 32 17 36 -1 87 -13 41 -16 64 -9 98 4 25 6 80
3 122 -3 45 2 120 11 183 15 99 40 440 51 694 l5 106 -27 -3 c-103 -12 -335
-26 -371 -24 -38 3 -46 8 -51 29 -4 14 -5 40 -3 57 5 30 10 32 181 98 98 38
198 79 225 92 26 13 47 19 47 13 0 -14 -57 -39 -265 -116 l-170 -62 0 -49 0
-48 96 1 c131 2 332 24 341 38 4 6 8 49 8 96 0 92 20 299 44 450 15 100 30
316 16 245 l-7 -40 -2 43 c0 23 4 42 9 42 6 0 11 37 11 88 l2 87 7 -75 c4 -41
4 -129 -1 -195z m-719 -242 c-51 -164 -97 -510 -92 -688 3 -73 -2 -127 -18
-200 -11 -55 -36 -176 -56 -270 -19 -93 -44 -206 -55 -250 -22 -84 -22 -216
-1 -223 7 -2 4 -22 -7 -55 -10 -29 -21 -70 -25 -92 -4 -22 -16 -69 -27 -104
-10 -35 -19 -89 -20 -120 0 -47 -2 -53 -11 -34 -14 29 21 223 57 318 19 52 22
71 14 97 -19 65 -12 151 25 317 21 90 36 165 34 166 -2 2 -37 -27 -79 -63 -41
-37 -144 -128 -229 -202 -85 -74 -215 -189 -290 -255 -297 -262 -358 -315
-430 -375 l-75 -63 55 54 c31 30 123 113 205 185 83 72 232 205 331 295 100
90 256 227 347 304 165 140 165 140 177 195 7 30 23 98 36 150 19 74 24 121
24 219 0 69 4 161 10 205 33 264 43 330 65 412 24 88 51 164 59 164 2 0 -9
-39 -24 -87z m-1275 -298 c3 -71 9 -139 11 -150 3 -11 -4 -67 -16 -125 -28
-142 -49 -631 -30 -689 11 -35 10 -43 -15 -99 -30 -66 -30 -118 0 -176 21 -39
20 -44 -22 -106 -38 -56 -43 -83 -31 -155 l7 -40 -14 40 c-21 62 -17 95 19
163 l34 63 -19 74 -19 75 25 50 c27 54 31 86 15 140 -18 59 7 558 32 649 14
54 19 96 16 155 l-3 81 -47 41 c-68 61 -140 85 -278 93 -88 5 -108 9 -85 16
41 12 198 -9 269 -35 35 -13 74 -38 98 -62 l40 -40 -6 48 c-7 53 -11 264 -6
304 3 27 14 -109 25 -315z m-917 221 c90 -37 157 -57 240 -71 44 -7 63 -13 44
-14 -51 -2 -168 28 -266 67 -99 39 -110 38 -138 -19 -62 -121 -82 -184 -82
-261 -1 -48 4 -82 11 -89 14 -14 270 -81 398 -105 111 -20 128 -24 123 -29 -6
-6 -211 35 -353 70 -60 15 -127 32 -147 37 -32 7 -38 13 -44 44 -14 75 2 165
46 264 63 143 69 147 168 106z m3267 -9 c57 -88 121 -386 96 -449 -10 -27 -14
-28 -78 -28 -96 0 -326 21 -338 32 -5 4 6 6 25 4 19 -2 101 -10 183 -17 193
-16 197 -14 197 80 0 69 -41 255 -74 332 -27 64 -32 65 -149 6 -58 -30 -114
-60 -124 -67 -13 -10 -13 -9 2 7 25 26 204 122 227 123 10 0 24 -10 33 -23z
m-3034 -624 c40 -29 51 -32 69 -23 16 9 20 8 20 -5 0 -8 -4 -15 -10 -15 -32 0
-346 -325 -426 -441 l-48 -70 2 -90 c5 -165 28 -311 72 -440 22 -67 39 -124
36 -126 -6 -7 -77 200 -91 267 -28 136 -47 359 -43 495 l4 134 62 60 c34 34
88 100 119 148 43 66 69 94 101 112 24 13 46 21 49 17 3 -3 -7 -10 -23 -16
-43 -17 -61 -36 -120 -126 -28 -44 -77 -108 -108 -142 l-57 -61 3 -90 3 -91
57 72 c32 40 127 144 211 231 148 151 154 158 134 172 -11 8 -25 11 -30 8 -6
-3 -7 -1 -3 5 4 7 -10 22 -34 38 -22 15 -40 28 -40 31 0 6 41 -18 91 -54z
m2780 -59 c-63 -87 -62 -91 62 -239 33 -38 65 -82 72 -96 11 -19 14 -101 16
-350 l2 -324 -28 -100 c-32 -115 -35 -183 -10 -275 31 -118 21 -193 -40 -293
-19 -31 -51 -82 -70 -113 -19 -31 -45 -86 -57 -123 -21 -60 -23 -83 -22 -241
2 -252 18 -304 172 -563 45 -76 75 -137 81 -170 15 -71 31 -223 30 -272 -1
-28 -4 -19 -10 30 -32 270 -33 275 -130 438 -122 204 -140 257 -159 454 -19
212 13 347 125 518 90 138 102 204 65 344 -26 98 -25 115 10 256 l30 120 0
316 0 316 -26 39 c-15 21 -52 70 -84 109 -91 112 -94 117 -77 157 15 35 79
127 86 122 1 -1 -15 -28 -38 -60z m-4661 -44 c0 -32 51 -182 81 -240 26 -50
29 -64 29 -152 0 -113 11 -120 59 -36 l28 49 6 -53 c4 -29 16 -65 27 -80 41
-55 28 -61 -132 -68 -113 -4 -130 -7 -149 -26 -20 -21 -20 -22 -4 -55 10 -19
61 -79 114 -134 54 -55 110 -122 126 -150 15 -27 39 -68 52 -90 19 -31 10 -24
-38 30 -35 39 -102 111 -150 160 -101 105 -149 176 -149 221 0 19 16 59 40
100 45 78 55 109 65 208 4 38 10 78 14 89 4 12 -2 61 -16 116 -25 103 -29 146
-13 136 6 -3 10 -15 10 -25z m4685 -48 c16 -26 67 -86 113 -134 l83 -86 6
-119 c7 -143 7 -121 -5 -223 -6 -50 -7 -106 -2 -135 15 -89 11 -158 -15 -246
-57 -187 -59 -209 -36 -315 27 -122 27 -212 1 -264 -11 -21 -24 -41 -30 -45
-18 -11 -89 -140 -110 -199 -33 -98 -39 -161 -30 -356 9 -216 9 -214 130 -433
100 -182 115 -224 129 -368 7 -63 13 -129 16 -147 2 -17 0 -32 -4 -32 -4 0
-11 39 -15 87 -14 198 -24 238 -92 367 -35 67 -87 167 -115 224 l-52 102 -10
186 c-16 284 2 358 133 563 65 102 72 153 41 284 -28 118 -27 162 9 287 30
101 30 109 24 245 -4 94 -3 159 5 197 14 66 17 293 5 325 -5 12 -36 50 -70 85
-87 91 -167 198 -147 198 4 0 21 -21 38 -48z m-4435 -237 c40 -57 185 -307
270 -465 40 -74 82 -150 95 -170 41 -67 86 -150 81 -150 -4 0 -124 197 -233
385 -23 39 -79 122 -125 185 -90 122 -161 246 -172 295 l-6 30 31 -35 c17 -19
43 -53 59 -75z m6297 3 c132 -141 151 -213 89 -336 -20 -39 -36 -85 -36 -101
0 -17 21 -69 46 -117 25 -48 88 -188 140 -313 52 -124 109 -251 127 -281 54
-90 60 -110 63 -215 3 -114 38 -403 59 -485 8 -30 17 -79 21 -109 9 -72 -9
-60 -25 16 -25 113 -127 175 -326 197 -92 10 -116 17 -150 40 -35 24 -47 27
-97 24 -32 -2 -58 -3 -58 -1 0 8 76 33 102 33 16 0 64 -9 106 -19 43 -11 119
-29 170 -40 123 -27 179 -52 188 -85 8 -32 24 -34 23 -3 -1 35 -47 205 -48
177 0 -14 5 -51 13 -82 7 -32 12 -58 10 -58 -2 0 -12 20 -22 44 -21 47 -59 68
-116 63 -28 -2 -29 0 -71 123 -35 102 -49 130 -79 157 -32 29 -33 33 -14 33
34 0 97 -35 172 -95 72 -57 89 -59 98 -11 2 15 -8 22 -47 36 -27 9 -85 40
-127 67 -102 67 -115 70 -185 35 -75 -38 -133 -59 -212 -76 -73 -17 -70 -9 9
23 30 13 94 45 142 72 48 27 97 49 108 49 24 0 100 -37 157 -76 21 -14 64 -39
97 -56 71 -36 80 -29 71 52 -6 62 -43 145 -78 178 -13 12 -73 37 -139 57 -64
19 -137 44 -163 55 -26 11 -53 20 -60 20 -7 0 -43 -43 -81 -96 -74 -105 -103
-132 -178 -172 -50 -27 -55 -27 -291 -33 l-240 -6 -128 -51 c-191 -77 -237
-70 -237 40 0 73 18 116 63 154 20 16 40 42 46 57 17 43 13 128 -7 166 -25 50
-44 52 -26 4 15 -42 19 -143 5 -127 -10 11 -31 116 -31 156 0 34 21 37 50 8
30 -30 40 -63 40 -131 0 -71 -16 -114 -60 -154 -45 -42 -60 -76 -60 -133 0
-66 16 -80 76 -64 53 14 208 90 272 133 l47 31 -40 -42 -40 -43 30 9 c17 5
130 9 251 9 l222 0 56 39 c105 72 171 165 186 262 5 33 14 95 20 139 6 44 18
105 26 136 7 30 20 101 28 156 11 79 21 114 45 156 34 60 41 88 16 67 -8 -7
-25 -40 -37 -74 l-23 -61 -3 45 c-6 82 4 108 56 140 66 41 72 47 72 76 0 34
-28 85 -94 173 -31 41 -56 78 -56 83 0 18 20 5 67 -44z m-6556 -601 c16 -60 2
-105 -39 -127 l-33 -18 23 -22 c35 -34 90 -55 228 -90 230 -58 320 -117 478
-316 51 -64 84 -96 112 -109 22 -10 38 -20 35 -23 -7 -7 -69 20 -82 36 -11 14
-13 13 -13 -4 0 -23 -48 -102 -75 -124 -10 -8 -2 6 17 32 52 68 57 100 22 146
-58 76 -190 205 -254 247 -85 56 -120 70 -265 106 -66 17 -159 48 -206 70 -80
38 -88 40 -127 30 -48 -13 -57 -27 -65 -96 -7 -66 -70 -260 -113 -352 -19 -40
-34 -77 -34 -83 0 -5 9 -36 19 -67 11 -32 21 -69 23 -83 2 -19 8 -24 25 -22
21 3 21 2 7 -44 -8 -26 -12 -49 -10 -51 6 -6 66 70 66 84 0 7 -7 13 -16 13
-12 0 -10 7 10 31 14 17 26 43 26 58 0 36 -52 109 -88 122 l-27 11 24 16 c12
10 42 33 65 53 22 20 51 41 63 48 13 6 125 21 250 32 249 23 303 32 303 54 0
24 -31 32 -154 39 -66 3 -135 9 -155 12 -37 6 -39 9 -80 108 -2 5 18 -6 44
-24 58 -40 135 -65 230 -75 73 -7 119 -25 128 -48 15 -38 -28 -53 -222 -78
-190 -25 -273 -42 -306 -63 -26 -17 -70 -92 -57 -99 4 -3 30 -8 57 -12 28 -4
76 -18 107 -31 44 -18 90 -27 185 -34 149 -12 264 -27 313 -41 19 -6 89 -37
155 -69 66 -32 150 -70 187 -85 37 -15 97 -47 133 -71 36 -24 69 -44 74 -44 4
0 12 15 17 33 6 20 23 41 47 56 30 20 41 36 53 78 16 53 34 79 34 46 -1 -36
-38 -100 -79 -135 -22 -19 -41 -40 -41 -46 0 -7 -9 -21 -20 -32 -20 -20 -20
-20 -77 17 -32 20 -123 67 -203 104 -80 36 -178 82 -217 103 -55 27 -85 36
-123 36 -56 0 -71 -23 -22 -34 35 -8 58 -28 109 -97 l41 -56 -51 -2 c-159 -5
-361 -23 -408 -37 -45 -13 -66 -28 -129 -93 -114 -118 -143 -175 -230 -457
-26 -84 -41 -113 -86 -169 -80 -101 -80 -131 -2 -289 18 -34 24 -56 16 -54
-17 6 -74 101 -98 167 -28 73 -18 105 71 226 41 55 62 104 118 270 43 131 118
272 172 326 39 39 39 39 12 33 -16 -4 -45 -15 -66 -26 -21 -10 -43 -18 -50
-17 -30 5 -132 -56 -200 -120 -58 -54 -81 -105 -72 -160 3 -25 7 -55 7 -66 1
-11 10 -53 20 -94 21 -85 22 -99 9 -85 -19 18 -63 210 -64 279 -2 63 2 76 32
130 18 33 44 89 56 125 13 36 38 97 56 137 l32 72 -26 78 c-33 97 -33 115 -1
200 78 203 114 320 114 370 0 59 10 72 80 108 40 20 53 34 74 79 14 30 26 57
26 59 0 3 7 22 16 43 l16 39 19 -24 c10 -12 24 -42 30 -64z m1378 -197 c-6
-47 -20 -111 -31 -143 -27 -84 -95 -236 -124 -281 -26 -39 -29 -74 -9 -131 6
-19 6 -19 -9 -1 -8 10 -18 39 -22 63 -6 39 -3 49 26 89 41 58 106 208 132 304
12 48 22 127 26 220 l6 145 9 -90 c5 -60 4 -118 -4 -175z m3665 43 c8 -191 17
-240 61 -330 33 -67 35 -78 35 -171 0 -100 16 -180 43 -210 9 -11 20 -74 32
-177 24 -225 39 -307 79 -416 37 -102 96 -338 120 -479 19 -115 31 -345 18
-354 -14 -8 -17 10 -51 270 -17 127 -40 257 -51 290 l-19 59 4 -60 c2 -33 -3
-95 -11 -138 -10 -51 -14 -124 -12 -212 l3 -134 -27 -28 c-15 -15 -30 -24 -34
-20 -3 3 -10 27 -15 52 -5 25 -24 78 -43 117 -22 45 -39 100 -45 143 -20 140
-31 254 -31 311 -1 33 -8 77 -16 99 -44 114 -47 133 -35 229 7 50 26 147 43
216 39 160 43 272 11 380 -12 41 -29 116 -37 165 -9 50 -20 110 -26 135 -12
54 -24 476 -12 440 5 -14 12 -94 16 -177z m-2564 -41 c-5 -18 -12 -56 -15 -85
-4 -28 -17 -137 -31 -242 -13 -104 -24 -198 -24 -208 0 -10 -4 -16 -8 -13 -4
3 -7 -8 -6 -25 1 -16 -2 -29 -7 -29 -14 0 -11 46 11 158 26 132 26 136 -1 122
-11 -6 -59 -41 -106 -77 -81 -61 -87 -64 -100 -47 -7 10 -13 32 -13 50 0 28
12 43 88 112 48 44 106 95 129 114 30 24 44 43 48 68 8 49 36 143 41 138 2 -3
0 -19 -6 -36z m-915 -159 c-26 -103 -27 -114 -21 -263 6 -117 12 -168 28 -210
61 -166 78 -258 78 -413 -1 -173 -33 -268 -140 -400 -81 -102 -94 -152 -87
-342 5 -146 24 -231 67 -305 l21 -35 -26 30 c-49 58 -67 135 -72 305 -8 229
-2 250 109 387 96 116 129 258 110 465 -12 122 -29 198 -72 313 -19 50 -24 86
-27 220 -5 142 -3 169 17 245 12 47 25 96 28 110 3 14 7 19 10 12 2 -7 -8 -61
-23 -119z m4755 34 c-22 -113 -123 -257 -181 -257 -53 0 -41 38 58 180 114
166 117 170 125 149 4 -11 3 -43 -2 -72z m-4696 -45 c-18 -69 -18 -78 -12
-292 4 -124 7 -141 35 -205 50 -114 64 -173 70 -295 9 -207 -35 -370 -138
-500 -66 -83 -81 -128 -87 -256 -5 -125 9 -212 59 -348 38 -105 36 -122 -2
-26 -52 127 -69 211 -69 340 0 150 14 196 95 311 100 141 127 237 127 449 1
135 -9 182 -63 309 -36 84 -40 101 -39 170 1 42 -1 117 -5 168 -7 79 -5 103
16 183 13 51 26 84 28 75 1 -10 -5 -48 -15 -83z m4998 -91 c144 -49 233 -121
292 -239 16 -31 15 -30 -31 14 -68 66 -125 102 -217 141 -81 34 -136 75 -136
100 0 16 -8 18 92 -16z m-5281 -381 c3 -152 -9 -237 -80 -575 -30 -141 -65
-377 -80 -535 l-8 -85 -2 65 c-1 73 32 363 55 485 9 44 29 134 46 200 29 112
31 133 32 315 1 107 6 247 11 310 l10 115 7 -90 c3 -49 8 -142 9 -205z m4369
55 c0 -3 -35 -23 -79 -44 -70 -36 -131 -87 -131 -112 0 -4 12 -16 26 -26 63
-41 224 -4 471 108 86 38 157 68 159 66 11 -10 -263 -139 -361 -170 -183 -58
-259 -58 -305 0 -47 60 -5 111 125 152 50 16 91 30 93 30 1 1 2 -1 2 -4z
m1013 -66 c3 -11 3 -27 0 -35 -9 -25 -126 -74 -228 -95 -55 -12 -138 -36 -185
-54 -47 -18 -124 -42 -170 -53 -47 -12 -118 -32 -157 -45 -40 -14 -73 -23 -73
-20 0 10 111 54 200 79 159 45 455 161 522 203 72 47 84 49 91 20z m-5999
-343 c73 -26 148 -72 189 -114 39 -40 146 -264 149 -309 1 -21 1 -65 -1 -98
-3 -56 -4 -57 -11 -23 -14 76 -123 213 -206 260 -65 36 -83 55 -51 54 12 -1
24 -4 27 -7 3 -3 33 -30 68 -58 35 -29 83 -84 110 -123 36 -55 48 -67 50 -51
4 28 -30 126 -82 237 -49 104 -92 149 -193 197 -96 46 -141 47 -248 9 -50 -17
-140 -47 -200 -65 -128 -40 -260 -97 -293 -128 -13 -12 -37 -46 -55 -77 -17
-30 -50 -84 -73 -120 -69 -108 -130 -237 -184 -390 -58 -165 -61 -201 -31
-325 22 -90 8 -83 -31 14 -32 83 -30 178 6 256 15 33 40 94 56 135 43 114 135
300 170 345 18 22 50 66 72 98 22 32 61 74 88 93 39 28 52 45 65 85 9 27 21
47 25 44 5 -3 2 -24 -6 -47 -7 -22 -14 -42 -14 -44 0 -3 22 7 49 20 27 14 100
41 163 60 133 40 229 75 243 87 17 16 83 9 149 -15z m6056 -54 c37 -18 88 -60
155 -128 61 -62 132 -121 182 -153 65 -41 86 -61 102 -95 26 -53 26 -82 0
-148 -17 -45 -20 -71 -18 -192 2 -151 -5 -185 -57 -273 -26 -45 -74 -83 -59
-47 45 109 42 148 -20 307 -59 151 -174 419 -187 434 -6 7 -69 31 -142 54 -72
23 -133 43 -136 46 -15 14 40 33 94 33 61 0 85 -10 191 -74 62 -38 -37 42
-125 101 -114 76 -169 100 -270 116 l-85 15 116 1 c136 1 154 -6 304 -118 135
-101 162 -130 176 -186 10 -38 28 -65 81 -122 37 -41 68 -79 68 -84 0 -25 21
7 34 52 21 70 10 87 -103 160 -53 35 -127 95 -166 134 -40 40 -104 91 -150
118 -44 26 -91 56 -105 68 l-25 21 45 -7 c25 -3 70 -18 100 -33z m-540 -18
c-126 -20 -198 -58 -268 -143 -34 -42 -41 -56 -30 -63 9 -7 6 -8 -10 -5 -41 9
-111 -23 -172 -80 -71 -65 -79 -93 -57 -190 18 -77 31 -190 21 -181 -8 9 -53
236 -54 271 0 42 116 160 179 183 30 11 72 42 121 90 99 95 157 122 260 122
23 -1 26 -2 10 -4z m-50 -317 c117 -42 259 -134 395 -259 39 -35 110 -94 157
-131 132 -103 179 -166 197 -263 11 -56 5 -51 -25 22 -34 84 -68 127 -153 192
-42 33 -128 105 -191 161 -192 171 -357 268 -470 278 -50 5 -59 2 -107 -30
-28 -19 -79 -51 -113 -72 -33 -20 -74 -48 -91 -62 l-31 -26 7 -81 c8 -98 -4
-157 -45 -223 -16 -26 -38 -79 -47 -118 l-18 -70 -3 43 c-3 43 15 90 73 192
24 42 26 53 24 156 -1 61 1 116 5 123 5 7 69 52 144 101 157 103 177 107 292
67z m-5478 -258 c-145 -14 -258 -59 -429 -171 -110 -72 -161 -139 -215 -283
l-18 -50 5 45 c7 59 55 155 105 212 22 26 77 70 122 98 171 110 311 159 453
158 56 -1 54 -1 -23 -9z"/>
<path d="M6014 8965 c3 -38 17 -109 30 -157 21 -78 30 -95 81 -150 68 -75 207
-282 265 -393 49 -93 48 -91 -19 80 -48 123 -66 157 -153 282 -20 29 -48 85
-63 125 -27 70 -103 222 -133 263 -13 18 -14 13 -8 -50z"/>
<path d="M6000 8502 c-11 -86 -11 -102 2 -120 43 -62 188 -217 237 -254 126
-95 225 -185 288 -262 85 -104 91 -109 63 -61 -13 22 -47 67 -75 100 -84 98
-249 306 -284 357 -17 27 -44 54 -59 62 -44 23 -61 49 -112 166 l-48 110 -12
-98z"/>
<path d="M7647 4888 c-41 -66 -313 -587 -326 -623 -2 -5 10 9 25 32 27 39 135
187 289 396 68 93 74 111 53 178 -13 45 -22 48 -41 17z"/>
<path d="M7673 4636 c-12 -15 -37 -64 -54 -109 -30 -77 -33 -93 -40 -252 -10
-250 -23 -283 -183 -484 -172 -214 -216 -320 -256 -613 -14 -105 -35 -121 -25
-20 25 252 99 446 234 617 129 163 169 272 176 478 4 133 4 134 52 240 19 43
33 81 30 83 -12 13 -89 -116 -108 -181 -39 -130 -140 -320 -232 -435 -60 -75
-104 -144 -150 -235 -36 -72 -93 -168 -126 -215 -72 -100 -81 -128 -112 -350
l-23 -165 59 -110 c83 -158 95 -172 163 -191 31 -9 74 -29 95 -44 33 -24 43
-27 67 -18 16 5 40 21 54 34 15 15 27 21 31 14 10 -16 -2 -27 -73 -69 -76 -44
-149 -117 -181 -180 l-21 -41 23 0 c13 0 46 6 73 14 27 8 99 24 159 36 131 25
134 26 350 102 228 80 256 96 324 188 30 41 84 106 119 144 l64 68 -29 30
c-40 42 -95 68 -146 68 -57 0 -257 -68 -359 -123 -43 -22 -121 -74 -175 -115
-143 -108 -137 -105 -250 -91 -53 6 -89 15 -82 19 8 4 53 10 101 13 105 7 149
25 261 105 87 64 151 97 342 183 155 69 183 70 283 10 76 -45 108 -51 50 -9
-58 43 -192 116 -246 133 -50 17 -53 17 -144 -9 -51 -15 -116 -38 -145 -51
-28 -13 -54 -21 -57 -17 -11 10 -6 37 12 69 20 38 72 79 252 203 74 51 148
108 165 127 39 47 205 369 205 400 0 13 -6 36 -14 51 -16 30 -170 182 -185
182 -5 0 -12 -19 -16 -42 l-7 -42 -23 63 c-18 49 -107 201 -118 201 -1 0 -1
-73 1 -162 2 -140 0 -168 -15 -198 -13 -26 -26 -36 -47 -38 -28 -3 -29 -3 -21
30 18 82 24 128 23 198 l0 75 -19 -115 c-20 -129 -31 -160 -55 -160 -13 0 -15
7 -11 33 37 201 37 200 27 303 -6 56 -17 128 -26 160 -12 48 -13 70 -3 129 6
39 10 80 8 90 -4 17 -7 16 -26 -9z"/>
<path d="M8340 2479 c0 -39 47 -124 90 -163 22 -19 61 -46 87 -59 98 -50 100
-43 12 44 -47 46 -109 111 -137 144 -47 54 -52 57 -52 34z"/>
<path d="M1850 1828 c-76 -24 -114 -31 -188 -32 l-94 -1 6 -34 c3 -19 9 -38
14 -43 5 -5 77 7 163 26 85 19 174 37 199 41 25 4 73 16 107 26 46 15 61 23
57 34 -11 28 -154 19 -264 -17z"/>
<path d="M1985 1779 c-71 -17 -168 -38 -215 -49 -83 -19 -238 -89 -290 -131
-14 -12 -20 -18 -13 -15 6 3 22 2 36 -3 13 -5 28 -6 33 -1 13 12 271 68 376
81 51 6 155 14 231 18 l137 6 -34 50 c-34 52 -70 76 -109 74 -12 0 -80 -14
-152 -30z"/>
<path d="M6956 1383 c-16 -39 -33 -106 -39 -155 -11 -86 -10 -92 33 -290 l45
-201 8 184 c7 154 6 203 -9 300 -9 63 -15 141 -12 172 3 31 4 57 3 57 -1 0
-14 -30 -29 -67z"/>
<path d="M4188 2275 c-36 -33 -50 -54 -28 -40 6 3 10 2 10 -3 0 -6 -7 -13 -16
-16 -8 -3 -12 -2 -9 4 17 27 -15 3 -81 -62 -72 -70 -85 -95 -65 -127 7 -10 31
2 109 58 55 39 104 77 110 84 14 16 27 137 16 137 -5 0 -26 -16 -46 -35z"/>
</g>
</svg>
