<svg width="575" height="87" viewBox="0 0 575 87" fill="none" xmlns="http://www.w3.org/2000/svg">
<path d="M55.6941 7.03999L55.8346 6.77494L55.8346 6.77494L55.6941 7.03999ZM71.0541 21.92L70.7926 22.0671L70.7948 22.071L71.0541 21.92ZM71.0541 65.84L70.794 65.6905L70.7926 65.6929L71.0541 65.84ZM55.5741 80.72L55.4349 80.4542L55.4336 80.4549L55.5741 80.72ZM0.854063 86H0.554063V86.3H0.854063V86ZM0.854063 1.76V1.46H0.554063V1.76H0.854063ZM21.3741 19.28V18.98H21.0741V19.28H21.3741ZM21.3741 68.24H21.0741V68.54H21.3741V68.24ZM32.4141 2.06C41.254 2.06 48.9641 3.81183 55.5536 7.30505L55.8346 6.77494C49.1441 3.22816 41.3342 1.46 32.4141 1.46V2.06ZM55.5536 7.30505C62.144 10.7988 67.2215 15.7184 70.7926 22.0671L71.3155 21.7729C67.6867 15.3216 62.5241 10.3212 55.8346 6.77494L55.5536 7.30505ZM70.7948 22.071C74.4446 28.3391 76.2741 35.6056 76.2741 43.88H76.8741C76.8741 35.5144 75.0235 28.1409 71.3133 21.769L70.7948 22.071ZM76.2741 43.88C76.2741 52.0738 74.4449 59.3411 70.794 65.6905L71.3141 65.9895C75.0232 59.5389 76.8741 52.1662 76.8741 43.88H76.2741ZM70.7926 65.6929C67.222 72.0406 62.1053 76.9602 55.4349 80.4543L55.7133 80.9857C62.4828 77.4398 67.6861 72.4394 71.3155 65.9871L70.7926 65.6929ZM55.4336 80.4549C48.8437 83.9484 41.1735 85.7 32.4141 85.7V86.3C41.2547 86.3 49.0244 84.5316 55.7146 80.9851L55.4336 80.4549ZM32.4141 85.7H0.854063V86.3H32.4141V85.7ZM1.15406 86V1.76H0.554063V86H1.15406ZM0.854063 2.06H32.4141V1.46H0.854063V2.06ZM31.0941 68.54C38.9095 68.54 45.0335 66.4035 49.4242 62.0941L49.0039 61.6659C44.7546 65.8365 38.7986 67.94 31.0941 67.94V68.54ZM49.4242 62.0941C53.8167 57.7829 55.9941 51.6967 55.9941 43.88H55.3941C55.3941 51.5833 53.2514 57.4971 49.0039 61.6659L49.4242 62.0941ZM55.9941 43.88C55.9941 36.063 53.8166 29.9383 49.4262 25.5479L49.0019 25.9721C53.2515 30.2217 55.3941 36.177 55.3941 43.88H55.9941ZM49.4262 25.5479C45.0358 21.1574 38.911 18.98 31.0941 18.98V19.58C38.7971 19.58 44.7524 21.7226 49.0019 25.9721L49.4262 25.5479ZM31.0941 18.98H21.3741V19.58H31.0941V18.98ZM21.0741 19.28V68.24H21.6741V19.28H21.0741ZM21.3741 68.54H31.0941V67.94H21.3741V68.54ZM108.562 18.2V17.9H108.262V18.2H108.562ZM108.562 35.24H108.262V35.54H108.562V35.24ZM136.042 35.24H136.342V34.94H136.042V35.24ZM136.042 51.08V51.38H136.342V51.08H136.042ZM108.562 51.08V50.78H108.262V51.08H108.562ZM108.562 69.56H108.262V69.86H108.562V69.56ZM139.642 69.56H139.942V69.26H139.642V69.56ZM139.642 86V86.3H139.942V86H139.642ZM88.0416 86H87.7416V86.3H88.0416V86ZM88.0416 1.76V1.46H87.7416V1.76H88.0416ZM139.642 1.76H139.942V1.46H139.642V1.76ZM139.642 18.2V18.5H139.942V18.2H139.642ZM108.262 18.2V35.24H108.862V18.2H108.262ZM108.562 35.54H136.042V34.94H108.562V35.54ZM135.742 35.24V51.08H136.342V35.24H135.742ZM136.042 50.78H108.562V51.38H136.042V50.78ZM108.262 51.08V69.56H108.862V51.08H108.262ZM108.562 69.86H139.642V69.26H108.562V69.86ZM139.342 69.56V86H139.942V69.56H139.342ZM139.642 85.7H88.0416V86.3H139.642V85.7ZM88.3416 86V1.76H87.7416V86H88.3416ZM88.0416 2.06H139.642V1.46H88.0416V2.06ZM139.342 1.76V18.2H139.942V1.76H139.342ZM139.642 17.9H108.562V18.5H139.642V17.9ZM166.883 83.84L166.77 84.1176L166.77 84.1176L166.883 83.84ZM155.123 74.96L154.882 75.1376L154.884 75.1408L155.123 74.96ZM150.563 60.8V60.5H150.255L150.264 60.8087L150.563 60.8ZM172.403 60.8L172.702 60.7694L172.674 60.5H172.403V60.8ZM175.643 68L175.441 68.2216L175.447 68.2264L175.643 68ZM190.043 68.36L190.227 68.5975L190.233 68.5922L190.043 68.36ZM190.523 57.32L190.311 57.5322L190.317 57.5381L190.523 57.32ZM185.363 53.96L185.243 54.2346L185.247 54.2363L185.363 53.96ZM176.723 50.96L176.635 51.2467L176.638 51.2475L176.723 50.96ZM154.523 38.48L154.763 38.2991L154.763 38.2991L154.523 38.48ZM159.323 7.28L159.507 7.51717L159.509 7.51555L159.323 7.28ZM203.963 7.28L203.778 7.51556L203.78 7.51716L203.963 7.28ZM213.083 25.76V26.06H213.399L213.383 25.7449L213.083 25.76ZM190.883 25.76L190.584 25.7776L190.601 26.06H190.883V25.76ZM187.883 19.4L187.687 19.6265L187.692 19.6313L187.883 19.4ZM174.803 19.04L174.997 19.2696L175.003 19.2636L174.803 19.04ZM176.363 31.04L176.517 30.782L176.517 30.782L176.363 31.04ZM188.363 35.96L188.46 35.6758L188.456 35.6746L188.363 35.96ZM201.563 41.24L201.429 41.5083L201.432 41.5096L201.563 41.24ZM210.443 48.56L210.206 48.7438L210.206 48.7438L210.443 48.56ZM210.443 74L210.19 73.8396L210.188 73.8434L210.443 74ZM199.883 83.36L199.749 83.0917L199.749 83.0917L199.883 83.36ZM183.443 86.54C177.316 86.54 171.836 85.5453 166.997 83.5624L166.77 84.1176C171.691 86.1347 177.251 87.14 183.443 87.14V86.54ZM166.997 83.5624C162.163 81.5813 158.288 78.6531 155.363 74.7792L154.884 75.1408C157.879 79.1069 161.844 82.0987 166.77 84.1176L166.997 83.5624ZM155.365 74.7824C152.526 70.9179 151.022 66.2589 150.863 60.7913L150.264 60.8087C150.425 66.3811 151.961 71.1621 154.882 75.1376L155.365 74.7824ZM150.563 61.1H172.403V60.5H150.563V61.1ZM172.105 60.8306C172.431 64.0043 173.534 66.48 175.441 68.2215L175.846 67.7785C174.073 66.16 173.016 63.8357 172.702 60.7694L172.105 60.8306ZM175.447 68.2264C177.352 69.8835 179.827 70.7 182.843 70.7V70.1C179.94 70.1 177.615 69.3165 175.84 67.7736L175.447 68.2264ZM182.843 70.7C185.926 70.7 188.398 70.0106 190.227 68.5974L189.86 68.1226C188.169 69.4294 185.841 70.1 182.843 70.1V70.7ZM190.233 68.5922C192.07 67.0896 192.983 65.0407 192.983 62.48H192.383C192.383 64.8793 191.537 66.7504 189.853 68.1278L190.233 68.5922ZM192.983 62.48C192.983 60.3221 192.233 58.5217 190.729 57.1019L190.317 57.5381C191.694 58.8383 192.383 60.4779 192.383 62.48H192.983ZM190.736 57.1079C189.344 55.7162 187.59 54.5762 185.48 53.6837L185.247 54.2363C187.297 55.1038 188.983 56.2038 190.311 57.5321L190.736 57.1079ZM185.484 53.6854C183.467 52.7979 180.573 51.7937 176.809 50.6725L176.638 51.2475C180.394 52.3663 183.26 53.3621 185.243 54.2346L185.484 53.6854ZM176.812 50.6734C171.38 48.9959 166.956 47.3212 163.535 45.6504L163.272 46.1896C166.731 47.8788 171.187 49.564 176.635 51.2466L176.812 50.6734ZM163.535 45.6504C160.141 43.9926 157.216 41.5443 154.763 38.2991L154.284 38.6609C156.79 41.9757 159.786 44.4874 163.272 46.1896L163.535 45.6504ZM154.763 38.2991C152.332 35.0843 151.103 30.8734 151.103 25.64H150.503C150.503 30.9666 151.755 35.3157 154.284 38.6609L154.763 38.2991ZM151.103 25.64C151.103 17.8831 153.908 11.8546 159.507 7.51716L159.14 7.04283C153.379 11.5054 150.503 17.7169 150.503 25.64H151.103ZM159.509 7.51555C165.124 3.08717 172.453 0.859999 181.523 0.859999V0.259999C172.354 0.259999 164.883 2.51283 159.138 7.04445L159.509 7.51555ZM181.523 0.859999C190.755 0.859999 198.164 3.08786 203.778 7.51555L204.149 7.04445C198.403 2.51214 190.852 0.259999 181.523 0.259999V0.859999ZM203.78 7.51716C209.383 11.8576 212.388 17.9323 212.784 25.7751L213.383 25.7449C212.979 17.7477 209.904 11.5024 204.147 7.04283L203.78 7.51716ZM213.083 25.46H190.883V26.06H213.083V25.46ZM191.183 25.7424C191.019 22.9521 189.988 20.7495 188.075 19.1687L187.692 19.6313C189.459 21.0905 190.428 23.1278 190.584 25.7776L191.183 25.7424ZM188.08 19.1736C186.176 17.5178 183.742 16.7 180.803 16.7V17.3C183.625 17.3 185.911 18.0822 187.687 19.6264L188.08 19.1736ZM180.803 16.7C178.266 16.7 176.19 17.3971 174.603 18.8164L175.003 19.2636C176.457 17.9629 178.381 17.3 180.803 17.3V16.7ZM174.61 18.8105C173.006 20.1613 172.223 22.1354 172.223 24.68H172.823C172.823 22.2646 173.561 20.4787 174.997 19.2695L174.61 18.8105ZM172.223 24.68C172.223 27.5174 173.57 29.7301 176.21 31.298L176.517 30.782C174.037 29.3099 172.823 27.2826 172.823 24.68H172.223ZM176.21 31.298C178.8 32.8354 182.825 34.4836 188.271 36.2454L188.456 35.6746C183.021 33.9164 179.047 32.2845 176.517 30.782L176.21 31.298ZM188.267 36.2442C193.7 38.0818 198.086 39.8368 201.429 41.5083L201.698 40.9717C198.321 39.2832 193.907 37.5182 188.46 35.6758L188.267 36.2442ZM201.432 41.5096C204.828 43.1683 207.753 45.5779 210.206 48.7438L210.681 48.3762C208.174 45.1421 205.179 42.6717 201.695 40.9704L201.432 41.5096ZM210.206 48.7438C212.636 51.8794 213.863 55.9299 213.863 60.92H214.463C214.463 55.8301 213.21 51.6406 210.681 48.3762L210.206 48.7438ZM213.863 60.92C213.863 65.6653 212.638 69.9693 210.19 73.8396L210.697 74.1604C213.208 70.1907 214.463 65.7747 214.463 60.92H213.863ZM210.188 73.8434C207.821 77.7095 204.346 80.7935 199.749 83.0917L200.018 83.6283C204.701 81.2865 208.266 78.1305 210.699 74.1566L210.188 73.8434ZM199.749 83.0917C195.159 85.3868 189.727 86.54 183.443 86.54V87.14C189.8 87.14 195.328 85.9732 200.018 83.6283L199.749 83.0917ZM247.312 1.76H247.612V1.46H247.312V1.76ZM247.312 86V86.3H247.612V86H247.312ZM226.792 86H226.492V86.3H226.792V86ZM226.792 1.76V1.46H226.492V1.76H226.792ZM247.012 1.76V86H247.612V1.76H247.012ZM247.312 85.7H226.792V86.3H247.312V85.7ZM227.092 86V1.76H226.492V86H227.092ZM226.792 2.06H247.312V1.46H226.792V2.06ZM318.102 28.4L317.839 28.5431L317.924 28.7H318.102V28.4ZM311.502 22.04L311.359 22.3038L311.368 22.3083L311.502 22.04ZM285.582 26.36L285.802 26.5638L285.804 26.5618L285.582 26.36ZM285.822 62L285.604 62.2061L285.608 62.2101L285.822 62ZM315.942 64.64L315.766 64.3974L315.763 64.3993L315.942 64.64ZM323.622 53.6L323.907 53.6949L324.038 53.3H323.622V53.6ZM297.582 53.6H297.282V53.9H297.582V53.6ZM297.582 38.48V38.18H297.282V38.48H297.582ZM342.222 38.48H342.522V38.18H342.222V38.48ZM342.222 57.56L342.51 57.6454L342.522 57.6036V57.56H342.222ZM334.422 71.84L334.192 71.6475L334.19 71.65L334.422 71.84ZM320.622 82.52L320.491 82.2501L320.622 82.52ZM279.342 81.2L279.194 81.4609L279.198 81.463L279.342 81.2ZM264.102 65.96L263.84 66.1057L263.841 66.1081L264.102 65.96ZM264.102 21.56L263.841 21.4132L263.84 21.4143L264.102 21.56ZM279.342 6.32L279.488 6.58225L279.49 6.58086L279.342 6.32ZM326.982 8.11999L326.809 8.36469L326.81 8.36563L326.982 8.11999ZM340.782 28.4V28.7H341.17L341.073 28.3247L340.782 28.4ZM318.366 28.2569C316.816 25.4022 314.571 23.2388 311.636 21.7717L311.368 22.3083C314.194 23.7212 316.348 25.7977 317.839 28.5431L318.366 28.2569ZM311.645 21.7763C308.793 20.2281 305.422 19.46 301.542 19.46V20.06C305.342 20.06 308.611 20.8119 311.359 22.3036L311.645 21.7763ZM301.542 19.46C294.829 19.46 289.424 21.688 285.36 26.1582L285.804 26.5618C289.74 22.232 294.976 20.06 301.542 20.06V19.46ZM285.362 26.1562C281.299 30.544 279.282 36.4232 279.282 43.76H279.882C279.882 36.5368 281.865 30.816 285.802 26.5638L285.362 26.1562ZM279.282 43.76C279.282 51.5742 281.378 57.736 285.604 62.2061L286.04 61.7939C281.946 57.464 279.882 51.4658 279.882 43.76H279.282ZM285.608 62.2101C289.916 66.5997 295.8 68.78 303.222 68.78V68.18C295.924 68.18 290.208 66.0403 286.036 61.7899L285.608 62.2101ZM303.222 68.78C308.315 68.78 312.621 67.4856 316.121 64.8807L315.763 64.3993C312.384 66.9144 308.209 68.18 303.222 68.18V68.78ZM316.119 64.8826C319.697 62.2801 322.29 58.5442 323.907 53.6949L323.338 53.5051C321.754 58.2558 319.227 61.8799 315.766 64.3974L316.119 64.8826ZM323.622 53.3H297.582V53.9H323.622V53.3ZM297.882 53.6V38.48H297.282V53.6H297.882ZM297.582 38.78H342.222V38.18H297.582V38.78ZM341.922 38.48V57.56H342.522V38.48H341.922ZM341.935 57.4746C340.427 62.5525 337.848 67.2766 334.192 71.6475L334.652 72.0325C338.357 67.6034 340.977 62.8075 342.51 57.6454L341.935 57.4746ZM334.19 71.65C330.62 76.0133 326.056 79.5473 320.491 82.2501L320.753 82.7899C326.389 80.0527 331.024 76.4667 334.654 72.03L334.19 71.65ZM320.491 82.2501C314.937 84.9479 308.663 86.3 301.662 86.3V86.9C308.742 86.9 315.107 85.5321 320.753 82.7899L320.491 82.2501ZM301.662 86.3C293.387 86.3 285.997 84.5101 279.487 80.937L279.198 81.463C285.807 85.0899 293.297 86.9 301.662 86.9V86.3ZM279.49 80.9391C273.057 77.2859 268.016 72.2448 264.363 65.8119L263.841 66.1081C267.548 72.6352 272.667 77.7541 279.194 81.4609L279.49 80.9391ZM264.364 65.8143C260.792 59.3841 259.002 52.0354 259.002 43.76H258.402C258.402 52.1246 260.212 59.5759 263.84 66.1057L264.364 65.8143ZM259.002 43.76C259.002 35.4846 260.792 28.1359 264.364 21.7057L263.84 21.4143C260.212 27.9441 258.402 35.3954 258.402 43.76H259.002ZM264.364 21.7068C268.017 15.1945 273.057 10.1548 279.488 6.58224L279.196 6.05775C272.667 9.68517 267.547 14.8055 263.841 21.4132L264.364 21.7068ZM279.49 6.58086C285.92 2.9294 293.268 1.1 301.542 1.1V0.499995C293.176 0.499995 285.724 2.35059 279.194 6.05913L279.49 6.58086ZM301.542 1.1C311.572 1.1 319.989 3.52724 326.809 8.36469L327.156 7.8753C320.216 2.95275 311.672 0.499995 301.542 0.499995V1.1ZM326.81 8.36563C333.708 13.2025 338.269 19.9006 340.492 28.4753L341.073 28.3247C338.816 19.6194 334.176 12.7975 327.154 7.87436L326.81 8.36563ZM340.782 28.1H318.102V28.7H340.782V28.1ZM428.948 86V86.3H429.248V86H428.948ZM408.428 86L408.178 86.1653L408.267 86.3H408.428V86ZM374.108 34.04L374.359 33.8747L373.808 33.0415V34.04H374.108ZM374.108 86V86.3H374.408V86H374.108ZM353.588 86H353.288V86.3H353.588V86ZM353.588 1.76V1.46H353.288V1.76H353.588ZM374.108 1.76L374.359 1.59519L374.27 1.46H374.108V1.76ZM408.428 53.96L408.178 54.1248L408.728 54.9624V53.96H408.428ZM408.428 1.76V1.46H408.128V1.76H408.428ZM428.948 1.76H429.248V1.46H428.948V1.76ZM428.948 85.7H408.428V86.3H428.948V85.7ZM408.679 85.8347L374.359 33.8747L373.858 34.2053L408.178 86.1653L408.679 85.8347ZM373.808 34.04V86H374.408V34.04H373.808ZM374.108 85.7H353.588V86.3H374.108V85.7ZM353.888 86V1.76H353.288V86H353.888ZM353.588 2.06H374.108V1.46H353.588V2.06ZM373.858 1.92481L408.178 54.1248L408.679 53.7952L374.359 1.59519L373.858 1.92481ZM408.728 53.96V1.76H408.128V53.96H408.728ZM408.428 2.06H428.948V1.46H408.428V2.06ZM428.648 1.76V86H429.248V1.76H428.648ZM464.343 18.2V17.9H464.043V18.2H464.343ZM464.343 35.24H464.043V35.54H464.343V35.24ZM491.823 35.24H492.123V34.94H491.823V35.24ZM491.823 51.08V51.38H492.123V51.08H491.823ZM464.343 51.08V50.78H464.043V51.08H464.343ZM464.343 69.56H464.043V69.86H464.343V69.56ZM495.423 69.56H495.723V69.26H495.423V69.56ZM495.423 86V86.3H495.723V86H495.423ZM443.823 86H443.523V86.3H443.823V86ZM443.823 1.76V1.46H443.523V1.76H443.823ZM495.423 1.76H495.723V1.46H495.423V1.76ZM495.423 18.2V18.5H495.723V18.2H495.423ZM464.043 18.2V35.24H464.643V18.2H464.043ZM464.343 35.54H491.823V34.94H464.343V35.54ZM491.523 35.24V51.08H492.123V35.24H491.523ZM491.823 50.78H464.343V51.38H491.823V50.78ZM464.043 51.08V69.56H464.643V51.08H464.043ZM464.343 69.86H495.423V69.26H464.343V69.86ZM495.123 69.56V86H495.723V69.56H495.123ZM495.423 85.7H443.823V86.3H495.423V85.7ZM444.123 86V1.76H443.523V86H444.123ZM443.823 2.06H495.423V1.46H443.823V2.06ZM495.123 1.76V18.2H495.723V1.76H495.123ZM495.423 17.9H464.343V18.5H495.423V17.9ZM551.705 86L551.442 86.1448L551.527 86.3H551.705V86ZM534.185 54.2L534.447 54.0552L534.362 53.9H534.185V54.2ZM529.265 54.2V53.9H528.965V54.2H529.265ZM529.265 86V86.3H529.565V86H529.265ZM508.745 86H508.445V86.3H508.745V86ZM508.745 1.76V1.46H508.445V1.76H508.745ZM560.105 5.24L559.971 5.50833L559.972 5.50923L560.105 5.24ZM570.665 14.84L570.404 14.9883L570.405 14.9905L570.665 14.84ZM569.345 43.28L569.102 43.1035L569.1 43.1065L569.345 43.28ZM555.425 52.64L555.339 52.3525L554.974 52.4617L555.165 52.791L555.425 52.64ZM574.865 86V86.3H575.387L575.124 85.849L574.865 86ZM529.265 39.68H528.965V39.98H529.265V39.68ZM550.385 36.92L550.177 36.7034L550.173 36.7079L550.385 36.92ZM550.385 21.56L550.173 21.7722L550.177 21.7766L550.385 21.56ZM529.265 18.8V18.5H528.965V18.8H529.265ZM551.967 85.8552L534.447 54.0552L533.922 54.3448L551.442 86.1448L551.967 85.8552ZM534.185 53.9H529.265V54.5H534.185V53.9ZM528.965 54.2V86H529.565V54.2H528.965ZM529.265 85.7H508.745V86.3H529.265V85.7ZM509.045 86V1.76H508.445V86H509.045ZM508.745 2.06H543.185V1.46H508.745V2.06ZM543.185 2.06C549.791 2.06 555.382 3.21415 559.971 5.50832L560.239 4.97167C555.547 2.62584 549.859 1.46 543.185 1.46V2.06ZM559.972 5.50923C564.645 7.80602 568.117 10.9667 570.404 14.9883L570.925 14.6917C568.572 10.5532 565.004 7.31397 560.237 4.97076L559.972 5.50923ZM570.405 14.9905C572.697 18.9415 573.845 23.3689 573.845 28.28H574.445C574.445 23.2711 573.273 18.7385 570.924 14.6895L570.405 14.9905ZM573.845 28.28C573.845 33.8186 572.264 38.7564 569.102 43.1035L569.587 43.4565C572.826 39.0036 574.445 33.9414 574.445 28.28H573.845ZM569.1 43.1065C566.026 47.4419 561.447 50.5279 555.339 52.3525L555.511 52.9274C561.722 51.0721 566.424 47.9181 569.589 43.4535L569.1 43.1065ZM555.165 52.791L574.605 86.151L575.124 85.849L555.684 52.489L555.165 52.791ZM574.865 85.7H551.705V86.3H574.865V85.7ZM529.265 39.98H541.985V39.38H529.265V39.98ZM541.985 39.98C545.789 39.98 548.68 39.0493 550.597 37.1321L550.173 36.7079C548.41 38.4707 545.701 39.38 541.985 39.38V39.98ZM550.592 37.1366C552.586 35.226 553.565 32.5389 553.565 29.12H552.965C552.965 32.4211 552.023 34.934 550.177 36.7034L550.592 37.1366ZM553.565 29.12C553.565 25.8561 552.583 23.2513 550.592 21.3434L550.177 21.7766C552.026 23.5487 552.965 25.9839 552.965 29.12H553.565ZM550.597 21.3479C548.68 19.4307 545.789 18.5 541.985 18.5V19.1C545.701 19.1 548.41 20.0093 550.173 21.7721L550.597 21.3479ZM541.985 18.5H529.265V19.1H541.985V18.5ZM528.965 18.8V39.68H529.565V18.8H528.965Z" fill="white"/>
</svg>
