<svg width="1440" height="1024" viewBox="0 0 1440 1024" fill="none" xmlns="http://www.w3.org/2000/svg">
<g clip-path="url(#clip0_42_61)">
<mask id="mask0_42_61" style="mask-type:luminance" maskUnits="userSpaceOnUse" x="0" y="0" width="1440" height="1024">
<path d="M1440 0H0V1024H1440V0Z" fill="white"/>
</mask>
<g mask="url(#mask0_42_61)">
<path d="M1440 0H0V1024H1440V0Z" fill="black"/>
<path d="M1292.96 985.525C1282.92 987.957 1272.82 990.508 1262.67 993.069C1146.21 1022.5 1025.77 1052.93 923.774 920.971C862.902 842.224 815.763 712.48 770.175 587.007C732.476 483.245 693.49 375.944 646.645 296.61C552.971 137.957 432.789 101.644 338.554 87.7362C314.652 84.2095 290.259 81.7127 266.668 79.3023C184.158 70.8576 98.839 62.1326 18.2158 7.64667C14.5544 5.17151 10.9692 2.60997 7.43022 0H0C5.72105 4.465 11.5878 8.75748 17.6408 12.8504C98.5036 67.4981 183.947 76.2339 266.578 84.684C290.159 87.0998 314.543 89.5966 338.424 93.118C432.379 106.988 552.182 143.155 645.417 301.059C692.046 380.032 730.941 487.09 768.557 590.615C814.274 716.444 861.545 846.554 922.766 925.754C1025.34 1058.45 1146.11 1027.94 1262.9 998.435C1273.04 995.873 1283.13 993.323 1293.18 990.89C1339.25 979.733 1389.88 972.416 1440 981.416V976.002C1389.79 967.018 1339.1 974.352 1292.96 985.525Z" fill="white"/>
</g>
<path d="M-4.84245 907.012L-0.350687 910.48L-3.81797 914.971L-8.30955 911.504L-4.84245 907.012Z" fill="#8B8F91"/>
<path d="M1361.11 102.112L1361.11 95L1354 95L1354 102.112L1361.11 102.112Z" stroke="#8B8F91" stroke-width="1.43764" stroke-miterlimit="10"/>
<path d="M1361.11 156.475L1361.11 149.36L1354 149.36L1354 156.475L1361.11 156.475Z" stroke="#8B8F91" stroke-width="1.43764" stroke-miterlimit="10"/>
<path d="M1361.11 210.835L1361.11 203.722L1354 203.722L1354 210.835L1361.11 210.835Z" stroke="#8B8F91" stroke-width="1.43764" stroke-miterlimit="10"/>
<path d="M1361.11 265.197L1361.11 258.084L1354 258.084L1354 265.197L1361.11 265.197Z" stroke="#8B8F91" stroke-width="1.43764" stroke-miterlimit="10"/>
<path d="M1361.11 319.559L1361.11 312.445L1354 312.445L1354 319.559L1361.11 319.559Z" stroke="#FFDA00" stroke-width="1.43764" stroke-miterlimit="10"/>
<path d="M1361.11 373.919L1361.11 366.807L1354 366.807L1354 373.919L1361.11 373.919Z" stroke="#8B8F91" stroke-width="1.43764" stroke-miterlimit="10"/>
<path d="M1400.74 102.112L1400.74 95L1393.63 95L1393.63 102.112L1400.74 102.112Z" stroke="#8B8F91" stroke-width="1.43764" stroke-miterlimit="10"/>
<path d="M1400.74 156.475L1400.74 149.36L1393.63 149.36L1393.63 156.475L1400.74 156.475Z" stroke="#FFDA00" stroke-width="1.43764" stroke-miterlimit="10"/>
<path d="M1400.74 210.835L1400.74 203.722L1393.63 203.722L1393.63 210.835L1400.74 210.835Z" stroke="#8B8F91" stroke-width="1.43764" stroke-miterlimit="10"/>
<path d="M1400.74 265.197L1400.74 258.084L1393.63 258.084L1393.63 265.197L1400.74 265.197Z" stroke="#8B8F91" stroke-width="1.43764" stroke-miterlimit="10"/>
<path d="M1400.74 319.559L1400.74 312.445L1393.63 312.445L1393.63 319.559L1400.74 319.559Z" stroke="#8B8F91" stroke-width="1.43764" stroke-miterlimit="10"/>
<path d="M1400.74 373.919L1400.74 366.807L1393.63 366.807L1393.63 373.919L1400.74 373.919Z" stroke="#8B8F91" stroke-width="1.43764" stroke-miterlimit="10"/>
<path d="M1440.37 102.112L1440.37 95L1433.26 95L1433.26 102.112L1440.37 102.112Z" stroke="#8B8F91" stroke-width="1.43764" stroke-miterlimit="10"/>
<path d="M1440.37 156.475L1440.37 149.36L1433.26 149.36L1433.26 156.475L1440.37 156.475Z" stroke="#8B8F91" stroke-width="1.43764" stroke-miterlimit="10"/>
<path d="M1440.37 210.835L1440.37 203.722L1433.26 203.722L1433.26 210.835L1440.37 210.835Z" stroke="#8B8F91" stroke-width="1.43764" stroke-miterlimit="10"/>
<path d="M1440.37 265.197L1440.37 258.084L1433.26 258.084L1433.26 265.197L1440.37 265.197Z" stroke="#FFDA00" stroke-width="1.43764" stroke-miterlimit="10"/>
<path d="M1440.37 319.559L1440.37 312.445L1433.26 312.445L1433.26 319.559L1440.37 319.559Z" stroke="#8B8F91" stroke-width="1.43764" stroke-miterlimit="10"/>
<path d="M1440.37 373.919L1440.37 366.807L1433.26 366.807L1433.26 373.919L1440.37 373.919Z" stroke="#8B8F91" stroke-width="1.43764" stroke-miterlimit="10"/>
<path d="M20.1143 565.112L20.1143 558L13 558L13 565.112L20.1143 565.112Z" stroke="#8B8F91" stroke-width="1.43764" stroke-miterlimit="10"/>
<path d="M20.1143 619.475L20.1143 612.36L13 612.36L13 619.475L20.1143 619.475Z" stroke="#8B8F91" stroke-width="1.43764" stroke-miterlimit="10"/>
<path d="M20.1143 673.835L20.1143 666.722L13 666.722L13 673.835L20.1143 673.835Z" stroke="#8B8F91" stroke-width="1.43764" stroke-miterlimit="10"/>
<path d="M20.1143 728.197L20.1143 721.084L13 721.084L13 728.197L20.1143 728.197Z" stroke="#8B8F91" stroke-width="1.43764" stroke-miterlimit="10"/>
<path d="M20.1143 782.559L20.1143 775.445L13 775.445L13 782.559L20.1143 782.559Z" stroke="#FFDA00" stroke-width="1.43764" stroke-miterlimit="10"/>
<path d="M20.1143 836.919L20.1143 829.807L13 829.807L13 836.919L20.1143 836.919Z" stroke="#8B8F91" stroke-width="1.43764" stroke-miterlimit="10"/>
<path d="M59.7407 565.112L59.7407 558L52.6283 558L52.6283 565.112L59.7407 565.112Z" stroke="#8B8F91" stroke-width="1.43764" stroke-miterlimit="10"/>
<path d="M59.7407 619.475L59.7407 612.36L52.6283 612.36L52.6283 619.475L59.7407 619.475Z" stroke="#FFDA00" stroke-width="1.43764" stroke-miterlimit="10"/>
<path d="M59.7407 673.835L59.7407 666.722L52.6283 666.722L52.6283 673.835L59.7407 673.835Z" stroke="#8B8F91" stroke-width="1.43764" stroke-miterlimit="10"/>
<path d="M59.7407 728.197L59.7407 721.084L52.6283 721.084L52.6283 728.197L59.7407 728.197Z" stroke="#8B8F91" stroke-width="1.43764" stroke-miterlimit="10"/>
<path d="M59.7407 782.559L59.7407 775.445L52.6283 775.445L52.6283 782.559L59.7407 782.559Z" stroke="#8B8F91" stroke-width="1.43764" stroke-miterlimit="10"/>
<path d="M59.7407 836.919L59.7407 829.807L52.6283 829.807L52.6283 836.919L59.7407 836.919Z" stroke="#8B8F91" stroke-width="1.43764" stroke-miterlimit="10"/>
<path d="M99.3691 565.112L99.3691 558L92.2567 558L92.2567 565.112L99.3691 565.112Z" stroke="#8B8F91" stroke-width="1.43764" stroke-miterlimit="10"/>
<path d="M138.837 565.468L138.837 558.356L131.725 558.356L131.725 565.468L138.837 565.468Z" stroke="#8B8F91" stroke-width="1.43764" stroke-miterlimit="10"/>
<path d="M99.3691 619.475L99.3691 612.36L92.2567 612.36L92.2567 619.475L99.3691 619.475Z" stroke="#8B8F91" stroke-width="1.43764" stroke-miterlimit="10"/>
<path d="M138.837 619.831L138.837 612.716L131.725 612.716L131.725 619.831L138.837 619.831Z" stroke="#8B8F91" stroke-width="1.43764" stroke-miterlimit="10"/>
<path d="M99.3691 673.835L99.3691 666.722L92.2567 666.722L92.2567 673.835L99.3691 673.835Z" stroke="#8B8F91" stroke-width="1.43764" stroke-miterlimit="10"/>
<path d="M138.837 674.191L138.837 667.078L131.725 667.078L131.725 674.191L138.837 674.191Z" stroke="#8B8F91" stroke-width="1.43764" stroke-miterlimit="10"/>
<path d="M99.3691 728.197L99.3691 721.084L92.2567 721.084L92.2567 728.197L99.3691 728.197Z" stroke="#FFDA00" stroke-width="1.43764" stroke-miterlimit="10"/>
<path d="M138.837 728.553L138.837 721.44L131.725 721.44L131.725 728.553L138.837 728.553Z" stroke="#8B8F91" stroke-width="1.43764" stroke-miterlimit="10"/>
<path d="M99.3691 782.559L99.3691 775.445L92.2567 775.445L92.2567 782.559L99.3691 782.559Z" stroke="#8B8F91" stroke-width="1.43764" stroke-miterlimit="10"/>
<path d="M138.837 782.915L138.837 775.801L131.725 775.801L131.725 782.915L138.837 782.915Z" stroke="#8B8F91" stroke-width="1.43764" stroke-miterlimit="10"/>
<path d="M99.3691 836.919L99.3691 829.807L92.2567 829.807L92.2567 836.919L99.3691 836.919Z" stroke="#8B8F91" stroke-width="1.43764" stroke-miterlimit="10"/>
<path d="M138.837 837.275L138.837 830.163L131.725 830.163L131.725 837.275L138.837 837.275Z" stroke="#8B8F91" stroke-width="1.43764" stroke-miterlimit="10"/>
</g>
<defs>
<clipPath id="clip0_42_61">
<rect width="1440" height="1024" fill="white"/>
</clipPath>
</defs>
</svg>
