<svg width="663" height="87" viewBox="0 0 663 87" fill="none" xmlns="http://www.w3.org/2000/svg">
<path d="M55.6316 7.03999L55.7721 6.77494L55.7721 6.77494L55.6316 7.03999ZM70.9916 21.92L70.7301 22.0671L70.7323 22.071L70.9916 21.92ZM70.9916 65.84L70.7315 65.6905L70.7301 65.6929L70.9916 65.84ZM55.5116 80.72L55.3724 80.4542L55.3711 80.4549L55.5116 80.72ZM0.791563 86H0.491563V86.3H0.791563V86ZM0.791563 1.76V1.46H0.491563V1.76H0.791563ZM21.3116 19.28V18.98H21.0116V19.28H21.3116ZM21.3116 68.24H21.0116V68.54H21.3116V68.24ZM32.3516 2.06C41.1915 2.06 48.9016 3.81183 55.4911 7.30505L55.7721 6.77494C49.0816 3.22816 41.2717 1.46 32.3516 1.46V2.06ZM55.4911 7.30505C62.0815 10.7988 67.159 15.7184 70.7301 22.0671L71.253 21.7729C67.6242 15.3216 62.4616 10.3212 55.7721 6.77494L55.4911 7.30505ZM70.7323 22.071C74.3821 28.3391 76.2116 35.6056 76.2116 43.88H76.8116C76.8116 35.5144 74.961 28.1409 71.2508 21.769L70.7323 22.071ZM76.2116 43.88C76.2116 52.0738 74.3824 59.3411 70.7315 65.6905L71.2516 65.9895C74.9607 59.5389 76.8116 52.1662 76.8116 43.88H76.2116ZM70.7301 65.6929C67.1595 72.0406 62.0428 76.9602 55.3724 80.4543L55.6508 80.9857C62.4203 77.4398 67.6236 72.4394 71.253 65.9871L70.7301 65.6929ZM55.3711 80.4549C48.7812 83.9484 41.111 85.7 32.3516 85.7V86.3C41.1922 86.3 48.9619 84.5316 55.6521 80.9851L55.3711 80.4549ZM32.3516 85.7H0.791563V86.3H32.3516V85.7ZM1.09156 86V1.76H0.491563V86H1.09156ZM0.791563 2.06H32.3516V1.46H0.791563V2.06ZM31.0316 68.54C38.847 68.54 44.971 66.4035 49.3617 62.0941L48.9414 61.6659C44.6921 65.8365 38.7361 67.94 31.0316 67.94V68.54ZM49.3617 62.0941C53.7542 57.7829 55.9316 51.6967 55.9316 43.88H55.3316C55.3316 51.5833 53.1889 57.4971 48.9414 61.6659L49.3617 62.0941ZM55.9316 43.88C55.9316 36.063 53.7541 29.9383 49.3637 25.5479L48.9394 25.9721C53.189 30.2217 55.3316 36.177 55.3316 43.88H55.9316ZM49.3637 25.5479C44.9733 21.1574 38.8485 18.98 31.0316 18.98V19.58C38.7346 19.58 44.6899 21.7226 48.9394 25.9721L49.3637 25.5479ZM31.0316 18.98H21.3116V19.58H31.0316V18.98ZM21.0116 19.28V68.24H21.6116V19.28H21.0116ZM21.3116 68.54H31.0316V67.94H21.3116V68.54ZM108.499 18.2V17.9H108.199V18.2H108.499ZM108.499 35.24H108.199V35.54H108.499V35.24ZM135.979 35.24H136.279V34.94H135.979V35.24ZM135.979 51.08V51.38H136.279V51.08H135.979ZM108.499 51.08V50.78H108.199V51.08H108.499ZM108.499 69.56H108.199V69.86H108.499V69.56ZM139.579 69.56H139.879V69.26H139.579V69.56ZM139.579 86V86.3H139.879V86H139.579ZM87.9791 86H87.6791V86.3H87.9791V86ZM87.9791 1.76V1.46H87.6791V1.76H87.9791ZM139.579 1.76H139.879V1.46H139.579V1.76ZM139.579 18.2V18.5H139.879V18.2H139.579ZM108.199 18.2V35.24H108.799V18.2H108.199ZM108.499 35.54H135.979V34.94H108.499V35.54ZM135.679 35.24V51.08H136.279V35.24H135.679ZM135.979 50.78H108.499V51.38H135.979V50.78ZM108.199 51.08V69.56H108.799V51.08H108.199ZM108.499 69.86H139.579V69.26H108.499V69.86ZM139.279 69.56V86H139.879V69.56H139.279ZM139.579 85.7H87.9791V86.3H139.579V85.7ZM88.2791 86V1.76H87.6791V86H88.2791ZM87.9791 2.06H139.579V1.46H87.9791V2.06ZM139.279 1.76V18.2H139.879V1.76H139.279ZM139.579 17.9H108.499V18.5H139.579V17.9ZM231.981 1.76L232.264 1.86029L232.406 1.46H231.981V1.76ZM202.101 86V86.3H202.313L202.384 86.1003L202.101 86ZM176.421 86L176.138 86.1003L176.209 86.3H176.421V86ZM146.541 1.76V1.46H146.116L146.258 1.86029L146.541 1.76ZM168.381 1.76L168.666 1.66642L168.598 1.46H168.381V1.76ZM189.261 65.36L188.976 65.4536L189.26 66.3193L189.546 65.4541L189.261 65.36ZM210.261 1.76V1.46H210.044L209.976 1.66594L210.261 1.76ZM231.698 1.65971L201.818 85.8997L202.384 86.1003L232.264 1.86029L231.698 1.65971ZM202.101 85.7H176.421V86.3H202.101V85.7ZM176.704 85.8997L146.824 1.65971L146.258 1.86029L176.138 86.1003L176.704 85.8997ZM146.541 2.06H168.381V1.46H146.541V2.06ZM168.096 1.85357L188.976 65.4536L189.546 65.2664L168.666 1.66642L168.096 1.85357ZM189.546 65.4541L210.546 1.85406L209.976 1.66594L188.976 65.2659L189.546 65.4541ZM210.261 2.06H231.981V1.46H210.261V2.06ZM261.077 18.2V17.9H260.777V18.2H261.077ZM261.077 35.24H260.777V35.54H261.077V35.24ZM288.557 35.24H288.857V34.94H288.557V35.24ZM288.557 51.08V51.38H288.857V51.08H288.557ZM261.077 51.08V50.78H260.777V51.08H261.077ZM261.077 69.56H260.777V69.86H261.077V69.56ZM292.157 69.56H292.457V69.26H292.157V69.56ZM292.157 86V86.3H292.457V86H292.157ZM240.557 86H240.257V86.3H240.557V86ZM240.557 1.76V1.46H240.257V1.76H240.557ZM292.157 1.76H292.457V1.46H292.157V1.76ZM292.157 18.2V18.5H292.457V18.2H292.157ZM260.777 18.2V35.24H261.377V18.2H260.777ZM261.077 35.54H288.557V34.94H261.077V35.54ZM288.257 35.24V51.08H288.857V35.24H288.257ZM288.557 50.78H261.077V51.38H288.557V50.78ZM260.777 51.08V69.56H261.377V51.08H260.777ZM261.077 69.86H292.157V69.26H261.077V69.86ZM291.857 69.56V86H292.457V69.56H291.857ZM292.157 85.7H240.557V86.3H292.157V85.7ZM240.857 86V1.76H240.257V86H240.857ZM240.557 2.06H292.157V1.46H240.557V2.06ZM291.857 1.76V18.2H292.457V1.76H291.857ZM292.157 17.9H261.077V18.5H292.157V17.9ZM325.999 70.16H325.699V70.46H325.999V70.16ZM352.879 70.16H353.179V69.86H352.879V70.16ZM352.879 86V86.3H353.179V86H352.879ZM305.479 86H305.179V86.3H305.479V86ZM305.479 1.76V1.46H305.179V1.76H305.479ZM325.999 1.76H326.299V1.46H325.999V1.76ZM325.999 70.46H352.879V69.86H325.999V70.46ZM352.579 70.16V86H353.179V70.16H352.579ZM352.879 85.7H305.479V86.3H352.879V85.7ZM305.779 86V1.76H305.179V86H305.779ZM305.479 2.06H325.999V1.46H305.479V2.06ZM325.699 1.76V70.16H326.299V1.76H325.699ZM380.667 81.32L380.52 81.5816L380.521 81.5824L380.667 81.32ZM364.947 65.96L364.687 66.1102L364.689 66.1139L364.947 65.96ZM364.947 21.44L364.689 21.2861L364.688 21.2884L364.947 21.44ZM380.667 6.08L380.521 5.8176L380.52 5.81836L380.667 6.08ZM424.227 6.08L424.08 6.34165L424.081 6.3424L424.227 6.08ZM439.827 21.44L439.566 21.5892L439.568 21.5915L439.827 21.44ZM439.827 65.96L440.085 66.1116L440.086 66.1102L439.827 65.96ZM424.227 81.32L424.373 81.5816L424.373 81.5816L424.227 81.32ZM418.587 61.4L418.365 61.198L418.363 61.2002L418.587 61.4ZM418.587 25.88L418.363 26.0798L418.367 26.084L418.587 25.88ZM386.187 25.76L385.967 25.556L385.965 25.5582L386.187 25.76ZM386.187 61.52L385.963 61.7198L385.967 61.724L386.187 61.52ZM402.507 86.54C394.635 86.54 387.406 84.7119 380.812 81.0576L380.521 81.5824C387.208 85.2881 394.538 87.14 402.507 87.14V86.54ZM380.813 81.0584C374.3 77.4044 369.098 72.3219 365.204 65.8061L364.689 66.1139C368.635 72.7181 373.913 77.8756 380.52 81.5816L380.813 81.0584ZM365.206 65.8098C361.395 59.2188 359.487 51.8313 359.487 43.64H358.887C358.887 51.9287 360.819 59.4212 364.687 66.1102L365.206 65.8098ZM359.487 43.64C359.487 35.4486 361.395 28.1017 365.205 21.5915L364.688 21.2884C360.819 27.8982 358.887 35.3513 358.887 43.64H359.487ZM365.204 21.5939C369.098 15.0781 374.3 9.99558 380.813 6.34164L380.52 5.81836C373.913 9.52442 368.635 14.6819 364.689 21.2861L365.204 21.5939ZM380.812 6.3424C387.406 2.68814 394.635 0.859999 402.507 0.859999V0.259999C394.538 0.259999 387.208 2.11185 380.521 5.8176L380.812 6.3424ZM402.507 0.859999C410.378 0.859999 417.567 2.68814 424.08 6.34164L424.373 5.81836C417.766 2.11186 410.475 0.259999 402.507 0.259999V0.859999ZM424.081 6.3424C430.673 9.99596 435.834 15.0769 439.566 21.5892L440.087 21.2908C436.299 14.6831 431.06 9.52404 424.372 5.8176L424.081 6.3424ZM439.568 21.5915C443.379 28.1017 445.287 35.4486 445.287 43.64H445.887C445.887 35.3513 443.955 27.8982 440.085 21.2884L439.568 21.5915ZM445.287 43.64C445.287 51.8313 443.379 59.2188 439.567 65.8098L440.086 66.1102C443.955 59.4212 445.887 51.9287 445.887 43.64H445.287ZM439.568 65.8084C435.754 72.323 430.593 77.4047 424.08 81.0584L424.373 81.5816C430.98 77.8753 436.219 72.717 440.085 66.1116L439.568 65.8084ZM424.08 81.0584C417.567 84.7119 410.378 86.54 402.507 86.54V87.14C410.475 87.14 417.766 85.2881 424.373 81.5816L424.08 81.0584ZM402.507 68.42C409.301 68.42 414.746 66.1515 418.81 61.5998L418.363 61.2002C414.427 65.6085 409.152 67.82 402.507 67.82V68.42ZM418.808 61.602C422.949 57.0554 425.007 51.0579 425.007 43.64H424.407C424.407 50.9421 422.384 56.7846 418.365 61.198L418.808 61.602ZM425.007 43.64C425.007 36.1433 422.95 30.144 418.807 25.676L418.367 26.084C422.384 30.416 424.407 36.2566 424.407 43.64H425.007ZM418.81 25.6802C414.746 21.1285 409.301 18.86 402.507 18.86V19.46C409.152 19.46 414.427 21.6715 418.363 26.0798L418.81 25.6802ZM402.507 18.86C395.635 18.86 390.111 21.0863 385.967 25.556L386.407 25.964C390.422 21.6336 395.778 19.46 402.507 19.46V18.86ZM385.965 25.5582C381.902 30.0269 379.887 36.0659 379.887 43.64H380.487C380.487 36.1741 382.471 30.2931 386.409 25.9618L385.965 25.5582ZM379.887 43.64C379.887 51.1354 381.903 57.1725 385.963 61.7198L386.41 61.3202C382.47 56.9075 380.487 51.0246 380.487 43.64H379.887ZM385.967 61.724C390.111 66.1937 395.635 68.42 402.507 68.42V67.82C395.778 67.82 390.422 65.6463 386.407 61.316L385.967 61.724ZM517.843 42.32L518.104 42.4666L518.105 42.4644L517.843 42.32ZM507.523 52.04L507.381 51.7754L507.381 51.7754L507.523 52.04ZM477.523 55.76V55.46H477.223V55.76H477.523ZM477.523 86V86.3H477.823V86H477.523ZM457.003 86H456.703V86.3H457.003V86ZM457.003 1.76V1.46H456.703V1.76H457.003ZM507.283 5.24L507.417 4.97167L507.417 4.97167L507.283 5.24ZM497.443 21.08L497.235 21.2966L497.443 21.08ZM477.523 18.32V18.02H477.223V18.32H477.523ZM477.523 39.44H477.223V39.74H477.523V39.44ZM520.903 28.88C520.903 33.7121 519.794 38.142 517.58 42.1756L518.105 42.4644C520.371 38.338 521.503 33.8079 521.503 28.88H520.903ZM517.581 42.1734C515.373 46.1163 511.978 49.3184 507.381 51.7754L507.664 52.3046C512.347 49.8016 515.832 46.5237 518.104 42.4666L517.581 42.1734ZM507.381 51.7754C502.796 54.2261 497.088 55.46 490.243 55.46V56.06C497.157 56.06 502.969 54.8139 507.664 52.3046L507.381 51.7754ZM490.243 55.46H477.523V56.06H490.243V55.46ZM477.223 55.76V86H477.823V55.76H477.223ZM477.523 85.7H457.003V86.3H477.523V85.7ZM457.303 86V1.76H456.703V86H457.303ZM457.003 2.06H490.243V1.46H457.003V2.06ZM490.243 2.06C496.929 2.06 502.56 3.21438 507.148 5.50832L507.417 4.97167C502.725 2.62562 496.996 1.46 490.243 1.46V2.06ZM507.148 5.50832C511.741 7.80465 515.174 10.9653 517.462 14.9883L517.983 14.6917C515.631 10.5546 512.104 7.31534 507.417 4.97167L507.148 5.50832ZM517.462 14.9883C519.753 19.0177 520.903 23.6454 520.903 28.88H521.503C521.503 23.5546 520.332 18.8223 517.983 14.6917L517.462 14.9883ZM488.683 39.74C492.644 39.74 495.653 38.8108 497.65 36.8966L497.235 36.4634C495.392 38.2292 492.561 39.14 488.683 39.14V39.74ZM497.65 36.8966C499.644 34.986 500.623 32.2989 500.623 28.88H500.023C500.023 32.1811 499.081 34.694 497.235 36.4634L497.65 36.8966ZM500.623 28.88C500.623 25.4611 499.644 22.774 497.65 20.8634L497.235 21.2966C499.081 23.066 500.023 25.5789 500.023 28.88H500.623ZM497.65 20.8634C495.653 18.9492 492.644 18.02 488.683 18.02V18.62C492.561 18.62 495.392 19.5308 497.235 21.2966L497.65 20.8634ZM488.683 18.02H477.523V18.62H488.683V18.02ZM477.223 18.32V39.44H477.823V18.32H477.223ZM477.523 39.74H488.683V39.14H477.523V39.74ZM552.405 18.2V17.9H552.105V18.2H552.405ZM552.405 35.24H552.105V35.54H552.405V35.24ZM579.885 35.24H580.185V34.94H579.885V35.24ZM579.885 51.08V51.38H580.185V51.08H579.885ZM552.405 51.08V50.78H552.105V51.08H552.405ZM552.405 69.56H552.105V69.86H552.405V69.56ZM583.485 69.56H583.785V69.26H583.485V69.56ZM583.485 86V86.3H583.785V86H583.485ZM531.885 86H531.585V86.3H531.885V86ZM531.885 1.76V1.46H531.585V1.76H531.885ZM583.485 1.76H583.785V1.46H583.485V1.76ZM583.485 18.2V18.5H583.785V18.2H583.485ZM552.105 18.2V35.24H552.705V18.2H552.105ZM552.405 35.54H579.885V34.94H552.405V35.54ZM579.585 35.24V51.08H580.185V35.24H579.585ZM579.885 50.78H552.405V51.38H579.885V50.78ZM552.105 51.08V69.56H552.705V51.08H552.105ZM552.405 69.86H583.485V69.26H552.405V69.86ZM583.185 69.56V86H583.785V69.56H583.185ZM583.485 85.7H531.885V86.3H583.485V85.7ZM532.185 86V1.76H531.585V86H532.185ZM531.885 2.06H583.485V1.46H531.885V2.06ZM583.185 1.76V18.2H583.785V1.76H583.185ZM583.485 17.9H552.405V18.5H583.485V17.9ZM639.767 86L639.504 86.1448L639.59 86.3H639.767V86ZM622.247 54.2L622.51 54.0552L622.424 53.9H622.247V54.2ZM617.327 54.2V53.9H617.027V54.2H617.327ZM617.327 86V86.3H617.627V86H617.327ZM596.807 86H596.507V86.3H596.807V86ZM596.807 1.76V1.46H596.507V1.76H596.807ZM648.167 5.24L648.033 5.50833L648.035 5.50923L648.167 5.24ZM658.727 14.84L658.466 14.9883L658.468 14.9905L658.727 14.84ZM657.407 43.28L657.165 43.1035L657.162 43.1065L657.407 43.28ZM643.487 52.64L643.401 52.3525L643.036 52.4617L643.228 52.791L643.487 52.64ZM662.927 86V86.3H663.449L663.186 85.849L662.927 86ZM617.327 39.68H617.027V39.98H617.327V39.68ZM638.447 36.92L638.24 36.7034L638.235 36.7079L638.447 36.92ZM638.447 21.56L638.235 21.7722L638.24 21.7766L638.447 21.56ZM617.327 18.8V18.5H617.027V18.8H617.327ZM640.03 85.8552L622.51 54.0552L621.984 54.3448L639.504 86.1448L640.03 85.8552ZM622.247 53.9H617.327V54.5H622.247V53.9ZM617.027 54.2V86H617.627V54.2H617.027ZM617.327 85.7H596.807V86.3H617.327V85.7ZM597.107 86V1.76H596.507V86H597.107ZM596.807 2.06H631.247V1.46H596.807V2.06ZM631.247 2.06C637.853 2.06 643.445 3.21415 648.033 5.50832L648.301 4.97167C643.61 2.62584 637.921 1.46 631.247 1.46V2.06ZM648.035 5.50923C652.708 7.80602 656.18 10.9667 658.466 14.9883L658.988 14.6917C656.635 10.5532 653.067 7.31397 648.3 4.97076L648.035 5.50923ZM658.468 14.9905C660.759 18.9415 661.907 23.3689 661.907 28.28H662.507C662.507 23.2711 661.335 18.7385 658.987 14.6895L658.468 14.9905ZM661.907 28.28C661.907 33.8186 660.326 38.7564 657.165 43.1035L657.65 43.4565C660.888 39.0036 662.507 33.9414 662.507 28.28H661.907ZM657.162 43.1065C654.088 47.4419 649.51 50.5279 643.401 52.3525L643.573 52.9274C649.784 51.0721 654.486 47.9181 657.652 43.4535L657.162 43.1065ZM643.228 52.791L662.668 86.151L663.186 85.849L643.746 52.489L643.228 52.791ZM662.927 85.7H639.767V86.3H662.927V85.7ZM617.327 39.98H630.047V39.38H617.327V39.98ZM630.047 39.98C633.851 39.98 636.742 39.0493 638.659 37.1321L638.235 36.7079C636.472 38.4707 633.763 39.38 630.047 39.38V39.98ZM638.655 37.1366C640.648 35.226 641.627 32.5389 641.627 29.12H641.027C641.027 32.4211 640.086 34.934 638.24 36.7034L638.655 37.1366ZM641.627 29.12C641.627 25.8561 640.646 23.2513 638.655 21.3434L638.24 21.7766C640.089 23.5487 641.027 25.9839 641.027 29.12H641.627ZM638.659 21.3479C636.742 19.4307 633.851 18.5 630.047 18.5V19.1C633.763 19.1 636.472 20.0093 638.235 21.7721L638.659 21.3479ZM630.047 18.5H617.327V19.1H630.047V18.5ZM617.027 18.8V39.68H617.627V18.8H617.027Z" fill="white"/>
</svg>
