<svg id="ejULTSMeGad1" xmlns="http://www.w3.org/2000/svg" xmlns:xlink="http://www.w3.org/1999/xlink" viewBox="0 0 300 202" shape-rendering="geometricPrecision" text-rendering="geometricPrecision">
<style><![CDATA[
#ejULTSMeGad8_to {animation: ejULTSMeGad8_to__to 3000ms linear infinite normal forwards}@keyframes ejULTSMeGad8_to__to { 0% {transform: translate(347px,88.000004px);animation-timing-function: cubic-bezier(0.42,0,0.58,1)} 33.333333% {transform: translate(236px,88.000004px)} 100% {transform: translate(236px,88.000004px)}} #ejULTSMeGad9 {animation: ejULTSMeGad9_c_o 3000ms linear infinite normal forwards}@keyframes ejULTSMeGad9_c_o { 0% {opacity: 0} 33.333333% {opacity: 0;animation-timing-function: cubic-bezier(0.42,0,0.58,1)} 53.333333% {opacity: 1} 100% {opacity: 1}} #ejULTSMeGad10 {animation: ejULTSMeGad10_c_o 3000ms linear infinite normal forwards}@keyframes ejULTSMeGad10_c_o { 0% {opacity: 0} 33.333333% {opacity: 0;animation-timing-function: cubic-bezier(0.42,0,0.58,1)} 53.333333% {opacity: 1} 100% {opacity: 1}} #ejULTSMeGad12 {animation: ejULTSMeGad12_c_o 3000ms linear infinite normal forwards}@keyframes ejULTSMeGad12_c_o { 0% {opacity: 0} 33.333333% {opacity: 0;animation-timing-function: cubic-bezier(0.42,0,0.58,1)} 53.333333% {opacity: 1} 100% {opacity: 1}} #ejULTSMeGad13_to {animation: ejULTSMeGad13_to__to 3000ms linear infinite normal forwards}@keyframes ejULTSMeGad13_to__to { 0% {transform: translate(-86.72776px,59px);animation-timing-function: cubic-bezier(0.42,0,0.58,1)} 33.333333% {transform: translate(98px,59px)} 100% {transform: translate(98px,59px)}} #ejULTSMeGad14 {animation: ejULTSMeGad14_c_o 3000ms linear infinite normal forwards}@keyframes ejULTSMeGad14_c_o { 0% {opacity: 0} 33.333333% {opacity: 0;animation-timing-function: cubic-bezier(0.42,0,0.58,1)} 53.333333% {opacity: 1} 100% {opacity: 1}} #ejULTSMeGad15 {animation: ejULTSMeGad15_c_o 3000ms linear infinite normal forwards}@keyframes ejULTSMeGad15_c_o { 0% {opacity: 0} 33.333333% {opacity: 0;animation-timing-function: cubic-bezier(0.42,0,0.58,1)} 53.333333% {opacity: 1} 100% {opacity: 1}} #ejULTSMeGad16 {animation: ejULTSMeGad16_c_o 3000ms linear infinite normal forwards}@keyframes ejULTSMeGad16_c_o { 0% {opacity: 0} 33.333333% {opacity: 0;animation-timing-function: cubic-bezier(0.42,0,0.58,1)} 53.333333% {opacity: 1} 100% {opacity: 1}} #ejULTSMeGad17 {animation: ejULTSMeGad17_c_o 3000ms linear infinite normal forwards}@keyframes ejULTSMeGad17_c_o { 0% {opacity: 0} 33.333333% {opacity: 0;animation-timing-function: cubic-bezier(0.42,0,0.58,1)} 53.333333% {opacity: 1} 100% {opacity: 1}} #ejULTSMeGad18 {animation: ejULTSMeGad18_c_o 3000ms linear infinite normal forwards}@keyframes ejULTSMeGad18_c_o { 0% {opacity: 0} 33.333333% {opacity: 0;animation-timing-function: cubic-bezier(0.42,0,0.58,1)} 53.333333% {opacity: 1} 100% {opacity: 1}}
]]></style>
<rect width="56" height="146" rx="0" ry="0" transform="translate(122 56)"/><rect width="13" height="146" rx="0" ry="0" transform="matrix(0-1 1 0 77 202)"/><rect width="300" height="154" rx="6" ry="6"/><rect width="285" height="141" rx="10" ry="10" transform="translate(7 6)" fill="#121212"/><g mask="url(#ejULTSMeGad27)"><g><g id="ejULTSMeGad8_to" transform="translate(347,88.000004)"><rect width="94" height="82" rx="8" ry="8" transform="translate(-47,-41.000004)" fill="#585757"/></g><rect id="ejULTSMeGad9" width="70" height="35" rx="3" ry="3" transform="translate(201 55)" opacity="0"/><rect id="ejULTSMeGad10" width="70" height="7" rx="3" ry="3" transform="translate(201 96)" opacity="0"/><rect width="288" height="7" rx="3" ry="3" transform="translate(4 140)" fill="#9d9d9d"/><rect id="ejULTSMeGad12" width="70" height="13" rx="3" ry="3" transform="translate(201 110)" opacity="0" fill="#999"/><g id="ejULTSMeGad13_to" transform="translate(-86.72776,59)"><rect width="160" height="82" rx="8" ry="8" transform="translate(-80,-41)" fill="#585757"/></g><rect id="ejULTSMeGad14" width="70" height="7" rx="3" ry="3" transform="translate(28 31)" opacity="0"/><rect id="ejULTSMeGad15" width="70" height="35" rx="3" ry="3" transform="translate(101 31)" opacity="0"/><rect id="ejULTSMeGad16" width="70" height="7" rx="3" ry="3" transform="translate(28 59)" opacity="0"/><rect id="ejULTSMeGad17" width="70" height="13" rx="3" ry="3" transform="translate(28 77)" opacity="0" fill="#999"/><rect id="ejULTSMeGad18" width="70" height="7" rx="3" ry="3" transform="translate(28 45)" opacity="0"/><rect width="8" height="5" rx="0" ry="0" transform="translate(114 141)" fill="#333"/><rect width="8" height="5" rx="0" ry="0" transform="translate(124 141)" fill="#333"/><rect width="8" height="5" rx="0" ry="0" transform="translate(134 141)" fill="#333"/><rect width="8" height="5" rx="0" ry="0" transform="translate(144 141)" fill="#333"/><rect width="8" height="5" rx="0" ry="0" transform="translate(154 141)" fill="#333"/><rect width="8" height="5" rx="0" ry="0" transform="translate(164 141)" fill="#333"/><rect width="8" height="5" rx="0" ry="0" transform="translate(184 141)" fill="#333"/><rect width="8" height="5" rx="0" ry="0" transform="translate(174 141)" fill="#333"/></g><mask id="ejULTSMeGad27" mask-type="alpha" x="-150%" y="-150%" height="400%" width="400%"><rect width="285" height="141" rx="10" ry="10" transform="translate(7 6)" fill="#121212"/></mask></g></svg>
