<svg width="642" height="652" viewBox="0 0 642 652" fill="none" xmlns="http://www.w3.org/2000/svg">
<path d="M279.611 46.3275L317.002 20.9297H346.398L405.659 102.297L457.161 230.226L448.459 251.862L425.648 272.086L490.319 317.002L523.947 401.897L521.831 429.411L535.941 452.692L532.884 466.567L553.578 520.185L571.451 591.91L564.631 622.481L328.055 637.767L91.4793 629.536L76.4287 600.846L80.8968 584.855L76.4287 556.165L87.7166 533.119L84.6595 512.424L107.941 467.743L101.827 459.512L112.174 404.954L120.64 375.323L133.809 357.686L150.741 308.066L207.886 278.2L198.714 249.275L202.712 196.833L252.332 87.011L279.611 46.3275Z" fill="white"/>
<mask id="mask0_209_762" style="mask-type:luminance" maskUnits="userSpaceOnUse" x="0" y="0" width="642" height="642">
<path d="M642 0H0V642H642V0Z" fill="white"/>
</mask>
<g mask="url(#mask0_209_762)">
<path d="M118.586 376.326L109.242 416.398L101.591 459.606L105.981 467.194L83.5307 511.658L85.6001 533.73L76.4287 556.809L80.0818 584.775L76.4287 599.826L88.4221 629.536L321.079 642.155L565.586 623.422L572.156 590.861L563.394 562.138L554.425 519.935L533.98 466.881L536.867 452.269L522.88 429.443L523.383 398.401L491.904 317.567L426.181 273.606L448.13 251.909L457.788 229.521L407.306 100.337L373.191 50.1056L346.351 19.7538H314.18L278.498 45.4652L250.466 85.6626L224.818 140.472L202.242 195.783L198.856 248.961L207.259 277.62L148.687 307.846L132.947 357.012L118.586 376.326ZM342.149 25.7113C348.358 28.7214 363.032 45.4652 374.383 62.3972C376.264 65.1562 380.842 71.6157 384.604 76.7578C395.641 91.7458 399.09 98.4555 405.926 117.896C407.808 123.226 409.814 128.745 410.316 130.125C410.88 131.504 413.012 137.274 415.019 142.98C419.597 155.585 420.224 156.965 427.31 169.632C433.142 180.042 436.466 187.693 440.479 200.047C441.734 203.998 443.741 209.077 444.869 211.335C449.635 220.428 450.262 221.87 451.203 225.696C452.52 230.587 452.207 232.092 448.695 240.307C445.058 248.71 442.048 252.975 437.407 256.361C430.76 261.19 419.158 273.983 407.431 289.409C401.474 297.248 396.018 303.394 395.453 302.83C395.265 302.642 397.021 300.133 399.342 297.186C405.738 289.284 417.214 273.481 420.099 268.652C421.917 265.58 423.548 263.761 425.554 262.507C427.059 261.566 428.251 260.563 428.063 260.437C427.938 260.249 426.181 260.625 424.238 261.19C422.231 261.754 420.537 262.068 420.349 261.942C420.036 261.566 425.304 259.81 428.502 259.246C431.7 258.681 437.407 254.919 440.981 250.968C444.242 247.268 447.628 239.931 448.13 235.29C448.695 230.336 447.44 227.765 442.8 224.567C440.229 222.811 437.72 220.302 435.902 217.731C434.334 215.474 431.512 211.774 429.693 209.516C427.875 207.259 425.241 203.872 423.861 202.054C419.973 196.974 402.164 178.537 399.906 177.346C398.777 176.781 397.523 176.28 397.021 176.217C395.516 176.217 381.281 167.876 381.281 167.061C381.281 166.622 384.228 167.939 387.866 170.009C391.44 172.015 396.018 174.336 398.025 175.088C401.787 176.468 406.114 180.481 421.541 196.912L426.558 202.242L426.181 199.545C425.68 196.347 424.112 193.023 420.537 187.818C418.217 184.432 417.967 183.679 417.904 179.98C417.904 176.844 417.465 175.151 416.148 172.517C413.263 166.873 405.111 159.222 405.111 162.107C405.111 162.608 406.114 166.12 407.306 169.821C409.313 176.029 410.818 183.93 409.877 183.052C409.626 182.864 408.873 180.607 408.184 178.035C407.494 175.464 405.926 170.573 404.734 167.061C403.543 163.612 402.602 160.288 402.602 159.787C402.602 158.031 398.714 154.895 390.624 150.129C383.727 145.99 381.97 144.548 376.515 138.779C373.128 135.079 369.679 131.065 368.927 129.874L367.547 127.616L366.23 130.689C364.474 134.828 363.785 138.214 363.722 142.353C363.722 147.684 364.161 148.499 367.735 150.192C371.623 152.011 380.089 161.041 379.964 163.236C379.901 164.427 379.838 164.427 379.4 162.985C378.71 160.602 370.181 152.261 367.108 150.882C363.847 149.439 363.095 147.872 363.095 142.04C363.095 138.403 363.533 136.207 364.976 132.257L366.857 127.115L363.785 122.599C362.091 120.091 360.273 116.767 359.708 115.262C359.206 113.82 358.141 110.998 357.451 109.054C355.444 103.598 351.117 99.8355 343.78 97.2016C340.644 96.0729 338.011 94.9441 338.011 94.6929C338.011 94.1285 345.222 96.6998 349.173 98.7067C350.866 99.5843 353.186 101.341 354.315 102.594C356.196 104.789 357.074 106.357 360.335 114.134C364.85 124.794 378.145 138.528 389.496 144.297C393.823 146.429 394.45 146.555 394.011 144.862C393.258 142.04 396.645 144.297 402.289 150.38C406.741 155.146 411.57 158.909 412.761 158.533C413.514 158.281 406.302 149.816 402.164 146.053C400.784 144.799 396.018 141.35 391.565 138.403C387.113 135.455 382.284 131.88 380.842 130.501C378.584 128.306 378.208 127.491 377.706 124.041L377.079 120.091L376.578 124.105C376.138 127.679 376.013 127.992 375.261 126.989C374.696 126.237 374.383 124.041 374.383 121.031V116.203L370.494 112.44C368.3 110.308 365.54 107.737 364.349 106.608L362.154 104.601L364.976 106.106C366.481 106.859 369.24 108.928 371.059 110.684L374.32 113.82L374.696 109.117C375.135 103.535 374.132 91.0558 372.752 85.6626C371.122 79.141 367.422 67.9156 366.544 66.6612C366.042 66.0343 367.108 69.9225 368.927 75.2528C371.874 84.2205 372.125 85.4119 372.188 90.9303C372.188 95.6336 371.937 97.3267 371.059 98.6437C370.494 99.5843 369.742 100.337 369.491 100.337C369.24 100.337 367.484 98.0167 365.603 95.1947L362.217 90.0526L361.778 79.078C361.527 72.9326 360.9 66.1599 360.335 63.7767C359.771 61.3936 357.325 55.4989 354.629 50.1056C349.988 40.8246 349.298 38.8806 350.552 38.8806C350.929 38.8806 351.18 38.6297 351.18 38.3789C351.18 37.6264 344.281 28.5961 343.466 28.2825C343.09 28.1571 342.965 29.035 343.153 30.7909C343.529 33.5502 343.529 33.5502 342.651 31.6689C342.212 30.6028 341.836 29.474 341.773 29.0977C341.773 28.7214 341.209 27.9062 340.456 27.2164C339.327 26.213 338.261 26.0249 332.743 26.1503C324.653 26.3385 321.831 27.2791 314.18 32.2333C303.645 39.1314 294.489 44.3364 291.166 45.4652C287.027 46.7821 280.755 52.4262 275.739 59.3871C273.795 62.2091 269.405 69.2325 266.019 75.0021C262.632 80.8342 257.803 88.9864 255.358 93.1253C250.153 101.905 243.568 116.266 246.139 113.193C247.017 112.127 249.839 107.235 252.411 102.218C256.988 93.1878 259.685 88.7357 258.431 92.1846C253.853 104.978 250.153 113.13 246.202 119.338C245.073 121.094 243.192 124.731 242.126 127.365C241.06 129.999 239.304 132.947 238.238 133.95C233.284 138.591 228.706 147.997 220.679 169.946C218.923 174.586 216.728 180.481 215.725 183.052C214.659 185.624 213.969 187.818 214.094 187.944C214.847 188.759 227.075 171.702 231.34 163.863C234.977 157.216 243.631 144.548 247.268 140.472C248.899 138.653 250.654 135.643 251.721 133.009C253.226 129.121 253.978 128.118 256.738 126.048C261.315 122.662 263.197 120.342 266.269 113.82C270.22 105.542 271.663 99.5218 271.725 91.5577C271.788 85.5375 271.788 85.2863 272.29 88.422C273.858 98.393 267.524 117.018 258.932 127.992C256.863 130.564 256.236 131.943 255.922 134.765C255.671 136.709 255.107 138.904 254.731 139.656C253.664 141.601 248.209 148.185 243.945 152.701C240.182 156.651 237.924 160.539 235.353 167.437C232.907 173.896 231.465 175.966 221.369 186.941C216.164 192.585 210.896 198.73 209.705 200.549C206.506 205.314 203.747 213.216 203.371 218.86L202.994 223.563L205.566 221.181C208.011 218.797 208.889 217.167 211.084 211.021C211.837 208.764 213.53 206.506 216.979 202.869C222.623 197.037 223.375 195.845 222.936 193.023L222.623 190.954L223.313 193.086C224.253 196.096 223.375 197.789 217.919 203.182C213.655 207.384 213.091 208.325 211.523 212.903C210.206 216.979 209.265 218.547 206.506 221.431C201.928 226.26 201.866 227.075 204.186 241.436L204.562 243.631L206.005 239.743C207.76 234.851 211.899 227.953 216.289 222.623C218.108 220.365 220.303 217.167 221.118 215.537C221.996 213.906 223.626 211.46 224.818 210.143C226.009 208.826 228.267 205.001 229.835 201.677C231.402 198.354 233.722 194.34 234.977 192.773C237.924 189.198 243.945 184.62 246.39 184.056C247.331 183.867 248.46 183.052 248.773 182.3C250.027 179.666 257.678 170.824 262.444 166.622C268.464 161.355 274.61 157.153 283.327 152.449C294.928 146.178 301.826 144.36 308.85 145.488C310.92 145.865 316.124 146.68 320.451 147.37C324.778 147.997 330.36 149.314 332.931 150.129C335.502 151.007 339.829 152.387 342.651 153.077C345.473 153.829 353.5 156.526 360.586 158.971C367.672 161.48 374.947 163.863 376.766 164.365C378.584 164.804 380.027 165.494 380.027 165.995C380.027 166.434 379.901 166.81 379.776 166.81C379.65 166.81 372.94 164.553 364.913 161.793C351.995 157.341 331.05 150.819 325.782 149.565C321.329 148.562 308.098 146.743 304.962 146.743C303.081 146.743 299.694 147.245 297.374 147.809C292.796 148.938 278.498 156.024 272.854 159.912C265.768 164.804 253.351 176.907 250.466 181.798C249.777 182.927 248.209 184.307 246.767 184.934C243.882 186.188 236.607 192.459 234.224 195.657C233.409 196.786 231.779 199.859 230.712 202.492C229.647 205.126 227.702 208.388 226.448 209.767C225.194 211.147 222.936 214.408 221.494 217.042C220.052 219.612 218.296 222.309 217.543 222.999C215.85 224.441 210.77 231.967 208.827 235.792C203.371 246.515 203.747 254.919 210.394 269.029C212.213 272.979 215.035 279.878 216.666 284.393C221.369 297.687 221.996 299.067 226.95 307.846C232.217 317.19 234.475 319.448 242.878 323.901C245.889 325.468 249.4 328.165 253.351 331.99C256.612 335.125 260.751 338.387 262.444 339.264C264.2 340.142 266.709 341.585 268.088 342.463C269.468 343.403 271.286 344.344 272.164 344.595C273.042 344.846 274.673 345.912 275.801 346.853C278.122 348.922 277.871 348.859 281.32 348.044C285.584 347.041 286.651 347.73 292.984 355.757C299.444 363.973 300.321 365.478 302.391 370.934C303.519 373.756 304.46 375.135 306.53 376.703C309.477 378.96 309.54 379.336 306.718 377.831C304.398 376.64 301.638 373.379 301.262 371.31C301.011 370.181 299.757 368.864 297.499 367.296C295.555 365.917 293.047 363.345 291.667 361.276C290.288 359.269 287.278 355.883 284.957 353.751C282.637 351.681 281.007 349.925 281.32 349.925C282.888 349.925 289.221 355.883 291.73 359.771C293.36 362.154 295.367 364.6 296.308 365.227C297.186 365.791 298.503 366.857 299.192 367.547C300.384 368.739 300.384 368.739 300.384 367.484C300.384 366.857 299.192 364.788 297.687 362.969C296.182 361.151 293.423 357.451 291.416 354.817C289.473 352.183 287.34 349.675 286.651 349.361C284.894 348.358 281.759 348.546 280.066 349.612C278.749 350.49 278.561 350.427 276.93 348.734C275.99 347.793 271.412 345.034 266.709 342.651C259.183 338.826 257.427 337.634 251.971 332.492C247.895 328.666 244.383 325.97 241.561 324.59C234.726 321.141 231.214 318.005 227.702 312.048C226.009 309.163 223.438 305.087 222.058 303.018C220.616 301.011 218.923 298.001 218.233 296.37C217.481 294.803 216.791 293.486 216.666 293.486C216.289 293.486 217.292 296.684 218.86 300.196C220.24 303.519 220.365 305.401 219.111 305.84C218.233 306.153 213.028 299.38 210.959 295.241C210.143 293.674 209.328 291.228 209.077 289.911C208.764 287.842 208.952 287.152 210.394 285.459C211.335 284.33 212.464 283.452 212.903 283.452C213.342 283.452 214.408 285.271 215.16 287.466C215.976 289.723 216.728 291.416 216.854 291.291C217.23 290.914 211.586 275.174 208.513 267.9C204.938 259.685 203.81 255.107 203.81 248.961C203.81 246.39 203.371 241.875 202.869 238.927C201.552 231.026 201.552 226.511 202.932 213.342C203.496 207.698 207.321 195.595 210.959 187.756C212.84 183.617 216.289 175.088 218.547 168.692C225.821 148.624 227.452 144.924 246.578 106.608C255.17 89.4252 256.926 86.1019 265.642 71.7408C277.307 52.4888 285.522 43.772 294.176 41.389C295.43 41.0128 300.07 38.4416 304.523 35.6196C320.075 25.7741 323.148 24.5825 333.244 24.5198C338.324 24.4572 340.017 24.708 342.149 25.7113ZM296.935 102.783C296.559 103.096 294.74 103.786 292.859 104.413C288.532 105.793 285.396 107.737 280.63 112.252C278.561 114.196 275.3 117.018 273.418 118.523C267.712 123.038 262.13 128.745 260.751 131.379C259.56 133.636 259.497 134.577 259.81 141.851C260.375 153.327 258.431 159.912 252.222 167.375C248.648 171.639 247.394 174.712 247.958 178.035C248.209 179.603 248.084 179.98 247.707 179.352C246.955 178.161 246.892 174.21 247.707 172.203C248.021 171.388 249.651 169.131 251.407 167.187C255.044 163.173 255.483 162.42 257.553 156.526C258.932 152.701 259.12 151.195 258.932 145.488C258.681 135.392 258.807 133.26 259.936 131.128C261.253 128.494 266.207 123.54 273.418 117.582C276.68 114.886 280.818 111.312 282.574 109.681C285.961 106.545 288.218 105.166 293.11 103.41C296.81 102.156 297.75 101.967 296.935 102.783ZM368.237 184.244C372.125 186.752 382.974 191.016 383.664 190.327C383.852 190.201 383.601 189.951 383.099 189.763C377.769 188.132 375.323 186.941 373.63 185.184C372.501 184.056 371.999 183.115 372.376 183.115C372.815 183.115 373.316 183.554 373.568 184.119C373.756 184.62 374.32 184.934 374.821 184.745C375.323 184.557 375.511 184.62 375.323 184.996C374.884 185.749 377.079 187.129 380.34 188.132C381.72 188.571 384.103 189.574 385.67 190.327C388.116 191.518 393.886 193.274 397.899 193.964C398.589 194.09 397.773 194.403 396.143 194.716C394.011 195.03 392.193 194.905 389.872 194.215C378.459 190.828 373.316 189.198 371.059 188.132C367.547 186.501 362.969 182.676 361.213 179.98L359.771 177.785L361.903 179.666C363.095 180.669 365.979 182.802 368.237 184.244ZM341.648 192.647C345.661 193.713 347.417 193.838 352.371 193.525C355.632 193.274 358.454 192.961 358.642 192.835C358.768 192.647 358.391 192.083 357.701 191.581C357.074 191.142 358.454 191.456 360.837 192.396L365.102 194.09L361.464 194.905C359.395 195.343 354.942 195.72 351.493 195.783C345.787 195.845 344.658 195.657 338.324 193.525C334.561 192.208 330.987 190.766 330.422 190.264C329.231 189.198 328.353 189.073 328.98 190.076C329.231 190.578 328.98 190.578 328.04 190.076C327.35 189.637 326.723 189.198 326.723 189.01C326.723 188.822 326.973 188.884 327.35 189.073C327.663 189.261 328.416 189.198 328.98 188.884C329.733 188.446 331.05 188.759 333.432 189.825C335.314 190.64 339.014 191.895 341.648 192.647ZM354.19 233.597L354.002 238.614L355.758 238.489C357.263 238.363 357.451 238.551 357.137 239.429C356.134 241.812 356.134 242.878 357.137 241.123C358.078 239.366 360.21 237.046 360.837 237.046C360.963 237.046 360.775 237.861 360.398 238.927C360.022 239.931 359.896 240.934 360.085 241.185C360.775 241.812 364.161 239.053 367.296 235.29C368.864 233.346 370.056 231.967 369.93 232.343C368.613 235.479 366.293 239.304 363.597 243.004C361.778 245.387 358.391 250.09 355.946 253.351C349.988 261.441 331.363 280.003 328.604 280.567C324.653 281.32 318.946 281.006 316.877 279.815C310.041 276.115 288.908 256.486 285.835 251.03C284.079 247.895 283.139 246.703 283.766 248.46C283.954 248.899 284.769 252.536 285.584 256.486C286.399 260.437 287.278 264.263 287.528 264.952C287.779 265.642 287.089 264.764 285.961 262.946C284.644 260.751 283.766 258.243 283.389 255.421C282.324 247.958 281.634 245.387 279.815 241.624C277.181 236.168 276.868 235.165 278.498 237.046C279.313 238.049 279.69 238.238 279.439 237.485C278.373 234.475 278.561 234.538 280.254 237.987C281.32 240.056 283.013 243.631 284.017 245.888C285.71 249.463 287.152 251.156 296.433 259.998C306.467 269.53 314.995 276.868 317.817 278.373C319.197 279.125 326.095 279.188 328.416 278.561C329.168 278.31 331.927 276.115 334.499 273.606L339.264 269.091V265.454C339.264 262.632 339.704 261.065 341.083 258.493C342.086 256.737 342.776 255.232 342.651 255.232C342.463 255.232 340.08 256.424 337.321 257.803C334.561 259.246 332.178 260.249 331.99 260.061C331.614 259.685 335.439 256.424 338.073 255.044C340.017 253.978 340.08 253.79 339.076 253.037C338.073 252.285 338.261 252.097 341.397 250.654C343.717 249.588 345.285 248.334 346.351 246.641C347.919 244.258 348.42 242.941 350.239 235.165C352.434 225.946 352.434 225.946 353.5 227.326C354.19 228.267 354.378 229.897 354.19 233.597ZM276.052 241.06C276.052 242.753 276.24 243.255 276.617 242.628C276.993 242.063 277.181 243.129 277.118 245.826C277.056 248.083 277.181 250.592 277.432 251.344C277.683 252.097 277.745 252.724 277.557 252.724C277.369 252.724 276.805 251.407 276.303 249.714L275.363 246.766V252.724C275.3 257.553 275.049 259.058 274.046 260.563C272.541 262.82 272.415 262.444 273.795 259.685C274.359 258.619 274.61 257.239 274.359 256.674C274.171 256.11 273.732 252.661 273.356 249.087C273.042 245.45 272.541 242.188 272.353 241.812C272.101 241.499 271.851 239.868 271.788 238.301C271.663 236.732 271.412 234.162 271.224 232.468C271.036 230.838 271.036 229.521 271.161 229.521C271.537 229.521 272.791 233.785 273.168 236.419C273.356 237.297 273.858 239.366 274.359 241.123L275.3 244.258L274.986 241.123C274.861 239.366 274.547 235.729 274.422 232.97L274.108 227.953L275.111 233.284C275.676 236.231 276.115 239.743 276.052 241.06ZM375.198 245.512C380.779 248.773 384.981 254.292 389.119 263.823C391.377 268.903 391.565 269.781 391.503 274.986C391.44 283.954 388.931 293.423 385.044 299.192C384.04 300.697 381.845 303.582 380.152 305.589C378.459 307.596 375.574 311.985 373.693 315.309C368.425 325.029 364.662 330.548 361.151 333.934L357.89 337.07L360.775 333.432C364.537 328.792 366.983 324.966 371.874 316.062C374.006 312.111 377.455 306.781 379.525 304.209C384.103 298.44 386.549 293.298 388.555 285.522C391.377 274.234 390.436 266.959 384.73 256.737C382.41 252.661 377.016 247.205 373.191 245.198C371.937 244.571 371.31 244.007 371.749 243.945C372.188 243.945 373.756 244.634 375.198 245.512ZM262.444 251.03C258.055 254.48 249.526 262.946 247.582 265.768C244.948 269.593 244.572 271.161 243.757 283.139C242.69 298.816 242.878 303.331 244.822 311.672C246.892 320.075 247.456 321.204 251.219 323.587C252.724 324.528 255.044 326.723 256.236 328.353L258.431 331.426L255.734 328.541C254.229 326.973 252.034 325.029 250.842 324.339C246.955 322.082 246.014 320.451 244.383 313.867C241.311 301.513 241.248 300.823 242 290.664C243.38 273.293 243.882 270.283 245.7 266.959C247.707 263.197 254.793 255.859 260.187 251.909C264.639 248.585 266.269 247.958 262.444 251.03ZM286.274 270.659C287.904 277.181 287.967 277.933 287.215 281.633C285.835 288.657 285.835 289.472 286.839 291.918C287.779 294.113 287.779 294.426 286.901 295.305C286.023 296.245 285.772 296.182 284.706 294.74C282.7 292.169 282.512 289.347 284.017 285.71C286.337 280.003 285.647 266.834 282.762 262.57L281.383 260.563L282.95 262.13C284.142 263.322 285.02 265.517 286.274 270.659ZM423.736 277.62C424.614 278.498 425.868 279.062 427.122 279.062C430.132 279.062 433.142 280.818 435.463 284.017C437.156 286.337 439.414 287.967 446.625 292.106C451.517 294.928 459.983 300.259 465.313 303.896C470.645 307.533 476.853 311.484 479.111 312.613C486.697 316.5 488.329 319.072 491.904 332.993C494.975 344.971 500.868 359.834 507.265 371.874C515.858 387.991 519.87 396.645 519.87 399.09C519.87 401.285 518.995 403.982 514.165 417.277C511.907 423.422 510.839 425.366 508.394 428.126C506.7 429.944 505.073 431.261 504.697 431.073C504.382 430.822 503.192 431.512 502.124 432.515C500.995 433.581 499.429 434.835 498.55 435.4C497.106 436.403 497.106 436.466 498.3 436.466C501.056 436.466 505.572 438.598 508.521 441.232L511.531 443.991L511.47 436.278C511.404 428.69 511.404 428.564 513.727 423.736C515.232 420.537 516.361 418.907 517.048 418.907C517.927 418.907 518.054 419.283 517.739 420.914C516.671 426.432 516.61 435.337 517.551 439.162C519.62 447.252 520.688 453.9 520.246 456.094C519.997 457.349 518.115 461.801 515.985 466.065C513.915 470.33 510.966 477.418 509.522 481.806C506.202 491.716 503.502 495.478 499.241 496.104C497.858 496.292 496.668 496.353 496.668 496.292C496.668 495.854 500.492 489.707 503.004 486.006C505.449 482.431 508.897 474.219 508.271 473.589C508.017 473.34 506.263 475.221 502.815 479.421C500.182 482.558 494.726 491.151 493.221 494.538C491.777 497.858 485.757 504.697 481.368 508.083L478.796 510.087L481.679 506.954C486.758 501.433 492.341 493.409 495.163 487.577C496.918 484.002 499.617 479.924 502.627 476.35C507.58 470.391 512.721 463.306 514.541 459.669C515.42 457.976 514.602 458.603 511.027 462.428C508.459 465.125 505.261 468.95 503.944 470.894C498.611 478.481 496.353 480.616 490.587 483.687L485.065 486.636L488.518 483.499C490.399 481.806 491.716 480.362 491.462 480.362C491.151 480.362 484.943 482.309 477.667 484.689C470.33 487.073 462.679 489.331 460.61 489.768C458.54 490.145 453.524 491.339 449.447 492.402C440.731 494.726 440.041 494.538 441.734 490.084C443.051 486.636 445.12 484.125 449.133 480.926L452.207 478.546L449.197 477.041C447.566 476.223 445.183 475.348 443.991 475.094C442.737 474.906 440.856 473.965 439.727 472.964C437.72 471.27 430.007 458.164 429.255 455.217C428.815 453.335 431.7 433.707 433.08 429.443C433.644 427.812 435.902 423.861 438.159 420.663C440.479 417.465 443.553 412.134 445.058 408.873C449.635 398.965 450.137 398.15 454.966 391.941C459.544 386.172 460.108 385.106 462.616 377.204C463.306 375.135 464.059 372.877 464.31 372.187C464.56 371.498 463.055 372.752 460.986 375.009C458.916 377.267 457.161 378.71 457.161 378.208C457.161 377.016 465.25 357.074 468.386 350.615C470.894 345.473 470.894 345.285 469.891 343.717C469.327 342.839 467.32 339.704 465.501 336.756C463.62 333.809 460.861 330.234 459.293 328.792C457.725 327.35 456.596 325.844 456.847 325.468C457.098 325.092 456.972 324.904 456.659 324.966C456.282 325.092 454.527 324.089 452.708 322.709C450.952 321.392 447.064 318.633 444.117 316.563C436.152 310.982 427.686 304.084 427.686 303.143C427.686 301.701 430.446 303.206 436.592 308.034C439.79 310.543 443.553 313.49 444.932 314.494C446.312 315.497 449.51 318.131 452.018 320.326C454.464 322.458 456.534 323.901 456.534 323.524C456.534 323.085 457.725 324.402 459.104 326.471C462.366 331.112 462.052 330.861 462.93 329.983C463.933 328.98 465 329.043 464.184 330.046C463.62 330.673 464.247 332.115 466.693 335.878C468.449 338.575 470.204 341.648 470.645 342.714L471.459 344.532L472.399 342.274C473.716 339.139 473.777 337.634 472.903 333.495C472.15 330.046 472.023 329.858 467.947 327.287C460.421 322.584 455.969 318.57 453.9 314.619C452.395 311.86 450.952 310.23 447.942 308.098C441.608 303.582 442.863 302.892 451.078 306.279C453.9 307.408 456.784 308.474 457.474 308.662C458.164 308.85 459.293 309.226 459.983 309.477C463.181 310.543 457.161 307.658 451.705 305.464C448.318 304.084 443.866 302.265 441.796 301.387C439.727 300.509 436.278 299.632 434.146 299.38C431.951 299.192 430.195 298.879 430.195 298.753C430.195 298.565 430.885 297.06 431.763 295.367C433.832 291.291 433.832 287.842 431.763 285.522L430.195 283.765L430.634 285.647C431.575 289.159 431.073 291.981 428.815 296.81C425.617 303.457 421.604 307.658 417.089 308.913C411.883 310.418 409.25 311.923 406.741 314.933L404.484 317.567L405.362 314.557C405.863 312.926 407.744 309.54 409.563 307.094C415.145 299.443 416.399 297.437 416.838 295.241C417.214 293.298 417.151 293.235 416.022 294.113C412.448 296.935 406.428 308.034 404.17 315.999C401.662 324.966 397.523 330.548 384.103 343.215C378.145 348.797 371.623 354.378 369.679 355.507C367.484 356.824 363.722 358.266 360.147 359.144C353.626 360.774 347.605 363.533 340.833 368.049C335.251 371.811 334.875 371.999 334.875 371.623C334.875 370.934 344.031 364.474 347.73 362.593C349.8 361.527 354.754 359.646 358.705 358.454C367.861 355.632 371.31 353.312 383.601 341.836C392.193 333.809 396.958 328.228 396.958 326.221C396.958 325.782 395.453 326.471 393.572 327.663C391.691 328.855 388.054 330.736 385.545 331.865C376.013 336.129 374.383 337.697 374.383 342.4C374.383 345.598 369.429 350.49 362.593 353.939C360.837 354.817 359.332 355.507 359.332 355.319C359.332 355.193 361.213 353.939 363.597 352.559C368.174 349.8 372.313 346.037 373.191 343.78C373.504 342.964 373.756 341.334 373.756 340.142C373.756 338.888 374.257 337.509 374.947 336.819C375.637 336.129 380.403 333.432 385.482 330.861C390.624 328.29 395.453 325.468 396.206 324.653C397.084 323.712 398.213 320.827 399.216 317.253C402.289 305.714 405.989 298.503 412.699 291.166C414.58 289.096 415.145 287.967 415.145 286.274C415.145 283.891 416.085 281.571 416.963 281.571C417.527 281.571 419.785 286.525 420.412 289.284C421.102 292.169 419.722 295.618 416.022 300.321C414.141 302.767 412.761 304.774 413.012 304.774C413.2 304.774 414.517 304.147 415.834 303.394C420.224 300.948 423.234 295.179 423.297 289.221C423.297 286.086 421.353 278.937 420.036 277.369C419.66 276.868 419.722 276.178 420.224 275.174C420.977 273.794 421.039 273.794 421.666 274.986C422.043 275.613 422.983 276.805 423.736 277.62ZM210.457 281.884C209.767 282.386 209.015 282.825 208.701 282.825C208.011 282.825 206.318 286.274 206.318 287.716C206.318 288.594 205.126 289.598 202.242 291.04C199.608 292.42 198.166 293.548 198.166 294.238C198.166 294.865 198.479 295.367 198.856 295.367C200.486 295.367 198.166 296.872 190.766 300.447C186.376 302.579 179.415 305.714 175.276 307.408C166.309 311.108 162.107 313.428 159.662 315.999C157.467 318.319 156.777 318.445 156.777 316.563C156.777 314.118 162.734 309.163 170.573 305.15C174.524 303.143 181.171 299.192 185.247 296.433C189.323 293.674 194.967 290.099 197.789 288.469C200.611 286.839 204.562 284.455 206.569 283.201C210.269 281.007 212.84 280.128 210.457 281.884ZM154.707 312.926C154.143 314.87 154.268 316.626 155.146 321.141C156.463 328.29 157.968 332.303 161.167 337.446C162.546 339.641 164.992 343.968 166.559 347.103C168.127 350.176 170.009 353.374 170.761 354.127L172.015 355.507L174.712 350.866C178.475 344.532 184.244 338.888 195.344 330.861C200.549 327.099 205.44 323.461 206.318 322.709C207.572 321.643 207.698 321.58 206.945 322.584C206.443 323.273 201.176 327.35 195.344 331.739C178.851 343.968 174.148 350.176 171.2 363.283C169.005 372.877 169.381 375.198 175.213 386.799C179.604 395.453 182.488 402.352 182.488 404.107C182.488 405.362 181.359 403.543 180.607 401.035C180.23 399.655 177.659 393.886 174.9 388.179C168.566 374.947 168.127 372.815 169.946 363.785L171.326 357.012L169.444 354.252C167.187 350.866 159.285 336.505 157.153 331.739C156.212 329.733 155.083 325.217 154.394 321.141L153.265 313.992L151.634 315.936C149.628 318.382 148.938 320.326 147.684 327.976C146.68 333.997 141.35 350.803 138.34 357.701C136.898 360.9 136.835 361.276 137.901 360.335C138.591 359.708 141.162 356.134 143.607 352.371C146.116 348.608 148.374 345.724 148.687 345.912C149.816 346.539 149.189 350.302 147.496 354.002C145.175 358.893 140.785 363.596 132.947 369.679C129.121 372.627 126.487 375.135 126.299 376.013C125.672 378.521 126.55 381.406 129.435 386.297C135.33 396.394 143.733 406.114 153.077 413.639C157.028 416.838 161.605 420.851 163.236 422.607C166.246 425.805 171.451 433.518 177.659 443.991C179.604 447.252 182.864 451.893 184.996 454.339C190.013 460.171 191.518 463.243 190.954 466.693C190.264 471.209 188.195 476.853 185.937 480.428C183.115 484.877 183.178 483.936 186.251 477.102C189.511 469.953 190.39 465.94 189.449 462.804C189.073 461.55 186.815 458.227 184.369 455.467C181.986 452.645 178.035 447.001 175.653 442.8C166.497 426.934 162.672 422.544 148.875 412.197C141.036 406.302 135.831 400.847 129.435 391.941C124.355 384.855 124.105 384.542 123.665 385.67C123.477 386.172 121.972 389.307 120.216 392.569C117.144 398.401 117.144 398.463 119.213 396.456C121.721 394.011 123.352 393.886 123.916 396.018C124.543 398.589 123.665 400.595 120.091 404.484C118.21 406.553 116.642 408.748 116.642 409.312C116.642 411.194 118.649 413.576 128.62 423.799C143.733 439.162 151.007 447.001 162.985 460.547C175.59 474.972 177.785 477.606 180.732 481.933C181.861 483.687 183.178 485.065 183.617 485.004C183.993 484.943 184.683 484.877 184.996 484.816C185.373 484.816 187.066 483.438 188.759 481.867C191.08 479.736 191.707 479.36 191.456 480.362C191.017 481.994 187.693 485.38 186.501 485.38C185.31 485.38 185.31 485.441 187.818 489.082C189.01 490.897 190.139 493.343 190.39 494.599C190.954 497.67 189.825 502.251 187.568 505.825C186.188 507.956 185.749 509.273 186 510.402C186.376 512.034 186.376 512.034 185.122 510.214L183.805 508.394L186.251 505.572C189.135 502.312 189.951 498.611 188.759 494.599C187.944 491.716 183.805 485.884 183.052 486.382C182.739 486.57 181.986 485.63 181.297 484.313C178.287 478.358 152.011 448.256 143.294 440.73C134.452 433.142 118.21 416.587 116.078 413.012C112.44 406.867 112.503 404.358 116.83 394.701C119.338 389.057 120.028 386.925 121.031 381.594C122.098 376.452 122.976 374.884 128.244 369.365C130.752 366.732 133.198 363.785 133.762 362.718C135.769 358.768 139.845 346.539 142.918 335.314C147.057 320.326 148.122 317.504 151.196 313.616C154.394 309.603 155.648 309.351 154.707 312.926ZM241.75 330.297C243.004 332.868 243.129 337.195 242.188 342.4L241.561 345.849L241.499 342.714C241.436 340.958 241.123 338.449 240.809 337.07C240.37 335.188 240.307 336.129 240.558 340.644C240.683 344.031 240.558 349.988 240.182 353.814C239.806 357.701 239.429 373.442 239.366 388.806C239.241 404.17 238.928 419.785 238.614 423.61C238.363 427.373 238.113 433.017 238.05 436.152C237.987 439.664 237.423 444.054 236.482 447.754C235.604 451.391 234.914 456.282 234.789 460.296C234.663 463.933 234.224 468.386 233.911 470.267C233.534 472.15 233.284 474.784 233.284 476.035C233.284 478.292 232.406 479.675 231.528 478.857C231.34 478.608 231.59 476.538 232.217 474.219C232.782 471.896 233.534 465.313 233.911 459.606C234.35 452.143 234.914 447.942 235.855 444.869C236.984 441.295 237.234 438.724 237.36 430.195C237.423 424.488 237.861 404.295 238.301 385.357C239.366 342.212 239.366 341.522 238.301 333.934C237.799 330.485 237.485 327.412 237.548 327.099C237.673 326.785 236.67 325.406 235.353 324.026C233.284 321.768 233.472 321.894 236.796 324.716C238.928 326.534 241.185 329.043 241.75 330.297ZM399.404 354.002C399.09 358.141 398.275 366.167 397.585 371.874C396.896 377.581 396.08 386.297 395.704 391.314C395.391 396.331 394.826 404.358 394.513 409.187C394.136 414.016 393.572 424.049 393.196 431.449C392.82 438.849 392.067 447.879 391.628 451.517C390.374 460.672 390.123 477.982 391.252 479.36C391.941 480.174 391.941 480.738 391.064 482.873C389.496 486.824 389.308 489.646 390.562 490.333C391.126 490.709 391.314 491.024 391.001 491.024C388.681 491.085 388.116 486.448 389.998 482.996C391.064 480.992 391.064 480.738 389.935 477.54C389.119 474.972 388.931 473.528 389.371 471.397C389.621 469.828 389.747 466.379 389.559 463.745C389.371 460.923 389.684 456.22 390.248 452.269C391.189 446.061 392.757 424.676 393.446 408.748L393.76 402.1L392.067 402.289C385.608 403.041 371.059 403.919 368.801 403.794C366.418 403.605 365.917 403.292 365.603 401.975C365.352 401.097 365.29 399.467 365.415 398.401C365.729 396.519 366.042 396.394 376.766 392.255C382.911 389.872 389.182 387.301 390.876 386.485C392.506 385.67 393.823 385.294 393.823 385.67C393.823 386.548 390.248 388.116 377.205 392.945L366.544 396.833V399.906V402.916L372.564 402.853C380.779 402.728 393.384 401.348 393.948 400.47C394.199 400.094 394.45 397.397 394.45 394.45C394.45 388.68 395.704 375.699 397.209 366.23C398.15 359.959 399.09 346.413 398.213 350.866L397.773 353.374L397.648 350.678C397.648 349.235 397.899 348.044 398.213 348.044C398.589 348.044 398.902 345.724 398.902 342.526L399.028 337.07L399.467 341.773C399.718 344.344 399.718 349.863 399.404 354.002ZM354.315 369.177C351.117 379.462 348.232 401.16 348.546 412.323C348.734 416.9 348.42 420.287 347.417 424.864C346.727 428.314 345.16 435.902 343.905 441.796C342.714 447.628 341.146 454.715 340.456 457.474C339.076 462.742 339.076 471.021 340.393 471.459C340.833 471.586 340.644 472.837 339.954 474.906C339.327 476.726 338.638 479.299 338.387 480.677C338.136 482.055 337.383 485.004 336.694 487.2C336.066 489.392 335.502 492.779 335.439 494.726C335.439 497.67 335.314 498.046 334.749 496.856C333.872 495.036 336.066 482.873 338.324 476.914C339.516 473.655 339.704 472.46 339.202 470.833C338.011 466.755 338.449 461.362 340.77 450.952C342.086 445.308 343.027 440.605 342.902 440.542C342.776 440.417 340.581 442.236 337.948 444.493C335.377 446.813 328.917 452.52 323.587 457.16C318.257 461.801 310.104 469.013 305.401 473.152C286.776 489.58 282.95 492.906 278.435 496.668L273.732 500.619L277.181 497.233C279.125 495.351 284.894 490.145 290.037 485.63C295.242 481.114 304.586 472.775 310.794 467.131C317.065 461.488 326.848 452.896 332.555 448.068C342.902 439.288 342.902 439.288 343.655 435.839C344.093 433.958 345.097 429.693 345.912 426.432C347.103 421.792 347.417 418.844 347.417 412.699C347.417 408.372 347.668 402.602 348.044 399.843C350.114 383.287 350.741 379.148 352.12 374.006C353.626 368.488 355.319 363.722 355.82 363.722C355.946 363.722 355.256 366.167 354.315 369.177ZM274.359 387.865C274.547 392.318 274.923 396.582 275.049 397.272C275.237 397.962 274.798 401.473 274.046 405.111C272.29 414.016 270.973 444.681 272.164 448.318C272.854 450.513 272.791 451.015 271.224 454.527C269.342 458.666 269.342 461.926 271.224 465.564C272.541 468.01 272.478 468.323 269.844 472.211C267.461 475.724 267.147 477.418 267.9 481.933L268.339 484.44L267.461 481.933C266.144 478.043 266.395 475.974 268.652 471.708L270.784 467.758L269.593 463.118L268.402 458.415L269.969 455.279C271.663 451.893 271.913 449.886 270.91 446.5C269.781 442.8 271.349 411.507 272.917 405.8C273.795 402.414 274.108 399.78 273.92 396.08L273.732 391.001L270.784 388.43C266.52 384.604 262.005 383.099 253.351 382.598C247.832 382.284 246.578 382.033 248.021 381.594C250.592 380.842 260.437 382.158 264.89 383.789C267.085 384.604 269.531 386.172 271.036 387.677L273.544 390.186L273.168 387.175C272.729 383.852 272.478 370.62 272.791 368.112C272.979 366.418 273.669 374.947 274.359 387.865ZM216.854 374.006C222.498 376.326 226.699 377.581 231.904 378.459C234.663 378.898 235.855 379.274 234.663 379.336C231.465 379.462 224.128 377.581 217.982 375.135C211.774 372.689 211.084 372.752 209.328 376.326C205.44 383.915 204.186 387.865 204.186 392.694C204.123 395.704 204.437 397.836 204.876 398.275C205.754 399.153 221.808 403.355 229.835 404.86C236.796 406.114 237.861 406.365 237.548 406.679C237.172 407.055 224.316 404.484 215.411 402.289C211.649 401.348 207.447 400.282 206.193 399.968C204.186 399.53 203.81 399.153 203.433 397.209C202.556 392.506 203.559 386.862 206.318 380.653C210.269 371.686 210.645 371.435 216.854 374.006ZM421.729 374.571C425.304 380.089 429.317 398.777 427.749 402.728C427.122 404.421 426.871 404.484 422.858 404.484C416.838 404.484 402.414 403.167 401.662 402.477C401.348 402.226 402.038 402.1 403.229 402.226C404.421 402.352 409.563 402.853 414.705 403.292C426.809 404.295 427.06 404.17 427.06 398.275C427.06 393.948 424.488 382.284 422.419 377.455C420.726 373.442 420.412 373.379 413.075 377.079C409.438 378.96 405.926 380.842 405.299 381.281C404.484 381.908 404.484 381.845 405.424 380.841C406.992 379.211 418.217 373.191 419.66 373.128C420.287 373.128 421.165 373.756 421.729 374.571ZM231.465 413.702C233.974 415.521 234.663 415.709 235.792 415.145C236.796 414.58 237.046 414.643 237.046 415.458C237.046 415.96 236.796 416.398 236.419 416.398C234.412 416.398 214.721 436.78 209.705 444.054L206.695 448.444L206.82 454.088C207.133 464.435 208.576 473.589 211.335 481.679C212.715 485.884 213.781 489.458 213.592 489.58C213.216 490.022 208.764 477.041 207.886 472.837C206.13 464.31 204.938 450.325 205.189 441.796L205.44 433.393L209.328 429.631C211.46 427.498 214.847 423.359 216.791 420.349C219.487 416.21 221.118 414.455 223.125 413.326C224.63 412.511 226.009 412.009 226.197 412.26C226.385 412.448 225.758 412.887 224.755 413.263C222.058 414.329 220.93 415.521 217.23 421.165C215.474 423.924 212.401 427.938 210.457 430.07L206.883 433.895L207.071 439.539L207.259 445.246L210.833 440.73C212.84 438.222 218.798 431.7 224.065 426.244C233.346 416.775 233.722 416.336 232.469 415.458C231.779 414.956 230.901 414.768 230.587 414.956C230.211 415.145 230.148 415.019 230.399 414.643C230.65 414.204 229.772 413.263 228.267 412.26C226.887 411.319 225.758 410.504 225.758 410.316C225.758 409.939 228.33 411.444 231.465 413.702ZM405.801 417.402C401.85 422.858 401.912 423.109 409.689 432.39C411.758 434.773 413.765 437.532 414.204 438.41C414.893 439.602 415.082 444.744 415.207 460.359L415.333 480.677L413.577 486.946C411.57 494.161 411.382 498.422 412.95 504.193C414.893 511.592 414.267 516.295 410.441 522.569C409.25 524.512 407.243 527.71 406.051 529.652C404.86 531.6 403.229 535.047 402.477 537.366C401.16 541.128 401.035 542.572 401.097 552.482C401.223 568.285 402.226 571.545 411.883 587.785C414.705 592.554 416.587 596.378 416.963 598.448C417.904 602.902 418.907 612.43 418.844 615.506C418.782 617.261 418.594 616.696 418.217 613.625C416.21 596.693 416.148 596.378 410.065 586.158C402.414 573.365 401.285 570.04 400.094 557.684C398.902 544.393 400.909 535.927 407.933 525.203C413.577 516.549 414.329 512.41 412.009 503.629C410.378 497.482 410.441 496.419 412.636 487.577L414.517 480.051V460.233V440.417L412.887 437.971C411.946 436.654 409.626 433.581 407.619 431.136C401.912 424.112 401.724 423.799 402.791 421.29C403.731 419.095 407.744 413.326 408.184 413.639C408.246 413.702 407.243 415.395 405.801 417.402ZM113.506 420.161C113.506 422.168 116.704 431.575 118.586 435.212C120.216 438.347 120.405 439.225 120.405 444.744C120.405 451.83 121.095 452.269 124.105 447.001L125.86 443.929L126.237 447.252C126.487 449.071 127.24 451.328 127.93 452.269C130.501 455.718 129.686 456.094 119.652 456.534C112.566 456.784 111.5 456.972 110.308 458.164C109.054 459.481 109.054 459.544 110.057 461.613C110.684 462.804 113.882 466.567 117.206 470.016C120.593 473.467 124.105 477.667 125.108 479.421C126.048 481.114 127.554 483.687 128.369 485.065C129.56 487.012 128.996 486.57 125.986 483.184C123.791 480.738 119.589 476.223 116.579 473.152C110.245 466.567 107.235 462.114 107.235 459.293C107.235 458.101 108.239 455.593 109.744 453.022C112.566 448.13 113.193 446.186 113.82 439.978C114.071 437.595 114.447 435.087 114.698 434.397C114.949 433.644 114.572 430.571 113.694 427.122C112.127 420.663 111.876 417.967 112.879 418.593C113.256 418.782 113.506 419.534 113.506 420.161ZM407.306 423.171C408.309 424.802 411.507 428.564 414.392 431.575L419.597 436.968L419.973 444.43C420.412 453.398 420.412 452.018 419.66 458.415C419.284 461.55 419.221 465.062 419.534 466.881C420.475 472.46 420.224 476.787 418.594 482.309C415.019 494.034 414.893 495.412 416.336 502.063C418.029 509.71 418.029 515.354 416.399 518.618C415.709 519.935 414.893 521.186 414.517 521.44C413.388 522.127 408.936 530.217 407.619 533.918C405.55 540.065 405.174 544.016 405.738 556.245C406.302 569.79 406.302 569.663 413.89 583.397C420.161 594.812 421.102 597.446 421.98 606.476C422.419 610.427 422.795 614.566 422.983 615.694C423.109 616.757 422.983 617.698 422.732 617.698C422.482 617.698 422.042 615.252 421.792 612.242C420.914 599.826 420.287 597.319 416.022 589.229C413.828 585.029 410.566 578.755 408.811 575.18L405.55 568.784L404.922 557.12C403.919 539.313 405.048 534.671 413.263 521.817C417.339 515.42 417.778 512.222 415.834 504.005C414.078 496.607 414.141 493.846 416.399 486.006C418.28 479.675 418.28 479.172 417.904 470.645C417.653 464.748 417.715 460.672 418.217 458.289C419.095 454.15 419.284 439.915 418.531 437.908C418.217 437.156 416.273 434.773 414.141 432.578C408.685 426.871 403.669 420.161 404.922 420.161C405.174 420.161 406.239 421.478 407.306 423.171ZM129.184 438.034C131.692 441.608 140.785 457.286 146.116 467.194C148.624 471.835 151.258 476.599 152.073 477.855C154.645 482.055 157.467 487.262 157.153 487.262C156.902 487.262 149.377 474.906 142.542 463.118C141.099 460.672 137.587 455.467 134.703 451.517C129.059 443.866 124.606 436.09 123.916 433.017L123.54 431.136L125.484 433.33C126.55 434.522 128.18 436.654 129.184 438.034ZM524.074 437.845C532.352 446.688 533.542 451.203 529.653 458.916C528.401 461.362 527.395 464.247 527.395 465.25C527.395 466.316 528.712 469.577 530.283 472.587C531.849 475.597 535.8 484.378 539.059 492.214C542.323 499.993 545.898 507.956 547.026 509.837C550.413 515.481 550.789 516.737 550.977 523.322C551.165 530.471 553.357 548.593 554.674 553.733C555.177 555.615 555.742 558.691 555.991 560.572C556.555 565.087 555.427 564.334 554.425 559.565C552.859 552.482 546.462 548.593 533.98 547.214C528.213 546.584 526.708 546.147 524.573 544.703C522.381 543.198 521.629 543.01 518.492 543.198C516.483 543.325 514.856 543.386 514.856 543.264C514.856 542.76 519.62 541.194 521.252 541.194C522.254 541.194 525.264 541.759 527.898 542.384C530.593 543.076 535.362 544.204 538.561 544.891C546.274 546.584 549.783 548.155 550.347 550.225C550.85 552.228 551.852 552.355 551.791 550.413C551.73 548.216 548.842 537.554 548.781 539.313C548.781 540.188 549.096 542.511 549.595 544.454C550.037 546.462 550.347 548.089 550.225 548.089C550.098 548.089 549.472 546.838 548.842 545.333C547.525 542.384 545.145 541.067 541.571 541.382C539.812 541.505 539.751 541.382 537.117 533.669C534.92 527.273 534.045 525.513 532.164 523.82C530.156 522.005 530.095 521.751 531.285 521.751C533.415 521.751 537.366 523.947 542.069 527.71C546.584 531.284 547.652 531.411 548.216 528.401C548.343 527.461 547.713 527.019 545.267 526.144C543.574 525.579 539.939 523.632 537.305 521.939C530.908 517.739 530.095 517.551 525.702 519.747C520.998 522.127 517.363 523.444 512.41 524.512C507.829 525.579 508.017 525.076 512.975 523.068C514.856 522.254 518.868 520.246 521.878 518.553C524.888 516.859 527.959 515.481 528.651 515.481C530.156 515.481 534.92 517.8 538.495 520.246C539.812 521.125 542.511 522.691 544.581 523.759C549.03 526.017 549.594 525.579 549.03 520.5C548.654 516.61 546.335 511.404 544.139 509.334C543.325 508.582 539.562 507.015 535.423 505.76C531.412 504.57 526.831 503.004 525.203 502.312C523.571 501.621 521.878 501.056 521.441 501.056C520.998 501.056 518.741 503.756 516.361 507.077C511.719 513.661 509.899 515.354 505.195 517.866C502.063 519.559 501.748 519.559 486.947 519.935L471.896 520.312L463.871 523.51C451.893 528.335 449.008 527.898 449.008 520.998C449.008 516.422 450.137 513.727 452.959 511.342C454.213 510.341 455.467 508.709 455.844 507.768C456.91 505.073 456.659 499.739 455.405 497.36C453.837 494.222 452.645 494.095 453.774 497.106C454.715 499.739 454.966 506.075 454.088 505.073C453.461 504.382 452.144 497.797 452.144 495.29C452.144 493.155 453.461 492.967 455.279 494.787C457.161 496.668 457.788 498.738 457.788 503.003C457.788 507.453 456.784 510.153 454.025 512.659C451.203 515.293 450.262 517.424 450.262 520.998C450.262 525.137 451.266 526.017 455.029 525.015C458.352 524.135 468.072 519.371 472.084 516.671L475.033 514.729L472.526 517.363L470.016 520.058L471.896 519.493C472.964 519.183 480.052 518.929 487.638 518.929H501.56L505.073 516.483C511.658 511.968 515.797 506.136 516.737 500.055C517.048 497.985 517.612 494.095 517.988 491.339C518.365 488.579 519.117 484.755 519.62 482.808C520.058 480.926 520.876 476.477 521.375 473.025C522.066 468.072 522.692 465.877 524.197 463.243C526.332 459.481 526.769 457.725 525.203 459.042C524.7 459.481 523.632 461.55 522.88 463.683L521.441 467.508L521.252 464.686C520.876 459.544 521.502 457.913 524.761 455.906C528.9 453.335 529.276 452.959 529.276 451.14C529.276 449.008 527.522 445.81 523.383 440.291C521.441 437.72 519.87 435.4 519.87 435.087C519.87 433.958 521.125 434.773 524.074 437.845ZM112.942 475.536C113.945 479.299 113.067 482.121 110.496 483.499L108.427 484.628L109.869 486.006C112.064 488.141 115.513 489.458 124.167 491.65C138.591 495.29 144.235 498.987 154.143 511.469C157.341 515.481 159.41 517.49 161.167 518.303C162.546 518.929 163.549 519.559 163.361 519.747C162.922 520.185 159.034 518.491 158.219 517.49C157.529 516.61 157.404 516.671 157.404 517.739C157.404 519.183 154.394 524.135 152.701 525.513C152.073 526.017 152.575 525.137 153.766 523.51C157.028 519.244 157.341 517.236 155.146 514.353C151.509 509.588 143.231 501.498 139.218 498.865C133.887 495.351 131.692 494.472 122.6 492.214C118.461 491.151 112.629 489.204 109.681 487.826C104.664 485.441 104.163 485.319 101.717 485.945C98.7068 486.758 98.1424 487.638 97.6406 491.965C97.2018 496.104 93.251 508.271 90.5541 514.037C89.3628 516.549 88.4221 518.868 88.4221 519.244C88.4221 519.559 88.9865 521.502 89.6135 523.444C90.3034 525.452 90.9304 527.771 91.056 528.651C91.1815 529.841 91.5578 530.156 92.6236 530.029C93.9405 529.841 93.9405 529.906 93.0629 532.79C92.561 534.422 92.3103 535.861 92.4354 535.988C92.8117 536.364 96.5743 531.6 96.5743 530.72C96.5743 530.283 96.1355 529.906 95.5711 529.906C94.8186 529.906 94.9442 529.464 96.1981 527.959C97.0762 526.896 97.8287 525.264 97.8287 524.324C97.8287 522.066 94.5679 517.49 92.3103 516.671L90.6172 515.985L92.1222 514.978C92.8747 514.353 94.7561 512.909 96.1981 511.658C97.578 510.402 99.3963 509.085 100.149 508.647C100.964 508.271 107.988 507.331 115.827 506.639C131.442 505.195 134.828 504.631 134.828 503.253C134.828 501.748 132.884 501.244 125.17 500.807C121.031 500.619 116.704 500.243 115.451 500.055C113.13 499.678 113.005 499.49 110.434 493.282C110.308 492.967 111.562 493.658 113.193 494.787C116.83 497.294 121.659 498.865 127.616 499.49C132.194 499.928 135.079 501.056 135.643 502.5C136.584 504.885 133.887 505.826 121.721 507.392C109.807 508.958 104.601 510.026 102.532 511.342C100.901 512.41 98.1424 517.113 98.9575 517.551C99.2082 517.739 100.839 518.054 102.532 518.303C104.288 518.553 107.298 519.432 109.242 520.246C112.001 521.375 114.886 521.939 120.843 522.381C130.187 523.134 137.399 524.074 140.472 524.949C141.663 525.325 146.053 527.272 150.192 529.276C154.331 531.284 159.599 533.669 161.919 534.61C164.239 535.55 168.002 537.554 170.259 539.059C172.517 540.564 174.587 541.82 174.9 541.82C175.151 541.82 175.653 540.879 175.966 539.75C176.342 538.495 177.408 537.178 178.914 536.237C180.795 534.986 181.485 533.979 182.237 531.346C183.241 528.025 184.369 526.393 184.369 528.462C184.307 530.72 181.986 534.732 179.415 536.928C178.035 538.118 176.844 539.435 176.844 539.811C176.844 540.254 176.28 541.128 175.59 541.82C174.336 543.076 174.336 543.076 170.761 540.752C168.754 539.501 163.048 536.552 158.031 534.233C153.014 531.976 146.869 529.088 144.423 527.771C140.973 526.078 139.092 525.513 136.709 525.513C133.198 525.513 132.257 526.957 135.33 527.649C137.525 528.147 138.967 529.403 142.165 533.73L144.736 537.244L141.538 537.366C131.567 537.681 118.899 538.81 115.952 539.689C113.13 540.503 111.813 541.444 107.862 545.521C100.713 552.92 98.895 556.494 93.4391 574.179C91.8085 579.446 90.8678 581.266 88.0459 584.775C83.0288 591.11 83.0288 592.992 87.9203 602.902C89.0491 605.032 89.4253 606.41 88.924 606.288C87.8577 605.912 84.2832 599.953 82.7782 595.814C81.0224 591.237 81.6494 589.229 87.2308 581.643C89.8016 578.19 91.1185 575.119 94.6305 564.711C97.3269 556.494 102.03 547.652 105.417 544.266C107.862 541.82 107.862 541.82 106.169 542.196C105.166 542.445 103.347 543.137 102.03 543.828C100.713 544.454 99.3338 544.957 98.8949 544.891C97.0136 544.581 90.6172 548.404 86.3527 552.416C82.7156 555.803 81.2731 559.001 81.8375 562.453C82.0256 564.019 82.2763 565.901 82.2763 566.592C82.3393 567.279 82.9037 569.913 83.5307 572.485C84.8476 577.814 84.9102 578.694 84.0951 577.814C82.9037 576.685 80.1443 564.645 80.0818 560.318C79.9562 556.367 80.2069 555.553 82.0882 552.167C83.217 550.098 84.8476 546.584 85.6001 544.327C86.4152 542.069 87.9833 538.245 89.1121 535.738L91.1185 531.223L89.4884 526.332C87.4189 520.246 87.4189 519.117 89.4253 513.788C94.3168 501.056 96.5743 493.719 96.5743 490.587C96.5743 486.885 97.2018 486.072 101.591 483.814C104.1 482.558 104.915 481.679 106.232 478.857C107.11 476.975 107.862 475.282 107.862 475.16C107.862 474.972 108.302 473.777 108.866 472.46L109.869 470.016L111.06 471.52C111.688 472.272 112.566 474.154 112.942 475.536ZM199.357 487.887C198.981 490.836 198.103 494.848 197.413 496.856C195.72 502.124 191.456 511.658 189.637 514.48C188.006 516.925 187.818 519.117 189.073 522.691C189.449 523.886 189.449 523.886 188.508 522.757C188.006 522.127 187.379 520.312 187.129 518.807C186.753 516.361 186.941 515.731 188.759 513.224C191.33 509.588 195.407 500.182 197.037 494.161C197.789 491.151 198.417 486.194 198.667 480.362L199.044 471.27L199.608 476.914C199.922 480.677 199.859 484.313 199.357 487.887ZM429.192 485.192C429.693 497.171 430.258 500.243 433.017 505.887C435.087 510.087 435.212 510.778 435.212 516.61C435.212 522.88 436.215 527.898 437.909 529.779C438.473 530.471 439.163 534.422 439.915 540.879C441.42 554.989 442.361 560.13 444.869 566.968C447.19 573.365 450.89 588.161 452.395 597.004C453.586 604.218 454.339 618.639 453.524 619.203C452.645 619.706 452.457 618.578 450.325 602.271C449.259 594.309 447.817 586.158 447.127 584.088L445.935 580.387L446.186 584.149C446.312 586.219 445.998 590.109 445.496 592.804C444.869 596.002 444.618 600.578 444.744 606.1L444.932 614.5L443.239 616.259C442.298 617.2 441.358 617.764 441.107 617.51C440.919 617.322 440.479 615.817 440.166 614.251C439.852 612.684 438.661 609.359 437.469 606.913C436.09 604.091 435.024 600.644 434.647 597.944C433.393 589.168 432.703 582.019 432.703 578.444C432.641 576.375 432.202 573.614 431.7 572.236C428.941 565.087 428.753 563.892 429.505 557.872C429.944 554.74 431.136 548.654 432.202 544.327C434.647 534.295 434.899 527.273 432.892 520.5C432.139 517.927 431.073 513.224 430.571 510.153C430.007 507.015 429.317 503.253 428.941 501.687C428.188 498.3 427.436 471.835 428.188 474.092C428.502 474.972 428.941 479.986 429.192 485.192ZM268.402 487.765C268.088 488.894 267.649 491.273 267.461 493.094C267.21 494.848 266.395 501.687 265.517 508.271C264.702 514.79 264.012 520.688 264.012 521.313C264.012 521.939 263.761 522.315 263.51 522.127C263.259 521.939 263.071 522.63 263.134 523.698C263.197 524.7 263.009 525.513 262.695 525.513C261.817 525.513 262.005 522.63 263.385 515.608C265.015 507.331 265.015 507.077 263.322 507.956C262.632 508.332 259.622 510.529 256.675 512.786C251.595 516.61 251.219 516.798 250.404 515.731C249.965 515.105 249.589 513.727 249.589 512.598C249.589 510.839 250.341 509.899 255.107 505.572C258.117 502.815 261.754 499.617 263.197 498.422C265.078 496.917 265.956 495.728 266.207 494.161C266.709 491.085 268.464 485.192 268.778 485.507C268.903 485.695 268.778 486.697 268.402 487.765ZM211.022 497.736C209.391 504.193 209.328 504.885 209.705 514.226C210.081 521.563 210.457 524.761 211.46 527.395C215.286 537.808 216.352 543.574 216.352 553.296C216.289 564.146 214.282 570.101 207.572 578.379C202.493 584.775 201.678 587.912 202.116 599.826C202.43 608.983 203.621 614.312 206.318 618.954L207.635 621.15L206.005 619.269C202.932 615.629 201.803 610.803 201.489 600.141C200.988 585.782 201.364 584.465 208.325 575.872C214.345 568.596 216.414 559.692 215.223 546.711C214.47 539.059 213.404 534.295 210.708 527.084C209.516 523.947 209.203 521.69 209.015 513.285C208.701 504.382 208.827 502.688 210.081 497.924C210.833 494.975 211.648 491.904 211.837 491.024C212.025 490.145 212.275 489.834 212.464 490.272C212.589 490.709 211.962 494.095 211.022 497.736ZM509.212 495.601C507.829 502.688 501.499 511.719 497.858 511.719C494.538 511.719 495.29 509.334 501.499 500.431C508.648 490.022 508.836 489.768 509.334 491.085C509.588 491.777 509.522 493.785 509.212 495.601ZM214.721 498.422C213.592 502.75 213.592 503.314 213.969 516.737C214.22 524.512 214.408 525.579 216.164 529.591C219.299 536.74 220.177 540.442 220.553 548.089C221.118 561.07 218.359 571.295 211.899 579.446C207.76 584.653 206.82 587.475 206.443 595.499C206.13 603.339 207.008 608.795 210.143 617.322C212.527 623.906 212.401 624.974 210.018 618.954C206.757 610.991 205.691 605.724 205.691 597.634C205.691 588.227 206.569 585.339 211.649 578.129C217.919 569.287 219.613 563.267 219.613 549.971C219.676 541.505 219.048 538.56 215.662 530.593C213.404 525.325 213.154 524.262 213.216 519.935C213.279 517.302 213.154 512.598 212.903 509.4C212.464 504.443 212.589 502.938 213.906 497.924C214.721 494.726 215.537 492.656 215.662 493.221C215.725 493.846 215.349 496.231 214.721 498.422ZM528.147 504.132C537.178 507.204 542.761 511.719 546.462 519.117C547.464 521.064 547.403 520.998 544.515 518.242C540.254 514.103 536.679 511.846 530.908 509.4C525.829 507.265 522.381 504.697 522.381 503.126C522.381 502.124 521.878 501.997 528.147 504.132ZM196.974 528.025C197.162 537.554 196.41 542.887 191.957 564.08C190.076 572.923 187.881 587.724 186.941 597.634L186.439 602.963L186.313 598.885C186.251 594.309 188.32 576.121 189.763 568.473C190.327 565.713 191.581 560.069 192.647 555.93C194.466 548.908 194.591 547.591 194.654 536.176C194.717 529.464 195.03 520.688 195.344 516.737L195.971 509.522L196.41 515.166C196.598 518.242 196.912 524.074 196.974 528.025ZM470.955 524.573C470.955 524.761 468.762 526.017 466.003 527.334C461.613 529.591 457.788 532.789 457.788 534.356C457.788 534.61 458.54 535.362 459.418 535.988C463.369 538.56 473.467 536.237 488.955 529.215C494.35 526.83 498.799 524.949 498.926 525.076C499.617 525.702 482.431 533.791 476.289 535.738C464.811 539.374 460.045 539.374 457.161 535.738C454.213 531.976 456.847 528.778 465 526.205C468.135 525.203 470.706 524.324 470.833 524.324C470.894 524.262 470.955 524.385 470.955 524.573ZM534.483 528.712C534.671 529.403 534.671 530.405 534.483 530.908C533.918 532.474 526.581 535.55 520.185 536.867C516.737 537.62 511.531 539.125 508.582 540.254C505.637 541.382 500.807 542.887 497.924 543.574C494.975 544.327 490.521 545.582 488.075 546.396C485.569 547.276 483.499 547.84 483.499 547.652C483.499 547.026 490.46 544.266 496.043 542.699C506.014 539.877 524.573 532.601 528.778 529.968C533.293 527.019 534.045 526.896 534.483 528.712ZM158.282 550.225C162.86 551.852 167.563 554.74 170.134 557.374C172.58 559.88 179.29 573.929 179.478 576.751C179.541 578.068 179.541 580.824 179.415 582.894C179.227 586.407 179.164 586.468 178.725 584.338C177.847 579.573 171.012 570.98 165.807 568.031C161.731 565.774 160.602 564.584 162.609 564.645C163.361 564.711 164.114 564.899 164.302 565.087C164.49 565.275 166.371 566.968 168.566 568.723C170.761 570.543 173.771 573.99 175.465 576.436C177.722 579.884 178.475 580.636 178.6 579.634C178.851 577.88 176.719 571.733 173.458 564.772C170.385 558.248 167.688 555.426 161.355 552.416C155.335 549.533 152.513 549.472 145.802 551.852C142.667 552.92 137.023 554.801 133.26 555.93C125.233 558.437 116.956 562.011 114.886 563.958C114.071 564.711 112.566 566.841 111.437 568.784C110.371 570.665 108.302 574.051 106.859 576.309C102.532 583.082 98.7068 591.171 95.3204 600.766C91.6829 611.113 91.4948 613.371 93.3761 621.15C94.7561 626.794 93.8779 626.352 91.4322 620.271C89.4253 615.064 89.5509 609.11 91.8085 604.218C92.7492 602.149 94.3168 598.321 95.3204 595.753C98.0168 588.604 103.786 576.939 105.981 574.117C107.11 572.735 109.117 569.978 110.496 567.97C111.876 565.962 114.322 563.328 116.015 562.138C118.461 560.384 119.276 559.316 120.091 556.809C120.655 555.116 121.408 553.86 121.659 554.048C121.972 554.237 121.784 555.553 121.283 556.997C120.843 558.375 120.405 559.631 120.405 559.753C120.405 559.942 121.784 559.316 123.477 558.502C125.17 557.623 129.749 555.93 133.699 554.74C142.04 552.228 148.06 550.036 148.938 549.284C150.004 548.277 154.143 548.72 158.282 550.225ZM538.057 553.611C540.376 554.74 543.574 557.374 547.779 561.635C551.603 565.524 556.057 569.226 559.189 571.23C563.267 573.802 564.584 575.058 565.586 577.189C567.218 580.514 567.218 582.329 565.586 586.468C564.523 589.29 564.335 590.922 564.457 598.509C564.584 607.981 564.147 610.112 560.882 615.629C559.255 618.451 556.245 620.835 557.186 618.578C560.008 611.744 559.819 609.298 555.93 599.327C552.228 589.855 545.018 573.05 544.204 572.109C543.828 571.672 539.877 570.167 535.296 568.723C530.781 567.279 526.958 566.028 526.769 565.84C525.829 564.96 529.276 563.77 532.663 563.77C536.491 563.77 537.996 564.396 544.642 568.408C548.532 570.792 542.323 565.774 536.802 562.077C529.653 557.308 526.205 555.803 519.87 554.801L514.541 553.86L521.817 553.799C530.344 553.733 531.473 554.175 540.879 561.197C549.345 567.533 551.038 569.348 551.918 572.862C552.543 575.246 553.672 576.939 556.997 580.514C559.316 583.082 561.259 585.466 561.259 585.782C561.259 587.348 562.576 585.339 563.394 582.517C564.711 578.129 564.02 577.062 556.932 572.485C553.611 570.289 548.969 566.526 546.523 564.08C544.016 561.574 540 558.375 537.117 556.682C534.356 555.05 531.412 553.169 530.532 552.416L528.966 551.099L531.788 551.542C533.354 551.73 536.176 552.67 538.057 553.611ZM504.194 554.74C496.292 555.991 491.777 558.375 487.389 563.704C485.253 566.338 484.816 567.218 485.507 567.655C486.072 568.097 485.884 568.158 484.877 567.97C482.309 567.406 477.916 569.414 474.092 572.989C469.64 577.062 469.139 578.821 470.518 584.902C471.647 589.732 472.46 596.815 471.835 596.251C471.332 595.687 468.511 581.454 468.449 579.258C468.449 576.624 475.725 569.226 479.675 567.782C481.557 567.091 484.19 565.148 487.262 562.138C493.47 556.179 497.106 554.486 503.568 554.486C505.007 554.552 505.195 554.613 504.194 554.74ZM501.056 574.616C508.394 577.25 517.302 583.021 525.829 590.861C528.274 593.053 532.729 596.754 535.673 599.073C543.951 605.535 546.899 609.486 548.028 615.568C548.72 619.081 548.343 618.766 546.462 614.189C544.327 608.922 542.196 606.222 536.867 602.149C534.234 600.08 528.839 595.564 524.888 592.051C512.848 581.328 502.5 575.246 495.412 574.616C492.28 574.305 491.716 574.494 488.706 576.497C486.947 577.692 483.748 579.695 481.618 581.012C479.548 582.268 476.976 584.022 475.913 584.902L473.965 586.534L474.408 591.614C474.906 597.756 474.154 601.458 471.586 605.597C470.579 607.229 469.201 610.549 468.637 612.995L467.508 617.388L467.32 614.688C467.132 611.993 468.26 609.044 471.896 602.648C473.401 600.014 473.528 599.327 473.401 592.865C473.34 589.041 473.467 585.593 473.716 585.151C474.031 584.714 478.043 581.892 482.747 578.821C492.591 572.358 493.846 572.109 501.056 574.616ZM157.529 590.795C148.436 591.675 141.35 594.497 130.626 601.519C123.728 606.034 120.53 610.239 117.144 619.269L116.015 622.401L116.328 619.579C116.767 615.883 119.778 609.862 122.913 606.288C124.293 604.656 127.742 601.895 130.564 600.141C141.287 593.241 150.067 590.17 158.972 590.231C162.484 590.297 162.358 590.297 157.529 590.795Z" fill="black"/>
<path d="M377.142 79.9561C377.33 82.3392 378.207 86.7914 379.023 89.8015C380.34 94.6929 380.904 95.7591 384.102 99.2081C388.366 103.911 397.084 116.892 400.721 123.853C403.793 129.685 403.731 129.56 399.529 118.837C396.519 111.123 395.39 108.991 389.935 101.152C388.68 99.3336 386.924 95.8217 385.984 93.3134C384.291 88.9238 379.524 79.3917 377.643 76.8204C376.828 75.6916 376.765 76.0053 377.142 79.9561Z" fill="black"/>
<path d="M376.263 108.991C375.574 114.384 375.574 115.387 376.389 116.516C379.085 120.404 388.178 130.125 391.251 132.445C399.153 138.403 405.361 144.046 409.312 148.875C414.642 155.397 415.018 155.711 413.263 152.701C412.447 151.321 410.315 148.499 408.559 146.429C403.292 140.284 392.944 127.24 390.749 124.041C389.684 122.348 387.99 120.655 387.05 120.154C384.29 118.711 383.224 117.081 380.026 109.743L377.016 102.846L376.263 108.991Z" fill="black"/>
<path d="M479.548 335.627C476.975 339.766 459.92 372.439 459.105 374.696C458.979 375.009 459.732 374.132 460.672 372.689C462.365 370.244 469.138 360.962 478.795 347.856C483.061 342.024 483.438 340.895 482.121 336.693C481.302 333.872 480.738 333.683 479.548 335.627Z" fill="black"/>
<path d="M481.18 351.43C480.427 352.371 478.856 355.444 477.793 358.266C475.912 363.095 475.724 364.098 475.282 374.069C474.656 389.747 473.843 391.816 463.807 404.421C453.021 417.841 450.262 424.488 447.753 442.862C446.875 449.447 445.558 450.45 446.185 444.117C447.753 428.314 452.394 416.148 460.86 405.424C468.949 395.203 471.458 388.367 471.895 375.449C472.149 367.108 472.149 367.045 475.159 360.398C476.349 357.701 477.229 355.319 477.041 355.193C476.288 354.378 471.458 362.468 470.266 366.543C467.82 374.696 461.486 386.611 455.717 393.823C451.955 398.526 449.195 402.853 446.311 408.56C444.053 413.075 440.479 419.095 438.409 422.042C433.894 428.314 433.33 430.069 431.385 443.991L429.943 454.338L433.643 461.237C438.848 471.143 439.601 472.023 443.865 473.213C445.809 473.777 448.505 475.033 449.822 475.974C451.892 477.479 452.519 477.667 454.024 477.102C455.027 476.787 456.533 475.786 457.411 474.972C458.351 474.031 459.104 473.655 459.354 474.092C459.981 475.094 459.229 475.786 454.777 478.419C450.01 481.18 445.433 485.756 443.426 489.707L442.109 492.28H443.551C444.366 492.28 446.436 491.904 448.129 491.4C449.822 490.897 454.337 489.895 458.1 489.143C466.315 487.577 466.503 487.511 480.051 482.746C494.349 477.728 496.103 476.726 500.369 470.955C502.25 468.386 505.637 464.309 507.829 461.926L511.845 457.662L510.025 455.781C507.518 453.147 504.066 451.516 500.868 451.516C497.293 451.516 484.754 455.781 478.358 459.23C475.658 460.609 470.767 463.871 467.382 466.441C458.414 473.213 458.79 473.025 451.704 472.15C448.38 471.774 446.123 471.209 446.562 470.955C447.063 470.706 449.885 470.33 452.895 470.142C459.48 469.703 462.239 468.574 469.263 463.557C474.717 459.544 478.734 457.474 490.709 452.081C500.43 447.754 502.185 447.691 508.459 451.454C513.223 454.276 515.232 454.652 511.591 452.018C507.956 449.321 499.551 444.744 496.164 443.678C493.032 442.612 492.844 442.612 487.134 444.242C483.936 445.183 479.863 446.625 478.043 447.44C476.288 448.256 474.656 448.757 474.468 448.506C473.777 447.879 474.092 446.186 475.221 444.179C476.476 441.796 479.736 439.225 491.024 431.449C495.666 428.251 500.303 424.676 501.371 423.485C503.817 420.537 514.225 400.345 514.225 398.401C514.225 397.585 513.849 396.143 513.35 395.203C512.344 393.321 502.688 383.789 501.747 383.789C501.432 383.789 500.995 384.98 500.745 386.423L500.303 389.057L498.864 385.106C497.735 382.033 492.152 372.501 491.461 372.501C491.4 372.501 491.4 377.079 491.527 382.66C491.649 391.44 491.527 393.196 490.586 395.077C489.768 396.708 488.954 397.335 487.637 397.46C485.883 397.648 485.817 397.648 486.32 395.579C487.449 390.436 487.825 387.552 487.764 383.162V378.459L486.57 385.67C485.319 393.76 484.627 395.704 483.122 395.704C482.308 395.704 482.181 395.265 482.431 393.634C484.754 381.03 484.754 381.093 484.124 374.633C483.748 371.122 483.061 366.606 482.497 364.6C481.744 361.589 481.678 360.21 482.308 356.51C482.685 354.064 482.934 351.493 482.807 350.866C482.558 349.8 482.37 349.863 481.18 351.43Z" fill="black"/>
<path d="M523.007 486.697C523.007 489.143 525.956 494.472 528.651 496.917C530.029 498.112 532.475 499.805 534.107 500.619C540.254 503.756 540.376 503.314 534.859 497.858C531.91 494.975 528.025 490.897 526.266 488.828C523.322 485.441 523.007 485.253 523.007 486.697Z" fill="black"/>
<path d="M116.014 527.522C111.249 529.027 108.865 529.464 104.225 529.53L98.3301 529.591L98.7063 531.722C98.8945 532.916 99.2707 534.106 99.5845 534.422C99.8982 534.732 104.413 533.979 109.806 532.789C115.137 531.6 120.718 530.471 122.286 530.217C123.853 529.967 126.864 529.215 128.996 528.589C131.881 527.649 132.821 527.145 132.57 526.454C131.881 524.7 122.913 525.264 116.014 527.522Z" fill="black"/>
<path d="M124.481 530.593C120.028 531.661 113.945 532.978 110.998 533.669C105.793 534.859 96.0727 539.247 92.8114 541.881C91.9338 542.633 91.5575 543.01 91.9963 542.822C92.3726 542.633 93.3758 542.699 94.2539 543.01C95.069 543.325 96.0097 543.386 96.3234 543.076C97.1384 542.323 113.318 538.81 119.902 537.996C123.101 537.62 129.623 537.116 134.389 536.867L142.98 536.491L140.848 533.354C138.716 530.094 136.458 528.589 134.012 528.712C133.26 528.712 128.996 529.591 124.481 530.593Z" fill="black"/>
<path d="M436.216 555.426C435.212 557.872 434.146 562.077 433.77 565.148C433.08 570.543 433.143 570.919 435.839 583.336L438.661 595.941L439.163 584.399C439.602 574.743 439.54 571.672 438.599 565.586C438.034 561.635 437.658 556.743 437.846 554.801C438.034 552.858 438.097 551.226 438.034 551.226C437.971 551.226 437.156 553.108 436.216 555.426Z" fill="black"/>
<path d="M262.632 499.49C260.374 501.56 259.496 502.876 260.876 501.997C261.252 501.809 261.503 501.875 261.503 502.185C261.503 502.561 261.064 503.003 260.5 503.192C259.998 503.38 259.747 503.314 259.935 502.938C261.001 501.244 258.995 502.75 254.856 506.827C250.341 511.215 249.525 512.786 250.779 514.79C251.218 515.42 252.723 514.668 257.615 511.154C261.064 508.709 264.137 506.324 264.513 505.887C265.391 504.885 266.206 497.294 265.516 497.294C265.203 497.294 263.886 498.3 262.632 499.49Z" fill="black"/>
<path d="M324.364 216L320.789 210.625L317.639 216H312.789L318.414 207.075L312.664 198.45H317.639L321.164 203.75L324.264 198.45H329.114L323.539 207.3L329.339 216H324.364Z" fill="white"/>
</g>
<g filter="url(#filter0_d_209_762)">
<path d="M196.973 211.378L320.48 194.246L440.354 204.11L453.847 232.662L423.748 270.559L489.653 312.09L525.594 402.132L550.888 507.286L569.57 577.37L562.305 622.015L302.893 643.176L42.3301 634.475L98.3752 473.023L110.311 400.344L119.652 373.868L144.042 320.916L150.036 309.947L205.276 276.789L196.973 211.378Z" fill="url(#paint0_linear_209_762)" shape-rendering="crispEdges"/>
</g>
<defs>
<filter id="filter0_d_209_762" x="38.3301" y="194.246" width="535.239" height="456.93" filterUnits="userSpaceOnUse" color-interpolation-filters="sRGB">
<feFlood flood-opacity="0" result="BackgroundImageFix"/>
<feColorMatrix in="SourceAlpha" type="matrix" values="0 0 0 0 0 0 0 0 0 0 0 0 0 0 0 0 0 0 127 0" result="hardAlpha"/>
<feOffset dy="4"/>
<feGaussianBlur stdDeviation="2"/>
<feComposite in2="hardAlpha" operator="out"/>
<feColorMatrix type="matrix" values="0 0 0 0 0 0 0 0 0 0 0 0 0 0 0 0 0 0 0.25 0"/>
<feBlend mode="normal" in2="BackgroundImageFix" result="effect1_dropShadow_209_762"/>
<feBlend mode="normal" in="SourceGraphic" in2="effect1_dropShadow_209_762" result="shape"/>
</filter>
<linearGradient id="paint0_linear_209_762" x1="304.912" y1="622.015" x2="304.912" y2="194.246" gradientUnits="userSpaceOnUse">
<stop offset="0.0625"/>
<stop offset="0.59375" stop-opacity="0.686747"/>
<stop offset="1" stop-opacity="0"/>
</linearGradient>
</defs>
</svg>
