<svg width="675" height="605" viewBox="0 0 675 605" fill="none" xmlns="http://www.w3.org/2000/svg">
<path d="M288.5 28.5L344 0L386 28.5L411 73L465.5 199.5L457 229L438 247.5L499.5 283.5L535.5 376.5L544 421L568.5 502L589.5 587L58 596.5L98 520.5L107 493.5L125 440L130 376.5L138.5 357L153 331.5L172 283.5L227.5 252.5L220.5 229V187L230.5 155.5L288.5 28.5Z" fill="black"/>
<path d="M355.919 10.6495C361.862 13.5313 375.911 29.561 386.778 45.7709C388.579 48.4125 392.961 54.5963 396.564 59.5193C407.13 73.868 410.432 80.2919 416.976 98.9033C418.777 104.006 420.698 109.29 421.179 110.61C421.719 111.931 423.76 117.455 425.681 122.918C430.064 134.985 430.664 136.306 437.449 148.433C443.032 158.4 446.214 165.724 450.056 177.551C451.257 181.334 453.178 186.196 454.259 188.358C458.822 197.063 459.422 198.444 460.323 202.106C461.583 206.789 461.283 208.23 457.921 216.095C454.439 224.14 451.557 228.222 447.114 231.464C440.751 236.087 429.644 248.334 418.417 263.103C412.714 270.608 407.49 276.492 406.95 275.951C406.77 275.771 408.451 273.37 410.672 270.548C416.796 262.983 427.783 247.854 430.544 243.231C432.285 240.289 433.846 238.548 435.768 237.348C437.208 236.447 438.349 235.487 438.169 235.366C438.049 235.186 436.368 235.547 434.507 236.087C432.586 236.627 430.965 236.927 430.785 236.807C430.484 236.447 435.527 234.766 438.589 234.226C441.651 233.685 447.114 230.083 450.537 226.301C453.658 222.759 456.9 215.734 457.381 211.292C457.921 206.549 456.72 204.087 452.278 201.026C449.816 199.344 447.415 196.943 445.674 194.482C444.173 192.32 441.471 188.778 439.73 186.617C437.989 184.455 435.467 181.213 434.147 179.472C430.424 174.609 413.374 156.959 411.213 155.818C410.132 155.278 408.931 154.797 408.451 154.737C407.01 154.737 393.382 146.752 393.382 145.972C393.382 145.552 396.203 146.812 399.686 148.794C403.108 150.715 407.49 152.936 409.411 153.657C413.014 154.977 417.156 158.82 431.925 174.549L436.728 179.652L436.368 177.071C435.888 174.009 434.387 170.827 430.965 165.844C428.743 162.602 428.503 161.882 428.443 158.339C428.443 155.338 428.023 153.717 426.762 151.195C424 145.792 416.196 138.467 416.196 141.229C416.196 141.709 417.156 145.071 418.297 148.614C420.218 154.557 421.659 162.122 420.758 161.281C420.518 161.101 419.798 158.94 419.137 156.478C418.477 154.017 416.976 149.334 415.835 145.972C414.695 142.67 413.794 139.488 413.794 139.008C413.794 137.327 410.072 134.325 402.327 129.762C395.723 125.8 394.042 124.419 388.819 118.895C385.577 115.353 382.275 111.511 381.555 110.37L380.234 108.209L378.973 111.151C377.292 115.113 376.632 118.355 376.571 122.318C376.571 127.421 376.992 128.201 380.414 129.822C384.136 131.563 392.241 140.208 392.121 142.31C392.061 143.45 392.001 143.45 391.581 142.07C390.92 139.788 382.755 131.803 379.813 130.482C376.692 129.102 375.971 127.601 375.971 122.017C375.971 118.535 376.391 116.434 377.772 112.652L379.573 107.729L376.632 103.406C375.011 101.005 373.269 97.8226 372.729 96.3818C372.249 95.0009 371.228 92.2993 370.568 90.4382C368.647 85.215 364.504 81.6128 357.48 79.0912C354.478 78.0106 351.956 76.9299 351.956 76.6898C351.956 76.1495 358.861 78.611 362.643 80.5321C364.264 81.3726 366.485 83.0536 367.566 84.2544C369.367 86.3556 370.208 87.8566 373.329 95.3011C377.652 105.507 390.38 118.655 401.247 124.179C405.389 126.22 405.989 126.34 405.569 124.719C404.849 122.017 408.091 124.179 413.494 130.002C417.757 134.565 422.379 138.167 423.52 137.807C424.241 137.567 417.336 129.462 413.374 125.86C412.053 124.659 407.49 121.357 403.228 118.535C398.965 115.714 394.342 112.291 392.961 110.971C390.8 108.869 390.44 108.089 389.96 104.787L389.359 101.005L388.879 104.847C388.459 108.269 388.339 108.569 387.618 107.609C387.078 106.888 386.778 104.787 386.778 101.905V97.2823L383.055 93.6801C380.954 91.6389 378.313 89.1774 377.172 88.0967L375.071 86.1756L377.772 87.6164C379.213 88.3369 381.855 90.3181 383.596 91.9991L386.718 95.0009L387.078 90.4982C387.498 85.1549 386.538 73.2076 385.217 68.0445C383.656 61.8007 380.114 51.0541 379.273 49.8534C378.793 49.253 379.813 52.9753 381.555 58.0784C384.376 66.6637 384.616 67.8043 384.676 73.0875C384.676 77.5903 384.436 79.2113 383.596 80.4721C383.055 81.3726 382.335 82.0931 382.095 82.0931C381.855 82.0931 380.174 79.8717 378.373 77.1701L375.131 72.2471L374.71 61.7406C374.47 55.8571 373.87 49.3731 373.329 47.0917C372.789 44.8103 370.448 39.1669 367.866 34.0038C363.423 25.1183 362.763 23.2572 363.964 23.2572C364.324 23.2572 364.564 23.0171 364.564 22.7769C364.564 22.0565 357.96 13.4112 357.18 13.111C356.819 12.9909 356.699 13.8315 356.879 15.5125C357.24 18.1541 357.24 18.1541 356.399 16.353C355.979 15.3323 355.619 14.2517 355.559 13.8915C355.559 13.5313 355.018 12.7508 354.298 12.0904C353.217 11.1298 352.197 10.9497 346.913 11.0698C339.169 11.2499 336.467 12.1504 329.143 16.8933C319.056 23.4974 310.291 28.4804 307.109 29.561C303.147 30.8218 297.143 36.2251 292.34 42.8891C290.479 45.5908 286.276 52.3149 283.034 57.8383C279.792 63.4217 275.17 71.2264 272.828 75.1889C267.845 83.594 261.541 97.3423 264.003 94.4005C264.843 93.3799 267.545 88.6971 270.007 83.8942C274.389 75.2489 276.971 70.9863 275.77 74.2883C271.387 86.5358 267.845 94.3405 264.063 100.284C262.982 101.965 261.181 105.447 260.161 107.969C259.14 110.49 257.459 113.312 256.438 114.273C251.695 118.715 247.313 127.721 239.628 148.734C237.947 153.176 235.846 158.82 234.885 161.281C233.864 163.743 233.204 165.844 233.324 165.964C234.045 166.745 245.752 150.415 249.834 142.91C253.316 136.546 261.601 124.419 265.084 120.516C266.644 118.775 268.325 115.894 269.346 113.372C270.787 109.65 271.507 108.689 274.149 106.708C278.532 103.466 280.333 101.245 283.275 95.0009C287.057 87.0761 288.438 81.3126 288.498 73.6879C288.558 67.9244 288.558 67.6843 289.038 70.6861C290.539 80.2319 284.475 98.0628 276.25 108.569C274.269 111.031 273.669 112.352 273.369 115.053C273.128 116.914 272.588 119.016 272.228 119.736C271.207 121.597 265.984 127.901 261.902 132.224C258.299 136.006 256.138 139.728 253.677 146.332C251.335 152.516 249.954 154.497 240.288 165.004C235.305 170.407 230.262 176.29 229.122 178.031C226.06 182.594 223.418 190.159 223.058 195.562L222.698 200.065L225.159 197.784C227.501 195.502 228.341 193.941 230.442 188.058C231.163 185.896 232.784 183.735 236.086 180.253C241.489 174.669 242.21 173.529 241.789 170.827L241.489 168.846L242.15 170.887C243.05 173.769 242.21 175.39 236.986 180.553C232.904 184.575 232.364 185.476 230.863 189.859C229.602 193.761 228.701 195.262 226.06 198.024C221.677 202.646 221.617 203.427 223.838 217.175L224.199 219.277L225.579 215.554C227.26 210.872 231.223 204.267 235.425 199.164C237.167 197.003 239.268 193.941 240.048 192.38C240.889 190.819 242.45 188.478 243.59 187.217C244.731 185.956 246.892 182.294 248.393 179.112C249.894 175.93 252.116 172.088 253.316 170.587C256.138 167.165 261.902 162.782 264.243 162.242C265.144 162.062 266.224 161.281 266.524 160.561C267.725 158.039 275.05 149.574 279.612 145.552C285.376 140.509 291.259 136.486 299.605 131.983C310.711 125.98 317.315 124.239 324.039 125.319C326.021 125.68 331.004 126.46 335.146 127.12C339.289 127.721 344.632 128.982 347.094 129.762C349.555 130.603 353.698 131.923 356.399 132.584C359.101 133.304 366.786 135.886 373.57 138.227C380.354 140.629 387.318 142.91 389.059 143.39C390.8 143.811 392.181 144.471 392.181 144.951C392.181 145.372 392.061 145.732 391.941 145.732C391.821 145.732 385.397 143.571 377.712 140.929C365.345 136.666 345.292 130.422 340.249 129.222C335.987 128.261 323.319 126.52 320.317 126.52C318.516 126.52 315.274 127 313.053 127.541C308.67 128.621 294.982 135.406 289.578 139.128C282.794 143.811 270.907 155.398 268.145 160.081C267.485 161.161 265.984 162.482 264.603 163.082C261.842 164.283 254.877 170.287 252.596 173.349C251.815 174.429 250.254 177.371 249.234 179.893C248.213 182.414 246.352 185.536 245.151 186.857C243.951 188.178 241.789 191.3 240.408 193.821C239.028 196.283 237.347 198.864 236.626 199.525C235.005 200.905 230.142 208.11 228.281 211.772C223.058 222.038 223.418 230.083 229.782 243.591C231.523 247.374 234.225 253.978 235.786 258.3C240.288 271.028 240.889 272.349 245.632 280.754C250.675 289.7 252.836 291.861 260.881 296.123C263.763 297.624 267.125 300.206 270.907 303.868C274.029 306.87 277.991 309.992 279.612 310.832C281.293 311.673 283.695 313.054 285.016 313.894C286.336 314.795 288.078 315.695 288.918 315.936C289.759 316.176 291.32 317.196 292.4 318.097C294.622 320.078 294.381 320.018 297.683 319.238C301.766 318.277 302.786 318.937 308.85 326.622C315.034 334.487 315.874 335.928 317.856 341.151C318.936 343.853 319.837 345.173 321.818 346.674C324.64 348.836 324.7 349.196 321.998 347.755C319.777 346.614 317.135 343.492 316.775 341.511C316.535 340.43 315.334 339.17 313.173 337.669C311.312 336.348 308.91 333.886 307.589 331.905C306.269 329.984 303.387 326.742 301.166 324.701C298.944 322.72 297.383 321.039 297.683 321.039C299.184 321.039 305.248 326.742 307.649 330.464C309.21 332.746 311.132 335.087 312.032 335.688C312.873 336.228 314.133 337.249 314.794 337.909C315.935 339.05 315.935 339.05 315.935 337.849C315.935 337.249 314.794 335.267 313.353 333.526C311.912 331.785 309.27 328.243 307.349 325.722C305.488 323.2 303.447 320.799 302.786 320.498C301.105 319.538 298.104 319.718 296.483 320.738C295.222 321.579 295.042 321.519 293.481 319.898C292.58 318.997 288.198 316.356 283.695 314.074C276.49 310.412 274.809 309.271 269.586 304.348C265.684 300.686 262.322 298.105 259.62 296.784C253.076 293.482 249.714 290.48 246.352 284.777C244.731 282.015 242.27 278.112 240.949 276.131C239.568 274.21 237.947 271.328 237.287 269.767C236.566 268.267 235.906 267.006 235.786 267.006C235.425 267.006 236.386 270.068 237.887 273.43C239.208 276.612 239.328 278.413 238.127 278.833C237.287 279.133 232.304 272.649 230.322 268.687C229.542 267.186 228.761 264.844 228.521 263.584C228.221 261.602 228.401 260.942 229.782 259.321C230.683 258.24 231.763 257.4 232.183 257.4C232.604 257.4 233.624 259.141 234.345 261.242C235.125 263.404 235.846 265.025 235.966 264.904C236.326 264.544 230.923 249.475 227.981 242.511C224.559 234.646 223.478 230.263 223.478 224.38C223.478 221.918 223.058 217.596 222.578 214.774C221.317 207.209 221.317 202.887 222.638 190.279C223.178 184.876 226.84 173.289 230.322 165.784C232.123 161.822 235.425 153.657 237.587 147.533C244.551 128.321 246.112 124.779 264.423 88.0967C272.648 71.6467 274.329 68.4648 282.674 54.7164C293.841 36.2851 301.706 27.9401 309.991 25.6587C311.192 25.2985 315.634 22.8369 319.897 20.1353C334.786 10.7095 337.728 9.56885 347.394 9.50882C352.257 9.44878 353.878 9.68892 355.919 10.6495ZM312.633 84.4345C312.272 84.7347 310.531 85.3951 308.73 85.9954C304.588 87.3162 301.586 89.1774 297.023 93.5C295.042 95.3611 291.92 98.0628 290.119 99.5037C284.655 103.826 279.312 109.29 277.991 111.811C276.851 113.973 276.791 114.873 277.091 121.837C277.631 132.824 275.77 139.128 269.826 146.272C266.404 150.355 265.204 153.296 265.744 156.478C265.984 157.979 265.864 158.339 265.504 157.739C264.783 156.598 264.723 152.816 265.504 150.895C265.804 150.114 267.365 147.953 269.046 146.092C272.528 142.25 272.948 141.529 274.93 135.886C276.25 132.224 276.43 130.783 276.25 125.319C276.01 115.654 276.13 113.612 277.211 111.571C278.472 109.049 283.215 104.307 290.119 98.6031C293.241 96.0216 297.203 92.5994 298.884 91.0385C302.126 88.0367 304.287 86.7159 308.97 85.0349C312.512 83.8341 313.413 83.654 312.633 84.4345ZM380.894 162.422C384.616 164.823 395.003 168.906 395.663 168.246C395.843 168.125 395.603 167.885 395.123 167.705C390.02 166.144 387.678 165.004 386.057 163.323C384.977 162.242 384.496 161.341 384.857 161.341C385.277 161.341 385.757 161.762 385.997 162.302C386.177 162.782 386.718 163.082 387.198 162.902C387.678 162.722 387.858 162.782 387.678 163.142C387.258 163.863 389.359 165.184 392.481 166.144C393.802 166.565 396.083 167.525 397.584 168.246C399.926 169.386 405.449 171.067 409.291 171.728C409.952 171.848 409.171 172.148 407.61 172.448C405.569 172.748 403.828 172.628 401.607 171.968C390.68 168.726 385.757 167.165 383.596 166.144C380.234 164.583 375.851 160.921 374.17 158.339L372.789 156.238L374.83 158.039C375.971 159 378.733 161.041 380.894 162.422ZM355.439 170.467C359.281 171.488 360.962 171.608 365.705 171.307C368.827 171.067 371.528 170.767 371.709 170.647C371.829 170.467 371.468 169.927 370.808 169.446C370.208 169.026 371.528 169.326 373.81 170.227L377.892 171.848L374.41 172.628C372.429 173.048 368.166 173.409 364.864 173.469C359.401 173.529 358.32 173.349 352.257 171.307C348.654 170.047 345.232 168.666 344.692 168.186C343.551 167.165 342.711 167.045 343.311 168.005C343.551 168.486 343.311 168.486 342.411 168.005C341.75 167.585 341.15 167.165 341.15 166.985C341.15 166.805 341.39 166.865 341.75 167.045C342.05 167.225 342.771 167.165 343.311 166.865C344.032 166.444 345.292 166.745 347.574 167.765C349.375 168.546 352.917 169.746 355.439 170.467ZM367.446 209.671L367.266 214.474L368.947 214.354C370.388 214.234 370.568 214.414 370.268 215.254C369.307 217.536 369.307 218.556 370.268 216.875C371.168 215.194 373.209 212.973 373.81 212.973C373.93 212.973 373.75 213.753 373.39 214.774C373.029 215.734 372.909 216.695 373.089 216.935C373.75 217.536 376.992 214.894 379.994 211.292C381.494 209.431 382.635 208.11 382.515 208.47C381.254 211.472 379.033 215.134 376.451 218.676C374.71 220.958 371.468 225.46 369.127 228.582C363.423 236.327 345.593 254.098 342.951 254.638C339.169 255.359 333.705 255.058 331.724 253.918C325.18 250.376 304.948 231.584 302.006 226.361C300.325 223.359 299.424 222.218 300.025 223.899C300.205 224.32 300.985 227.802 301.766 231.584C302.546 235.366 303.387 239.029 303.627 239.689C303.867 240.349 303.207 239.509 302.126 237.768C300.865 235.667 300.025 233.265 299.665 230.564C298.644 223.419 297.984 220.958 296.243 217.355C293.721 212.132 293.421 211.172 294.982 212.973C295.762 213.933 296.122 214.114 295.882 213.393C294.862 210.511 295.042 210.571 296.663 213.873C297.683 215.855 299.304 219.277 300.265 221.438C301.886 224.86 303.267 226.481 312.152 234.946C321.758 244.072 329.923 251.096 332.625 252.537C333.946 253.257 340.55 253.317 342.771 252.717C343.491 252.477 346.133 250.376 348.594 247.974L353.157 243.652V240.169C353.157 237.468 353.577 235.967 354.898 233.505C355.859 231.824 356.519 230.383 356.399 230.383C356.219 230.383 353.938 231.524 351.296 232.845C348.654 234.226 346.373 235.186 346.193 235.006C345.833 234.646 349.495 231.524 352.017 230.203C353.878 229.183 353.938 229.003 352.977 228.282C352.017 227.562 352.197 227.382 355.198 226.001C357.42 224.98 358.921 223.779 359.941 222.158C361.442 219.877 361.923 218.616 363.664 211.172C365.765 202.346 365.765 202.346 366.786 203.667C367.446 204.568 367.626 206.129 367.446 209.671ZM292.64 216.815C292.64 218.436 292.82 218.916 293.181 218.316C293.541 217.776 293.721 218.796 293.661 221.378C293.601 223.539 293.721 225.941 293.961 226.661C294.201 227.382 294.261 227.982 294.081 227.982C293.901 227.982 293.361 226.721 292.88 225.1L291.98 222.278V227.982C291.92 232.605 291.68 234.046 290.719 235.487C289.278 237.648 289.158 237.288 290.479 234.646C291.019 233.625 291.259 232.305 291.019 231.764C290.839 231.224 290.419 227.922 290.059 224.5C289.759 221.018 289.278 217.896 289.098 217.536C288.858 217.235 288.618 215.674 288.558 214.174C288.438 212.673 288.198 210.211 288.018 208.59C287.837 207.029 287.837 205.768 287.957 205.768C288.318 205.768 289.518 209.851 289.879 212.372C290.059 213.213 290.539 215.194 291.019 216.875L291.92 219.877L291.62 216.875C291.5 215.194 291.199 211.712 291.079 209.07L290.779 204.268L291.74 209.371C292.28 212.192 292.7 215.554 292.64 216.815ZM387.558 221.078C392.901 224.2 396.924 229.483 400.886 238.608C403.048 243.471 403.228 244.312 403.168 249.295C403.108 257.88 400.706 266.946 396.984 272.469C396.023 273.91 393.922 276.672 392.301 278.593C390.68 280.514 387.918 284.717 386.117 287.898C381.074 297.204 377.472 302.487 374.11 305.729L370.988 308.731L373.75 305.249C377.352 300.806 379.693 297.144 384.376 288.619C386.417 284.837 389.719 279.733 391.701 277.272C396.083 271.749 398.425 266.826 400.346 259.381C403.048 248.574 402.147 241.61 396.684 231.824C394.462 227.922 389.299 222.699 385.637 220.778C384.436 220.177 383.836 219.637 384.256 219.577C384.676 219.577 386.177 220.237 387.558 221.078ZM279.612 226.361C275.41 229.663 267.245 237.768 265.384 240.47C262.862 244.132 262.502 245.633 261.721 257.1C260.701 272.109 260.881 276.431 262.742 284.416C264.723 292.461 265.264 293.542 268.866 295.823C270.307 296.724 272.528 298.825 273.669 300.386L275.77 303.328L273.188 300.566C271.748 299.065 269.646 297.204 268.506 296.544C264.783 294.382 263.883 292.821 262.322 286.518C259.38 274.69 259.32 274.03 260.04 264.304C261.361 247.674 261.842 244.792 263.583 241.61C265.504 238.008 272.288 230.984 277.451 227.201C281.714 224.02 283.275 223.419 279.612 226.361ZM302.426 245.152C303.987 251.396 304.047 252.117 303.327 255.659C302.006 262.383 302.006 263.163 302.967 265.505C303.867 267.606 303.867 267.906 303.027 268.747C302.186 269.647 301.946 269.587 300.925 268.206C299.004 265.745 298.824 263.043 300.265 259.561C302.486 254.098 301.826 241.49 299.064 237.408L297.743 235.487L299.244 236.987C300.385 238.128 301.226 240.229 302.426 245.152ZM434.027 251.816C434.867 252.657 436.068 253.197 437.268 253.197C440.15 253.197 443.032 254.878 445.253 257.94C446.874 260.162 449.036 261.723 455.94 265.685C460.623 268.387 468.728 273.49 473.831 276.972C478.934 280.454 484.877 284.236 487.039 285.317C494.303 289.039 495.864 291.501 499.286 304.829C502.228 316.296 507.872 330.524 513.995 342.051C522.22 357.481 526.063 365.766 526.063 368.107C526.063 370.209 525.222 372.79 520.599 385.518C518.438 391.402 517.417 393.263 515.076 395.904C513.455 397.645 511.894 398.906 511.534 398.726C511.234 398.486 510.093 399.146 509.072 400.107C507.992 401.127 506.491 402.328 505.65 402.869C504.269 403.829 504.269 403.889 505.41 403.889C508.052 403.889 512.374 405.93 515.196 408.452L518.078 411.094L518.018 403.709C517.958 396.445 517.958 396.325 520.179 391.702C521.62 388.64 522.701 387.079 523.361 387.079C524.201 387.079 524.322 387.439 524.021 389C523.001 394.283 522.941 402.809 523.841 406.471C525.822 414.215 526.843 420.579 526.423 422.681C526.183 423.881 524.382 428.144 522.34 432.226C520.359 436.309 517.537 443.093 516.157 447.296C512.975 456.781 510.393 460.384 506.311 460.984C504.99 461.164 503.849 461.224 503.849 461.164C503.849 460.744 507.511 454.86 509.913 451.318C512.254 447.896 515.556 440.031 514.956 439.431C514.716 439.191 513.035 440.992 509.733 445.014C507.211 448.016 501.988 456.241 500.547 459.483C499.166 462.665 493.403 469.209 489.2 472.451L486.739 474.372L489.5 471.37C494.363 466.087 499.707 458.402 502.408 452.819C504.089 449.397 506.671 445.495 509.553 442.072C514.295 436.369 519.218 429.585 520.959 426.103C521.8 424.482 521.02 425.082 517.597 428.744C515.136 431.326 512.074 434.988 510.813 436.849C505.71 444.114 503.549 446.155 498.026 449.097L492.742 451.918L496.044 448.917C497.845 447.296 499.106 445.915 498.866 445.915C498.566 445.915 492.622 447.776 485.658 450.057C478.634 452.339 471.309 454.5 469.328 454.92C467.347 455.28 462.544 456.421 458.641 457.442C450.296 459.663 449.636 459.483 451.257 455.22C452.518 451.918 454.499 449.517 458.341 446.455L461.283 444.174L458.401 442.733C456.84 441.952 454.559 441.112 453.418 440.872C452.218 440.692 450.416 439.791 449.336 438.83C447.415 437.209 440.03 424.662 439.31 421.84C438.889 420.039 441.651 401.248 442.972 397.165C443.512 395.604 445.674 391.822 447.835 388.76C450.056 385.698 452.998 380.595 454.439 377.473C458.822 367.987 459.302 367.207 463.925 361.263C468.307 355.74 468.848 354.719 471.249 347.155C471.91 345.173 472.63 343.012 472.87 342.352C473.11 341.691 471.669 342.892 469.688 345.053C467.707 347.215 466.026 348.595 466.026 348.115C466.026 346.974 473.771 327.883 476.773 321.699C479.174 316.776 479.174 316.596 478.213 315.095C477.673 314.255 475.752 311.253 474.011 308.431C472.21 305.609 469.568 302.187 468.067 300.806C466.566 299.425 465.486 297.985 465.726 297.624C465.966 297.264 465.846 297.084 465.546 297.144C465.185 297.264 463.504 296.304 461.763 294.983C460.082 293.722 456.36 291.08 453.538 289.099C445.914 283.756 437.809 277.152 437.809 276.251C437.809 274.871 440.45 276.311 446.334 280.934C449.396 283.336 452.998 286.157 454.319 287.118C455.64 288.079 458.702 290.6 461.103 292.701C463.444 294.743 465.426 296.123 465.426 295.763C465.426 295.343 466.566 296.604 467.887 298.585C471.009 303.028 470.709 302.788 471.549 301.947C472.51 300.986 473.531 301.046 472.75 302.007C472.21 302.607 472.81 303.988 475.152 307.59C476.833 310.172 478.514 313.114 478.934 314.134L479.714 315.876L480.615 313.714C481.876 310.712 481.936 309.271 481.095 305.309C480.375 302.007 480.255 301.827 476.352 299.365C469.148 294.863 464.885 291.02 462.904 287.238C461.463 284.596 460.082 283.035 457.201 280.994C451.137 276.672 452.338 276.011 460.202 279.253C462.904 280.334 465.666 281.354 466.326 281.535C466.987 281.715 468.067 282.075 468.728 282.315C471.79 283.336 466.026 280.574 460.803 278.473C457.561 277.152 453.298 275.411 451.317 274.57C449.336 273.73 446.034 272.889 443.993 272.649C441.891 272.469 440.21 272.169 440.21 272.049C440.21 271.869 440.871 270.428 441.711 268.807C443.692 264.904 443.692 261.602 441.711 259.381L440.21 257.7L440.631 259.501C441.531 262.863 441.051 265.565 438.889 270.188C435.828 276.552 431.985 280.574 427.663 281.775C422.68 283.216 420.158 284.656 417.757 287.538L415.595 290.06L416.436 287.178C416.916 285.617 418.717 282.375 420.458 280.034C425.801 272.709 427.002 270.788 427.422 268.687C427.783 266.826 427.723 266.766 426.642 267.606C423.22 270.308 417.456 280.934 415.295 288.559C412.894 297.144 408.931 302.487 396.083 314.615C390.38 319.958 384.136 325.301 382.275 326.382C380.174 327.643 376.571 329.024 373.149 329.864C366.906 331.425 361.142 334.067 354.658 338.389C349.315 341.991 348.955 342.172 348.955 341.811C348.955 341.151 357.72 334.967 361.262 333.166C363.243 332.145 367.986 330.344 371.769 329.204C380.534 326.502 383.836 324.281 395.603 313.294C403.828 305.609 408.391 300.266 408.391 298.345C408.391 297.925 406.95 298.585 405.149 299.726C403.348 300.866 399.866 302.667 397.464 303.748C388.339 307.831 386.778 309.332 386.778 313.834C386.778 316.896 382.035 321.579 375.491 324.881C373.81 325.722 372.369 326.382 372.369 326.202C372.369 326.082 374.17 324.881 376.451 323.56C380.834 320.919 384.797 317.316 385.637 315.155C385.937 314.375 386.177 312.814 386.177 311.673C386.177 310.472 386.658 309.151 387.318 308.491C387.978 307.831 392.541 305.249 397.404 302.788C402.327 300.326 406.95 297.624 407.67 296.844C408.511 295.943 409.592 293.182 410.552 289.76C413.494 278.713 417.036 271.809 423.46 264.784C425.261 262.803 425.801 261.723 425.801 260.102C425.801 257.82 426.702 255.599 427.543 255.599C428.083 255.599 430.244 260.342 430.845 262.983C431.505 265.745 430.184 269.047 426.642 273.55C424.841 275.891 423.52 277.812 423.76 277.812C423.94 277.812 425.201 277.212 426.462 276.492C430.664 274.15 433.546 268.627 433.606 262.923C433.606 259.921 431.745 253.077 430.484 251.576C430.124 251.096 430.184 250.436 430.664 249.475C431.385 248.154 431.445 248.154 432.045 249.295C432.406 249.895 433.306 251.036 434.027 251.816ZM229.842 255.899C229.182 256.379 228.461 256.799 228.161 256.799C227.501 256.799 225.88 260.102 225.88 261.482C225.88 262.323 224.739 263.283 221.977 264.664C219.456 265.985 218.075 267.066 218.075 267.726C218.075 268.327 218.375 268.807 218.735 268.807C220.296 268.807 218.075 270.248 210.991 273.67C206.788 275.711 200.124 278.713 196.162 280.334C187.576 283.876 183.554 286.097 181.212 288.559C179.111 290.78 178.451 290.9 178.451 289.099C178.451 286.758 184.154 282.015 191.659 278.173C195.441 276.251 201.805 272.469 205.707 269.827C209.61 267.186 215.013 263.764 217.715 262.203C220.416 260.642 224.199 258.36 226.12 257.16C229.662 255.058 232.123 254.218 229.842 255.899ZM176.47 285.617C175.929 287.478 176.049 289.159 176.89 293.482C178.151 300.326 179.591 304.168 182.653 309.091C183.974 311.193 186.316 315.335 187.816 318.337C189.317 321.279 191.118 324.341 191.839 325.061L193.04 326.382L195.621 321.939C199.223 315.876 204.747 310.472 215.373 302.788C220.356 299.185 225.039 295.703 225.88 294.983C227.08 293.962 227.2 293.902 226.48 294.863C226 295.523 220.957 299.425 215.373 303.628C199.584 315.335 195.081 321.279 192.259 333.826C190.158 343.012 190.518 345.233 196.101 356.34C200.304 364.625 203.066 371.229 203.066 372.91C203.066 374.111 201.985 372.37 201.265 369.968C200.904 368.648 198.443 363.124 195.801 357.661C189.738 344.993 189.317 342.952 191.058 334.307L192.379 327.823L190.578 325.181C188.417 321.939 180.852 308.191 178.811 303.628C177.91 301.707 176.83 297.384 176.169 293.482L175.089 286.638L173.528 288.499C171.607 290.84 170.946 292.701 169.745 300.026C168.785 305.789 163.682 321.879 160.8 328.483C159.419 331.545 159.359 331.905 160.38 331.005C161.04 330.404 163.502 326.982 165.843 323.38C168.245 319.778 170.406 317.016 170.706 317.196C171.787 317.797 171.186 321.399 169.565 324.941C167.344 329.624 163.141 334.127 155.637 339.95C151.975 342.772 149.453 345.173 149.273 346.014C148.673 348.415 149.513 351.177 152.275 355.86C157.918 365.526 165.963 374.831 174.909 382.036C178.691 385.098 183.074 388.94 184.635 390.621C187.516 393.683 192.499 401.067 198.443 411.094C200.304 414.215 203.426 418.658 205.467 421C210.27 426.583 211.711 429.525 211.171 432.827C210.51 437.149 208.529 442.553 206.368 445.975C203.666 450.237 203.726 449.337 206.668 442.793C209.79 435.949 210.63 432.106 209.73 429.105C209.37 427.904 207.208 424.722 204.867 422.08C202.585 419.379 198.803 413.975 196.522 409.953C187.756 394.764 184.094 390.561 170.886 380.655C163.382 375.012 158.399 369.788 152.275 361.263C147.412 354.479 147.172 354.179 146.751 355.26C146.571 355.74 145.13 358.742 143.449 361.864C140.508 367.447 140.508 367.507 142.489 365.586C144.89 363.244 146.451 363.124 146.992 365.166C147.592 367.627 146.751 369.548 143.329 373.271C141.528 375.252 140.027 377.353 140.027 377.893C140.027 379.694 141.948 381.976 151.494 391.762C165.963 406.471 172.927 413.975 184.394 426.943C196.462 440.752 198.563 443.273 201.385 447.416C202.465 449.097 203.726 450.418 204.146 450.357C204.507 450.297 205.167 450.237 205.467 450.177C205.827 450.177 207.448 448.857 209.069 447.356C211.291 445.314 211.891 444.954 211.651 445.915C211.231 447.476 208.049 450.718 206.908 450.718C205.767 450.718 205.767 450.778 208.169 454.26C209.31 456.001 210.39 458.342 210.63 459.543C211.171 462.485 210.09 466.868 207.929 470.29C206.608 472.331 206.188 473.592 206.428 474.672C206.788 476.233 206.788 476.233 205.587 474.492L204.327 472.751L206.668 470.049C209.43 466.928 210.21 463.385 209.069 459.543C208.289 456.781 204.327 451.198 203.606 451.678C203.306 451.858 202.585 450.958 201.925 449.697C199.043 443.994 173.888 415.176 165.543 407.972C157.078 400.707 141.528 384.858 139.487 381.435C136.005 375.552 136.065 373.15 140.207 363.905C142.609 358.502 143.269 356.46 144.23 351.357C145.25 346.434 146.091 344.933 151.134 339.65C153.536 337.128 155.877 334.307 156.417 333.286C158.338 329.504 162.241 317.797 165.183 307.05C169.145 292.701 170.166 290 173.107 286.277C176.169 282.435 177.37 282.195 176.47 285.617ZM259.8 302.247C261.001 304.709 261.121 308.851 260.221 313.834L259.62 317.136L259.56 314.134C259.5 312.453 259.2 310.052 258.9 308.731C258.479 306.93 258.419 307.831 258.66 312.153C258.78 315.395 258.66 321.099 258.299 324.761C257.939 328.483 257.579 343.552 257.519 358.261C257.399 372.97 257.099 387.919 256.798 391.582C256.558 395.184 256.318 400.587 256.258 403.589C256.198 406.951 255.658 411.154 254.757 414.696C253.917 418.178 253.256 422.861 253.136 426.703C253.016 430.185 252.596 434.448 252.296 436.249C251.936 438.05 251.695 440.572 251.695 441.772C251.695 443.934 250.855 445.254 250.014 444.474C249.834 444.234 250.074 442.253 250.675 440.031C251.215 437.81 251.936 431.506 252.296 426.043C252.716 418.898 253.256 414.876 254.157 411.934C255.238 408.512 255.478 406.05 255.598 397.886C255.658 392.422 256.078 373.09 256.498 354.959C257.519 313.654 257.519 312.994 256.498 305.729C256.018 302.427 255.718 299.486 255.778 299.185C255.898 298.885 254.937 297.564 253.677 296.244C251.695 294.082 251.875 294.202 255.057 296.904C257.099 298.645 259.26 301.046 259.8 302.247ZM410.732 324.941C410.432 328.903 409.652 336.588 408.991 342.051C408.331 347.515 407.55 355.86 407.19 360.663C406.89 365.466 406.35 373.15 406.049 377.773C405.689 382.396 405.149 392.002 404.789 399.086C404.428 406.171 403.708 414.816 403.288 418.298C402.087 427.063 401.847 443.633 402.928 444.954C403.588 445.735 403.588 446.275 402.747 448.316C401.247 452.099 401.066 454.8 402.267 455.461C402.807 455.821 402.988 456.121 402.687 456.121C400.466 456.181 399.926 451.738 401.727 448.436C402.747 446.515 402.747 446.275 401.667 443.213C400.886 440.752 400.706 439.371 401.126 437.33C401.367 435.829 401.487 432.527 401.307 430.005C401.126 427.303 401.427 422.801 401.967 419.018C402.868 413.075 404.368 392.602 405.029 377.353L405.329 370.989L403.708 371.169C397.524 371.89 383.596 372.73 381.434 372.61C379.153 372.43 378.673 372.13 378.373 370.869C378.132 370.029 378.072 368.468 378.192 367.447C378.493 365.646 378.793 365.526 389.059 361.563C394.943 359.282 400.946 356.82 402.567 356.04C404.128 355.26 405.389 354.899 405.389 355.26C405.389 356.1 401.967 357.601 389.479 362.224L379.273 365.946V368.888V371.77L385.037 371.71C392.901 371.589 404.969 370.269 405.509 369.428C405.749 369.068 405.989 366.486 405.989 363.665C405.989 358.141 407.19 345.714 408.631 336.648C409.532 330.645 410.432 317.677 409.592 321.939L409.171 324.341L409.051 321.759C409.051 320.378 409.291 319.238 409.592 319.238C409.952 319.238 410.252 317.016 410.252 313.954L410.372 308.731L410.792 313.234C411.032 315.695 411.032 320.979 410.732 324.941ZM367.566 339.47C364.504 349.316 361.742 370.089 362.043 380.775C362.223 385.158 361.923 388.4 360.962 392.782C360.302 396.084 358.801 403.349 357.6 408.992C356.459 414.576 354.958 421.36 354.298 424.001C352.977 429.045 352.977 436.969 354.238 437.39C354.658 437.51 354.478 438.71 353.818 440.692C353.217 442.433 352.557 444.894 352.317 446.215C352.077 447.536 351.356 450.357 350.696 452.459C350.095 454.56 349.555 457.802 349.495 459.663C349.495 462.485 349.375 462.845 348.835 461.704C347.994 459.963 350.095 448.316 352.257 442.613C353.397 439.491 353.577 438.35 353.097 436.789C351.956 432.887 352.377 427.724 354.598 417.758C355.859 412.354 356.759 407.852 356.639 407.792C356.519 407.671 354.418 409.413 351.896 411.574C349.435 413.795 343.251 419.259 338.148 423.701C333.045 428.144 325.24 435.048 320.737 439.011C302.907 454.74 299.244 457.922 294.922 461.524L290.419 465.307L293.721 462.065C295.582 460.264 301.105 455.28 306.028 450.958C311.012 446.635 319.957 438.65 325.901 433.247C331.904 427.844 341.27 419.619 346.733 414.996C356.639 406.591 356.639 406.591 357.36 403.289C357.78 401.488 358.741 397.405 359.521 394.283C360.662 389.841 360.962 387.019 360.962 381.135C360.962 376.993 361.202 371.469 361.562 368.828C363.544 352.978 364.144 349.016 365.465 344.093C366.906 338.809 368.527 334.247 369.007 334.247C369.127 334.247 368.467 336.588 367.566 339.47ZM291.019 357.361C291.199 361.623 291.56 365.706 291.68 366.366C291.86 367.027 291.44 370.389 290.719 373.871C289.038 382.396 287.777 411.754 288.918 415.236C289.578 417.337 289.518 417.818 288.018 421.18C286.216 425.142 286.216 428.264 288.018 431.746C289.278 434.088 289.218 434.388 286.697 438.11C284.415 441.472 284.115 443.093 284.836 447.416L285.256 449.817L284.415 447.416C283.155 443.693 283.395 441.712 285.556 437.63L287.597 433.847L286.457 429.405L285.316 424.902L286.817 421.9C288.438 418.658 288.678 416.737 287.717 413.495C286.637 409.953 288.138 379.995 289.639 374.531C290.479 371.289 290.779 368.768 290.599 365.226L290.419 360.363L287.597 357.901C283.515 354.239 279.192 352.798 270.907 352.318C265.624 352.018 264.423 351.777 265.804 351.357C268.265 350.637 277.691 351.897 281.954 353.458C284.055 354.239 286.397 355.74 287.837 357.181L290.239 359.582L289.879 356.7C289.458 353.518 289.218 340.851 289.518 338.449C289.699 336.828 290.359 344.993 291.019 357.361ZM235.966 344.093C241.369 346.314 245.392 347.515 250.375 348.355C253.016 348.776 254.157 349.136 253.016 349.196C249.954 349.316 242.93 347.515 237.046 345.173C231.103 342.832 230.442 342.892 228.761 346.314C225.039 353.579 223.838 357.361 223.838 361.984C223.778 364.865 224.079 366.907 224.499 367.327C225.339 368.167 240.709 372.19 248.393 373.631C255.057 374.831 256.078 375.072 255.778 375.372C255.418 375.732 243.11 373.271 234.585 371.169C230.983 370.269 226.96 369.248 225.76 368.948C223.838 368.528 223.478 368.167 223.118 366.306C222.277 361.804 223.238 356.4 225.88 350.457C229.662 341.871 230.022 341.631 235.966 344.093ZM432.105 344.633C435.527 349.916 439.37 367.807 437.869 371.589C437.268 373.21 437.028 373.271 433.186 373.271C427.422 373.271 413.614 372.01 412.894 371.349C412.593 371.109 413.254 370.989 414.395 371.109C415.535 371.229 420.458 371.71 425.381 372.13C436.968 373.09 437.208 372.97 437.208 367.327C437.208 363.184 434.747 352.018 432.766 347.395C431.145 343.552 430.845 343.492 423.82 347.035C420.338 348.836 416.976 350.637 416.376 351.057C415.595 351.657 415.595 351.597 416.496 350.637C417.997 349.076 428.743 343.312 430.124 343.252C430.724 343.252 431.565 343.853 432.105 344.633ZM249.954 382.096C252.356 383.837 253.016 384.017 254.097 383.477C255.057 382.936 255.298 382.996 255.298 383.777C255.298 384.257 255.057 384.677 254.697 384.677C252.776 384.677 233.925 404.189 229.122 411.154L226.24 415.356L226.36 420.759C226.66 430.665 228.041 439.431 230.683 447.176C232.003 451.198 233.024 454.62 232.844 454.74C232.484 455.16 228.221 442.733 227.381 438.71C225.7 430.545 224.559 417.157 224.799 408.992L225.039 400.947L228.761 397.345C230.803 395.304 234.045 391.342 235.906 388.46C238.487 384.497 240.048 382.816 241.969 381.736C243.41 380.955 244.731 380.475 244.911 380.715C245.091 380.895 244.491 381.315 243.53 381.676C240.949 382.696 239.868 383.837 236.326 389.24C234.645 391.882 231.703 395.724 229.842 397.765L226.42 401.428L226.6 406.831L226.78 412.294L230.202 407.972C232.123 405.57 237.827 399.326 242.87 394.103C251.755 385.038 252.116 384.617 250.915 383.777C250.254 383.297 249.414 383.117 249.114 383.297C248.754 383.477 248.694 383.357 248.934 382.996C249.174 382.576 248.333 381.676 246.892 380.715C245.572 379.814 244.491 379.034 244.491 378.854C244.491 378.494 246.952 379.935 249.954 382.096ZM416.856 385.638C413.074 390.861 413.134 391.101 420.578 399.987C422.56 402.268 424.481 404.91 424.901 405.75C425.561 406.891 425.741 411.814 425.862 426.763L425.982 446.215L424.301 452.219C422.379 459.123 422.199 463.205 423.7 468.729C425.561 475.813 424.961 480.316 421.299 486.319C420.158 488.181 418.237 491.242 417.096 493.104C415.955 494.965 414.395 498.267 413.674 500.488C412.413 504.09 412.293 505.471 412.353 514.957C412.473 530.086 413.434 533.208 422.68 548.757C425.381 553.32 427.182 556.982 427.543 558.964C428.443 563.226 429.404 572.352 429.344 575.294C429.284 576.975 429.104 576.434 428.743 573.493C426.822 557.283 426.762 556.982 420.939 547.197C413.614 534.949 412.533 531.767 411.393 519.94C410.252 507.212 412.173 499.107 418.897 488.841C424.301 480.556 425.021 476.593 422.8 468.188C421.239 462.305 421.299 461.284 423.4 452.819L425.201 445.615V426.643V407.671L423.64 405.33C422.74 404.069 420.518 401.127 418.597 398.786C413.134 392.062 412.954 391.762 413.974 389.36C414.875 387.259 418.717 381.736 419.137 382.036C419.197 382.096 418.237 383.717 416.856 385.638ZM137.025 388.28C137.025 390.201 140.087 399.206 141.888 402.688C143.449 405.69 143.63 406.531 143.63 411.814C143.63 418.598 144.29 419.018 147.172 413.975L148.853 411.034L149.213 414.215C149.453 415.957 150.173 418.118 150.834 419.018C153.295 422.32 152.515 422.681 142.909 423.101C136.125 423.341 135.104 423.521 133.964 424.662C132.763 425.923 132.763 425.983 133.723 427.964C134.324 429.105 137.386 432.707 140.568 436.009C143.81 439.311 147.172 443.333 148.132 445.014C149.033 446.635 150.474 449.097 151.254 450.418C152.395 452.279 151.855 451.858 148.973 448.616C146.871 446.275 142.849 441.952 139.967 439.011C133.904 432.707 131.022 428.444 131.022 425.742C131.022 424.602 131.982 422.2 133.423 419.739C136.125 415.056 136.725 413.195 137.326 407.251C137.566 404.97 137.926 402.568 138.166 401.908C138.406 401.188 138.046 398.246 137.206 394.944C135.705 388.76 135.465 386.178 136.425 386.779C136.785 386.959 137.025 387.679 137.025 388.28ZM418.297 391.161C419.258 392.722 422.319 396.325 425.081 399.206L430.064 404.369L430.424 411.514C430.845 420.099 430.845 418.778 430.124 424.902C429.764 427.904 429.704 431.266 430.004 433.007C430.905 438.35 430.664 442.493 429.104 447.776C425.681 459.003 425.561 460.324 426.942 466.687C428.563 474.012 428.563 479.415 427.002 482.537C426.342 483.798 425.561 484.999 425.201 485.239C424.12 485.899 419.858 493.644 418.597 497.186C416.616 503.07 416.256 506.852 416.796 518.559C417.336 531.527 417.336 531.407 424.601 544.555C430.604 555.482 431.505 558.003 432.345 566.648C432.766 570.431 433.126 574.393 433.306 575.474C433.426 576.494 433.306 577.395 433.066 577.395C432.826 577.395 432.406 575.053 432.165 572.172C431.325 560.284 430.724 557.883 426.642 550.138C424.541 546.116 421.419 540.112 419.738 536.69L416.616 530.566L416.016 519.4C415.055 502.349 416.136 497.906 424 485.599C427.903 479.475 428.323 476.413 426.462 468.549C424.781 461.464 424.841 458.823 427.002 451.318C428.803 445.254 428.803 444.774 428.443 436.609C428.203 430.966 428.263 427.063 428.743 424.782C429.584 420.819 429.764 407.191 429.043 405.27C428.743 404.55 426.882 402.268 424.841 400.167C419.618 394.704 414.815 388.28 416.016 388.28C416.256 388.28 417.276 389.54 418.297 391.161ZM152.035 405.39C154.436 408.812 163.141 423.821 168.245 433.307C170.646 437.75 173.168 442.313 173.948 443.513C176.409 447.536 179.111 452.519 178.811 452.519C178.571 452.519 171.366 440.692 164.822 429.405C163.442 427.063 160.08 422.08 157.318 418.298C151.915 410.973 147.652 403.529 146.992 400.587L146.631 398.786L148.492 400.887C149.513 402.028 151.074 404.069 152.035 405.39ZM530.085 405.21C538.01 413.675 539.151 417.998 535.428 425.382C534.228 427.724 533.267 430.485 533.267 431.446C533.267 432.467 534.528 435.588 536.029 438.47C537.53 441.352 541.312 449.757 544.434 457.262C547.556 464.706 550.978 472.331 552.058 474.132C555.3 479.535 555.661 480.736 555.841 487.04C556.021 493.884 558.122 511.235 559.383 516.158C559.863 517.959 560.404 520.9 560.644 522.702C561.184 527.024 560.103 526.304 559.143 521.741C557.642 514.957 551.518 511.235 539.571 509.914C534.047 509.313 532.607 508.893 530.565 507.512C528.464 506.071 527.744 505.891 524.742 506.071C522.821 506.192 521.26 506.252 521.26 506.131C521.26 505.651 525.822 504.15 527.383 504.15C528.344 504.15 531.226 504.691 533.747 505.291C536.329 505.951 540.892 507.032 543.954 507.692C551.338 509.313 554.7 510.814 555.24 512.796C555.721 514.717 556.681 514.837 556.621 512.976C556.561 510.874 553.799 500.668 553.739 502.349C553.739 503.19 554.04 505.411 554.52 507.272C554.94 509.193 555.24 510.754 555.12 510.754C555 510.754 554.4 509.554 553.799 508.113C552.539 505.291 550.257 504.03 546.835 504.33C545.154 504.45 545.094 504.33 542.573 496.946C540.471 490.822 539.631 489.141 537.83 487.52C535.909 485.779 535.849 485.539 536.989 485.539C539.031 485.539 542.813 487.64 547.316 491.242C551.638 494.664 552.659 494.785 553.199 491.903C553.319 491.002 552.719 490.582 550.377 489.741C548.756 489.201 545.274 487.34 542.753 485.719C536.629 481.697 535.849 481.516 531.646 483.618C527.143 485.899 523.661 487.16 518.918 488.181C514.536 489.201 514.716 488.721 519.459 486.8C521.26 486.019 525.102 484.098 527.984 482.477C530.866 480.856 533.807 479.535 534.468 479.535C535.909 479.535 540.471 481.757 543.893 484.098C545.154 484.939 547.736 486.439 549.717 487.46C553.98 489.621 554.52 489.201 553.98 484.338C553.619 480.616 551.398 475.633 549.297 473.652C548.516 472.931 544.914 471.43 540.952 470.23C537.109 469.089 532.727 467.588 531.166 466.928C529.605 466.267 527.984 465.727 527.564 465.727C527.143 465.727 524.982 468.308 522.701 471.49C518.258 477.794 516.517 479.415 512.014 481.817C509.012 483.438 508.712 483.438 494.543 483.798L480.135 484.158L472.45 487.22C460.983 491.843 458.221 491.423 458.221 484.818C458.221 480.436 459.302 477.854 462.004 475.573C463.204 474.612 464.405 473.051 464.765 472.151C465.786 469.569 465.546 464.466 464.345 462.185C462.844 459.183 461.703 459.063 462.784 461.945C463.685 464.466 463.925 470.53 463.084 469.569C462.484 468.909 461.223 462.605 461.223 460.203C461.223 458.162 462.484 457.982 464.225 459.723C466.026 461.524 466.626 463.506 466.626 467.588C466.626 471.851 465.666 474.432 463.024 476.834C460.323 479.355 459.422 481.396 459.422 484.818C459.422 488.781 460.383 489.621 463.985 488.661C467.167 487.82 476.472 483.258 480.315 480.676L483.136 478.815L480.735 481.336L478.333 483.918L480.135 483.378C481.155 483.077 487.939 482.837 495.204 482.837H508.532L511.894 480.496C518.198 476.173 522.16 470.59 523.061 464.766C523.361 462.785 523.901 459.063 524.261 456.421C524.622 453.78 525.342 450.117 525.822 448.256C526.243 446.455 527.023 442.193 527.503 438.891C528.164 434.148 528.764 432.046 530.205 429.525C532.246 425.923 532.667 424.242 531.166 425.502C530.685 425.923 529.665 427.904 528.944 429.945L527.564 433.607L527.383 430.906C527.023 425.983 527.624 424.422 530.745 422.501C534.708 420.039 535.068 419.679 535.068 417.938C535.068 415.896 533.387 412.835 529.425 407.551C527.563 405.09 526.063 402.869 526.063 402.568C526.063 401.488 527.263 402.268 530.085 405.21ZM136.485 441.292C137.446 444.894 136.605 447.596 134.144 448.917L132.163 449.997L133.543 451.318C135.645 453.359 138.947 454.62 147.232 456.721C161.04 460.203 166.443 463.746 175.929 475.693C178.991 479.535 180.972 481.456 182.653 482.237C183.974 482.837 184.935 483.438 184.755 483.618C184.334 484.038 180.612 482.417 179.832 481.456C179.171 480.616 179.051 480.676 179.051 481.697C179.051 483.077 176.169 487.82 174.548 489.141C173.948 489.621 174.428 488.781 175.569 487.22C178.691 483.137 178.991 481.216 176.89 478.455C173.408 473.892 165.483 466.147 161.64 463.626C156.537 460.264 154.436 459.423 145.731 457.262C141.768 456.241 136.185 454.38 133.363 453.059C128.56 450.778 128.08 450.658 125.739 451.258C122.857 452.039 122.317 452.879 121.836 457.022C121.416 460.984 117.634 472.631 115.052 478.154C113.911 480.556 113.011 482.777 113.011 483.137C113.011 483.438 113.551 485.299 114.152 487.16C114.812 489.081 115.412 491.302 115.532 492.143C115.652 493.284 116.013 493.584 117.033 493.464C118.294 493.284 118.294 493.344 117.454 496.105C116.973 497.666 116.733 499.047 116.853 499.167C117.213 499.527 120.816 494.965 120.816 494.124C120.816 493.704 120.395 493.344 119.855 493.344C119.135 493.344 119.255 492.923 120.455 491.483C121.296 490.462 122.016 488.901 122.016 488C122.016 485.839 118.894 481.456 116.733 480.676L115.112 480.016L116.553 479.055C117.273 478.455 119.075 477.074 120.455 475.873C121.776 474.672 123.517 473.412 124.238 472.991C125.018 472.631 131.742 471.731 139.247 471.07C154.196 469.689 157.438 469.149 157.438 467.828C157.438 466.387 155.577 465.907 148.192 465.487C144.23 465.307 140.087 464.946 138.887 464.766C136.665 464.406 136.545 464.226 134.084 458.282C133.964 457.982 135.164 458.643 136.725 459.723C140.207 462.125 144.83 463.626 150.534 464.226C154.916 464.646 157.678 465.727 158.218 467.108C159.119 469.389 156.537 470.29 144.89 471.791C133.483 473.291 128.5 474.312 126.519 475.573C124.958 476.593 122.317 481.096 123.097 481.516C123.337 481.697 124.898 481.997 126.519 482.237C128.2 482.477 131.082 483.318 132.943 484.098C135.585 485.179 138.346 485.719 144.05 486.139C152.995 486.86 159.899 487.76 162.841 488.601C163.982 488.961 168.184 490.822 172.147 492.743C176.109 494.664 181.152 496.946 183.374 497.846C185.595 498.747 189.197 500.668 191.359 502.109C193.52 503.55 195.501 504.751 195.801 504.751C196.041 504.751 196.522 503.85 196.822 502.769C197.182 501.569 198.203 500.308 199.644 499.407C201.445 498.207 202.105 497.246 202.826 494.725C203.786 491.543 204.867 489.982 204.867 491.963C204.807 494.124 202.585 497.967 200.124 500.068C198.803 501.208 197.662 502.469 197.662 502.829C197.662 503.25 197.122 504.09 196.462 504.751C195.261 505.951 195.261 505.951 191.839 503.73C189.918 502.529 184.454 499.708 179.651 497.486C174.849 495.325 168.965 492.563 166.624 491.302C163.322 489.681 161.52 489.141 159.239 489.141C155.877 489.141 154.976 490.522 157.918 491.182C160.019 491.663 161.4 492.863 164.462 497.006L166.924 500.368L163.862 500.488C154.316 500.788 142.189 501.869 139.367 502.709C136.665 503.49 135.404 504.39 131.622 508.293C124.778 515.377 123.037 518.799 117.814 535.73C116.253 540.773 115.352 542.514 112.651 545.876C107.848 551.939 107.848 553.74 112.531 563.226C113.611 565.268 113.971 566.588 113.491 566.468C112.471 566.108 109.048 560.405 107.608 556.442C105.927 552.059 106.527 550.138 111.87 542.874C114.332 539.572 115.592 536.63 118.954 526.664C121.536 518.799 126.039 510.334 129.281 507.092C131.622 504.751 131.622 504.751 130.001 505.111C129.041 505.351 127.3 506.011 126.039 506.672C124.778 507.272 123.457 507.752 123.037 507.692C121.236 507.392 115.112 511.054 111.03 514.897C107.548 518.139 106.167 521.201 106.707 524.503C106.887 526.004 107.127 527.805 107.127 528.465C107.187 529.125 107.728 531.647 108.328 534.109C109.589 539.212 109.649 540.052 108.868 539.212C107.728 538.131 105.086 526.604 105.026 522.461C104.906 518.679 105.146 517.899 106.947 514.657C108.028 512.675 109.589 509.313 110.309 507.152C111.09 504.991 112.591 501.329 113.671 498.927L115.592 494.604L114.031 489.922C112.05 484.098 112.05 483.017 113.971 477.914C118.654 465.727 120.816 458.703 120.816 455.701C120.816 452.159 121.416 451.378 125.619 449.217C128.02 448.016 128.8 447.176 130.061 444.474C130.902 442.673 131.622 441.052 131.622 440.932C131.622 440.752 132.042 439.611 132.583 438.35L133.543 436.009L134.684 437.45C135.284 438.17 136.125 439.971 136.485 441.292ZM219.216 453.119C218.855 455.941 218.015 459.783 217.354 461.704C215.733 466.747 211.651 475.873 209.91 478.575C208.349 480.916 208.169 483.017 209.37 486.439C209.73 487.58 209.73 487.58 208.829 486.5C208.349 485.899 207.749 484.158 207.508 482.717C207.148 480.376 207.328 479.775 209.069 477.374C211.531 473.892 215.433 464.886 216.994 459.123C217.715 456.241 218.315 451.498 218.555 445.915L218.915 437.209L219.456 442.613C219.756 446.215 219.696 449.697 219.216 453.119ZM439.25 450.538C439.73 462.005 440.27 464.946 442.912 470.35C444.893 474.372 445.013 475.033 445.013 480.616C445.013 486.62 445.974 491.423 447.595 493.224C448.135 493.884 448.795 497.666 449.516 503.85C450.957 517.358 451.857 522.281 454.259 528.825C456.48 534.949 460.022 549.118 461.463 557.583C462.604 564.487 463.324 578.295 462.544 578.836C461.703 579.316 461.523 578.235 459.482 562.626C458.461 555.001 457.081 547.197 456.42 545.215L455.279 541.673L455.52 545.275C455.64 547.257 455.339 550.979 454.859 553.56C454.259 556.622 454.019 561.005 454.139 566.288L454.319 574.333L452.698 576.014C451.797 576.915 450.897 577.455 450.657 577.215C450.477 577.035 450.056 575.594 449.756 574.093C449.456 572.592 448.315 569.41 447.174 567.069C445.854 564.367 444.833 561.065 444.473 558.483C443.272 550.078 442.612 543.234 442.612 539.812C442.552 537.831 442.131 535.189 441.651 533.868C439.01 527.024 438.829 525.884 439.55 520.12C439.97 517.118 441.111 511.295 442.131 507.152C444.473 497.546 444.713 490.822 442.792 484.338C442.071 481.877 441.051 477.374 440.57 474.432C440.03 471.43 439.37 467.828 439.01 466.327C438.289 463.085 437.569 437.75 438.289 439.911C438.589 440.752 439.01 445.555 439.25 450.538ZM285.316 452.999C285.016 454.08 284.595 456.361 284.415 458.102C284.175 459.783 283.395 466.327 282.554 472.631C281.774 478.875 281.113 484.518 281.113 485.119C281.113 485.719 280.873 486.079 280.633 485.899C280.393 485.719 280.213 486.379 280.273 487.4C280.333 488.361 280.153 489.141 279.853 489.141C279.012 489.141 279.192 486.379 280.513 479.655C282.074 471.731 282.074 471.49 280.453 472.331C279.792 472.691 276.911 474.792 274.089 476.954C269.226 480.616 268.866 480.796 268.085 479.775C267.665 479.175 267.305 477.854 267.305 476.774C267.305 475.093 268.025 474.192 272.588 470.049C275.47 467.408 278.952 464.346 280.333 463.205C282.134 461.764 282.974 460.624 283.215 459.123C283.695 456.181 285.376 450.538 285.676 450.838C285.796 451.018 285.676 451.978 285.316 452.999ZM230.382 462.545C228.821 468.729 228.761 469.389 229.122 478.335C229.482 485.359 229.842 488.421 230.803 490.942C234.465 500.908 235.485 506.432 235.485 515.737C235.425 526.124 233.504 531.827 227.08 539.752C222.217 545.876 221.437 548.878 221.857 560.284C222.157 569.05 223.298 574.153 225.88 578.596L227.14 580.697L225.579 578.896C222.638 575.414 221.557 570.791 221.257 560.585C220.777 546.836 221.137 545.576 227.801 537.351C233.564 530.386 235.546 521.861 234.405 509.433C233.684 502.109 232.664 497.546 230.082 490.642C228.942 487.64 228.641 485.479 228.461 477.434C228.161 468.909 228.281 467.288 229.482 462.725C230.202 459.903 230.983 456.962 231.163 456.121C231.343 455.28 231.583 454.98 231.763 455.401C231.883 455.821 231.283 459.063 230.382 462.545ZM515.856 460.504C514.536 467.288 508.472 475.933 504.99 475.933C501.808 475.933 502.528 473.652 508.472 465.126C515.316 455.16 515.496 454.92 515.976 456.181C516.217 456.841 516.157 458.763 515.856 460.504ZM233.925 463.205C232.844 467.348 232.844 467.888 233.204 480.736C233.444 488.181 233.624 489.201 235.305 493.044C238.307 499.888 239.148 503.43 239.508 510.754C240.048 523.182 237.407 532.968 231.223 540.773C227.26 545.756 226.36 548.457 226 556.142C225.7 563.647 226.54 568.87 229.542 577.035C231.823 583.339 231.703 584.359 229.422 578.596C226.3 570.971 225.279 565.928 225.279 558.183C225.279 549.178 226.12 546.416 230.983 539.512C236.986 531.047 238.607 525.283 238.607 512.555C238.667 504.45 238.067 501.629 234.825 494.004C232.664 488.961 232.424 487.94 232.484 483.798C232.544 481.276 232.424 476.774 232.183 473.712C231.763 468.969 231.883 467.528 233.144 462.725C233.925 459.663 234.705 457.682 234.825 458.222C234.885 458.823 234.525 461.104 233.925 463.205ZM533.987 468.669C542.633 471.61 547.976 475.933 551.518 483.017C552.479 484.879 552.419 484.818 549.657 482.177C545.574 478.214 542.152 476.053 536.629 473.712C531.766 471.67 528.464 469.209 528.464 467.708C528.464 466.747 527.984 466.627 533.987 468.669ZM216.934 491.543C217.114 500.668 216.394 505.771 212.131 526.064C210.33 534.529 208.229 548.697 207.328 558.183L206.848 563.286L206.728 559.384C206.668 555.001 208.649 537.591 210.03 530.266C210.57 527.625 211.771 522.221 212.792 518.259C214.533 511.535 214.653 510.274 214.713 499.347C214.773 492.923 215.073 484.518 215.373 480.736L215.974 473.832L216.394 479.235C216.574 482.177 216.874 487.76 216.934 491.543ZM479.234 488.241C479.234 488.421 477.133 489.621 474.491 490.882C470.289 493.044 466.626 496.105 466.626 497.606C466.626 497.846 467.347 498.567 468.187 499.167C471.97 501.629 481.636 499.407 496.465 492.683C501.628 490.402 505.89 488.601 506.01 488.721C506.671 489.321 490.221 497.066 484.337 498.927C473.35 502.409 468.788 502.409 466.026 498.927C463.204 495.325 465.726 492.263 473.531 489.802C476.532 488.841 478.994 488 479.114 488C479.174 487.94 479.234 488.06 479.234 488.241ZM540.051 492.203C540.231 492.863 540.231 493.824 540.051 494.304C539.511 495.805 532.486 498.747 526.363 500.008C523.061 500.728 518.078 502.169 515.256 503.25C512.434 504.33 507.811 505.771 505.05 506.432C502.228 507.152 497.965 508.353 495.624 509.133C493.223 509.974 491.241 510.514 491.241 510.334C491.241 509.734 497.905 507.092 503.249 505.591C512.795 502.89 530.565 495.925 534.588 493.404C538.91 490.582 539.631 490.462 540.051 492.203ZM179.892 512.796C184.274 514.356 188.777 517.118 191.239 519.64C193.58 522.041 200.004 535.489 200.184 538.191C200.244 539.452 200.244 542.093 200.124 544.075C199.944 547.437 199.884 547.497 199.464 545.455C198.623 540.893 192.079 532.668 187.096 529.846C183.194 527.685 182.113 526.544 184.034 526.604C184.755 526.664 185.475 526.844 185.655 527.024C185.835 527.204 187.636 528.825 189.738 530.506C191.839 532.247 194.721 535.549 196.342 537.891C198.503 541.193 199.223 541.913 199.343 540.953C199.584 539.272 197.542 533.388 194.42 526.724C191.479 520.48 188.897 517.779 182.833 514.897C177.07 512.135 174.368 512.075 167.944 514.356C164.943 515.377 159.539 517.178 155.937 518.259C148.252 520.66 140.327 524.082 138.346 525.944C137.566 526.664 136.125 528.705 135.044 530.566C134.024 532.367 132.042 535.609 130.662 537.771C126.519 544.255 122.857 551.999 119.615 561.185C116.133 571.091 115.953 573.252 117.754 580.697C119.075 586.1 118.234 585.68 115.893 579.856C113.971 574.873 114.092 569.17 116.253 564.487C117.153 562.506 118.654 558.844 119.615 556.382C122.196 549.538 127.72 538.371 129.821 535.669C130.902 534.349 132.823 531.707 134.144 529.786C135.465 527.865 137.806 525.343 139.427 524.202C141.768 522.521 142.549 521.501 143.329 519.099C143.87 517.478 144.59 516.278 144.83 516.458C145.13 516.638 144.95 517.899 144.47 519.279C144.05 520.6 143.63 521.801 143.63 521.921C143.63 522.101 144.95 521.501 146.571 520.72C148.192 519.88 152.575 518.259 156.357 517.118C164.342 514.717 170.106 512.615 170.946 511.895C171.967 510.934 175.929 511.355 179.892 512.796ZM543.473 516.038C545.695 517.118 548.756 519.64 552.779 523.722C556.441 527.444 560.704 530.987 563.706 532.908C567.608 535.369 568.869 536.57 569.829 538.611C571.39 541.793 571.39 543.534 569.829 547.497C568.809 550.198 568.629 551.759 568.749 559.024C568.869 568.089 568.448 570.13 565.327 575.414C563.766 578.115 560.884 580.397 561.784 578.235C564.486 571.691 564.306 569.35 560.584 559.804C557.041 550.739 550.137 534.649 549.357 533.748C548.997 533.328 545.214 531.887 540.832 530.506C536.509 529.125 532.847 527.925 532.667 527.745C531.766 526.904 535.068 525.763 538.31 525.763C541.972 525.763 543.413 526.364 549.777 530.206C553.499 532.488 547.556 527.685 542.272 524.142C535.428 519.58 532.126 518.139 526.063 517.178L520.959 516.278L527.924 516.218C536.089 516.158 537.169 516.578 546.175 523.302C554.28 529.366 555.901 531.107 556.741 534.469C557.342 536.75 558.422 538.371 561.604 541.793C563.826 544.255 565.687 546.536 565.687 546.836C565.687 548.337 566.947 546.416 567.728 543.714C568.989 539.512 568.328 538.491 561.544 534.109C558.362 532.007 553.92 528.405 551.578 526.064C549.177 523.662 545.334 520.6 542.573 518.979C539.931 517.418 537.109 515.617 536.269 514.897L534.768 513.636L537.47 514.056C538.97 514.236 541.672 515.137 543.473 516.038ZM511.053 517.118C503.489 518.319 499.166 520.6 494.964 525.703C492.922 528.225 492.502 529.065 493.163 529.486C493.703 529.906 493.523 529.966 492.562 529.786C490.101 529.246 485.898 531.167 482.236 534.589C477.973 538.491 477.493 540.172 478.814 545.996C479.894 550.619 480.675 557.403 480.075 556.862C479.594 556.322 476.893 542.694 476.833 540.592C476.833 538.071 483.797 530.987 487.579 529.606C489.38 528.945 491.902 527.084 494.844 524.202C500.787 518.499 504.269 516.878 510.453 516.878C511.834 516.938 512.014 516.998 511.053 517.118ZM508.052 536.15C515.076 538.671 523.601 544.195 531.766 551.699C534.107 553.801 538.37 557.343 541.192 559.564C549.117 565.748 551.938 569.53 553.019 575.354C553.679 578.716 553.319 578.416 551.518 574.033C549.477 568.99 547.436 566.408 542.332 562.506C539.811 560.525 534.648 556.202 530.865 552.84C519.338 542.574 509.432 536.75 502.648 536.15C499.646 535.85 499.106 536.03 496.224 537.951C494.543 539.092 491.481 541.013 489.44 542.274C487.459 543.474 484.998 545.155 483.977 545.996L482.116 547.557L482.536 552.42C483.016 558.303 482.296 561.845 479.834 565.808C478.874 567.369 477.553 570.551 477.013 572.892L475.932 577.095L475.752 574.513C475.572 571.932 476.652 569.11 480.135 562.986C481.575 560.465 481.696 559.804 481.575 553.62C481.515 549.958 481.636 546.656 481.876 546.236C482.176 545.816 486.018 543.114 490.521 540.172C499.947 533.988 501.147 533.748 508.052 536.15ZM179.171 551.639C170.466 552.48 163.682 555.181 153.415 561.905C146.811 566.228 143.75 570.251 140.508 578.896L139.427 581.898L139.727 579.196C140.147 575.654 143.029 569.89 146.031 566.468C147.352 564.907 150.654 562.266 153.355 560.585C163.622 553.981 172.027 551.039 180.552 551.099C183.914 551.159 183.794 551.159 179.171 551.639Z" fill="white"/>
<path d="M389.419 62.5812C389.599 64.8625 390.44 69.1251 391.22 72.0069C392.481 76.6898 393.021 77.7104 396.083 81.0124C400.166 85.5151 408.511 97.9427 411.993 104.607C414.935 110.19 414.875 110.07 410.852 99.8038C407.97 92.4193 406.89 90.3781 401.667 82.8735C400.466 81.1325 398.785 77.7704 397.884 75.3689C396.263 71.1664 391.701 62.0408 389.899 59.5793C389.119 58.4987 389.059 58.7988 389.419 62.5812Z" fill="white"/>
<path d="M388.579 90.3781C387.918 95.5413 387.918 96.5019 388.699 97.5825C391.281 101.305 399.986 110.61 402.928 112.832C410.492 118.535 416.436 123.939 420.218 128.561C425.321 134.805 425.682 135.105 424 132.224C423.22 130.903 421.179 128.201 419.498 126.22C414.455 120.336 404.549 107.849 402.447 104.787C401.427 103.166 399.806 101.545 398.905 101.065C396.264 99.6838 395.243 98.1228 392.181 91.0986L389.299 84.4945L388.579 90.3781Z" fill="white"/>
<path d="M487.459 307.35C484.998 311.313 468.668 342.592 467.887 344.753C467.767 345.053 468.488 344.213 469.388 342.832C471.009 340.49 477.493 331.605 486.739 319.057C490.821 313.474 491.181 312.393 489.921 308.371C489.14 305.669 488.6 305.489 487.459 307.35Z" fill="white"/>
<path d="M489.02 322.48C488.299 323.38 486.798 326.322 485.778 329.024C483.977 333.646 483.796 334.607 483.376 344.153C482.776 359.162 481.995 361.143 472.389 373.211C462.063 386.058 459.422 392.422 457.02 410.013C456.18 416.317 454.919 417.277 455.519 411.214C457.02 396.084 461.463 384.437 469.568 374.171C477.312 364.385 479.714 357.841 480.134 345.474C480.374 337.489 480.374 337.429 483.256 331.065C484.397 328.483 485.237 326.202 485.057 326.082C484.337 325.301 479.714 333.046 478.573 336.948C476.232 344.753 470.168 356.16 464.645 363.064C461.043 367.567 458.401 371.71 455.639 377.173C453.478 381.496 450.056 387.259 448.075 390.081C443.752 396.084 443.212 397.765 441.351 411.094L439.97 421L443.512 427.604C448.495 437.089 449.215 437.93 453.298 439.071C455.159 439.611 457.741 440.812 459.001 441.712C460.983 443.153 461.583 443.333 463.024 442.793C463.984 442.493 465.425 441.532 466.266 440.752C467.166 439.851 467.887 439.491 468.127 439.911C468.727 440.872 468.007 441.532 463.744 444.054C459.181 446.695 454.799 451.078 452.878 454.86L451.617 457.322H452.998C453.778 457.322 455.759 456.962 457.38 456.481C459.001 456.001 463.324 455.04 466.926 454.32C474.791 452.819 474.971 452.759 487.939 448.196C501.627 443.393 503.308 442.433 507.391 436.909C509.192 434.448 512.434 430.545 514.535 428.264L518.378 424.182L516.636 422.38C514.235 419.859 510.933 418.298 507.871 418.298C504.449 418.298 492.442 422.38 486.318 425.682C483.736 427.003 479.054 430.125 475.812 432.587C467.226 439.071 467.587 438.891 460.802 438.05C457.62 437.69 455.459 437.149 455.879 436.909C456.36 436.669 459.061 436.309 461.943 436.129C468.247 435.709 470.889 434.628 477.613 429.825C482.836 425.983 486.678 424.001 498.145 418.838C507.451 414.696 509.132 414.636 515.136 418.238C519.698 420.94 521.619 421.3 518.137 418.778C514.655 416.197 506.61 411.814 503.368 410.793C500.367 409.773 500.186 409.773 494.723 411.334C491.661 412.234 487.759 413.615 486.018 414.396C484.337 415.176 482.776 415.656 482.596 415.416C481.935 414.816 482.235 413.195 483.316 411.274C484.517 408.992 487.639 406.531 498.445 399.086C502.888 396.024 507.331 392.602 508.351 391.462C510.693 388.64 520.659 369.308 520.659 367.447C520.659 366.667 520.299 365.286 519.818 364.385C518.858 362.584 509.612 353.458 508.712 353.458C508.411 353.458 507.991 354.599 507.751 355.98L507.331 358.502L505.95 354.719C504.869 351.777 499.526 342.652 498.866 342.652C498.806 342.652 498.806 347.035 498.926 352.378C499.046 360.783 498.926 362.464 498.025 364.265C497.245 365.826 496.464 366.426 495.203 366.546C493.522 366.727 493.462 366.727 493.943 364.745C495.023 359.822 495.383 357.061 495.323 352.858V348.355L494.183 355.26C492.982 363.004 492.322 364.865 490.881 364.865C490.1 364.865 489.98 364.445 490.22 362.884C492.442 350.817 492.442 350.877 491.841 344.693C491.481 341.331 490.821 337.008 490.28 335.087C489.56 332.206 489.5 330.885 490.1 327.343C490.46 325.001 490.701 322.54 490.581 321.939C490.34 320.919 490.16 320.979 489.02 322.48Z" fill="white"/>
<path d="M529.064 451.978C529.064 454.32 531.886 459.423 534.468 461.764C535.789 462.905 538.13 464.526 539.691 465.307C545.575 468.308 545.695 467.888 540.411 462.665C537.59 459.903 533.867 456.001 532.186 454.02C529.365 450.778 529.064 450.598 529.064 451.978Z" fill="white"/>
<path d="M139.426 491.062C134.864 492.503 132.582 492.923 128.14 492.984L122.496 493.044L122.856 495.085C123.036 496.225 123.397 497.366 123.697 497.666C123.997 497.967 128.32 497.246 133.483 496.105C138.586 494.965 143.929 493.884 145.43 493.644C146.931 493.404 149.813 492.683 151.854 492.083C154.616 491.182 155.516 490.702 155.276 490.042C154.616 488.361 146.03 488.901 139.426 491.062Z" fill="white"/>
<path d="M147.532 494.004C143.269 495.025 137.446 496.285 134.624 496.946C129.641 498.087 120.335 502.289 117.213 504.811C116.373 505.531 116.013 505.891 116.433 505.711C116.793 505.531 117.754 505.591 118.594 505.891C119.375 506.191 120.275 506.252 120.575 505.951C121.356 505.231 136.845 501.869 143.149 501.088C146.211 500.728 152.455 500.248 157.018 500.008L165.243 499.647L163.201 496.646C161.16 493.524 158.999 492.083 156.657 492.203C155.937 492.203 151.855 493.043 147.532 494.004Z" fill="white"/>
<path d="M445.974 517.779C445.013 520.12 443.992 524.142 443.632 527.084C442.972 532.247 443.032 532.608 445.613 544.495L448.315 556.562L448.795 545.516C449.216 536.27 449.155 533.328 448.255 527.505C447.715 523.722 447.354 519.039 447.534 517.178C447.715 515.317 447.775 513.756 447.715 513.756C447.655 513.756 446.874 515.557 445.974 517.779Z" fill="white"/>
<path d="M279.792 464.226C277.631 466.207 276.79 467.468 278.111 466.627C278.471 466.447 278.711 466.507 278.711 466.807C278.711 467.168 278.291 467.588 277.751 467.768C277.271 467.948 277.03 467.888 277.211 467.528C278.231 465.907 276.31 467.348 272.348 471.25C268.025 475.453 267.244 476.954 268.445 478.875C268.865 479.475 270.306 478.755 274.989 475.393C278.291 473.051 281.233 470.77 281.593 470.35C282.434 469.389 283.214 462.125 282.554 462.125C282.254 462.125 280.993 463.085 279.792 464.226Z" fill="white"/>
<g filter="url(#filter0_d_169_812)">
<path d="M219 189L338 172.5L453.5 182L466.5 209.5L437.5 246L501 286L529.5 363L560 474L578 541.5L571 584.5L70 596.5L124 441L135.5 371L144.5 345.5L168 294.5L227 252L219 189Z" fill="url(#paint0_linear_169_812)" shape-rendering="crispEdges"/>
</g>
<path d="M62.6316 221.04L62.7721 220.775L62.7721 220.775L62.6316 221.04ZM77.9916 235.92L77.7301 236.067L77.7323 236.071L77.9916 235.92ZM77.9916 279.84L77.7315 279.69L77.7301 279.693L77.9916 279.84ZM62.5116 294.72L62.3724 294.454L62.3711 294.455L62.5116 294.72ZM7.79156 300H7.49156V300.3H7.79156V300ZM7.79156 215.76V215.46H7.49156V215.76H7.79156ZM28.3116 233.28V232.98H28.0116V233.28H28.3116ZM28.3116 282.24H28.0116V282.54H28.3116V282.24ZM39.3516 216.06C48.1915 216.06 55.9016 217.812 62.4911 221.305L62.7721 220.775C56.0816 217.228 48.2717 215.46 39.3516 215.46V216.06ZM62.4911 221.305C69.0815 224.799 74.159 229.718 77.7301 236.067L78.253 235.773C74.6242 229.322 69.4616 224.321 62.7721 220.775L62.4911 221.305ZM77.7323 236.071C81.3821 242.339 83.2116 249.606 83.2116 257.88H83.8116C83.8116 249.514 81.961 242.141 78.2508 235.769L77.7323 236.071ZM83.2116 257.88C83.2116 266.074 81.3824 273.341 77.7315 279.69L78.2516 279.99C81.9607 273.539 83.8116 266.166 83.8116 257.88H83.2116ZM77.7301 279.693C74.1595 286.041 69.0428 290.96 62.3724 294.454L62.6508 294.986C69.4203 291.44 74.6236 286.439 78.253 279.987L77.7301 279.693ZM62.3711 294.455C55.7812 297.948 48.111 299.7 39.3516 299.7V300.3C48.1922 300.3 55.9619 298.532 62.6521 294.985L62.3711 294.455ZM39.3516 299.7H7.79156V300.3H39.3516V299.7ZM8.09156 300V215.76H7.49156V300H8.09156ZM7.79156 216.06H39.3516V215.46H7.79156V216.06ZM38.0316 282.54C45.847 282.54 51.971 280.403 56.3617 276.094L55.9414 275.666C51.6921 279.837 45.7361 281.94 38.0316 281.94V282.54ZM56.3617 276.094C60.7542 271.783 62.9316 265.697 62.9316 257.88H62.3316C62.3316 265.583 60.1889 271.497 55.9414 275.666L56.3617 276.094ZM62.9316 257.88C62.9316 250.063 60.7541 243.938 56.3637 239.548L55.9394 239.972C60.189 244.222 62.3316 250.177 62.3316 257.88H62.9316ZM56.3637 239.548C51.9733 235.157 45.8485 232.98 38.0316 232.98V233.58C45.7346 233.58 51.6899 235.723 55.9394 239.972L56.3637 239.548ZM38.0316 232.98H28.3116V233.58H38.0316V232.98ZM28.0116 233.28V282.24H28.6116V233.28H28.0116ZM28.3116 282.54H38.0316V281.94H28.3116V282.54ZM115.499 232.2V231.9H115.199V232.2H115.499ZM115.499 249.24H115.199V249.54H115.499V249.24ZM142.979 249.24H143.279V248.94H142.979V249.24ZM142.979 265.08V265.38H143.279V265.08H142.979ZM115.499 265.08V264.78H115.199V265.08H115.499ZM115.499 283.56H115.199V283.86H115.499V283.56ZM146.579 283.56H146.879V283.26H146.579V283.56ZM146.579 300V300.3H146.879V300H146.579ZM94.9791 300H94.6791V300.3H94.9791V300ZM94.9791 215.76V215.46H94.6791V215.76H94.9791ZM146.579 215.76H146.879V215.46H146.579V215.76ZM146.579 232.2V232.5H146.879V232.2H146.579ZM115.199 232.2V249.24H115.799V232.2H115.199ZM115.499 249.54H142.979V248.94H115.499V249.54ZM142.679 249.24V265.08H143.279V249.24H142.679ZM142.979 264.78H115.499V265.38H142.979V264.78ZM115.199 265.08V283.56H115.799V265.08H115.199ZM115.499 283.86H146.579V283.26H115.499V283.86ZM146.279 283.56V300H146.879V283.56H146.279ZM146.579 299.7H94.9791V300.3H146.579V299.7ZM95.2791 300V215.76H94.6791V300H95.2791ZM94.9791 216.06H146.579V215.46H94.9791V216.06ZM146.279 215.76V232.2H146.879V215.76H146.279ZM146.579 231.9H115.499V232.5H146.579V231.9ZM238.981 215.76L239.264 215.86L239.406 215.46H238.981V215.76ZM209.101 300V300.3H209.313L209.384 300.1L209.101 300ZM183.421 300L183.138 300.1L183.209 300.3H183.421V300ZM153.541 215.76V215.46H153.116L153.258 215.86L153.541 215.76ZM175.381 215.76L175.666 215.666L175.598 215.46H175.381V215.76ZM196.261 279.36L195.976 279.454L196.26 280.319L196.546 279.454L196.261 279.36ZM217.261 215.76V215.46H217.044L216.976 215.666L217.261 215.76ZM238.698 215.66L208.818 299.9L209.384 300.1L239.264 215.86L238.698 215.66ZM209.101 299.7H183.421V300.3H209.101V299.7ZM183.704 299.9L153.824 215.66L153.258 215.86L183.138 300.1L183.704 299.9ZM153.541 216.06H175.381V215.46H153.541V216.06ZM175.096 215.854L195.976 279.454L196.546 279.266L175.666 215.666L175.096 215.854ZM196.546 279.454L217.546 215.854L216.976 215.666L195.976 279.266L196.546 279.454ZM217.261 216.06H238.981V215.46H217.261V216.06ZM268.077 232.2V231.9H267.777V232.2H268.077ZM268.077 249.24H267.777V249.54H268.077V249.24ZM295.557 249.24H295.857V248.94H295.557V249.24ZM295.557 265.08V265.38H295.857V265.08H295.557ZM268.077 265.08V264.78H267.777V265.08H268.077ZM268.077 283.56H267.777V283.86H268.077V283.56ZM299.157 283.56H299.457V283.26H299.157V283.56ZM299.157 300V300.3H299.457V300H299.157ZM247.557 300H247.257V300.3H247.557V300ZM247.557 215.76V215.46H247.257V215.76H247.557ZM299.157 215.76H299.457V215.46H299.157V215.76ZM299.157 232.2V232.5H299.457V232.2H299.157ZM267.777 232.2V249.24H268.377V232.2H267.777ZM268.077 249.54H295.557V248.94H268.077V249.54ZM295.257 249.24V265.08H295.857V249.24H295.257ZM295.557 264.78H268.077V265.38H295.557V264.78ZM267.777 265.08V283.56H268.377V265.08H267.777ZM268.077 283.86H299.157V283.26H268.077V283.86ZM298.857 283.56V300H299.457V283.56H298.857ZM299.157 299.7H247.557V300.3H299.157V299.7ZM247.857 300V215.76H247.257V300H247.857ZM247.557 216.06H299.157V215.46H247.557V216.06ZM298.857 215.76V232.2H299.457V215.76H298.857ZM299.157 231.9H268.077V232.5H299.157V231.9ZM332.999 284.16H332.699V284.46H332.999V284.16ZM359.879 284.16H360.179V283.86H359.879V284.16ZM359.879 300V300.3H360.179V300H359.879ZM312.479 300H312.179V300.3H312.479V300ZM312.479 215.76V215.46H312.179V215.76H312.479ZM332.999 215.76H333.299V215.46H332.999V215.76ZM332.999 284.46H359.879V283.86H332.999V284.46ZM359.579 284.16V300H360.179V284.16H359.579ZM359.879 299.7H312.479V300.3H359.879V299.7ZM312.779 300V215.76H312.179V300H312.779ZM312.479 216.06H332.999V215.46H312.479V216.06ZM332.699 215.76V284.16H333.299V215.76H332.699ZM387.667 295.32L387.52 295.582L387.521 295.582L387.667 295.32ZM371.947 279.96L371.687 280.11L371.689 280.114L371.947 279.96ZM371.947 235.44L371.689 235.286L371.688 235.288L371.947 235.44ZM387.667 220.08L387.521 219.818L387.52 219.818L387.667 220.08ZM431.227 220.08L431.08 220.342L431.081 220.342L431.227 220.08ZM446.827 235.44L446.566 235.589L446.568 235.592L446.827 235.44ZM446.827 279.96L447.085 280.112L447.086 280.11L446.827 279.96ZM431.227 295.32L431.373 295.582L431.373 295.582L431.227 295.32ZM425.587 275.4L425.365 275.198L425.363 275.2L425.587 275.4ZM425.587 239.88L425.363 240.08L425.367 240.084L425.587 239.88ZM393.187 239.76L392.967 239.556L392.965 239.558L393.187 239.76ZM393.187 275.52L392.963 275.72L392.967 275.724L393.187 275.52ZM409.507 300.54C401.635 300.54 394.406 298.712 387.812 295.058L387.521 295.582C394.208 299.288 401.538 301.14 409.507 301.14V300.54ZM387.813 295.058C381.3 291.404 376.098 286.322 372.204 279.806L371.689 280.114C375.635 286.718 380.913 291.876 387.52 295.582L387.813 295.058ZM372.206 279.81C368.395 273.219 366.487 265.831 366.487 257.64H365.887C365.887 265.929 367.819 273.421 371.687 280.11L372.206 279.81ZM366.487 257.64C366.487 249.449 368.395 242.102 372.205 235.592L371.688 235.288C367.819 241.898 365.887 249.351 365.887 257.64H366.487ZM372.204 235.594C376.098 229.078 381.3 223.996 387.813 220.342L387.52 219.818C380.913 223.524 375.635 228.682 371.689 235.286L372.204 235.594ZM387.812 220.342C394.406 216.688 401.635 214.86 409.507 214.86V214.26C401.538 214.26 394.208 216.112 387.521 219.818L387.812 220.342ZM409.507 214.86C417.378 214.86 424.567 216.688 431.08 220.342L431.373 219.818C424.766 216.112 417.475 214.26 409.507 214.26V214.86ZM431.081 220.342C437.673 223.996 442.834 229.077 446.566 235.589L447.087 235.291C443.299 228.683 438.06 223.524 431.372 219.818L431.081 220.342ZM446.568 235.592C450.379 242.102 452.287 249.449 452.287 257.64H452.887C452.887 249.351 450.955 241.898 447.085 235.288L446.568 235.592ZM452.287 257.64C452.287 265.831 450.379 273.219 446.567 279.81L447.086 280.11C450.955 273.421 452.887 265.929 452.887 257.64H452.287ZM446.568 279.808C442.754 286.323 437.593 291.405 431.08 295.058L431.373 295.582C437.98 291.875 443.219 286.717 447.085 280.112L446.568 279.808ZM431.08 295.058C424.567 298.712 417.378 300.54 409.507 300.54V301.14C417.475 301.14 424.766 299.288 431.373 295.582L431.08 295.058ZM409.507 282.42C416.301 282.42 421.746 280.152 425.81 275.6L425.363 275.2C421.427 279.608 416.152 281.82 409.507 281.82V282.42ZM425.808 275.602C429.949 271.055 432.007 265.058 432.007 257.64H431.407C431.407 264.942 429.384 270.785 425.365 275.198L425.808 275.602ZM432.007 257.64C432.007 250.143 429.95 244.144 425.807 239.676L425.367 240.084C429.384 244.416 431.407 250.257 431.407 257.64H432.007ZM425.81 239.68C421.746 235.128 416.301 232.86 409.507 232.86V233.46C416.152 233.46 421.427 235.672 425.363 240.08L425.81 239.68ZM409.507 232.86C402.635 232.86 397.111 235.086 392.967 239.556L393.407 239.964C397.422 235.634 402.778 233.46 409.507 233.46V232.86ZM392.965 239.558C388.902 244.027 386.887 250.066 386.887 257.64H387.487C387.487 250.174 389.471 244.293 393.409 239.962L392.965 239.558ZM386.887 257.64C386.887 265.135 388.903 271.173 392.963 275.72L393.41 275.32C389.47 270.907 387.487 265.025 387.487 257.64H386.887ZM392.967 275.724C397.111 280.194 402.635 282.42 409.507 282.42V281.82C402.778 281.82 397.422 279.646 393.407 275.316L392.967 275.724ZM524.843 256.32L525.104 256.467L525.105 256.464L524.843 256.32ZM514.523 266.04L514.381 265.775L514.381 265.775L514.523 266.04ZM484.523 269.76V269.46H484.223V269.76H484.523ZM484.523 300V300.3H484.823V300H484.523ZM464.003 300H463.703V300.3H464.003V300ZM464.003 215.76V215.46H463.703V215.76H464.003ZM514.283 219.24L514.417 218.972L514.417 218.972L514.283 219.24ZM504.443 235.08L504.235 235.297L504.443 235.08ZM484.523 232.32V232.02H484.223V232.32H484.523ZM484.523 253.44H484.223V253.74H484.523V253.44ZM527.903 242.88C527.903 247.712 526.794 252.142 524.58 256.176L525.105 256.464C527.371 252.338 528.503 247.808 528.503 242.88H527.903ZM524.581 256.173C522.373 260.116 518.978 263.318 514.381 265.775L514.664 266.305C519.347 263.802 522.832 260.524 525.104 256.467L524.581 256.173ZM514.381 265.775C509.796 268.226 504.088 269.46 497.243 269.46V270.06C504.157 270.06 509.969 268.814 514.664 266.305L514.381 265.775ZM497.243 269.46H484.523V270.06H497.243V269.46ZM484.223 269.76V300H484.823V269.76H484.223ZM484.523 299.7H464.003V300.3H484.523V299.7ZM464.303 300V215.76H463.703V300H464.303ZM464.003 216.06H497.243V215.46H464.003V216.06ZM497.243 216.06C503.929 216.06 509.56 217.214 514.148 219.508L514.417 218.972C509.725 216.626 503.996 215.46 497.243 215.46V216.06ZM514.148 219.508C518.741 221.805 522.174 224.965 524.462 228.988L524.983 228.692C522.631 224.555 519.104 221.315 514.417 218.972L514.148 219.508ZM524.462 228.988C526.753 233.018 527.903 237.645 527.903 242.88H528.503C528.503 237.555 527.332 232.822 524.983 228.692L524.462 228.988ZM495.683 253.74C499.644 253.74 502.653 252.811 504.65 250.897L504.235 250.463C502.392 252.229 499.561 253.14 495.683 253.14V253.74ZM504.65 250.897C506.644 248.986 507.623 246.299 507.623 242.88H507.023C507.023 246.181 506.081 248.694 504.235 250.463L504.65 250.897ZM507.623 242.88C507.623 239.461 506.644 236.774 504.65 234.863L504.235 235.297C506.081 237.066 507.023 239.579 507.023 242.88H507.623ZM504.65 234.863C502.653 232.949 499.644 232.02 495.683 232.02V232.62C499.561 232.62 502.392 233.531 504.235 235.297L504.65 234.863ZM495.683 232.02H484.523V232.62H495.683V232.02ZM484.223 232.32V253.44H484.823V232.32H484.223ZM484.523 253.74H495.683V253.14H484.523V253.74ZM559.405 232.2V231.9H559.105V232.2H559.405ZM559.405 249.24H559.105V249.54H559.405V249.24ZM586.885 249.24H587.185V248.94H586.885V249.24ZM586.885 265.08V265.38H587.185V265.08H586.885ZM559.405 265.08V264.78H559.105V265.08H559.405ZM559.405 283.56H559.105V283.86H559.405V283.56ZM590.485 283.56H590.785V283.26H590.485V283.56ZM590.485 300V300.3H590.785V300H590.485ZM538.885 300H538.585V300.3H538.885V300ZM538.885 215.76V215.46H538.585V215.76H538.885ZM590.485 215.76H590.785V215.46H590.485V215.76ZM590.485 232.2V232.5H590.785V232.2H590.485ZM559.105 232.2V249.24H559.705V232.2H559.105ZM559.405 249.54H586.885V248.94H559.405V249.54ZM586.585 249.24V265.08H587.185V249.24H586.585ZM586.885 264.78H559.405V265.38H586.885V264.78ZM559.105 265.08V283.56H559.705V265.08H559.105ZM559.405 283.86H590.485V283.26H559.405V283.86ZM590.185 283.56V300H590.785V283.56H590.185ZM590.485 299.7H538.885V300.3H590.485V299.7ZM539.185 300V215.76H538.585V300H539.185ZM538.885 216.06H590.485V215.46H538.885V216.06ZM590.185 215.76V232.2H590.785V215.76H590.185ZM590.485 231.9H559.405V232.5H590.485V231.9ZM646.767 300L646.504 300.145L646.59 300.3H646.767V300ZM629.247 268.2L629.51 268.055L629.424 267.9H629.247V268.2ZM624.327 268.2V267.9H624.027V268.2H624.327ZM624.327 300V300.3H624.627V300H624.327ZM603.807 300H603.507V300.3H603.807V300ZM603.807 215.76V215.46H603.507V215.76H603.807ZM655.167 219.24L655.033 219.508L655.035 219.509L655.167 219.24ZM665.727 228.84L665.466 228.988L665.468 228.991L665.727 228.84ZM664.407 257.28L664.165 257.104L664.162 257.106L664.407 257.28ZM650.487 266.64L650.401 266.353L650.036 266.462L650.228 266.791L650.487 266.64ZM669.927 300V300.3H670.449L670.186 299.849L669.927 300ZM624.327 253.68H624.027V253.98H624.327V253.68ZM645.447 250.92L645.24 250.703L645.235 250.708L645.447 250.92ZM645.447 235.56L645.235 235.772L645.24 235.777L645.447 235.56ZM624.327 232.8V232.5H624.027V232.8H624.327ZM647.03 299.855L629.51 268.055L628.984 268.345L646.504 300.145L647.03 299.855ZM629.247 267.9H624.327V268.5H629.247V267.9ZM624.027 268.2V300H624.627V268.2H624.027ZM624.327 299.7H603.807V300.3H624.327V299.7ZM604.107 300V215.76H603.507V300H604.107ZM603.807 216.06H638.247V215.46H603.807V216.06ZM638.247 216.06C644.853 216.06 650.445 217.214 655.033 219.508L655.301 218.972C650.61 216.626 644.921 215.46 638.247 215.46V216.06ZM655.035 219.509C659.708 221.806 663.18 224.967 665.466 228.988L665.988 228.692C663.635 224.553 660.067 221.314 655.3 218.971L655.035 219.509ZM665.468 228.991C667.759 232.941 668.907 237.369 668.907 242.28H669.507C669.507 237.271 668.335 232.739 665.987 228.689L665.468 228.991ZM668.907 242.28C668.907 247.819 667.326 252.756 664.165 257.104L664.65 257.456C667.888 253.004 669.507 247.941 669.507 242.28H668.907ZM664.162 257.106C661.088 261.442 656.51 264.528 650.401 266.353L650.573 266.927C656.784 265.072 661.486 261.918 664.652 257.454L664.162 257.106ZM650.228 266.791L669.668 300.151L670.186 299.849L650.746 266.489L650.228 266.791ZM669.927 299.7H646.767V300.3H669.927V299.7ZM624.327 253.98H637.047V253.38H624.327V253.98ZM637.047 253.98C640.851 253.98 643.742 253.049 645.659 251.132L645.235 250.708C643.472 252.471 640.763 253.38 637.047 253.38V253.98ZM645.655 251.137C647.648 249.226 648.627 246.539 648.627 243.12H648.027C648.027 246.421 647.086 248.934 645.24 250.703L645.655 251.137ZM648.627 243.12C648.627 239.856 647.646 237.251 645.655 235.343L645.24 235.777C647.089 237.549 648.027 239.984 648.027 243.12H648.627ZM645.659 235.348C643.742 233.431 640.851 232.5 637.047 232.5V233.1C640.763 233.1 643.472 234.009 645.235 235.772L645.659 235.348ZM637.047 232.5H624.327V233.1H637.047V232.5ZM624.027 232.8V253.68H624.627V232.8H624.027Z" fill="white"/>
<path d="M94.6941 90.04L94.8346 89.7749L94.8346 89.7749L94.6941 90.04ZM110.054 104.92L109.793 105.067L109.795 105.071L110.054 104.92ZM110.054 148.84L109.794 148.69L109.793 148.693L110.054 148.84ZM94.5741 163.72L94.4349 163.454L94.4336 163.455L94.5741 163.72ZM39.8541 169H39.5541V169.3H39.8541V169ZM39.8541 84.76V84.46H39.5541V84.76H39.8541ZM60.3741 102.28V101.98H60.0741V102.28H60.3741ZM60.3741 151.24H60.0741V151.54H60.3741V151.24ZM71.4141 85.06C80.254 85.06 87.9641 86.8118 94.5536 90.3051L94.8346 89.7749C88.1441 86.2282 80.3342 84.46 71.4141 84.46V85.06ZM94.5536 90.3051C101.144 93.7988 106.221 98.7184 109.793 105.067L110.316 104.773C106.687 98.3216 101.524 93.3212 94.8346 89.7749L94.5536 90.3051ZM109.795 105.071C113.445 111.339 115.274 118.606 115.274 126.88H115.874C115.874 118.514 114.024 111.141 110.313 104.769L109.795 105.071ZM115.274 126.88C115.274 135.074 113.445 142.341 109.794 148.69L110.314 148.99C114.023 142.539 115.874 135.166 115.874 126.88H115.274ZM109.793 148.693C106.222 155.041 101.105 159.96 94.4349 163.454L94.7133 163.986C101.483 160.44 106.686 155.439 110.316 148.987L109.793 148.693ZM94.4336 163.455C87.8437 166.948 80.1735 168.7 71.4141 168.7V169.3C80.2547 169.3 88.0244 167.532 94.7146 163.985L94.4336 163.455ZM71.4141 168.7H39.8541V169.3H71.4141V168.7ZM40.1541 169V84.76H39.5541V169H40.1541ZM39.8541 85.06H71.4141V84.46H39.8541V85.06ZM70.0941 151.54C77.9095 151.54 84.0335 149.403 88.4242 145.094L88.0039 144.666C83.7546 148.837 77.7986 150.94 70.0941 150.94V151.54ZM88.4242 145.094C92.8167 140.783 94.9941 134.697 94.9941 126.88H94.3941C94.3941 134.583 92.2514 140.497 88.0039 144.666L88.4242 145.094ZM94.9941 126.88C94.9941 119.063 92.8166 112.938 88.4262 108.548L88.0019 108.972C92.2515 113.222 94.3941 119.177 94.3941 126.88H94.9941ZM88.4262 108.548C84.0358 104.157 77.911 101.98 70.0941 101.98V102.58C77.7971 102.58 83.7524 104.723 88.0019 108.972L88.4262 108.548ZM70.0941 101.98H60.3741V102.58H70.0941V101.98ZM60.0741 102.28V151.24H60.6741V102.28H60.0741ZM60.3741 151.54H70.0941V150.94H60.3741V151.54ZM147.562 101.2V100.9H147.262V101.2H147.562ZM147.562 118.24H147.262V118.54H147.562V118.24ZM175.042 118.24H175.342V117.94H175.042V118.24ZM175.042 134.08V134.38H175.342V134.08H175.042ZM147.562 134.08V133.78H147.262V134.08H147.562ZM147.562 152.56H147.262V152.86H147.562V152.56ZM178.642 152.56H178.942V152.26H178.642V152.56ZM178.642 169V169.3H178.942V169H178.642ZM127.042 169H126.742V169.3H127.042V169ZM127.042 84.76V84.46H126.742V84.76H127.042ZM178.642 84.76H178.942V84.46H178.642V84.76ZM178.642 101.2V101.5H178.942V101.2H178.642ZM147.262 101.2V118.24H147.862V101.2H147.262ZM147.562 118.54H175.042V117.94H147.562V118.54ZM174.742 118.24V134.08H175.342V118.24H174.742ZM175.042 133.78H147.562V134.38H175.042V133.78ZM147.262 134.08V152.56H147.862V134.08H147.262ZM147.562 152.86H178.642V152.26H147.562V152.86ZM178.342 152.56V169H178.942V152.56H178.342ZM178.642 168.7H127.042V169.3H178.642V168.7ZM127.342 169V84.76H126.742V169H127.342ZM127.042 85.06H178.642V84.46H127.042V85.06ZM178.342 84.76V101.2H178.942V84.76H178.342ZM178.642 100.9H147.562V101.5H178.642V100.9ZM205.883 166.84L205.77 167.118L205.77 167.118L205.883 166.84ZM194.123 157.96L193.882 158.138L193.884 158.141L194.123 157.96ZM189.563 143.8V143.5H189.255L189.264 143.809L189.563 143.8ZM211.403 143.8L211.702 143.769L211.674 143.5H211.403V143.8ZM214.643 151L214.441 151.222L214.447 151.226L214.643 151ZM229.043 151.36L229.227 151.597L229.233 151.592L229.043 151.36ZM229.523 140.32L229.311 140.532L229.317 140.538L229.523 140.32ZM224.363 136.96L224.243 137.235L224.247 137.236L224.363 136.96ZM215.723 133.96L215.635 134.247L215.638 134.248L215.723 133.96ZM193.523 121.48L193.763 121.299L193.763 121.299L193.523 121.48ZM198.323 90.28L198.507 90.5172L198.509 90.5155L198.323 90.28ZM242.963 90.28L242.778 90.5156L242.78 90.5172L242.963 90.28ZM252.083 108.76V109.06H252.399L252.383 108.745L252.083 108.76ZM229.883 108.76L229.584 108.778L229.601 109.06H229.883V108.76ZM226.883 102.4L226.687 102.626L226.692 102.631L226.883 102.4ZM213.803 102.04L213.997 102.27L214.003 102.264L213.803 102.04ZM215.363 114.04L215.517 113.782L215.517 113.782L215.363 114.04ZM227.363 118.96L227.46 118.676L227.456 118.675L227.363 118.96ZM240.563 124.24L240.429 124.508L240.432 124.51L240.563 124.24ZM249.443 131.56L249.206 131.744L249.206 131.744L249.443 131.56ZM249.443 157L249.19 156.84L249.188 156.843L249.443 157ZM238.883 166.36L238.749 166.092L238.749 166.092L238.883 166.36ZM222.443 169.54C216.316 169.54 210.836 168.545 205.997 166.562L205.77 167.118C210.691 169.135 216.251 170.14 222.443 170.14V169.54ZM205.997 166.562C201.163 164.581 197.288 161.653 194.363 157.779L193.884 158.141C196.879 162.107 200.844 165.099 205.77 167.118L205.997 166.562ZM194.365 157.782C191.526 153.918 190.022 149.259 189.863 143.791L189.264 143.809C189.425 149.381 190.961 154.162 193.882 158.138L194.365 157.782ZM189.563 144.1H211.403V143.5H189.563V144.1ZM211.105 143.831C211.431 147.004 212.534 149.48 214.441 151.222L214.846 150.778C213.073 149.16 212.016 146.836 211.702 143.769L211.105 143.831ZM214.447 151.226C216.352 152.883 218.827 153.7 221.843 153.7V153.1C218.94 153.1 216.615 152.317 214.84 150.774L214.447 151.226ZM221.843 153.7C224.926 153.7 227.398 153.011 229.227 151.597L228.86 151.123C227.169 152.429 224.841 153.1 221.843 153.1V153.7ZM229.233 151.592C231.07 150.09 231.983 148.041 231.983 145.48H231.383C231.383 147.879 230.537 149.75 228.853 151.128L229.233 151.592ZM231.983 145.48C231.983 143.322 231.233 141.522 229.729 140.102L229.317 140.538C230.694 141.838 231.383 143.478 231.383 145.48H231.983ZM229.736 140.108C228.344 138.716 226.59 137.576 224.48 136.684L224.247 137.236C226.297 138.104 227.983 139.204 229.311 140.532L229.736 140.108ZM224.484 136.685C222.467 135.798 219.573 134.794 215.809 133.672L215.638 134.248C219.394 135.366 222.26 136.362 224.243 137.235L224.484 136.685ZM215.812 133.673C210.38 131.996 205.956 130.321 202.535 128.65L202.272 129.19C205.731 130.879 210.187 132.564 215.635 134.247L215.812 133.673ZM202.535 128.65C199.141 126.993 196.216 124.544 193.763 121.299L193.284 121.661C195.79 124.976 198.786 127.487 202.272 129.19L202.535 128.65ZM193.763 121.299C191.332 118.084 190.103 113.873 190.103 108.64H189.503C189.503 113.967 190.755 118.316 193.284 121.661L193.763 121.299ZM190.103 108.64C190.103 100.883 192.908 94.8546 198.507 90.5172L198.14 90.0428C192.379 94.5054 189.503 100.717 189.503 108.64H190.103ZM198.509 90.5155C204.124 86.0872 211.453 83.86 220.523 83.86V83.26C211.354 83.26 203.883 85.5128 198.138 90.0444L198.509 90.5155ZM220.523 83.86C229.755 83.86 237.164 86.0879 242.778 90.5155L243.149 90.0444C237.403 85.5121 229.852 83.26 220.523 83.26V83.86ZM242.78 90.5172C248.383 94.8576 251.388 100.932 251.784 108.775L252.383 108.745C251.979 100.748 248.904 94.5024 243.147 90.0428L242.78 90.5172ZM252.083 108.46H229.883V109.06H252.083V108.46ZM230.183 108.742C230.019 105.952 228.988 103.75 227.075 102.169L226.692 102.631C228.459 104.09 229.428 106.128 229.584 108.778L230.183 108.742ZM227.08 102.174C225.176 100.518 222.742 99.7 219.803 99.7V100.3C222.625 100.3 224.911 101.082 226.687 102.626L227.08 102.174ZM219.803 99.7C217.266 99.7 215.19 100.397 213.603 101.816L214.003 102.264C215.457 100.963 217.381 100.3 219.803 100.3V99.7ZM213.61 101.811C212.006 103.161 211.223 105.135 211.223 107.68H211.823C211.823 105.265 212.561 103.479 213.997 102.269L213.61 101.811ZM211.223 107.68C211.223 110.517 212.57 112.73 215.21 114.298L215.517 113.782C213.037 112.31 211.823 110.283 211.823 107.68H211.223ZM215.21 114.298C217.8 115.835 221.825 117.484 227.271 119.245L227.456 118.675C222.021 116.916 218.047 115.285 215.517 113.782L215.21 114.298ZM227.267 119.244C232.7 121.082 237.086 122.837 240.429 124.508L240.698 123.972C237.321 122.283 232.907 120.518 227.46 118.676L227.267 119.244ZM240.432 124.51C243.828 126.168 246.753 128.578 249.206 131.744L249.681 131.376C247.174 128.142 244.179 125.672 240.695 123.97L240.432 124.51ZM249.206 131.744C251.636 134.879 252.863 138.93 252.863 143.92H253.463C253.463 138.83 252.21 134.641 249.681 131.376L249.206 131.744ZM252.863 143.92C252.863 148.665 251.638 152.969 249.19 156.84L249.697 157.16C252.208 153.191 253.463 148.775 253.463 143.92H252.863ZM249.188 156.843C246.821 160.71 243.346 163.793 238.749 166.092L239.018 166.628C243.701 164.287 247.266 161.13 249.699 157.157L249.188 156.843ZM238.749 166.092C234.159 168.387 228.727 169.54 222.443 169.54V170.14C228.8 170.14 234.328 168.973 239.018 166.628L238.749 166.092ZM286.312 84.76H286.612V84.46H286.312V84.76ZM286.312 169V169.3H286.612V169H286.312ZM265.792 169H265.492V169.3H265.792V169ZM265.792 84.76V84.46H265.492V84.76H265.792ZM286.012 84.76V169H286.612V84.76H286.012ZM286.312 168.7H265.792V169.3H286.312V168.7ZM266.092 169V84.76H265.492V169H266.092ZM265.792 85.06H286.312V84.46H265.792V85.06ZM357.102 111.4L356.839 111.543L356.924 111.7H357.102V111.4ZM350.502 105.04L350.359 105.304L350.368 105.308L350.502 105.04ZM324.582 109.36L324.802 109.564L324.804 109.562L324.582 109.36ZM324.822 145L324.604 145.206L324.608 145.21L324.822 145ZM354.942 147.64L354.766 147.397L354.763 147.399L354.942 147.64ZM362.622 136.6L362.907 136.695L363.038 136.3H362.622V136.6ZM336.582 136.6H336.282V136.9H336.582V136.6ZM336.582 121.48V121.18H336.282V121.48H336.582ZM381.222 121.48H381.522V121.18H381.222V121.48ZM381.222 140.56L381.51 140.645L381.522 140.604V140.56H381.222ZM373.422 154.84L373.192 154.648L373.19 154.65L373.422 154.84ZM359.622 165.52L359.491 165.25L359.622 165.52ZM318.342 164.2L318.194 164.461L318.198 164.463L318.342 164.2ZM303.102 148.96L302.84 149.106L302.841 149.108L303.102 148.96ZM303.102 104.56L302.841 104.413L302.84 104.414L303.102 104.56ZM318.342 89.32L318.488 89.5823L318.49 89.5809L318.342 89.32ZM365.982 91.12L365.809 91.3647L365.81 91.3656L365.982 91.12ZM379.782 111.4V111.7H380.17L380.073 111.325L379.782 111.4ZM357.366 111.257C355.816 108.402 353.571 106.239 350.636 104.772L350.368 105.308C353.194 106.721 355.348 108.798 356.839 111.543L357.366 111.257ZM350.645 104.776C347.793 103.228 344.422 102.46 340.542 102.46V103.06C344.342 103.06 347.611 103.812 350.359 105.304L350.645 104.776ZM340.542 102.46C333.829 102.46 328.424 104.688 324.36 109.158L324.804 109.562C328.74 105.232 333.976 103.06 340.542 103.06V102.46ZM324.362 109.156C320.299 113.544 318.282 119.423 318.282 126.76H318.882C318.882 119.537 320.865 113.816 324.802 109.564L324.362 109.156ZM318.282 126.76C318.282 134.574 320.378 140.736 324.604 145.206L325.04 144.794C320.946 140.464 318.882 134.466 318.882 126.76H318.282ZM324.608 145.21C328.916 149.6 334.8 151.78 342.222 151.78V151.18C334.924 151.18 329.208 149.04 325.036 144.79L324.608 145.21ZM342.222 151.78C347.315 151.78 351.621 150.486 355.121 147.881L354.763 147.399C351.384 149.914 347.209 151.18 342.222 151.18V151.78ZM355.119 147.883C358.697 145.28 361.29 141.544 362.907 136.695L362.338 136.505C360.754 141.256 358.227 144.88 354.766 147.397L355.119 147.883ZM362.622 136.3H336.582V136.9H362.622V136.3ZM336.882 136.6V121.48H336.282V136.6H336.882ZM336.582 121.78H381.222V121.18H336.582V121.78ZM380.922 121.48V140.56H381.522V121.48H380.922ZM380.935 140.475C379.427 145.553 376.848 150.277 373.192 154.648L373.652 155.032C377.357 150.603 379.977 145.807 381.51 140.645L380.935 140.475ZM373.19 154.65C369.62 159.013 365.056 162.547 359.491 165.25L359.753 165.79C365.389 163.053 370.024 159.467 373.654 155.03L373.19 154.65ZM359.491 165.25C353.937 167.948 347.663 169.3 340.662 169.3V169.9C347.742 169.9 354.107 168.532 359.753 165.79L359.491 165.25ZM340.662 169.3C332.387 169.3 324.997 167.51 318.487 163.937L318.198 164.463C324.807 168.09 332.297 169.9 340.662 169.9V169.3ZM318.49 163.939C312.057 160.286 307.016 155.245 303.363 148.812L302.841 149.108C306.548 155.635 311.667 160.754 318.194 164.461L318.49 163.939ZM303.364 148.814C299.792 142.384 298.002 135.035 298.002 126.76H297.402C297.402 135.125 299.212 142.576 302.84 149.106L303.364 148.814ZM298.002 126.76C298.002 118.485 299.792 111.136 303.364 104.706L302.84 104.414C299.212 110.944 297.402 118.395 297.402 126.76H298.002ZM303.364 104.707C307.017 98.1945 312.057 93.1548 318.488 89.5822L318.196 89.0577C311.667 92.6852 306.547 97.8055 302.841 104.413L303.364 104.707ZM318.49 89.5809C324.92 85.9294 332.268 84.1 340.542 84.1V83.5C332.176 83.5 324.724 85.3506 318.194 89.0591L318.49 89.5809ZM340.542 84.1C350.572 84.1 358.989 86.5272 365.809 91.3647L366.156 90.8753C359.216 85.9528 350.672 83.5 340.542 83.5V84.1ZM365.81 91.3656C372.708 96.2025 377.269 102.901 379.492 111.475L380.073 111.325C377.816 102.619 373.176 95.7975 366.154 90.8744L365.81 91.3656ZM379.782 111.1H357.102V111.7H379.782V111.1ZM467.948 169V169.3H468.248V169H467.948ZM447.428 169L447.178 169.165L447.267 169.3H447.428V169ZM413.108 117.04L413.359 116.875L412.808 116.041V117.04H413.108ZM413.108 169V169.3H413.408V169H413.108ZM392.588 169H392.288V169.3H392.588V169ZM392.588 84.76V84.46H392.288V84.76H392.588ZM413.108 84.76L413.359 84.5952L413.27 84.46H413.108V84.76ZM447.428 136.96L447.178 137.125L447.728 137.962V136.96H447.428ZM447.428 84.76V84.46H447.128V84.76H447.428ZM467.948 84.76H468.248V84.46H467.948V84.76ZM467.948 168.7H447.428V169.3H467.948V168.7ZM447.679 168.835L413.359 116.875L412.858 117.205L447.178 169.165L447.679 168.835ZM412.808 117.04V169H413.408V117.04H412.808ZM413.108 168.7H392.588V169.3H413.108V168.7ZM392.888 169V84.76H392.288V169H392.888ZM392.588 85.06H413.108V84.46H392.588V85.06ZM412.858 84.9248L447.178 137.125L447.679 136.795L413.359 84.5952L412.858 84.9248ZM447.728 136.96V84.76H447.128V136.96H447.728ZM447.428 85.06H467.948V84.46H447.428V85.06ZM467.648 84.76V169H468.248V84.76H467.648ZM503.343 101.2V100.9H503.043V101.2H503.343ZM503.343 118.24H503.043V118.54H503.343V118.24ZM530.823 118.24H531.123V117.94H530.823V118.24ZM530.823 134.08V134.38H531.123V134.08H530.823ZM503.343 134.08V133.78H503.043V134.08H503.343ZM503.343 152.56H503.043V152.86H503.343V152.56ZM534.423 152.56H534.723V152.26H534.423V152.56ZM534.423 169V169.3H534.723V169H534.423ZM482.823 169H482.523V169.3H482.823V169ZM482.823 84.76V84.46H482.523V84.76H482.823ZM534.423 84.76H534.723V84.46H534.423V84.76ZM534.423 101.2V101.5H534.723V101.2H534.423ZM503.043 101.2V118.24H503.643V101.2H503.043ZM503.343 118.54H530.823V117.94H503.343V118.54ZM530.523 118.24V134.08H531.123V118.24H530.523ZM530.823 133.78H503.343V134.38H530.823V133.78ZM503.043 134.08V152.56H503.643V134.08H503.043ZM503.343 152.86H534.423V152.26H503.343V152.86ZM534.123 152.56V169H534.723V152.56H534.123ZM534.423 168.7H482.823V169.3H534.423V168.7ZM483.123 169V84.76H482.523V169H483.123ZM482.823 85.06H534.423V84.46H482.823V85.06ZM534.123 84.76V101.2H534.723V84.76H534.123ZM534.423 100.9H503.343V101.5H534.423V100.9ZM590.705 169L590.442 169.145L590.527 169.3H590.705V169ZM573.185 137.2L573.447 137.055L573.362 136.9H573.185V137.2ZM568.265 137.2V136.9H567.965V137.2H568.265ZM568.265 169V169.3H568.565V169H568.265ZM547.745 169H547.445V169.3H547.745V169ZM547.745 84.76V84.46H547.445V84.76H547.745ZM599.105 88.24L598.971 88.5083L598.972 88.5092L599.105 88.24ZM609.665 97.84L609.404 97.9883L609.405 97.9905L609.665 97.84ZM608.345 126.28L608.102 126.104L608.1 126.106L608.345 126.28ZM594.425 135.64L594.339 135.353L593.974 135.462L594.165 135.791L594.425 135.64ZM613.865 169V169.3H614.387L614.124 168.849L613.865 169ZM568.265 122.68H567.965V122.98H568.265V122.68ZM589.385 119.92L589.177 119.703L589.173 119.708L589.385 119.92ZM589.385 104.56L589.173 104.772L589.177 104.777L589.385 104.56ZM568.265 101.8V101.5H567.965V101.8H568.265ZM590.967 168.855L573.447 137.055L572.922 137.345L590.442 169.145L590.967 168.855ZM573.185 136.9H568.265V137.5H573.185V136.9ZM567.965 137.2V169H568.565V137.2H567.965ZM568.265 168.7H547.745V169.3H568.265V168.7ZM548.045 169V84.76H547.445V169H548.045ZM547.745 85.06H582.185V84.46H547.745V85.06ZM582.185 85.06C588.791 85.06 594.382 86.2142 598.971 88.5083L599.239 87.9717C594.547 85.6258 588.859 84.46 582.185 84.46V85.06ZM598.972 88.5092C603.645 90.806 607.117 93.9667 609.404 97.9883L609.925 97.6917C607.572 93.5532 604.004 90.314 599.237 87.9708L598.972 88.5092ZM609.405 97.9905C611.697 101.941 612.845 106.369 612.845 111.28H613.445C613.445 106.271 612.273 101.739 609.924 97.6895L609.405 97.9905ZM612.845 111.28C612.845 116.819 611.264 121.756 608.102 126.104L608.587 126.456C611.826 122.004 613.445 116.941 613.445 111.28H612.845ZM608.1 126.106C605.026 130.442 600.447 133.528 594.339 135.353L594.511 135.927C600.722 134.072 605.424 130.918 608.589 126.454L608.1 126.106ZM594.165 135.791L613.605 169.151L614.124 168.849L594.684 135.489L594.165 135.791ZM613.865 168.7H590.705V169.3H613.865V168.7ZM568.265 122.98H580.985V122.38H568.265V122.98ZM580.985 122.98C584.789 122.98 587.68 122.049 589.597 120.132L589.173 119.708C587.41 121.471 584.701 122.38 580.985 122.38V122.98ZM589.592 120.137C591.586 118.226 592.565 115.539 592.565 112.12H591.965C591.965 115.421 591.023 117.934 589.177 119.703L589.592 120.137ZM592.565 112.12C592.565 108.856 591.583 106.251 589.592 104.343L589.177 104.777C591.026 106.549 591.965 108.984 591.965 112.12H592.565ZM589.597 104.348C587.68 102.431 584.789 101.5 580.985 101.5V102.1C584.701 102.1 587.41 103.009 589.173 104.772L589.597 104.348ZM580.985 101.5H568.265V102.1H580.985V101.5ZM567.965 101.8V122.68H568.565V101.8H567.965Z" fill="white"/>
<path d="M341.364 199L337.789 193.625L334.639 199H329.789L335.414 190.075L329.664 181.45H334.639L338.164 186.75L341.264 181.45H346.114L340.539 190.3L346.339 199H341.364Z" fill="white"/>
<defs>
<filter id="filter0_d_169_812" x="66" y="172.5" width="516" height="432" filterUnits="userSpaceOnUse" color-interpolation-filters="sRGB">
<feFlood flood-opacity="0" result="BackgroundImageFix"/>
<feColorMatrix in="SourceAlpha" type="matrix" values="0 0 0 0 0 0 0 0 0 0 0 0 0 0 0 0 0 0 127 0" result="hardAlpha"/>
<feOffset dy="4"/>
<feGaussianBlur stdDeviation="2"/>
<feComposite in2="hardAlpha" operator="out"/>
<feColorMatrix type="matrix" values="0 0 0 0 0 0 0 0 0 0 0 0 0 0 0 0 0 0 0.25 0"/>
<feBlend mode="normal" in2="BackgroundImageFix" result="effect1_dropShadow_169_812"/>
<feBlend mode="normal" in="SourceGraphic" in2="effect1_dropShadow_169_812" result="shape"/>
</filter>
<linearGradient id="paint0_linear_169_812" x1="323" y1="584.5" x2="323" y2="172.5" gradientUnits="userSpaceOnUse">
<stop offset="0.0625"/>
<stop offset="0.59375" stop-opacity="0.686747"/>
<stop offset="1" stop-opacity="0"/>
</linearGradient>
</defs>
</svg>
