<svg width="532" height="605" viewBox="0 0 532 605" fill="none" xmlns="http://www.w3.org/2000/svg">
<path d="M230.5 28.5L286 0L328 28.5L353 73L407.5 199.5L399 229L380 247.5L441.5 283.5L477.5 376.5L486 421L510.5 502L531.5 587L0 596.5L40 520.5L49 493.5L67 440L72 376.5L80.5 357L95 331.5L114 283.5L169.5 252.5L162.5 229V187L172.5 155.5L230.5 28.5Z" fill="black"/>
<path d="M297.919 10.6495C303.862 13.5313 317.911 29.561 328.778 45.7709C330.579 48.4125 334.961 54.5963 338.564 59.5193C349.13 73.868 352.432 80.2919 358.976 98.9033C360.777 104.006 362.698 109.29 363.179 110.61C363.719 111.931 365.76 117.455 367.681 122.918C372.064 134.985 372.664 136.306 379.449 148.433C385.032 158.4 388.214 165.724 392.056 177.551C393.257 181.334 395.178 186.196 396.259 188.358C400.822 197.063 401.422 198.444 402.323 202.106C403.583 206.789 403.283 208.23 399.921 216.095C396.439 224.14 393.557 228.222 389.114 231.464C382.751 236.087 371.644 248.334 360.417 263.103C354.714 270.608 349.49 276.492 348.95 275.951C348.77 275.771 350.451 273.37 352.672 270.548C358.796 262.983 369.783 247.854 372.544 243.231C374.285 240.289 375.846 238.548 377.768 237.348C379.208 236.447 380.349 235.487 380.169 235.366C380.049 235.186 378.368 235.547 376.507 236.087C374.586 236.627 372.965 236.927 372.785 236.807C372.484 236.447 377.527 234.766 380.589 234.226C383.651 233.685 389.114 230.083 392.537 226.301C395.658 222.759 398.9 215.734 399.381 211.292C399.921 206.549 398.72 204.087 394.278 201.026C391.816 199.344 389.415 196.943 387.674 194.482C386.173 192.32 383.471 188.778 381.73 186.617C379.989 184.455 377.467 181.213 376.147 179.472C372.424 174.609 355.374 156.959 353.213 155.818C352.132 155.278 350.931 154.797 350.451 154.737C349.01 154.737 335.382 146.752 335.382 145.972C335.382 145.552 338.203 146.812 341.686 148.794C345.108 150.715 349.49 152.936 351.411 153.657C355.014 154.977 359.156 158.82 373.925 174.549L378.728 179.652L378.368 177.071C377.888 174.009 376.387 170.827 372.965 165.844C370.743 162.602 370.503 161.882 370.443 158.339C370.443 155.338 370.023 153.717 368.762 151.195C366 145.792 358.196 138.467 358.196 141.229C358.196 141.709 359.156 145.071 360.297 148.614C362.218 154.557 363.659 162.122 362.758 161.281C362.518 161.101 361.798 158.94 361.137 156.478C360.477 154.017 358.976 149.334 357.835 145.972C356.695 142.67 355.794 139.488 355.794 139.008C355.794 137.327 352.072 134.325 344.327 129.762C337.723 125.8 336.042 124.419 330.819 118.895C327.577 115.353 324.275 111.511 323.555 110.37L322.234 108.209L320.973 111.151C319.292 115.113 318.632 118.355 318.571 122.318C318.571 127.421 318.992 128.201 322.414 129.822C326.136 131.563 334.241 140.208 334.121 142.31C334.061 143.45 334.001 143.45 333.581 142.07C332.92 139.788 324.755 131.803 321.813 130.482C318.692 129.102 317.971 127.601 317.971 122.017C317.971 118.535 318.391 116.434 319.772 112.652L321.573 107.729L318.632 103.406C317.011 101.005 315.269 97.8226 314.729 96.3818C314.249 95.0009 313.228 92.2993 312.568 90.4382C310.647 85.215 306.504 81.6128 299.48 79.0912C296.478 78.0106 293.956 76.9299 293.956 76.6898C293.956 76.1495 300.861 78.611 304.643 80.5321C306.264 81.3726 308.485 83.0536 309.566 84.2544C311.367 86.3556 312.208 87.8566 315.329 95.3011C319.652 105.507 332.38 118.655 343.247 124.179C347.389 126.22 347.989 126.34 347.569 124.719C346.849 122.017 350.091 124.179 355.494 130.002C359.757 134.565 364.379 138.167 365.52 137.807C366.241 137.567 359.336 129.462 355.374 125.86C354.053 124.659 349.49 121.357 345.228 118.535C340.965 115.714 336.342 112.291 334.961 110.971C332.8 108.869 332.44 108.089 331.96 104.787L331.359 101.005L330.879 104.847C330.459 108.269 330.339 108.569 329.618 107.609C329.078 106.888 328.778 104.787 328.778 101.905V97.2823L325.055 93.6801C322.954 91.6389 320.313 89.1774 319.172 88.0967L317.071 86.1756L319.772 87.6164C321.213 88.3369 323.855 90.3181 325.596 91.9991L328.718 95.0009L329.078 90.4982C329.498 85.1549 328.538 73.2076 327.217 68.0445C325.656 61.8007 322.114 51.0541 321.273 49.8534C320.793 49.253 321.813 52.9753 323.555 58.0784C326.376 66.6637 326.616 67.8043 326.676 73.0875C326.676 77.5903 326.436 79.2113 325.596 80.4721C325.055 81.3726 324.335 82.0931 324.095 82.0931C323.855 82.0931 322.174 79.8717 320.373 77.1701L317.131 72.2471L316.71 61.7406C316.47 55.8571 315.87 49.3731 315.329 47.0917C314.789 44.8103 312.448 39.1669 309.866 34.0038C305.423 25.1183 304.763 23.2572 305.964 23.2572C306.324 23.2572 306.564 23.0171 306.564 22.7769C306.564 22.0565 299.96 13.4112 299.18 13.111C298.819 12.9909 298.699 13.8315 298.879 15.5125C299.24 18.1541 299.24 18.1541 298.399 16.353C297.979 15.3323 297.619 14.2517 297.559 13.8915C297.559 13.5313 297.018 12.7508 296.298 12.0904C295.217 11.1298 294.197 10.9497 288.913 11.0698C281.169 11.2499 278.467 12.1504 271.143 16.8933C261.056 23.4974 252.291 28.4804 249.109 29.561C245.147 30.8218 239.143 36.2251 234.34 42.8891C232.479 45.5908 228.276 52.3149 225.034 57.8383C221.792 63.4217 217.17 71.2264 214.828 75.1889C209.845 83.594 203.541 97.3423 206.003 94.4005C206.843 93.3799 209.545 88.6971 212.007 83.8942C216.389 75.2489 218.971 70.9863 217.77 74.2883C213.387 86.5358 209.845 94.3405 206.063 100.284C204.982 101.965 203.181 105.447 202.161 107.969C201.14 110.49 199.459 113.312 198.438 114.273C193.695 118.715 189.313 127.721 181.628 148.734C179.947 153.176 177.846 158.82 176.885 161.281C175.864 163.743 175.204 165.844 175.324 165.964C176.045 166.745 187.752 150.415 191.834 142.91C195.316 136.546 203.601 124.419 207.084 120.516C208.644 118.775 210.325 115.894 211.346 113.372C212.787 109.65 213.507 108.689 216.149 106.708C220.532 103.466 222.333 101.245 225.275 95.0009C229.057 87.0761 230.438 81.3126 230.498 73.6879C230.558 67.9244 230.558 67.6843 231.038 70.6861C232.539 80.2319 226.475 98.0628 218.25 108.569C216.269 111.031 215.669 112.352 215.369 115.053C215.128 116.914 214.588 119.016 214.228 119.736C213.207 121.597 207.984 127.901 203.902 132.224C200.299 136.006 198.138 139.728 195.677 146.332C193.335 152.516 191.954 154.497 182.288 165.004C177.305 170.407 172.262 176.29 171.122 178.031C168.06 182.594 165.418 190.159 165.058 195.562L164.698 200.065L167.159 197.784C169.501 195.502 170.341 193.941 172.442 188.058C173.163 185.896 174.784 183.735 178.086 180.253C183.489 174.669 184.21 173.529 183.789 170.827L183.489 168.846L184.15 170.887C185.05 173.769 184.21 175.39 178.986 180.553C174.904 184.575 174.364 185.476 172.863 189.859C171.602 193.761 170.701 195.262 168.06 198.024C163.677 202.646 163.617 203.427 165.838 217.175L166.199 219.277L167.579 215.554C169.26 210.872 173.223 204.267 177.425 199.164C179.167 197.003 181.268 193.941 182.048 192.38C182.889 190.819 184.45 188.478 185.59 187.217C186.731 185.956 188.892 182.294 190.393 179.112C191.894 175.93 194.116 172.088 195.316 170.587C198.138 167.165 203.902 162.782 206.243 162.242C207.144 162.062 208.224 161.281 208.524 160.561C209.725 158.039 217.05 149.574 221.612 145.552C227.376 140.509 233.259 136.486 241.605 131.983C252.711 125.98 259.315 124.239 266.039 125.319C268.021 125.68 273.004 126.46 277.146 127.12C281.289 127.721 286.632 128.982 289.094 129.762C291.555 130.603 295.698 131.923 298.399 132.584C301.101 133.304 308.786 135.886 315.57 138.227C322.354 140.629 329.318 142.91 331.059 143.39C332.8 143.811 334.181 144.471 334.181 144.951C334.181 145.372 334.061 145.732 333.941 145.732C333.821 145.732 327.397 143.571 319.712 140.929C307.345 136.666 287.292 130.422 282.249 129.222C277.987 128.261 265.319 126.52 262.317 126.52C260.516 126.52 257.274 127 255.053 127.541C250.67 128.621 236.982 135.406 231.578 139.128C224.794 143.811 212.907 155.398 210.145 160.081C209.485 161.161 207.984 162.482 206.603 163.082C203.842 164.283 196.877 170.287 194.596 173.349C193.815 174.429 192.254 177.371 191.234 179.893C190.213 182.414 188.352 185.536 187.151 186.857C185.951 188.178 183.789 191.3 182.408 193.821C181.028 196.283 179.347 198.864 178.626 199.525C177.005 200.905 172.142 208.11 170.281 211.772C165.058 222.038 165.418 230.083 171.782 243.591C173.523 247.374 176.225 253.978 177.786 258.3C182.288 271.028 182.889 272.349 187.632 280.754C192.675 289.7 194.836 291.861 202.881 296.123C205.763 297.624 209.125 300.206 212.907 303.868C216.029 306.87 219.991 309.992 221.612 310.832C223.293 311.673 225.695 313.054 227.016 313.894C228.336 314.795 230.078 315.695 230.918 315.936C231.759 316.176 233.32 317.196 234.4 318.097C236.622 320.078 236.381 320.018 239.683 319.238C243.766 318.277 244.786 318.937 250.85 326.622C257.034 334.487 257.874 335.928 259.856 341.151C260.936 343.853 261.837 345.173 263.818 346.674C266.64 348.836 266.7 349.196 263.998 347.755C261.777 346.614 259.135 343.492 258.775 341.511C258.535 340.43 257.334 339.17 255.173 337.669C253.312 336.348 250.91 333.886 249.589 331.905C248.269 329.984 245.387 326.742 243.166 324.701C240.944 322.72 239.383 321.039 239.683 321.039C241.184 321.039 247.248 326.742 249.649 330.464C251.21 332.746 253.132 335.087 254.032 335.688C254.873 336.228 256.133 337.249 256.794 337.909C257.935 339.05 257.935 339.05 257.935 337.849C257.935 337.249 256.794 335.267 255.353 333.526C253.912 331.785 251.27 328.243 249.349 325.722C247.488 323.2 245.447 320.799 244.786 320.498C243.105 319.538 240.104 319.718 238.483 320.738C237.222 321.579 237.042 321.519 235.481 319.898C234.58 318.997 230.198 316.356 225.695 314.074C218.49 310.412 216.809 309.271 211.586 304.348C207.684 300.686 204.322 298.105 201.62 296.784C195.076 293.482 191.714 290.48 188.352 284.777C186.731 282.015 184.27 278.112 182.949 276.131C181.568 274.21 179.947 271.328 179.287 269.767C178.566 268.267 177.906 267.006 177.786 267.006C177.425 267.006 178.386 270.068 179.887 273.43C181.208 276.612 181.328 278.413 180.127 278.833C179.287 279.133 174.304 272.649 172.322 268.687C171.542 267.186 170.761 264.844 170.521 263.584C170.221 261.602 170.401 260.942 171.782 259.321C172.683 258.24 173.763 257.4 174.183 257.4C174.604 257.4 175.624 259.141 176.345 261.242C177.125 263.404 177.846 265.025 177.966 264.904C178.326 264.544 172.923 249.475 169.981 242.511C166.559 234.646 165.478 230.263 165.478 224.38C165.478 221.918 165.058 217.596 164.578 214.774C163.317 207.209 163.317 202.887 164.638 190.279C165.178 184.876 168.84 173.289 172.322 165.784C174.123 161.822 177.425 153.657 179.587 147.533C186.551 128.321 188.112 124.779 206.423 88.0967C214.648 71.6467 216.329 68.4648 224.674 54.7164C235.841 36.2851 243.706 27.9401 251.991 25.6587C253.192 25.2985 257.634 22.8369 261.897 20.1353C276.786 10.7095 279.728 9.56885 289.394 9.50882C294.257 9.44878 295.878 9.68892 297.919 10.6495ZM254.633 84.4345C254.272 84.7347 252.531 85.3951 250.73 85.9954C246.588 87.3162 243.586 89.1774 239.023 93.5C237.042 95.3611 233.92 98.0628 232.119 99.5037C226.655 103.826 221.312 109.29 219.991 111.811C218.851 113.973 218.791 114.873 219.091 121.837C219.631 132.824 217.77 139.128 211.826 146.272C208.404 150.355 207.204 153.296 207.744 156.478C207.984 157.979 207.864 158.339 207.504 157.739C206.783 156.598 206.723 152.816 207.504 150.895C207.804 150.114 209.365 147.953 211.046 146.092C214.528 142.25 214.948 141.529 216.93 135.886C218.25 132.224 218.43 130.783 218.25 125.319C218.01 115.654 218.13 113.612 219.211 111.571C220.472 109.049 225.215 104.307 232.119 98.6031C235.241 96.0216 239.203 92.5994 240.884 91.0385C244.126 88.0367 246.287 86.7159 250.97 85.0349C254.512 83.8341 255.413 83.654 254.633 84.4345ZM322.894 162.422C326.616 164.823 337.003 168.906 337.663 168.246C337.843 168.125 337.603 167.885 337.123 167.705C332.02 166.144 329.678 165.004 328.057 163.323C326.977 162.242 326.496 161.341 326.857 161.341C327.277 161.341 327.757 161.762 327.997 162.302C328.177 162.782 328.718 163.082 329.198 162.902C329.678 162.722 329.858 162.782 329.678 163.142C329.258 163.863 331.359 165.184 334.481 166.144C335.802 166.565 338.083 167.525 339.584 168.246C341.926 169.386 347.449 171.067 351.291 171.728C351.952 171.848 351.171 172.148 349.61 172.448C347.569 172.748 345.828 172.628 343.607 171.968C332.68 168.726 327.757 167.165 325.596 166.144C322.234 164.583 317.851 160.921 316.17 158.339L314.789 156.238L316.83 158.039C317.971 159 320.733 161.041 322.894 162.422ZM297.439 170.467C301.281 171.488 302.962 171.608 307.705 171.307C310.827 171.067 313.528 170.767 313.709 170.647C313.829 170.467 313.468 169.927 312.808 169.446C312.208 169.026 313.528 169.326 315.81 170.227L319.892 171.848L316.41 172.628C314.429 173.048 310.166 173.409 306.864 173.469C301.401 173.529 300.32 173.349 294.257 171.307C290.654 170.047 287.232 168.666 286.692 168.186C285.551 167.165 284.711 167.045 285.311 168.005C285.551 168.486 285.311 168.486 284.411 168.005C283.75 167.585 283.15 167.165 283.15 166.985C283.15 166.805 283.39 166.865 283.75 167.045C284.05 167.225 284.771 167.165 285.311 166.865C286.032 166.444 287.292 166.745 289.574 167.765C291.375 168.546 294.917 169.746 297.439 170.467ZM309.446 209.671L309.266 214.474L310.947 214.354C312.388 214.234 312.568 214.414 312.268 215.254C311.307 217.536 311.307 218.556 312.268 216.875C313.168 215.194 315.209 212.973 315.81 212.973C315.93 212.973 315.75 213.753 315.39 214.774C315.029 215.734 314.909 216.695 315.089 216.935C315.75 217.536 318.992 214.894 321.994 211.292C323.494 209.431 324.635 208.11 324.515 208.47C323.254 211.472 321.033 215.134 318.451 218.676C316.71 220.958 313.468 225.46 311.127 228.582C305.423 236.327 287.593 254.098 284.951 254.638C281.169 255.359 275.705 255.058 273.724 253.918C267.18 250.376 246.948 231.584 244.006 226.361C242.325 223.359 241.424 222.218 242.025 223.899C242.205 224.32 242.985 227.802 243.766 231.584C244.546 235.366 245.387 239.029 245.627 239.689C245.867 240.349 245.207 239.509 244.126 237.768C242.865 235.667 242.025 233.265 241.665 230.564C240.644 223.419 239.984 220.958 238.243 217.355C235.721 212.132 235.421 211.172 236.982 212.973C237.762 213.933 238.122 214.114 237.882 213.393C236.862 210.511 237.042 210.571 238.663 213.873C239.683 215.855 241.304 219.277 242.265 221.438C243.886 224.86 245.267 226.481 254.152 234.946C263.758 244.072 271.923 251.096 274.625 252.537C275.946 253.257 282.55 253.317 284.771 252.717C285.491 252.477 288.133 250.376 290.594 247.974L295.157 243.652V240.169C295.157 237.468 295.577 235.967 296.898 233.505C297.859 231.824 298.519 230.383 298.399 230.383C298.219 230.383 295.938 231.524 293.296 232.845C290.654 234.226 288.373 235.186 288.193 235.006C287.833 234.646 291.495 231.524 294.017 230.203C295.878 229.183 295.938 229.003 294.977 228.282C294.017 227.562 294.197 227.382 297.198 226.001C299.42 224.98 300.921 223.779 301.941 222.158C303.442 219.877 303.923 218.616 305.664 211.172C307.765 202.346 307.765 202.346 308.786 203.667C309.446 204.568 309.626 206.129 309.446 209.671ZM234.64 216.815C234.64 218.436 234.82 218.916 235.181 218.316C235.541 217.776 235.721 218.796 235.661 221.378C235.601 223.539 235.721 225.941 235.961 226.661C236.201 227.382 236.261 227.982 236.081 227.982C235.901 227.982 235.361 226.721 234.88 225.1L233.98 222.278V227.982C233.92 232.605 233.68 234.046 232.719 235.487C231.278 237.648 231.158 237.288 232.479 234.646C233.019 233.625 233.259 232.305 233.019 231.764C232.839 231.224 232.419 227.922 232.059 224.5C231.759 221.018 231.278 217.896 231.098 217.536C230.858 217.235 230.618 215.674 230.558 214.174C230.438 212.673 230.198 210.211 230.018 208.59C229.837 207.029 229.837 205.768 229.957 205.768C230.318 205.768 231.518 209.851 231.879 212.372C232.059 213.213 232.539 215.194 233.019 216.875L233.92 219.877L233.62 216.875C233.5 215.194 233.199 211.712 233.079 209.07L232.779 204.268L233.74 209.371C234.28 212.192 234.7 215.554 234.64 216.815ZM329.558 221.078C334.901 224.2 338.924 229.483 342.886 238.608C345.048 243.471 345.228 244.312 345.168 249.295C345.108 257.88 342.706 266.946 338.984 272.469C338.023 273.91 335.922 276.672 334.301 278.593C332.68 280.514 329.918 284.717 328.117 287.898C323.074 297.204 319.472 302.487 316.11 305.729L312.988 308.731L315.75 305.249C319.352 300.806 321.693 297.144 326.376 288.619C328.417 284.837 331.719 279.733 333.701 277.272C338.083 271.749 340.425 266.826 342.346 259.381C345.048 248.574 344.147 241.61 338.684 231.824C336.462 227.922 331.299 222.699 327.637 220.778C326.436 220.177 325.836 219.637 326.256 219.577C326.676 219.577 328.177 220.237 329.558 221.078ZM221.612 226.361C217.41 229.663 209.245 237.768 207.384 240.47C204.862 244.132 204.502 245.633 203.721 257.1C202.701 272.109 202.881 276.431 204.742 284.416C206.723 292.461 207.264 293.542 210.866 295.823C212.307 296.724 214.528 298.825 215.669 300.386L217.77 303.328L215.188 300.566C213.748 299.065 211.646 297.204 210.506 296.544C206.783 294.382 205.883 292.821 204.322 286.518C201.38 274.69 201.32 274.03 202.04 264.304C203.361 247.674 203.842 244.792 205.583 241.61C207.504 238.008 214.288 230.984 219.451 227.201C223.714 224.02 225.275 223.419 221.612 226.361ZM244.426 245.152C245.987 251.396 246.047 252.117 245.327 255.659C244.006 262.383 244.006 263.163 244.967 265.505C245.867 267.606 245.867 267.906 245.027 268.747C244.186 269.647 243.946 269.587 242.925 268.206C241.004 265.745 240.824 263.043 242.265 259.561C244.486 254.098 243.826 241.49 241.064 237.408L239.743 235.487L241.244 236.987C242.385 238.128 243.226 240.229 244.426 245.152ZM376.027 251.816C376.867 252.657 378.068 253.197 379.268 253.197C382.15 253.197 385.032 254.878 387.253 257.94C388.874 260.162 391.036 261.723 397.94 265.685C402.623 268.387 410.728 273.49 415.831 276.972C420.934 280.454 426.877 284.236 429.039 285.317C436.303 289.039 437.864 291.501 441.286 304.829C444.228 316.296 449.872 330.524 455.995 342.051C464.22 357.481 468.063 365.766 468.063 368.107C468.063 370.209 467.222 372.79 462.599 385.518C460.438 391.402 459.417 393.263 457.076 395.904C455.455 397.645 453.894 398.906 453.534 398.726C453.234 398.486 452.093 399.146 451.072 400.107C449.992 401.127 448.491 402.328 447.65 402.869C446.269 403.829 446.269 403.889 447.41 403.889C450.052 403.889 454.374 405.93 457.196 408.452L460.078 411.094L460.018 403.709C459.958 396.445 459.958 396.325 462.179 391.702C463.62 388.64 464.701 387.079 465.361 387.079C466.201 387.079 466.322 387.439 466.021 389C465.001 394.283 464.941 402.809 465.841 406.471C467.822 414.215 468.843 420.579 468.423 422.681C468.183 423.881 466.382 428.144 464.34 432.226C462.359 436.309 459.537 443.093 458.157 447.296C454.975 456.781 452.393 460.384 448.311 460.984C446.99 461.164 445.849 461.224 445.849 461.164C445.849 460.744 449.511 454.86 451.913 451.318C454.254 447.896 457.556 440.031 456.956 439.431C456.716 439.191 455.035 440.992 451.733 445.014C449.211 448.016 443.988 456.241 442.547 459.483C441.166 462.665 435.403 469.209 431.2 472.451L428.739 474.372L431.5 471.37C436.363 466.087 441.707 458.402 444.408 452.819C446.089 449.397 448.671 445.495 451.553 442.072C456.295 436.369 461.218 429.585 462.959 426.103C463.8 424.482 463.02 425.082 459.597 428.744C457.136 431.326 454.074 434.988 452.813 436.849C447.71 444.114 445.549 446.155 440.026 449.097L434.742 451.918L438.044 448.917C439.845 447.296 441.106 445.915 440.866 445.915C440.566 445.915 434.622 447.776 427.658 450.057C420.634 452.339 413.309 454.5 411.328 454.92C409.347 455.28 404.544 456.421 400.641 457.442C392.296 459.663 391.636 459.483 393.257 455.22C394.518 451.918 396.499 449.517 400.341 446.455L403.283 444.174L400.401 442.733C398.84 441.952 396.559 441.112 395.418 440.872C394.218 440.692 392.416 439.791 391.336 438.83C389.415 437.209 382.03 424.662 381.31 421.84C380.889 420.039 383.651 401.248 384.972 397.165C385.512 395.604 387.674 391.822 389.835 388.76C392.056 385.698 394.998 380.595 396.439 377.473C400.822 367.987 401.302 367.207 405.925 361.263C410.307 355.74 410.848 354.719 413.249 347.155C413.91 345.173 414.63 343.012 414.87 342.352C415.11 341.691 413.669 342.892 411.688 345.053C409.707 347.215 408.026 348.595 408.026 348.115C408.026 346.974 415.771 327.883 418.773 321.699C421.174 316.776 421.174 316.596 420.213 315.095C419.673 314.255 417.752 311.253 416.011 308.431C414.21 305.609 411.568 302.187 410.067 300.806C408.566 299.425 407.486 297.985 407.726 297.624C407.966 297.264 407.846 297.084 407.546 297.144C407.185 297.264 405.504 296.304 403.763 294.983C402.082 293.722 398.36 291.08 395.538 289.099C387.914 283.756 379.809 277.152 379.809 276.251C379.809 274.871 382.45 276.311 388.334 280.934C391.396 283.336 394.998 286.157 396.319 287.118C397.64 288.079 400.702 290.6 403.103 292.701C405.444 294.743 407.426 296.123 407.426 295.763C407.426 295.343 408.566 296.604 409.887 298.585C413.009 303.028 412.709 302.788 413.549 301.947C414.51 300.986 415.531 301.046 414.75 302.007C414.21 302.607 414.81 303.988 417.152 307.59C418.833 310.172 420.514 313.114 420.934 314.134L421.714 315.876L422.615 313.714C423.876 310.712 423.936 309.271 423.095 305.309C422.375 302.007 422.255 301.827 418.352 299.365C411.148 294.863 406.885 291.02 404.904 287.238C403.463 284.596 402.082 283.035 399.201 280.994C393.137 276.672 394.338 276.011 402.202 279.253C404.904 280.334 407.666 281.354 408.326 281.535C408.987 281.715 410.067 282.075 410.728 282.315C413.79 283.336 408.026 280.574 402.803 278.473C399.561 277.152 395.298 275.411 393.317 274.57C391.336 273.73 388.034 272.889 385.993 272.649C383.891 272.469 382.21 272.169 382.21 272.049C382.21 271.869 382.871 270.428 383.711 268.807C385.692 264.904 385.692 261.602 383.711 259.381L382.21 257.7L382.631 259.501C383.531 262.863 383.051 265.565 380.889 270.188C377.828 276.552 373.985 280.574 369.663 281.775C364.68 283.216 362.158 284.656 359.757 287.538L357.595 290.06L358.436 287.178C358.916 285.617 360.717 282.375 362.458 280.034C367.801 272.709 369.002 270.788 369.422 268.687C369.783 266.826 369.723 266.766 368.642 267.606C365.22 270.308 359.456 280.934 357.295 288.559C354.894 297.144 350.931 302.487 338.083 314.615C332.38 319.958 326.136 325.301 324.275 326.382C322.174 327.643 318.571 329.024 315.149 329.864C308.906 331.425 303.142 334.067 296.658 338.389C291.315 341.991 290.955 342.172 290.955 341.811C290.955 341.151 299.72 334.967 303.262 333.166C305.243 332.145 309.986 330.344 313.769 329.204C322.534 326.502 325.836 324.281 337.603 313.294C345.828 305.609 350.391 300.266 350.391 298.345C350.391 297.925 348.95 298.585 347.149 299.726C345.348 300.866 341.866 302.667 339.464 303.748C330.339 307.831 328.778 309.332 328.778 313.834C328.778 316.896 324.035 321.579 317.491 324.881C315.81 325.722 314.369 326.382 314.369 326.202C314.369 326.082 316.17 324.881 318.451 323.56C322.834 320.919 326.797 317.316 327.637 315.155C327.937 314.375 328.177 312.814 328.177 311.673C328.177 310.472 328.658 309.151 329.318 308.491C329.978 307.831 334.541 305.249 339.404 302.788C344.327 300.326 348.95 297.624 349.67 296.844C350.511 295.943 351.592 293.182 352.552 289.76C355.494 278.713 359.036 271.809 365.46 264.784C367.261 262.803 367.801 261.723 367.801 260.102C367.801 257.82 368.702 255.599 369.543 255.599C370.083 255.599 372.244 260.342 372.845 262.983C373.505 265.745 372.184 269.047 368.642 273.55C366.841 275.891 365.52 277.812 365.76 277.812C365.94 277.812 367.201 277.212 368.462 276.492C372.664 274.15 375.546 268.627 375.606 262.923C375.606 259.921 373.745 253.077 372.484 251.576C372.124 251.096 372.184 250.436 372.664 249.475C373.385 248.154 373.445 248.154 374.045 249.295C374.406 249.895 375.306 251.036 376.027 251.816ZM171.842 255.899C171.182 256.379 170.461 256.799 170.161 256.799C169.501 256.799 167.88 260.102 167.88 261.482C167.88 262.323 166.739 263.283 163.977 264.664C161.456 265.985 160.075 267.066 160.075 267.726C160.075 268.327 160.375 268.807 160.735 268.807C162.296 268.807 160.075 270.248 152.991 273.67C148.788 275.711 142.124 278.713 138.162 280.334C129.576 283.876 125.554 286.097 123.212 288.559C121.111 290.78 120.451 290.9 120.451 289.099C120.451 286.758 126.154 282.015 133.659 278.173C137.441 276.251 143.805 272.469 147.707 269.827C151.61 267.186 157.013 263.764 159.715 262.203C162.416 260.642 166.199 258.36 168.12 257.16C171.662 255.058 174.123 254.218 171.842 255.899ZM118.47 285.617C117.929 287.478 118.049 289.159 118.89 293.482C120.151 300.326 121.591 304.168 124.653 309.091C125.974 311.193 128.316 315.335 129.816 318.337C131.317 321.279 133.118 324.341 133.839 325.061L135.04 326.382L137.621 321.939C141.223 315.876 146.747 310.472 157.373 302.788C162.356 299.185 167.039 295.703 167.88 294.983C169.08 293.962 169.2 293.902 168.48 294.863C168 295.523 162.957 299.425 157.373 303.628C141.584 315.335 137.081 321.279 134.259 333.826C132.158 343.012 132.518 345.233 138.101 356.34C142.304 364.625 145.066 371.229 145.066 372.91C145.066 374.111 143.985 372.37 143.265 369.968C142.904 368.648 140.443 363.124 137.801 357.661C131.738 344.993 131.317 342.952 133.058 334.307L134.379 327.823L132.578 325.181C130.417 321.939 122.852 308.191 120.811 303.628C119.91 301.707 118.83 297.384 118.169 293.482L117.089 286.638L115.528 288.499C113.607 290.84 112.946 292.701 111.745 300.026C110.785 305.789 105.682 321.879 102.8 328.483C101.419 331.545 101.359 331.905 102.38 331.005C103.04 330.404 105.502 326.982 107.843 323.38C110.245 319.778 112.406 317.016 112.706 317.196C113.787 317.797 113.186 321.399 111.565 324.941C109.344 329.624 105.141 334.127 97.6368 339.95C93.9746 342.772 91.4531 345.173 91.273 346.014C90.6726 348.415 91.5131 351.177 94.2748 355.86C99.9182 365.526 107.963 374.831 116.909 382.036C120.691 385.098 125.074 388.94 126.635 390.621C129.516 393.683 134.499 401.067 140.443 411.094C142.304 414.215 145.426 418.658 147.467 421C152.27 426.583 153.711 429.525 153.171 432.827C152.51 437.149 150.529 442.553 148.368 445.975C145.666 450.237 145.726 449.337 148.668 442.793C151.79 435.949 152.63 432.106 151.73 429.105C151.37 427.904 149.208 424.722 146.867 422.08C144.585 419.379 140.803 413.975 138.522 409.953C129.756 394.764 126.094 390.561 112.886 380.655C105.382 375.012 100.399 369.788 94.2748 361.263C89.4118 354.479 89.1717 354.179 88.7514 355.26C88.5713 355.74 87.1304 358.742 85.4494 361.864C82.5076 367.447 82.5076 367.507 84.4888 365.586C86.8903 363.244 88.4512 363.124 88.9916 365.166C89.5919 367.627 88.7514 369.548 85.3293 373.271C83.5282 375.252 82.0273 377.353 82.0273 377.893C82.0273 379.694 83.9485 381.976 93.4943 391.762C107.963 406.471 114.927 413.975 126.394 426.943C138.462 440.752 140.563 443.273 143.385 447.416C144.465 449.097 145.726 450.418 146.146 450.357C146.507 450.297 147.167 450.237 147.467 450.177C147.827 450.177 149.448 448.857 151.069 447.356C153.291 445.314 153.891 444.954 153.651 445.915C153.231 447.476 150.049 450.718 148.908 450.718C147.767 450.718 147.767 450.778 150.169 454.26C151.31 456.001 152.39 458.342 152.63 459.543C153.171 462.485 152.09 466.868 149.929 470.29C148.608 472.331 148.188 473.592 148.428 474.672C148.788 476.233 148.788 476.233 147.587 474.492L146.327 472.751L148.668 470.049C151.43 466.928 152.21 463.385 151.069 459.543C150.289 456.781 146.327 451.198 145.606 451.678C145.306 451.858 144.585 450.958 143.925 449.697C141.043 443.994 115.888 415.176 107.543 407.972C99.0777 400.707 83.5282 384.858 81.487 381.435C78.0049 375.552 78.0649 373.15 82.2074 363.905C84.6089 358.502 85.2693 356.46 86.2299 351.357C87.2505 346.434 88.091 344.933 93.1341 339.65C95.5355 337.128 97.877 334.307 98.4173 333.286C100.338 329.504 104.241 317.797 107.183 307.05C111.145 292.701 112.166 290 115.107 286.277C118.169 282.435 119.37 282.195 118.47 285.617ZM201.8 302.247C203.001 304.709 203.121 308.851 202.221 313.834L201.62 317.136L201.56 314.134C201.5 312.453 201.2 310.052 200.9 308.731C200.479 306.93 200.419 307.831 200.66 312.153C200.78 315.395 200.66 321.099 200.299 324.761C199.939 328.483 199.579 343.552 199.519 358.261C199.399 372.97 199.099 387.919 198.798 391.582C198.558 395.184 198.318 400.587 198.258 403.589C198.198 406.951 197.658 411.154 196.757 414.696C195.917 418.178 195.256 422.861 195.136 426.703C195.016 430.185 194.596 434.448 194.296 436.249C193.936 438.05 193.695 440.572 193.695 441.772C193.695 443.934 192.855 445.254 192.014 444.474C191.834 444.234 192.074 442.253 192.675 440.031C193.215 437.81 193.936 431.506 194.296 426.043C194.716 418.898 195.256 414.876 196.157 411.934C197.238 408.512 197.478 406.05 197.598 397.886C197.658 392.422 198.078 373.09 198.498 354.959C199.519 313.654 199.519 312.994 198.498 305.729C198.018 302.427 197.718 299.486 197.778 299.185C197.898 298.885 196.937 297.564 195.677 296.244C193.695 294.082 193.875 294.202 197.057 296.904C199.099 298.645 201.26 301.046 201.8 302.247ZM352.732 324.941C352.432 328.903 351.652 336.588 350.991 342.051C350.331 347.515 349.55 355.86 349.19 360.663C348.89 365.466 348.35 373.15 348.049 377.773C347.689 382.396 347.149 392.002 346.789 399.086C346.428 406.171 345.708 414.816 345.288 418.298C344.087 427.063 343.847 443.633 344.928 444.954C345.588 445.735 345.588 446.275 344.747 448.316C343.247 452.099 343.066 454.8 344.267 455.461C344.807 455.821 344.988 456.121 344.687 456.121C342.466 456.181 341.926 451.738 343.727 448.436C344.747 446.515 344.747 446.275 343.667 443.213C342.886 440.752 342.706 439.371 343.126 437.33C343.367 435.829 343.487 432.527 343.307 430.005C343.126 427.303 343.427 422.801 343.967 419.018C344.868 413.075 346.368 392.602 347.029 377.353L347.329 370.989L345.708 371.169C339.524 371.89 325.596 372.73 323.434 372.61C321.153 372.43 320.673 372.13 320.373 370.869C320.132 370.029 320.072 368.468 320.192 367.447C320.493 365.646 320.793 365.526 331.059 361.563C336.943 359.282 342.946 356.82 344.567 356.04C346.128 355.26 347.389 354.899 347.389 355.26C347.389 356.1 343.967 357.601 331.479 362.224L321.273 365.946V368.888V371.77L327.037 371.71C334.901 371.589 346.969 370.269 347.509 369.428C347.749 369.068 347.989 366.486 347.989 363.665C347.989 358.141 349.19 345.714 350.631 336.648C351.532 330.645 352.432 317.677 351.592 321.939L351.171 324.341L351.051 321.759C351.051 320.378 351.291 319.238 351.592 319.238C351.952 319.238 352.252 317.016 352.252 313.954L352.372 308.731L352.792 313.234C353.032 315.695 353.032 320.979 352.732 324.941ZM309.566 339.47C306.504 349.316 303.742 370.089 304.043 380.775C304.223 385.158 303.923 388.4 302.962 392.782C302.302 396.084 300.801 403.349 299.6 408.992C298.459 414.576 296.958 421.36 296.298 424.001C294.977 429.045 294.977 436.969 296.238 437.39C296.658 437.51 296.478 438.71 295.818 440.692C295.217 442.433 294.557 444.894 294.317 446.215C294.077 447.536 293.356 450.357 292.696 452.459C292.095 454.56 291.555 457.802 291.495 459.663C291.495 462.485 291.375 462.845 290.835 461.704C289.994 459.963 292.095 448.316 294.257 442.613C295.397 439.491 295.577 438.35 295.097 436.789C293.956 432.887 294.377 427.724 296.598 417.758C297.859 412.354 298.759 407.852 298.639 407.792C298.519 407.671 296.418 409.413 293.896 411.574C291.435 413.795 285.251 419.259 280.148 423.701C275.045 428.144 267.24 435.048 262.737 439.011C244.907 454.74 241.244 457.922 236.922 461.524L232.419 465.307L235.721 462.065C237.582 460.264 243.105 455.28 248.028 450.958C253.012 446.635 261.957 438.65 267.901 433.247C273.904 427.844 283.27 419.619 288.733 414.996C298.639 406.591 298.639 406.591 299.36 403.289C299.78 401.488 300.741 397.405 301.521 394.283C302.662 389.841 302.962 387.019 302.962 381.135C302.962 376.993 303.202 371.469 303.562 368.828C305.544 352.978 306.144 349.016 307.465 344.093C308.906 338.809 310.527 334.247 311.007 334.247C311.127 334.247 310.467 336.588 309.566 339.47ZM233.019 357.361C233.199 361.623 233.56 365.706 233.68 366.366C233.86 367.027 233.44 370.389 232.719 373.871C231.038 382.396 229.777 411.754 230.918 415.236C231.578 417.337 231.518 417.818 230.018 421.18C228.216 425.142 228.216 428.264 230.018 431.746C231.278 434.088 231.218 434.388 228.697 438.11C226.415 441.472 226.115 443.093 226.836 447.416L227.256 449.817L226.415 447.416C225.155 443.693 225.395 441.712 227.556 437.63L229.597 433.847L228.457 429.405L227.316 424.902L228.817 421.9C230.438 418.658 230.678 416.737 229.717 413.495C228.637 409.953 230.138 379.995 231.639 374.531C232.479 371.289 232.779 368.768 232.599 365.226L232.419 360.363L229.597 357.901C225.515 354.239 221.192 352.798 212.907 352.318C207.624 352.018 206.423 351.777 207.804 351.357C210.265 350.637 219.691 351.897 223.954 353.458C226.055 354.239 228.397 355.74 229.837 357.181L232.239 359.582L231.879 356.7C231.458 353.518 231.218 340.851 231.518 338.449C231.699 336.828 232.359 344.993 233.019 357.361ZM177.966 344.093C183.369 346.314 187.392 347.515 192.375 348.355C195.016 348.776 196.157 349.136 195.016 349.196C191.954 349.316 184.93 347.515 179.046 345.173C173.103 342.832 172.442 342.892 170.761 346.314C167.039 353.579 165.838 357.361 165.838 361.984C165.778 364.865 166.079 366.907 166.499 367.327C167.339 368.167 182.709 372.19 190.393 373.631C197.057 374.831 198.078 375.072 197.778 375.372C197.418 375.732 185.11 373.271 176.585 371.169C172.983 370.269 168.96 369.248 167.76 368.948C165.838 368.528 165.478 368.167 165.118 366.306C164.277 361.804 165.238 356.4 167.88 350.457C171.662 341.871 172.022 341.631 177.966 344.093ZM374.105 344.633C377.527 349.916 381.37 367.807 379.869 371.589C379.268 373.21 379.028 373.271 375.186 373.271C369.422 373.271 355.614 372.01 354.894 371.349C354.593 371.109 355.254 370.989 356.395 371.109C357.535 371.229 362.458 371.71 367.381 372.13C378.968 373.09 379.208 372.97 379.208 367.327C379.208 363.184 376.747 352.018 374.766 347.395C373.145 343.552 372.845 343.492 365.82 347.035C362.338 348.836 358.976 350.637 358.376 351.057C357.595 351.657 357.595 351.597 358.496 350.637C359.997 349.076 370.743 343.312 372.124 343.252C372.724 343.252 373.565 343.853 374.105 344.633ZM191.954 382.096C194.356 383.837 195.016 384.017 196.097 383.477C197.057 382.936 197.298 382.996 197.298 383.777C197.298 384.257 197.057 384.677 196.697 384.677C194.776 384.677 175.925 404.189 171.122 411.154L168.24 415.356L168.36 420.759C168.66 430.665 170.041 439.431 172.683 447.176C174.003 451.198 175.024 454.62 174.844 454.74C174.484 455.16 170.221 442.733 169.381 438.71C167.7 430.545 166.559 417.157 166.799 408.992L167.039 400.947L170.761 397.345C172.803 395.304 176.045 391.342 177.906 388.46C180.487 384.497 182.048 382.816 183.969 381.736C185.41 380.955 186.731 380.475 186.911 380.715C187.091 380.895 186.491 381.315 185.53 381.676C182.949 382.696 181.868 383.837 178.326 389.24C176.645 391.882 173.703 395.724 171.842 397.765L168.42 401.428L168.6 406.831L168.78 412.294L172.202 407.972C174.123 405.57 179.827 399.326 184.87 394.103C193.755 385.038 194.116 384.617 192.915 383.777C192.254 383.297 191.414 383.117 191.114 383.297C190.754 383.477 190.694 383.357 190.934 382.996C191.174 382.576 190.333 381.676 188.892 380.715C187.572 379.814 186.491 379.034 186.491 378.854C186.491 378.494 188.952 379.935 191.954 382.096ZM358.856 385.638C355.074 390.861 355.134 391.101 362.578 399.987C364.56 402.268 366.481 404.91 366.901 405.75C367.561 406.891 367.741 411.814 367.862 426.763L367.982 446.215L366.301 452.219C364.379 459.123 364.199 463.205 365.7 468.729C367.561 475.813 366.961 480.316 363.299 486.319C362.158 488.181 360.237 491.242 359.096 493.104C357.955 494.965 356.395 498.267 355.674 500.488C354.413 504.09 354.293 505.471 354.353 514.957C354.473 530.086 355.434 533.208 364.68 548.757C367.381 553.32 369.182 556.982 369.543 558.964C370.443 563.226 371.404 572.352 371.344 575.294C371.284 576.975 371.104 576.434 370.743 573.493C368.822 557.283 368.762 556.982 362.939 547.197C355.614 534.949 354.533 531.767 353.393 519.94C352.252 507.212 354.173 499.107 360.897 488.841C366.301 480.556 367.021 476.593 364.8 468.188C363.239 462.305 363.299 461.284 365.4 452.819L367.201 445.615V426.643V407.671L365.64 405.33C364.74 404.069 362.518 401.127 360.597 398.786C355.134 392.062 354.954 391.762 355.974 389.36C356.875 387.259 360.717 381.736 361.137 382.036C361.197 382.096 360.237 383.717 358.856 385.638ZM79.0255 388.28C79.0255 390.201 82.0873 399.206 83.8884 402.688C85.4494 405.69 85.6295 406.531 85.6295 411.814C85.6295 418.598 86.2899 419.018 89.1717 413.975L90.8527 411.034L91.2129 414.215C91.4531 415.957 92.1735 418.118 92.8339 419.018C95.2954 422.32 94.5149 422.681 84.9091 423.101C78.1249 423.341 77.1043 423.521 75.9636 424.662C74.7629 425.923 74.7629 425.983 75.7235 427.964C76.3238 429.105 79.3857 432.707 82.5676 436.009C85.8096 439.311 89.1717 443.333 90.1322 445.014C91.0328 446.635 92.4737 449.097 93.2542 450.418C94.3949 452.279 93.8545 451.858 90.9728 448.616C88.8715 446.275 84.849 441.952 81.9673 439.011C75.9036 432.707 73.0218 428.444 73.0218 425.742C73.0218 424.602 73.9824 422.2 75.4233 419.739C78.1249 415.056 78.7253 413.195 79.3257 407.251C79.5658 404.97 79.926 402.568 80.1662 401.908C80.4063 401.188 80.0461 398.246 79.2056 394.944C77.7047 388.76 77.4645 386.178 78.4251 386.779C78.7853 386.959 79.0255 387.679 79.0255 388.28ZM360.297 391.161C361.258 392.722 364.319 396.325 367.081 399.206L372.064 404.369L372.424 411.514C372.845 420.099 372.845 418.778 372.124 424.902C371.764 427.904 371.704 431.266 372.004 433.007C372.905 438.35 372.664 442.493 371.104 447.776C367.681 459.003 367.561 460.324 368.942 466.687C370.563 474.012 370.563 479.415 369.002 482.537C368.342 483.798 367.561 484.999 367.201 485.239C366.12 485.899 361.858 493.644 360.597 497.186C358.616 503.07 358.256 506.852 358.796 518.559C359.336 531.527 359.336 531.407 366.601 544.555C372.604 555.482 373.505 558.003 374.345 566.648C374.766 570.431 375.126 574.393 375.306 575.474C375.426 576.494 375.306 577.395 375.066 577.395C374.826 577.395 374.406 575.053 374.165 572.172C373.325 560.284 372.724 557.883 368.642 550.138C366.541 546.116 363.419 540.112 361.738 536.69L358.616 530.566L358.016 519.4C357.055 502.349 358.136 497.906 366 485.599C369.903 479.475 370.323 476.413 368.462 468.549C366.781 461.464 366.841 458.823 369.002 451.318C370.803 445.254 370.803 444.774 370.443 436.609C370.203 430.966 370.263 427.063 370.743 424.782C371.584 420.819 371.764 407.191 371.043 405.27C370.743 404.55 368.882 402.268 366.841 400.167C361.618 394.704 356.815 388.28 358.016 388.28C358.256 388.28 359.276 389.54 360.297 391.161ZM94.0346 405.39C96.4361 408.812 105.141 423.821 110.245 433.307C112.646 437.75 115.168 442.313 115.948 443.513C118.409 447.536 121.111 452.519 120.811 452.519C120.571 452.519 113.366 440.692 106.822 429.405C105.442 427.063 102.08 422.08 99.3179 418.298C93.9146 410.973 89.652 403.529 88.9916 400.587L88.6313 398.786L90.4925 400.887C91.5131 402.028 93.074 404.069 94.0346 405.39ZM472.085 405.21C480.01 413.675 481.151 417.998 477.428 425.382C476.228 427.724 475.267 430.485 475.267 431.446C475.267 432.467 476.528 435.588 478.029 438.47C479.53 441.352 483.312 449.757 486.434 457.262C489.556 464.706 492.978 472.331 494.058 474.132C497.3 479.535 497.661 480.736 497.841 487.04C498.021 493.884 500.122 511.235 501.383 516.158C501.863 517.959 502.404 520.9 502.644 522.702C503.184 527.024 502.103 526.304 501.143 521.741C499.642 514.957 493.518 511.235 481.571 509.914C476.047 509.313 474.607 508.893 472.565 507.512C470.464 506.071 469.744 505.891 466.742 506.071C464.821 506.192 463.26 506.252 463.26 506.131C463.26 505.651 467.822 504.15 469.383 504.15C470.344 504.15 473.226 504.691 475.747 505.291C478.329 505.951 482.892 507.032 485.954 507.692C493.338 509.313 496.7 510.814 497.24 512.796C497.721 514.717 498.681 514.837 498.621 512.976C498.561 510.874 495.799 500.668 495.739 502.349C495.739 503.19 496.04 505.411 496.52 507.272C496.94 509.193 497.24 510.754 497.12 510.754C497 510.754 496.4 509.554 495.799 508.113C494.539 505.291 492.257 504.03 488.835 504.33C487.154 504.45 487.094 504.33 484.573 496.946C482.471 490.822 481.631 489.141 479.83 487.52C477.909 485.779 477.849 485.539 478.989 485.539C481.031 485.539 484.813 487.64 489.316 491.242C493.638 494.664 494.659 494.785 495.199 491.903C495.319 491.002 494.719 490.582 492.377 489.741C490.756 489.201 487.274 487.34 484.753 485.719C478.629 481.697 477.849 481.516 473.646 483.618C469.143 485.899 465.661 487.16 460.918 488.181C456.536 489.201 456.716 488.721 461.459 486.8C463.26 486.019 467.102 484.098 469.984 482.477C472.866 480.856 475.807 479.535 476.468 479.535C477.909 479.535 482.471 481.757 485.893 484.098C487.154 484.939 489.736 486.439 491.717 487.46C495.98 489.621 496.52 489.201 495.98 484.338C495.619 480.616 493.398 475.633 491.297 473.652C490.516 472.931 486.914 471.43 482.952 470.23C479.109 469.089 474.727 467.588 473.166 466.928C471.605 466.267 469.984 465.727 469.564 465.727C469.143 465.727 466.982 468.308 464.701 471.49C460.258 477.794 458.517 479.415 454.014 481.817C451.012 483.438 450.712 483.438 436.543 483.798L422.135 484.158L414.45 487.22C402.983 491.843 400.221 491.423 400.221 484.818C400.221 480.436 401.302 477.854 404.004 475.573C405.204 474.612 406.405 473.051 406.765 472.151C407.786 469.569 407.546 464.466 406.345 462.185C404.844 459.183 403.703 459.063 404.784 461.945C405.685 464.466 405.925 470.53 405.084 469.569C404.484 468.909 403.223 462.605 403.223 460.203C403.223 458.162 404.484 457.982 406.225 459.723C408.026 461.524 408.626 463.506 408.626 467.588C408.626 471.851 407.666 474.432 405.024 476.834C402.323 479.355 401.422 481.396 401.422 484.818C401.422 488.781 402.383 489.621 405.985 488.661C409.167 487.82 418.472 483.258 422.315 480.676L425.136 478.815L422.735 481.336L420.333 483.918L422.135 483.378C423.155 483.077 429.939 482.837 437.204 482.837H450.532L453.894 480.496C460.198 476.173 464.16 470.59 465.061 464.766C465.361 462.785 465.901 459.063 466.261 456.421C466.622 453.78 467.342 450.117 467.822 448.256C468.243 446.455 469.023 442.193 469.503 438.891C470.164 434.148 470.764 432.046 472.205 429.525C474.246 425.923 474.667 424.242 473.166 425.502C472.685 425.923 471.665 427.904 470.944 429.945L469.564 433.607L469.383 430.906C469.023 425.983 469.624 424.422 472.745 422.501C476.708 420.039 477.068 419.679 477.068 417.938C477.068 415.896 475.387 412.835 471.425 407.551C469.563 405.09 468.063 402.869 468.063 402.568C468.063 401.488 469.263 402.268 472.085 405.21ZM78.4852 441.292C79.4457 444.894 78.6052 447.596 76.1437 448.917L74.1625 449.997L75.5434 451.318C77.6446 453.359 80.9466 454.62 89.2317 456.721C103.04 460.203 108.443 463.746 117.929 475.693C120.991 479.535 122.972 481.456 124.653 482.237C125.974 482.837 126.935 483.438 126.755 483.618C126.334 484.038 122.612 482.417 121.832 481.456C121.171 480.616 121.051 480.676 121.051 481.697C121.051 483.077 118.169 487.82 116.548 489.141C115.948 489.621 116.428 488.781 117.569 487.22C120.691 483.137 120.991 481.216 118.89 478.455C115.408 473.892 107.483 466.147 103.64 463.626C98.5374 460.264 96.4361 459.423 87.7308 457.262C83.7684 456.241 78.185 454.38 75.3633 453.059C70.5603 450.778 70.08 450.658 67.7386 451.258C64.8568 452.039 64.3165 452.879 63.8362 457.022C63.416 460.984 59.6337 472.631 57.0521 478.154C55.9114 480.556 55.0108 482.777 55.0108 483.137C55.0108 483.438 55.5512 485.299 56.1515 487.16C56.8119 489.081 57.4123 491.302 57.5324 492.143C57.6525 493.284 58.0127 493.584 59.0333 493.464C60.2941 493.284 60.2941 493.344 59.4536 496.105C58.9733 497.666 58.7331 499.047 58.8532 499.167C59.2134 499.527 62.8156 494.965 62.8156 494.124C62.8156 493.704 62.3953 493.344 61.855 493.344C61.1346 493.344 61.2547 492.923 62.4554 491.483C63.2959 490.462 64.0163 488.901 64.0163 488C64.0163 485.839 60.8944 481.456 58.7331 480.676L57.1121 480.016L58.553 479.055C59.2734 478.455 61.0745 477.074 62.4554 475.873C63.7762 474.672 65.5173 473.412 66.2377 472.991C67.0182 472.631 73.7423 471.731 81.2468 471.07C96.1959 469.689 99.4379 469.149 99.4379 467.828C99.4379 466.387 97.5768 465.907 90.1923 465.487C86.2299 465.307 82.0873 464.946 80.8866 464.766C78.6653 464.406 78.5452 464.226 76.0837 458.282C75.9636 457.982 77.1643 458.643 78.7253 459.723C82.2074 462.125 86.8302 463.626 92.5337 464.226C96.9164 464.646 99.6781 465.727 100.218 467.108C101.119 469.389 98.5374 470.29 86.8903 471.791C75.4833 473.291 70.5003 474.312 68.5191 475.573C66.9581 476.593 64.3165 481.096 65.097 481.516C65.3371 481.697 66.8981 481.997 68.5191 482.237C70.2001 482.477 73.0819 483.318 74.943 484.098C77.5846 485.179 80.3463 485.719 86.0498 486.139C94.9952 486.86 101.899 487.76 104.841 488.601C105.982 488.961 110.184 490.822 114.147 492.743C118.109 494.664 123.152 496.946 125.374 497.846C127.595 498.747 131.197 500.668 133.359 502.109C135.52 503.55 137.501 504.751 137.801 504.751C138.041 504.751 138.522 503.85 138.822 502.769C139.182 501.569 140.203 500.308 141.644 499.407C143.445 498.207 144.105 497.246 144.826 494.725C145.786 491.543 146.867 489.982 146.867 491.963C146.807 494.124 144.585 497.967 142.124 500.068C140.803 501.208 139.662 502.469 139.662 502.829C139.662 503.25 139.122 504.09 138.462 504.751C137.261 505.951 137.261 505.951 133.839 503.73C131.918 502.529 126.454 499.708 121.651 497.486C116.849 495.325 110.965 492.563 108.624 491.302C105.322 489.681 103.52 489.141 101.239 489.141C97.877 489.141 96.9764 490.522 99.9182 491.182C102.019 491.663 103.4 492.863 106.462 497.006L108.924 500.368L105.862 500.488C96.316 500.788 84.1886 501.869 81.3669 502.709C78.6653 503.49 77.4045 504.39 73.6222 508.293C66.778 515.377 65.037 518.799 59.8138 535.73C58.2528 540.773 57.3523 542.514 54.6506 545.876C49.8477 551.939 49.8477 553.74 54.5306 563.226C55.6112 565.268 55.9714 566.588 55.4911 566.468C54.4705 566.108 51.0484 560.405 49.6076 556.442C47.9265 552.059 48.5269 550.138 53.8702 542.874C56.3317 539.572 57.5924 536.63 60.9545 526.664C63.536 518.799 68.0388 510.334 71.2808 507.092C73.6222 504.751 73.6222 504.751 72.0012 505.111C71.0406 505.351 69.2996 506.011 68.0388 506.672C66.778 507.272 65.4572 507.752 65.037 507.692C63.2359 507.392 57.1121 511.054 53.0296 514.897C49.5475 518.139 48.1667 521.201 48.707 524.503C48.8871 526.004 49.1273 527.805 49.1273 528.465C49.1873 529.125 49.7276 531.647 50.328 534.109C51.5888 539.212 51.6488 540.052 50.8683 539.212C49.7276 538.131 47.086 526.604 47.026 522.461C46.9059 518.679 47.1461 517.899 48.9472 514.657C50.0278 512.675 51.5888 509.313 52.3092 507.152C53.0897 504.991 54.5906 501.329 55.6712 498.927L57.5924 494.604L56.0315 489.922C54.0503 484.098 54.0503 483.017 55.9714 477.914C60.6543 465.727 62.8156 458.703 62.8156 455.701C62.8156 452.159 63.416 451.378 67.6185 449.217C70.02 448.016 70.8005 447.176 72.0612 444.474C72.9018 442.673 73.6222 441.052 73.6222 440.932C73.6222 440.752 74.0424 439.611 74.5828 438.35L75.5434 436.009L76.6841 437.45C77.2844 438.17 78.1249 439.971 78.4852 441.292ZM161.216 453.119C160.855 455.941 160.015 459.783 159.354 461.704C157.733 466.747 153.651 475.873 151.91 478.575C150.349 480.916 150.169 483.017 151.37 486.439C151.73 487.58 151.73 487.58 150.829 486.5C150.349 485.899 149.749 484.158 149.508 482.717C149.148 480.376 149.328 479.775 151.069 477.374C153.531 473.892 157.433 464.886 158.994 459.123C159.715 456.241 160.315 451.498 160.555 445.915L160.915 437.209L161.456 442.613C161.756 446.215 161.696 449.697 161.216 453.119ZM381.25 450.538C381.73 462.005 382.27 464.946 384.912 470.35C386.893 474.372 387.013 475.033 387.013 480.616C387.013 486.62 387.974 491.423 389.595 493.224C390.135 493.884 390.795 497.666 391.516 503.85C392.957 517.358 393.857 522.281 396.259 528.825C398.48 534.949 402.022 549.118 403.463 557.583C404.604 564.487 405.324 578.295 404.544 578.836C403.703 579.316 403.523 578.235 401.482 562.626C400.461 555.001 399.081 547.197 398.42 545.215L397.279 541.673L397.52 545.275C397.64 547.257 397.339 550.979 396.859 553.56C396.259 556.622 396.019 561.005 396.139 566.288L396.319 574.333L394.698 576.014C393.797 576.915 392.897 577.455 392.657 577.215C392.477 577.035 392.056 575.594 391.756 574.093C391.456 572.592 390.315 569.41 389.174 567.069C387.854 564.367 386.833 561.065 386.473 558.483C385.272 550.078 384.612 543.234 384.612 539.812C384.552 537.831 384.131 535.189 383.651 533.868C381.01 527.024 380.829 525.884 381.55 520.12C381.97 517.118 383.111 511.295 384.131 507.152C386.473 497.546 386.713 490.822 384.792 484.338C384.071 481.877 383.051 477.374 382.57 474.432C382.03 471.43 381.37 467.828 381.01 466.327C380.289 463.085 379.569 437.75 380.289 439.911C380.589 440.752 381.01 445.555 381.25 450.538ZM227.316 452.999C227.016 454.08 226.595 456.361 226.415 458.102C226.175 459.783 225.395 466.327 224.554 472.631C223.774 478.875 223.113 484.518 223.113 485.119C223.113 485.719 222.873 486.079 222.633 485.899C222.393 485.719 222.213 486.379 222.273 487.4C222.333 488.361 222.153 489.141 221.853 489.141C221.012 489.141 221.192 486.379 222.513 479.655C224.074 471.731 224.074 471.49 222.453 472.331C221.792 472.691 218.911 474.792 216.089 476.954C211.226 480.616 210.866 480.796 210.085 479.775C209.665 479.175 209.305 477.854 209.305 476.774C209.305 475.093 210.025 474.192 214.588 470.049C217.47 467.408 220.952 464.346 222.333 463.205C224.134 461.764 224.974 460.624 225.215 459.123C225.695 456.181 227.376 450.538 227.676 450.838C227.796 451.018 227.676 451.978 227.316 452.999ZM172.382 462.545C170.821 468.729 170.761 469.389 171.122 478.335C171.482 485.359 171.842 488.421 172.803 490.942C176.465 500.908 177.485 506.432 177.485 515.737C177.425 526.124 175.504 531.827 169.08 539.752C164.217 545.876 163.437 548.878 163.857 560.284C164.157 569.05 165.298 574.153 167.88 578.596L169.14 580.697L167.579 578.896C164.638 575.414 163.557 570.791 163.257 560.585C162.777 546.836 163.137 545.576 169.801 537.351C175.564 530.386 177.546 521.861 176.405 509.433C175.684 502.109 174.664 497.546 172.082 490.642C170.942 487.64 170.641 485.479 170.461 477.434C170.161 468.909 170.281 467.288 171.482 462.725C172.202 459.903 172.983 456.962 173.163 456.121C173.343 455.28 173.583 454.98 173.763 455.401C173.883 455.821 173.283 459.063 172.382 462.545ZM457.856 460.504C456.536 467.288 450.472 475.933 446.99 475.933C443.808 475.933 444.528 473.652 450.472 465.126C457.316 455.16 457.496 454.92 457.976 456.181C458.217 456.841 458.157 458.763 457.856 460.504ZM175.925 463.205C174.844 467.348 174.844 467.888 175.204 480.736C175.444 488.181 175.624 489.201 177.305 493.044C180.307 499.888 181.148 503.43 181.508 510.754C182.048 523.182 179.407 532.968 173.223 540.773C169.26 545.756 168.36 548.457 168 556.142C167.7 563.647 168.54 568.87 171.542 577.035C173.823 583.339 173.703 584.359 171.422 578.596C168.3 570.971 167.279 565.928 167.279 558.183C167.279 549.178 168.12 546.416 172.983 539.512C178.986 531.047 180.607 525.283 180.607 512.555C180.667 504.45 180.067 501.629 176.825 494.004C174.664 488.961 174.424 487.94 174.484 483.798C174.544 481.276 174.424 476.774 174.183 473.712C173.763 468.969 173.883 467.528 175.144 462.725C175.925 459.663 176.705 457.682 176.825 458.222C176.885 458.823 176.525 461.104 175.925 463.205ZM475.987 468.669C484.633 471.61 489.976 475.933 493.518 483.017C494.479 484.879 494.419 484.818 491.657 482.177C487.574 478.214 484.152 476.053 478.629 473.712C473.766 471.67 470.464 469.209 470.464 467.708C470.464 466.747 469.984 466.627 475.987 468.669ZM158.934 491.543C159.114 500.668 158.394 505.771 154.131 526.064C152.33 534.529 150.229 548.697 149.328 558.183L148.848 563.286L148.728 559.384C148.668 555.001 150.649 537.591 152.03 530.266C152.57 527.625 153.771 522.221 154.792 518.259C156.533 511.535 156.653 510.274 156.713 499.347C156.773 492.923 157.073 484.518 157.373 480.736L157.974 473.832L158.394 479.235C158.574 482.177 158.874 487.76 158.934 491.543ZM421.234 488.241C421.234 488.421 419.133 489.621 416.491 490.882C412.289 493.044 408.626 496.105 408.626 497.606C408.626 497.846 409.347 498.567 410.187 499.167C413.97 501.629 423.636 499.407 438.465 492.683C443.628 490.402 447.89 488.601 448.01 488.721C448.671 489.321 432.221 497.066 426.337 498.927C415.35 502.409 410.788 502.409 408.026 498.927C405.204 495.325 407.726 492.263 415.531 489.802C418.532 488.841 420.994 488 421.114 488C421.174 487.94 421.234 488.06 421.234 488.241ZM482.051 492.203C482.231 492.863 482.231 493.824 482.051 494.304C481.511 495.805 474.486 498.747 468.363 500.008C465.061 500.728 460.078 502.169 457.256 503.25C454.434 504.33 449.811 505.771 447.05 506.432C444.228 507.152 439.965 508.353 437.624 509.133C435.223 509.974 433.241 510.514 433.241 510.334C433.241 509.734 439.905 507.092 445.249 505.591C454.795 502.89 472.565 495.925 476.588 493.404C480.91 490.582 481.631 490.462 482.051 492.203ZM121.892 512.796C126.274 514.356 130.777 517.118 133.239 519.64C135.58 522.041 142.004 535.489 142.184 538.191C142.244 539.452 142.244 542.093 142.124 544.075C141.944 547.437 141.884 547.497 141.464 545.455C140.623 540.893 134.079 532.668 129.096 529.846C125.194 527.685 124.113 526.544 126.034 526.604C126.755 526.664 127.475 526.844 127.655 527.024C127.835 527.204 129.636 528.825 131.738 530.506C133.839 532.247 136.721 535.549 138.342 537.891C140.503 541.193 141.223 541.913 141.343 540.953C141.584 539.272 139.542 533.388 136.42 526.724C133.479 520.48 130.897 517.779 124.833 514.897C119.07 512.135 116.368 512.075 109.944 514.356C106.943 515.377 101.539 517.178 97.937 518.259C90.2523 520.66 82.3275 524.082 80.3463 525.944C79.5658 526.664 78.1249 528.705 77.0443 530.566C76.0237 532.367 74.0424 535.609 72.6616 537.771C68.5191 544.255 64.8568 551.999 61.6149 561.185C58.1327 571.091 57.9526 573.252 59.7537 580.697C61.0745 586.1 60.234 585.68 57.8926 579.856C55.9714 574.873 56.0915 569.17 58.2528 564.487C59.1534 562.506 60.6543 558.844 61.6149 556.382C64.1964 549.538 69.7198 538.371 71.8211 535.669C72.9018 534.349 74.8229 531.707 76.1437 529.786C77.4645 527.865 79.806 525.343 81.427 524.202C83.7684 522.521 84.5488 521.501 85.3293 519.099C85.8697 517.478 86.5901 516.278 86.8302 516.458C87.1304 516.638 86.9503 517.899 86.47 519.279C86.0498 520.6 85.6295 521.801 85.6295 521.921C85.6295 522.101 86.9503 521.501 88.5713 520.72C90.1923 519.88 94.575 518.259 98.3573 517.118C106.342 514.717 112.106 512.615 112.946 511.895C113.967 510.934 117.929 511.355 121.892 512.796ZM485.473 516.038C487.695 517.118 490.756 519.64 494.779 523.722C498.441 527.444 502.704 530.987 505.706 532.908C509.608 535.369 510.869 536.57 511.829 538.611C513.39 541.793 513.39 543.534 511.829 547.497C510.809 550.198 510.629 551.759 510.749 559.024C510.869 568.089 510.448 570.13 507.327 575.414C505.766 578.115 502.884 580.397 503.784 578.235C506.486 571.691 506.306 569.35 502.584 559.804C499.041 550.739 492.137 534.649 491.357 533.748C490.997 533.328 487.214 531.887 482.832 530.506C478.509 529.125 474.847 527.925 474.667 527.745C473.766 526.904 477.068 525.763 480.31 525.763C483.972 525.763 485.413 526.364 491.777 530.206C495.499 532.488 489.556 527.685 484.272 524.142C477.428 519.58 474.126 518.139 468.063 517.178L462.959 516.278L469.924 516.218C478.089 516.158 479.169 516.578 488.175 523.302C496.28 529.366 497.901 531.107 498.741 534.469C499.342 536.75 500.422 538.371 503.604 541.793C505.826 544.255 507.687 546.536 507.687 546.836C507.687 548.337 508.947 546.416 509.728 543.714C510.989 539.512 510.328 538.491 503.544 534.109C500.362 532.007 495.92 528.405 493.578 526.064C491.177 523.662 487.334 520.6 484.573 518.979C481.931 517.418 479.109 515.617 478.269 514.897L476.768 513.636L479.47 514.056C480.97 514.236 483.672 515.137 485.473 516.038ZM453.053 517.118C445.489 518.319 441.166 520.6 436.964 525.703C434.922 528.225 434.502 529.065 435.163 529.486C435.703 529.906 435.523 529.966 434.562 529.786C432.101 529.246 427.898 531.167 424.236 534.589C419.973 538.491 419.493 540.172 420.814 545.996C421.894 550.619 422.675 557.403 422.075 556.862C421.594 556.322 418.893 542.694 418.833 540.592C418.833 538.071 425.797 530.987 429.579 529.606C431.38 528.945 433.902 527.084 436.844 524.202C442.787 518.499 446.269 516.878 452.453 516.878C453.834 516.938 454.014 516.998 453.053 517.118ZM450.052 536.15C457.076 538.671 465.601 544.195 473.766 551.699C476.107 553.801 480.37 557.343 483.192 559.564C491.117 565.748 493.938 569.53 495.019 575.354C495.679 578.716 495.319 578.416 493.518 574.033C491.477 568.99 489.436 566.408 484.332 562.506C481.811 560.525 476.648 556.202 472.865 552.84C461.338 542.574 451.432 536.75 444.648 536.15C441.646 535.85 441.106 536.03 438.224 537.951C436.543 539.092 433.481 541.013 431.44 542.274C429.459 543.474 426.998 545.155 425.977 545.996L424.116 547.557L424.536 552.42C425.016 558.303 424.296 561.845 421.834 565.808C420.874 567.369 419.553 570.551 419.013 572.892L417.932 577.095L417.752 574.513C417.572 571.932 418.652 569.11 422.135 562.986C423.575 560.465 423.696 559.804 423.575 553.62C423.515 549.958 423.636 546.656 423.876 546.236C424.176 545.816 428.018 543.114 432.521 540.172C441.947 533.988 443.147 533.748 450.052 536.15ZM121.171 551.639C112.466 552.48 105.682 555.181 95.4155 561.905C88.8114 566.228 85.7496 570.251 82.5076 578.896L81.427 581.898L81.7271 579.196C82.1474 575.654 85.0291 569.89 88.031 566.468C89.3518 564.907 92.6538 562.266 95.3554 560.585C105.622 553.981 114.027 551.039 122.552 551.099C125.914 551.159 125.794 551.159 121.171 551.639Z" fill="white"/>
<path d="M331.419 62.5812C331.599 64.8625 332.44 69.1251 333.22 72.0069C334.481 76.6898 335.021 77.7104 338.083 81.0124C342.166 85.5151 350.511 97.9427 353.993 104.607C356.935 110.19 356.875 110.07 352.852 99.8038C349.97 92.4193 348.89 90.3781 343.667 82.8735C342.466 81.1325 340.785 77.7704 339.884 75.3689C338.263 71.1664 333.701 62.0408 331.899 59.5793C331.119 58.4987 331.059 58.7988 331.419 62.5812Z" fill="white"/>
<path d="M330.579 90.3781C329.918 95.5413 329.918 96.5019 330.699 97.5825C333.281 101.305 341.986 110.61 344.928 112.832C352.492 118.535 358.436 123.939 362.218 128.561C367.321 134.805 367.682 135.105 366 132.224C365.22 130.903 363.179 128.201 361.498 126.22C356.455 120.336 346.549 107.849 344.447 104.787C343.427 103.166 341.806 101.545 340.905 101.065C338.264 99.6838 337.243 98.1228 334.181 91.0986L331.299 84.4945L330.579 90.3781Z" fill="white"/>
<path d="M429.459 307.35C426.998 311.313 410.668 342.592 409.887 344.753C409.767 345.053 410.488 344.213 411.388 342.832C413.009 340.49 419.493 331.605 428.739 319.057C432.821 313.474 433.181 312.393 431.921 308.371C431.14 305.669 430.6 305.489 429.459 307.35Z" fill="white"/>
<path d="M431.02 322.48C430.299 323.38 428.798 326.322 427.778 329.024C425.977 333.646 425.796 334.607 425.376 344.153C424.776 359.162 423.995 361.143 414.389 373.211C404.063 386.058 401.422 392.422 399.02 410.013C398.18 416.317 396.919 417.277 397.519 411.214C399.02 396.084 403.463 384.437 411.568 374.171C419.312 364.385 421.714 357.841 422.134 345.474C422.374 337.489 422.374 337.429 425.256 331.065C426.397 328.483 427.237 326.202 427.057 326.082C426.337 325.301 421.714 333.046 420.573 336.948C418.232 344.753 412.168 356.16 406.645 363.064C403.043 367.567 400.401 371.71 397.639 377.173C395.478 381.496 392.056 387.259 390.075 390.081C385.752 396.084 385.212 397.765 383.351 411.094L381.97 421L385.512 427.604C390.495 437.089 391.215 437.93 395.298 439.071C397.159 439.611 399.741 440.812 401.001 441.712C402.983 443.153 403.583 443.333 405.024 442.793C405.984 442.493 407.425 441.532 408.266 440.752C409.166 439.851 409.887 439.491 410.127 439.911C410.727 440.872 410.007 441.532 405.744 444.054C401.181 446.695 396.799 451.078 394.878 454.86L393.617 457.322H394.998C395.778 457.322 397.759 456.962 399.38 456.481C401.001 456.001 405.324 455.04 408.926 454.32C416.791 452.819 416.971 452.759 429.939 448.196C443.627 443.393 445.308 442.433 449.391 436.909C451.192 434.448 454.434 430.545 456.535 428.264L460.378 424.182L458.636 422.38C456.235 419.859 452.933 418.298 449.871 418.298C446.449 418.298 434.442 422.38 428.318 425.682C425.736 427.003 421.054 430.125 417.812 432.587C409.226 439.071 409.587 438.891 402.802 438.05C399.62 437.69 397.459 437.149 397.879 436.909C398.36 436.669 401.061 436.309 403.943 436.129C410.247 435.709 412.889 434.628 419.613 429.825C424.836 425.983 428.678 424.001 440.145 418.838C449.451 414.696 451.132 414.636 457.136 418.238C461.698 420.94 463.619 421.3 460.137 418.778C456.655 416.197 448.61 411.814 445.368 410.793C442.367 409.773 442.186 409.773 436.723 411.334C433.661 412.234 429.759 413.615 428.018 414.396C426.337 415.176 424.776 415.656 424.596 415.416C423.935 414.816 424.235 413.195 425.316 411.274C426.517 408.992 429.639 406.531 440.445 399.086C444.888 396.024 449.331 392.602 450.351 391.462C452.693 388.64 462.659 369.308 462.659 367.447C462.659 366.667 462.299 365.286 461.818 364.385C460.858 362.584 451.612 353.458 450.712 353.458C450.411 353.458 449.991 354.599 449.751 355.98L449.331 358.502L447.95 354.719C446.869 351.777 441.526 342.652 440.866 342.652C440.806 342.652 440.806 347.035 440.926 352.378C441.046 360.783 440.926 362.464 440.025 364.265C439.245 365.826 438.464 366.426 437.203 366.546C435.522 366.727 435.462 366.727 435.943 364.745C437.023 359.822 437.383 357.061 437.323 352.858V348.355L436.183 355.26C434.982 363.004 434.322 364.865 432.881 364.865C432.1 364.865 431.98 364.445 432.22 362.884C434.442 350.817 434.442 350.877 433.841 344.693C433.481 341.331 432.821 337.008 432.28 335.087C431.56 332.206 431.5 330.885 432.1 327.343C432.46 325.001 432.701 322.54 432.581 321.939C432.34 320.919 432.16 320.979 431.02 322.48Z" fill="white"/>
<path d="M471.064 451.978C471.064 454.32 473.886 459.423 476.468 461.764C477.789 462.905 480.13 464.526 481.691 465.307C487.575 468.308 487.695 467.888 482.411 462.665C479.59 459.903 475.867 456.001 474.186 454.02C471.365 450.778 471.064 450.598 471.064 451.978Z" fill="white"/>
<path d="M81.4264 491.062C76.8636 492.503 74.5822 492.923 70.1395 492.984L64.4961 493.044L64.8563 495.085C65.0364 496.225 65.3966 497.366 65.6968 497.666C65.997 497.967 70.3196 497.246 75.4828 496.105C80.5859 494.965 85.9292 493.884 87.4301 493.644C88.931 493.404 91.8127 492.683 93.854 492.083C96.6157 491.182 97.5162 490.702 97.2761 490.042C96.6157 488.361 88.0304 488.901 81.4264 491.062Z" fill="white"/>
<path d="M89.5319 494.004C85.2693 495.025 79.4457 496.285 76.624 496.946C71.641 498.087 62.3353 502.289 59.2134 504.811C58.3729 505.531 58.0127 505.891 58.4329 505.711C58.7931 505.531 59.7537 505.591 60.5942 505.891C61.3747 506.191 62.2753 506.252 62.5754 505.951C63.3559 505.231 78.8454 501.869 85.1492 501.088C88.2111 500.728 94.4549 500.248 99.0177 500.008L107.243 499.647L105.201 496.646C103.16 493.524 100.999 492.083 98.6574 492.203C97.937 492.203 93.8545 493.043 89.5319 494.004Z" fill="white"/>
<path d="M387.974 517.779C387.013 520.12 385.992 524.142 385.632 527.084C384.972 532.247 385.032 532.608 387.613 544.495L390.315 556.562L390.795 545.516C391.216 536.27 391.155 533.328 390.255 527.505C389.715 523.722 389.354 519.039 389.534 517.178C389.715 515.317 389.775 513.756 389.715 513.756C389.655 513.756 388.874 515.557 387.974 517.779Z" fill="white"/>
<path d="M221.792 464.226C219.631 466.207 218.79 467.468 220.111 466.627C220.471 466.447 220.711 466.507 220.711 466.807C220.711 467.168 220.291 467.588 219.751 467.768C219.271 467.948 219.03 467.888 219.211 467.528C220.231 465.907 218.31 467.348 214.348 471.25C210.025 475.453 209.244 476.954 210.445 478.875C210.865 479.475 212.306 478.755 216.989 475.393C220.291 473.051 223.233 470.77 223.593 470.35C224.434 469.389 225.214 462.125 224.554 462.125C224.254 462.125 222.993 463.085 221.792 464.226Z" fill="white"/>
<g filter="url(#filter0_d_172_1508)">
<path d="M161 189L280 172.5L395.5 182L408.5 209.5L379.5 246L443 286L471.5 363L502 474L520 541.5L513 584.5L12 596.5L66 441L77.5 371L86.5 345.5L110 294.5L169 252L161 189Z" fill="url(#paint0_linear_172_1508)" shape-rendering="crispEdges"/>
</g>
<path d="M283.364 199L279.789 193.625L276.639 199H271.789L277.414 190.075L271.664 181.45H276.639L280.164 186.75L283.264 181.45H288.114L282.539 190.3L288.339 199H283.364Z" fill="white"/>
<defs>
<filter id="filter0_d_172_1508" x="8" y="172.5" width="516" height="432" filterUnits="userSpaceOnUse" color-interpolation-filters="sRGB">
<feFlood flood-opacity="0" result="BackgroundImageFix"/>
<feColorMatrix in="SourceAlpha" type="matrix" values="0 0 0 0 0 0 0 0 0 0 0 0 0 0 0 0 0 0 127 0" result="hardAlpha"/>
<feOffset dy="4"/>
<feGaussianBlur stdDeviation="2"/>
<feComposite in2="hardAlpha" operator="out"/>
<feColorMatrix type="matrix" values="0 0 0 0 0 0 0 0 0 0 0 0 0 0 0 0 0 0 0.25 0"/>
<feBlend mode="normal" in2="BackgroundImageFix" result="effect1_dropShadow_172_1508"/>
<feBlend mode="normal" in="SourceGraphic" in2="effect1_dropShadow_172_1508" result="shape"/>
</filter>
<linearGradient id="paint0_linear_172_1508" x1="265" y1="584.5" x2="265" y2="172.5" gradientUnits="userSpaceOnUse">
<stop offset="0.0625"/>
<stop offset="0.59375" stop-opacity="0.686747"/>
<stop offset="1" stop-opacity="0"/>
</linearGradient>
</defs>
</svg>
