<svg width="169" height="195" viewBox="0 0 169 195" fill="none" xmlns="http://www.w3.org/2000/svg">
<path d="M165.225 42.6891C164.958 42.8573 164.546 43.0448 164.33 43.113C163.451 43.3678 159.276 42.0995 158.394 41.3043C157.993 40.9456 158.012 41.0118 158.57 41.7765C159.087 42.5174 159.204 42.8061 159.19 43.3674C159.15 44.3152 158.877 44.1063 158.401 42.7465C157.85 41.1218 157.944 41.2025 156.277 40.9932C154.797 40.7884 152.111 40.8231 151.805 41.0308C151.517 41.2264 151.378 41.137 151.441 40.8046C151.482 40.593 151.638 40.5133 152.091 40.5215C152.405 40.5189 152.812 40.5185 152.984 40.52C153.156 40.5216 154.109 40.5317 155.093 40.5476C156.077 40.5634 157 40.5677 157.16 40.5513C157.528 40.512 158.105 39.5416 158.278 38.635C158.394 38.0305 158.465 37.9032 158.575 38.0652C158.734 38.2992 158.532 39.6859 158.226 40.3009C158.021 40.716 158.021 40.716 158.358 40.5141C159.102 40.0612 160.795 39.7272 161.837 39.8481C162.74 39.9582 162.958 40.0469 163.799 40.6463C164.309 41.0101 164.621 41.1795 164.481 41.0117C163.88 40.3016 162.999 39.8353 161.853 39.6006C160.659 39.3723 160.144 39.446 158.969 40.0201L158.383 40.2996L158.543 39.9543C158.641 39.7694 158.753 39.4305 158.796 39.2039C158.863 38.8563 159.022 38.7615 159.865 38.5311C160.41 38.3847 160.828 38.2454 160.806 38.1943C160.706 38.0654 163.051 38.5767 163.421 38.7727C164.243 39.2275 164.768 39.6726 165.275 40.3804C165.843 41.1782 165.866 41.3862 165.445 41.6191C165.202 41.7448 165.209 41.7931 165.452 42.0746L165.723 42.3771L165.225 42.6891Z" fill="#BDBDBD"/>
<path d="M154.275 53.0157C153.238 54.2585 151.957 55.0629 150.913 55.1139C150.265 55.1465 149.935 55.0678 149.066 54.6979C147.585 54.0858 147.063 53.704 146.689 52.9589C146.078 51.7299 144.647 49.8743 143.94 49.3945C143.552 49.1322 143.124 48.8311 143.002 48.7295C142.69 48.4817 142.611 48.4823 142.571 48.6939C142.553 48.7846 142.593 48.8235 142.647 48.7868C142.716 48.753 142.91 48.8841 143.093 49.0757C143.258 49.2795 143.458 49.4589 143.534 49.4733C143.76 49.5167 145.255 51.1183 145.5 51.5568C145.626 51.8001 145.905 52.3077 146.134 52.6648C146.361 53.0371 146.508 53.3315 146.463 53.3228C146.402 53.3113 146.473 53.5128 146.599 53.7562C146.722 54.0146 146.784 54.2615 146.743 54.3162C146.683 54.3831 146.696 54.4795 146.775 54.5573C147.015 54.7755 147.16 55.8213 147.044 56.4258C146.914 57.1057 146.34 58.061 145.806 58.4758C145.62 58.6283 145.145 58.8193 144.756 58.886C143.557 59.0952 141.872 58.162 141.173 56.9006C140.744 56.1137 140.469 54.197 140.604 52.7506L140.689 51.733L139.957 52.2039C139.546 52.4698 138.792 52.8895 138.245 53.1295C137.055 53.7007 135.561 54.715 134.912 55.4054C133.734 56.6524 132.657 58.8429 132.28 60.7289C131.887 62.784 130.12 66.8631 129.338 67.5124C129.075 67.7439 128.464 67.9089 127.355 68.0571C126.471 68.1701 125.336 68.3758 124.827 68.4977C123.779 68.7359 121.533 69.669 120.695 70.198C118.198 71.788 117.824 72.108 114.86 75.2377C114.447 75.6757 113.699 76.394 113.193 76.8298C112.699 77.2835 112.28 77.6732 112.271 77.7186C112.262 77.7639 113.012 77.9386 113.919 78.112C115.762 78.4646 118.209 79.1833 118.801 79.5313C118.995 79.6625 119.256 79.9318 119.373 80.142C119.581 80.5265 119.581 80.5265 119.441 80.0298C119.298 79.4698 118.892 78.8909 117.927 77.8762C117.549 77.475 117.241 77.1186 117.25 77.0732C117.259 77.0279 117.606 77.0944 118.021 77.2206C118.877 77.494 119.73 78.1114 120.252 78.8221L120.585 79.293L120.667 78.3691C120.84 76.3189 122.43 74.477 124.026 74.4847C124.434 74.4843 124.453 74.629 124.089 75.4678C123.816 76.0736 123.64 76.2591 123.162 76.4653C122.431 76.7641 121.437 78.0307 121.206 78.9106C121.122 79.2704 121.122 79.3489 121.202 79.0978C121.278 78.8618 121.644 78.2582 122.017 77.7814C122.56 77.0708 122.818 76.8695 123.378 76.726C123.959 76.5551 124.088 76.4545 124.175 76.0796C124.347 75.2665 125.251 74.1395 125.856 73.9262C126.656 73.6721 127.585 73.975 128.452 74.7673C128.92 75.1858 129.369 75.4596 129.789 75.5556L130.433 75.7101L130.303 76.3901C130.231 76.7679 130.078 77.2399 129.974 77.455C129.817 77.7852 129.833 77.8665 130.044 77.907C130.195 77.9359 130.765 78.2328 131.302 78.5391C131.851 78.8633 132.529 79.1654 132.831 79.2232C133.224 79.2983 133.613 79.5606 134.169 80.09C134.589 80.5149 135.136 80.9327 135.372 81.0092C135.859 81.165 135.846 81.3974 135.303 82.108C135.151 82.3296 135.038 82.59 135.081 82.6922C135.109 82.7916 135.103 82.8218 135.039 82.7469C134.991 82.6749 134.687 82.8675 134.364 83.1659C133.547 83.9181 133.238 84.141 132.402 84.498C131.996 84.6553 131.717 84.8055 131.792 84.8199C131.853 84.8315 132.205 84.7109 132.578 84.5629C133.344 84.2396 133.532 84.3225 133.131 84.7785C132.226 85.8271 130.281 87.0684 129.011 87.405C127.075 87.9433 125.308 87.6836 123.887 86.6757C122.567 85.7182 121.871 84.7706 122.984 85.4221C123.687 85.8386 123.887 85.861 125.044 85.7065C126.153 85.5583 127.849 84.8803 129.044 84.1219L129.845 83.6173L129.284 83.2751C128.726 82.9177 127.701 81.9698 127.368 81.4989C127.099 81.1029 126.128 80.4473 125.702 80.3815C125.352 80.3301 125.364 80.3481 125.755 80.5168C126 80.6264 126.428 80.9275 126.726 81.1724C127.47 81.7847 129.859 84.1996 129.337 83.8177C129.255 83.7551 128.683 83.959 128.088 84.2838C126.782 84.9737 125.337 85.4023 124.281 85.4353C123.606 85.447 123.412 85.3943 122.844 85.0038C122.031 84.4253 121.111 83.3408 120.866 82.6519L120.672 82.1135L119.865 82.6483C119.418 82.9387 119 83.1564 118.924 83.142C118.849 83.1275 118.949 82.8491 119.134 82.5398C119.33 82.17 119.465 81.7103 119.494 81.3087L119.507 80.6689L118.216 79.9677C116.44 79.0171 115.275 78.6377 113.399 78.3729C111.876 78.1443 111.249 78.1496 111.208 78.3611C111.179 78.5122 113.229 80.408 113.428 80.4304C113.537 80.4355 113.589 80.4924 113.562 80.55C113.535 80.6075 113.859 81.0453 114.303 81.5063C115.549 82.8566 116.394 84.7413 116.222 85.7264C116.158 86.0588 116.143 86.0559 115.857 85.7506C115.701 85.5799 115.41 84.9759 115.218 84.4223C114.68 82.8941 114.081 82.012 113.061 81.2059C111.931 80.3163 111.01 79.8896 109.505 79.5703C108.873 79.4338 108.371 79.2751 108.382 79.2147C108.431 78.9578 104.938 80.4355 104.242 80.9603C102.557 82.2357 101.702 83.8421 101.964 85.2549C102.195 86.5836 103.091 87.6321 104.149 87.8344C104.754 87.95 104.795 88.2243 104.246 88.5578C103.447 89.0473 100.697 92.1239 99.8758 93.4705C99.736 93.71 99.5228 93.8415 99.3415 93.8069C99.1904 93.778 98.4153 93.8177 97.6495 93.8905C93.7753 94.2459 91.6308 95.0575 89.9527 96.7885C89.4262 97.33 89.0633 97.5895 88.7646 97.595C88.4811 97.6034 88.6537 97.6835 89.2855 97.82C90.9721 98.1739 91.4107 98.665 92.6643 101.693C93.2124 103.004 93.4334 103.814 93.5986 105.161C93.8791 107.298 93.9427 108.767 93.7938 109.709C93.7337 110.105 93.7486 110.437 93.8091 110.448C94.0508 110.495 97.8074 108.707 99.5641 107.712C100.9 106.949 101.766 106.598 102.784 106.354C103.489 106.191 103.782 106.216 104.901 106.508C107.035 107.057 108.469 108.162 109.456 110.042C110.232 111.475 110.638 112.054 111.239 112.513L111.81 112.967L111.267 113.349C110.961 113.557 110.344 114.081 109.901 114.513C106.89 117.399 105.519 117.935 103.309 117.121C101.375 116.422 99.9583 115.478 96.2062 112.411C94.3923 110.92 94.7554 111.397 96.6821 113.034C100.63 116.389 101.731 117.101 103.745 117.627C105.012 117.964 105.07 117.99 105.343 118.528C105.76 119.376 105.704 119.913 105.083 120.703C104.806 121.088 104.372 121.554 104.13 121.758C103.887 121.962 103.465 122.367 103.175 122.656C102.9 122.948 102.481 123.338 102.241 123.527C101.8 123.865 101.008 124.81 100.759 125.295C100.658 125.495 100.547 125.505 100.231 125.351C99.7617 125.105 98.9731 124.969 97.6116 124.881C96.1443 124.773 95.461 124.251 94.8296 122.72C94.2139 121.271 93.5399 118.981 93.3242 117.733C93.2412 117.185 93.135 116.757 93.099 116.782C92.9521 116.895 93.4325 119.132 93.9968 120.932L94.5769 122.813L94.101 123.991C93.853 124.632 93.5985 125.226 93.5236 125.29C93.4638 125.357 93.0896 125.348 92.6967 125.273C92.1376 125.166 91.7981 124.975 91.1839 124.419C89.2076 122.632 88.535 122.299 87.0359 122.357C85.3288 122.438 84.8908 122.025 84.5246 120.091C84.2744 118.696 84.3799 117.244 84.8051 116.495C84.9535 116.211 85.6391 115.574 86.3138 115.077C87.7893 113.996 88.6182 113.184 89.3307 112.161L89.8552 111.384L89.3544 111.382L88.8384 111.377L89.4193 111.206C89.7324 111.125 90.3579 110.885 90.8179 110.691C91.2629 110.494 91.9366 110.247 92.3282 110.165C92.7075 110.065 92.93 109.967 92.8242 109.947C92.5824 109.901 91.556 110.19 90.2746 110.665C87.5463 111.663 84.6509 111.078 83.4864 109.304C82.7403 108.128 82.6981 107.775 83.1409 105.542C83.3519 104.438 83.5249 103.125 83.5296 102.609C83.5343 102.093 83.6399 101.377 83.7575 101.007C84.2754 99.4462 85.8302 98.1145 87.4993 97.8229C88.3911 97.6646 88.3538 97.5321 87.4498 97.6725C86.0995 97.8528 84.4412 99.0706 83.8271 100.316C83.5424 100.904 82.8661 101.573 82.7439 101.393C82.7073 101.339 82.8313 101.018 83.0215 100.679C83.2089 100.354 83.4634 99.7608 83.5961 99.3946C83.7757 98.865 83.919 98.6888 84.2473 98.6106C84.9368 98.4449 85.8469 97.9454 86.1393 97.5628C86.5125 97.086 86.9011 95.218 86.798 94.4464C86.6699 93.5604 87.0006 93.0598 88.2073 92.3195C88.8107 91.9493 89.3198 91.4985 89.4863 91.2014C89.9828 90.3252 90.6687 86.4935 90.6593 84.6591C90.6549 83.7811 90.6065 83.0513 90.5612 83.0427C90.5007 83.0311 90.4505 82.8022 90.4363 82.5489C90.4215 82.2171 90.3266 82.058 90.1302 82.0204C89.964 81.9886 89.5151 81.7148 89.1325 81.4223C88.5038 80.9418 88.3161 80.8589 87.4525 80.7878C86.897 80.7442 86.4919 80.651 86.5092 80.5603C86.5439 80.379 87.0686 80.3384 88.1163 80.4292C88.7928 80.4959 89.0863 80.599 89.5358 80.9513C89.9731 81.2855 90.1911 81.3742 90.5013 81.3082C90.8569 81.2509 90.9116 81.2927 90.9322 81.5943C90.9429 81.7843 90.9923 82.9998 91.0395 84.3089C91.196 88.568 91.0088 90.6937 90.3702 91.903C90.2038 92.2001 90.216 92.2181 90.6529 92.145C93.3404 91.6879 96.7881 90.1231 98.1673 88.7266C98.634 88.252 98.8697 86.856 99.3463 81.8252C99.397 81.3963 99.661 78.7057 99.9446 75.8309C100.228 72.956 100.439 70.3805 100.4 70.0912C100.229 68.6956 98.6772 66.488 96.6009 64.6498C94.306 62.6445 92.5801 61.9228 89.5583 61.7521C87.8859 61.6516 86.3475 61.3416 86.2304 61.053C86.1809 60.9025 86.9798 60.8204 88.3982 60.8567C88.9595 60.8701 89.6958 60.8699 90.0426 60.858C91.3697 60.7985 92.7519 61.1882 94.4432 62.0912C95.3222 62.5726 96.3688 63.2427 96.773 63.5863C97.4872 64.1928 97.5325 64.2015 97.763 63.9793C97.9545 63.7966 98.1364 63.1735 98.4167 61.7078C98.6942 60.2572 98.99 59.2016 99.445 58.0512C99.9295 56.8282 100.137 56.0691 100.312 54.912C100.44 54.0751 100.579 53.2714 100.635 53.1412C100.691 53.011 101.039 52.827 101.404 52.7244C102.015 52.5593 102.123 52.5644 102.826 52.9025C103.356 53.1605 103.731 53.2479 104.114 53.2115C104.624 53.168 104.89 53.2502 104.671 53.412C104.617 53.4486 104.123 53.495 103.586 53.5176C102.355 53.5642 101.717 53.7868 101.221 54.3341C100.865 54.7203 100.81 54.9289 100.605 56.4091C100.418 57.8771 100.316 58.2491 99.6582 59.721C98.7549 61.7411 98.4116 63.6178 98.7485 64.5593C98.9588 65.1791 99.821 66.1585 100.226 66.2517C100.513 66.3066 101.154 67.2124 101.555 68.1504C102.139 69.5154 102.215 70.5949 101.924 72.9357C101.597 75.3795 101.685 76.1481 102.323 76.9906C102.814 77.6171 103.311 77.8845 103.836 77.8439C104.029 77.8181 104.496 77.8292 104.883 77.8562C106.646 77.9741 110.197 76.1942 114.236 73.1761C115.187 72.4651 116.533 71.4852 117.22 71.0057C117.922 70.5291 118.48 70.0718 118.476 70.0085C118.46 69.9272 118.521 69.9387 118.603 70.0014C118.697 70.0821 118.926 70.0319 119.139 69.9003C119.352 69.7688 119.71 69.618 119.911 69.5469C120.125 69.4938 120.269 69.396 120.232 69.342C120.196 69.288 120.054 69.2922 119.913 69.3749C119.721 69.4791 119.662 69.374 119.639 68.7586C119.573 67.7122 118.962 65.0108 118.624 64.3197C118.465 64.0072 118.059 63.5068 117.725 63.2079C117.214 62.7656 116.942 62.6351 116.123 62.4942C115.5 62.3908 114.858 62.3932 114.4 62.4936C113.725 62.6622 113.617 62.7355 113.318 63.3988C113.087 63.8715 112.681 64.3576 112.105 64.8271C111.626 65.2053 111.191 65.5137 111.13 65.5022C110.883 65.4861 111.126 64.9531 111.732 64.2389C112.243 63.616 112.272 63.5434 111.922 63.8209C111.274 64.3393 109.99 64.501 109.082 64.1707C108.32 63.8995 107.288 63.2323 107.465 63.1252C107.504 63.0857 107.804 63.237 108.108 63.4517C108.854 63.9704 109.802 64.0107 111.374 63.5751C112.797 63.1739 113.059 63.0359 112.957 62.7501C112.904 62.6148 112.721 62.6737 112.388 62.939C111.015 63.9764 108.768 63.766 107.254 62.427C106.665 61.9069 106.556 61.9018 106.843 62.364C107.067 62.7514 107.067 62.7514 106.769 62.5065C106.551 62.3394 106.482 62.1227 106.537 61.8356C106.728 60.8383 108.535 60.4791 111.032 60.9409C112.047 61.1194 112.34 61.2225 112.639 61.5459C113.251 62.1955 113.782 62.2815 114.479 61.8351C114.944 61.5325 115.053 61.5376 116.035 61.8039C117.75 62.2572 118.41 62.8219 119.253 64.4713C120.048 66.0487 120.436 67.2976 120.485 68.5131L120.516 69.3336L121.401 68.7197L122.286 68.1057L122.505 66.55C122.779 64.7072 122.779 64.2998 122.475 63.2705C121.956 61.558 119.739 56.9361 119.486 57.0287C119.366 57.0841 119.347 57.0178 119.437 56.8783C119.508 56.751 119.531 56.6301 119.476 56.5883C119.422 56.5465 119.187 56.2196 118.975 55.8503C118.673 55.3851 118.607 55.1533 118.751 55.0556C118.878 54.97 119.351 55.6087 120.345 57.2086C121.125 58.4542 121.905 59.7782 122.059 60.1209C122.225 60.4816 122.429 60.7243 122.501 60.6754C122.588 60.6294 122.579 60.6747 122.499 60.769C122.418 60.8632 122.401 61.0323 122.457 61.1525C122.742 61.7083 123.297 66.7485 123.15 67.5192L123.069 67.9423L125.223 67.1638C127.331 66.3766 129.031 65.433 129.121 64.9646C129.144 64.8437 129.225 64.7495 129.3 64.7639C129.572 64.816 130.655 62.5952 131.124 61.0403C132.43 56.6694 133.079 55.5717 135.383 53.6786C135.812 53.3219 136.077 52.9969 136.037 52.8795C135.997 52.7622 136.018 52.7349 136.1 52.7975C136.261 52.938 138.051 51.6044 138.031 51.3813C138.015 51.2999 138.054 51.2604 138.127 51.2899C138.282 51.3822 140.768 49.6022 140.739 49.4244C140.726 49.328 140.189 49.601 139.561 50.0136C138.436 50.7382 137.886 50.9933 138.203 50.6466C138.305 50.5251 138.295 50.492 138.16 50.5444C138.058 50.5875 138.004 50.7026 138.032 50.8019C138.094 50.9704 136.345 52.1709 136.103 52.1246C136.043 52.1131 135.709 52.2215 135.384 52.363C133.95 52.9816 132.101 52.3303 130.966 50.8131C130.133 49.6826 129.873 48.5835 130.127 47.2537C130.283 46.4378 130.39 46.2076 130.869 45.7509C131.698 44.9383 133.282 44.5207 134.783 44.6982L135.946 44.8423L135.526 44.1669C135.3 43.7947 134.995 43.0942 134.853 42.6126C134.601 41.7971 134.606 41.61 134.927 39.9327C135.178 38.618 135.319 38.1281 135.481 38.0965C135.578 38.0836 135.697 37.9499 135.726 37.7988C135.822 37.3001 136.61 37.028 137.486 37.1956C140.191 37.7129 142.201 40.9637 141.83 44.2134L141.703 45.2856L142.146 44.1172C142.379 43.4726 142.866 42.5633 143.191 42.0929C143.531 41.6254 143.784 41.2039 143.762 41.1527C143.741 41.1016 143.759 41.0894 143.796 41.1434C143.85 41.1852 144.141 40.9746 144.452 40.6581C145.233 39.852 146.47 39.1174 147.385 38.9166C147.861 38.804 148.661 38.8003 149.455 38.9053C150.757 39.0603 150.769 39.0783 150.966 39.5232C151.456 40.729 151.07 43.6469 150.176 45.3712C149.701 46.2985 148.639 47.3484 148.13 47.3919C147.907 47.4119 148.306 47.5353 149.028 47.6891C150.597 48.0048 151.763 48.5411 152.76 49.3896C153.541 50.0559 155.143 51.8347 155.084 51.98C155.075 52.0254 154.705 52.4871 154.275 53.0157Z" fill="#BDBDBD"/>
<path d="M152.452 35.7662C151.978 35.7853 151.091 36.1639 150.356 36.6498C149.408 37.2673 147.828 36.3543 146.633 34.4967C146.382 34.0884 146.212 33.9148 146.286 34.1013C146.45 34.634 146.609 37.4055 146.496 37.9948C146.413 38.433 146.272 38.5941 145.747 38.8852C144.999 39.2747 143.104 39.6799 142.53 39.57C142.288 39.5238 142.1 39.3624 142.034 39.1307C141.802 38.3813 141.498 38.0882 140.823 37.9279C140.446 37.8556 140.182 37.7583 140.218 37.7339C140.362 37.6361 139.896 37.0456 139.727 37.1074C139.628 37.1354 139.619 37.1023 139.696 37.0231C139.774 36.944 139.769 36.6454 139.694 36.3805C139.471 35.6643 139.467 34.4574 139.686 33.9667C139.857 33.561 140.903 32.6802 142.882 31.2575C143.896 30.5429 143.523 30.6909 141.944 31.6576C140.741 32.3828 138.071 33.2351 137.407 33.1079C136.696 32.972 135.747 31.7098 135.42 30.4724C135.196 29.6777 135.229 29.2611 135.533 29.2253C135.666 29.188 135.757 28.9549 135.808 28.526C135.968 27.1156 137.51 26.3453 139.507 26.7117L140.613 26.9076L140.34 26.3698C140.193 26.0753 140.004 25.5066 139.934 25.1331C139.827 24.5486 139.849 24.3493 140.133 23.6831C140.548 22.7443 141.137 22.1208 141.862 21.8522C142.346 21.6942 142.425 21.6935 142.702 21.9658C142.915 22.1631 143.369 22.3283 144.218 22.475C145.172 22.642 145.554 22.7776 146.003 23.1298C146.656 23.6463 146.947 24.1719 146.856 24.7339C146.815 24.9454 146.849 25.0146 146.902 24.8994C147.907 23.0867 149.12 22.8019 151.407 23.8658C152.071 24.165 152.897 24.5111 153.218 24.6351C153.82 24.8443 153.833 24.8623 153.653 25.3918C153.538 25.7458 153.535 26.4187 153.658 27.4133C153.917 29.4991 153.679 29.9235 151.965 30.2849C151.607 30.3573 150.934 30.354 150.466 30.2644C150.009 30.1928 149.234 30.154 148.754 30.2033C147.874 30.3012 146.329 30.6793 146.303 30.8153C146.295 30.8607 146.521 30.8256 146.819 30.7416C148.396 30.2757 150.324 30.347 151.249 30.9155C151.798 31.2398 152.202 31.8338 152.352 32.5205C152.471 33.0445 152.9 35.6327 152.886 35.7083C152.88 35.7385 152.687 35.7643 152.452 35.7662Z" fill="#BDBDBD"/>
<path d="M134.667 35.6382C134.082 36.7324 131.992 38.6509 131.493 38.5555C131.282 38.515 131.15 38.3019 131.074 37.8801C131.011 37.5548 130.889 37.0459 130.833 36.7688C130.643 36.0432 130.573 34.6046 130.655 33.5237L130.722 32.5968L131.86 31.8902C132.961 31.2081 132.982 31.1808 133.112 30.4224C133.221 29.8482 133.304 29.6604 133.471 29.6922C133.848 29.7644 134.445 30.3327 134.757 30.9094C134.917 31.2218 135.113 31.5883 135.186 31.6963C135.241 31.8165 135.269 31.9159 135.224 31.9072C135.194 31.9014 135.185 32.2756 135.225 32.7219C135.297 33.7381 135.08 34.8714 134.667 35.6382Z" fill="#BDBDBD"/>
<path d="M122.045 94.343L121.504 95.3674L120.768 94.3025C120.38 93.7113 120.014 93.2497 119.975 93.2893C119.924 93.3109 120.084 93.7017 120.317 94.1222L120.731 94.9062L120.196 95.4931L119.643 96.0921L118.826 95.8576C117.429 95.4651 116.566 95.065 116.282 94.6661C116.12 94.4472 115.986 94.3276 115.977 94.3729C115.923 94.6601 114.809 93.5229 114.139 92.5177C112.807 90.4772 112.403 89.1469 112.892 88.3945C113.24 87.8817 113.452 87.9221 113.351 88.451C113.233 89.149 113.57 90.169 114.249 91.2073C115.031 92.3593 115.674 93.0932 116.174 93.3454C116.374 93.4463 116.215 93.2123 115.804 92.8205C114.87 91.89 114.121 90.6502 113.81 89.5726C113.427 88.1366 113.976 87.0669 115.377 86.5361C115.886 86.3357 115.994 86.3408 116.189 86.5504C116.342 86.7362 116.683 86.8329 117.405 86.9083L118.405 87.0055L117.561 86.8285C116.615 86.6162 116.42 86.3282 116.889 85.8384C117.045 85.6802 117.31 85.2767 117.485 84.9343C117.841 84.2192 118.001 84.2028 118.018 84.8483C118.014 85.4428 117.717 85.9341 117.203 86.1647C116.911 86.2969 116.869 86.3516 117.066 86.3891C117.202 86.4151 117.473 86.3103 117.661 86.1427C119.078 84.9571 121.808 86.3251 122.634 88.6445C123.153 90.1065 123.093 91.9747 122.532 92.3686C122.262 92.5519 122.256 92.5822 122.434 92.8824C122.541 93.0595 122.621 93.2157 122.597 93.2582C122.591 93.2884 122.342 93.7733 122.045 94.343Z" fill="#BDBDBD"/>
<path d="M131.699 43.2939C131.624 43.2795 131.366 42.823 131.126 42.2759C130.884 41.7439 130.592 41.1399 130.473 40.9448C129.707 39.6236 127.489 39.591 125.668 40.8403C125.215 41.161 124.873 41.3147 124.893 41.2089C124.951 40.9067 126.059 40.2728 127.881 39.5092C129.724 38.7183 130.405 38.5979 131.05 38.9093C131.465 39.114 131.471 39.1622 131.375 40.2402C131.306 41.0102 131.366 41.6795 131.552 42.3417C131.699 42.8866 131.76 43.3055 131.699 43.2939Z" fill="#BDBDBD"/>
<path d="M130.588 38.539C130.437 38.5101 130.021 38.5559 129.677 38.6312C129.153 38.7503 128.634 38.6822 126.705 38.282C124.372 37.7887 123.851 37.5638 123.408 36.9309C123.323 36.8049 122.816 36.426 122.27 36.0866C121.066 35.3394 120.573 34.556 120.3 32.9531C120.078 31.6576 120.158 31.0776 120.594 30.5187C121.194 29.7563 122.014 30.0542 122.688 31.2796C123.389 32.5258 124.925 34.6522 125.637 35.3522C126.626 36.3245 127.647 36.8801 129.078 37.2634C130.345 37.5997 130.975 37.9866 130.913 38.3975C130.892 38.5033 130.754 38.5708 130.588 38.539Z" fill="#BDBDBD"/>
<path d="M129.359 36.9411C127.732 36.5203 126.825 36.018 125.639 34.8513C124.544 33.7803 124.421 33.5218 124.271 32.1774C124.056 30.3507 124.617 28.8132 125.663 28.3398C126.231 28.0725 126.295 28.1474 126.449 28.9758C126.598 29.7561 126.957 30.4983 127.162 30.4121C127.261 30.3841 127.27 30.4172 127.192 30.4963C127.034 30.6697 127.503 31.1666 128.608 32.0202C129.808 32.9545 130.196 33.5457 130.281 34.6583C130.351 35.4392 130.527 36.6477 130.646 37.1717C130.665 37.2379 130.088 37.1432 129.359 36.9411Z" fill="#BDBDBD"/>
<path d="M123.208 53.6211C122.666 53.7524 121.962 53.9936 121.634 54.1503C121.135 54.3838 120.912 54.4038 120.319 54.2277C119.932 54.1224 119.584 53.9774 119.532 53.9205C119.401 53.7074 120.088 53.3064 120.979 53.0696C121.723 52.8672 122.004 52.8739 123.01 53.0977L124.165 53.3656L123.208 53.6211Z" fill="#BDBDBD"/>
<path d="M122.348 51.1542C121.577 52.4007 119.435 53.4477 118.652 52.9534C118.525 52.882 118.319 52.404 118.197 51.8951C117.95 50.8925 117.938 50.9529 118.931 49.8583C119.206 49.5664 119.436 49.2657 119.45 49.1902C119.468 49.0995 119.118 49.4555 118.663 49.9481C118.086 50.5896 117.854 50.9838 117.821 51.322C117.776 51.7207 117.71 51.8178 117.378 51.8326C116.552 51.8939 115.127 52.4671 114.038 53.1672C113.912 53.2528 113.531 53.1956 112.88 52.9929C111.256 52.4785 109.833 51.1569 108.949 49.3901C108.332 48.113 108.136 47.4177 108.395 47.3732C109.811 47.1742 112.691 47.0203 113.205 47.1185C113.9 47.2515 115.053 48.0202 116.103 49.0825C116.788 49.7617 116.964 49.905 116.978 49.8295C117.007 49.6784 115.54 48.1761 114.778 47.576C113.976 46.937 113.565 46.7957 111.879 46.5986C111.45 46.5479 111.429 46.4968 111.485 45.9593C111.53 45.5606 111.645 45.2851 111.864 45.1233C112.122 44.922 112.157 44.8191 112.084 44.4607C111.95 43.9338 112.135 42.9667 112.439 42.5236C112.803 42.0137 113.64 41.8135 114.391 42.0667C115.068 42.2903 115.242 42.5272 115.138 43.0712C115.078 43.3885 115.282 44.3674 115.462 44.5741C115.666 44.8168 116.644 46.6642 116.888 47.2746C117.036 47.6475 117.173 48.2377 117.197 48.6026C117.239 49.2057 117.705 50.1251 117.777 49.7473C117.798 49.6416 117.752 49.5545 117.691 49.5429C117.51 49.5082 117.341 48.7553 117.419 48.3473C117.453 48.166 117.371 47.696 117.241 47.3109C116.969 46.5226 116.956 46.5046 116.188 45.1986C115.463 43.9948 115.258 43.3447 115.37 42.677C115.524 41.8761 115.949 41.5346 116.644 41.6676C117.354 41.8034 118.033 42.4343 118.807 43.7102L119.385 44.6195L119.412 43.9827C119.437 43.2824 119.437 43.2824 120.535 43.2732C120.816 43.2799 121.228 43.1708 121.471 43.0451L121.889 42.8273L122.131 43.2809C122.815 44.6178 123.276 48.1049 122.945 49.6707C122.864 50.0938 122.595 50.7628 122.348 51.1542Z" fill="#BDBDBD"/>
<path d="M115.654 86.0721C115.512 85.9978 115.358 85.9841 115.295 86.066C115.22 86.13 115.124 86.1429 115.057 86.0831C114.899 85.9276 114.252 86.1955 114.209 86.4222C114.189 86.5279 114.129 86.5948 114.071 86.5682C113.996 86.5537 113.544 86.6239 113.05 86.7487C112.556 86.8736 111.969 86.9962 111.746 87.0162C111.36 87.0677 111.36 87.0677 111.902 86.6075C112.217 86.3544 112.651 85.9676 112.894 85.7634C113.364 85.3521 114.732 85.0811 115.171 85.3218C115.329 85.3989 115.551 85.6294 115.667 85.8396C115.869 86.1759 115.863 86.2061 115.654 86.0721Z" fill="#BDBDBD"/>
<path d="M119.074 54.2714C117.895 53.6387 117.466 53.6664 116.184 54.3923C113.091 56.1502 109.803 55.8189 109.208 53.6846C109.109 53.3053 109.084 52.9404 109.156 52.8915C109.246 52.8304 109.677 53.038 110.117 53.3571C111.495 54.3412 112.584 54.2989 114.729 53.1584C115.966 52.5023 117.139 52.1002 117.563 52.1811C117.699 52.2071 117.975 52.4794 118.168 52.7825C118.446 53.2116 118.625 53.3399 118.982 53.361C119.416 53.3815 119.556 53.5493 119.22 53.6728C118.967 53.7654 118.966 54.0159 119.223 54.065C119.344 54.0881 119.435 54.1839 119.418 54.2746C119.397 54.3804 119.271 54.3875 119.074 54.2714Z" fill="#BDBDBD"/>
<path d="M114.681 61.1848C114.347 61.6221 113.47 62.0338 113.323 61.8178C113.179 61.5866 113.497 60.6607 113.891 60.1565C114.381 59.561 114.478 59.2192 114.415 58.2361C114.332 56.9515 114.582 56.9524 114.946 58.2437C115.341 59.6193 115.266 60.4195 114.681 61.1848Z" fill="#BDBDBD"/>
<path d="M91.1439 179.579C90.6541 180.174 89.948 181.245 89.5978 181.93C88.374 184.233 88.2725 184.355 87.2051 184.448C85.3691 184.63 84.1348 183.877 84.3573 182.713C84.4642 182.154 84.7149 181.826 85.6259 181.076C86.9624 179.985 87.4387 179.215 87.8286 177.504C88.1023 176.318 88.1725 175.705 88.1071 174.737C88.0116 173.435 87.5122 169.658 87.3149 168.806C87.1492 168.116 86.7092 167.468 86.4566 167.561C86.3212 167.613 86.3119 167.58 86.4135 167.459C86.533 167.325 86.5086 167.289 86.2977 167.327C86.1501 167.361 86.0624 167.329 86.1222 167.262C86.179 167.21 85.9511 167.01 85.6238 166.838C84.872 166.428 82.8617 164.9 82.2045 164.242C81.9276 163.969 81.6449 163.727 81.5694 163.713C81.5089 163.701 81.427 163.639 81.4112 163.557C81.3739 163.425 79.1072 161.19 77.9155 160.132C77.4596 159.731 75.8059 158.632 74.2291 157.704C70.754 155.645 70.0376 155.132 69.2597 154.122L68.6586 153.333L68.9612 151.997L69.2637 150.661L70.0259 151.59C70.4465 152.093 70.9736 152.695 71.1835 152.908C71.707 153.447 73.1256 154.219 74.148 154.524C74.6078 154.659 75.346 154.894 75.7906 155.027C76.3382 155.194 76.6159 155.216 76.6391 155.095C76.6564 155.004 76.3498 154.068 75.967 153.04C74.9666 150.326 74.2411 147.65 73.9168 145.333C73.7687 144.224 73.5048 142.983 73.3655 142.564C73.1062 141.873 73.1056 141.794 73.3785 141.596C73.5434 141.471 73.6507 141.319 73.6141 141.265C73.5623 141.208 73.1094 141.529 72.57 141.974C70.4997 143.708 69.1376 144.278 67.5459 144.083L66.6126 143.967L67.4162 145.17C68.8036 147.252 69.1728 149.171 68.6454 151.765C68.4714 152.593 68.2864 153.56 68.235 153.91C68.1808 154.276 68.0805 154.554 68.0201 154.543C67.9748 154.534 67.6252 154.232 67.2542 153.879C66.6307 153.29 66.5004 153.234 65.4491 153.08C64.4612 152.922 64.1978 152.825 63.5872 152.332C62.6975 151.661 61.9736 150.614 61.5593 149.422L61.2591 148.535L61.7329 148.187C62.3687 147.729 62.8941 146.702 63.0987 145.55L63.2448 144.623L62.9078 145.812C62.4914 147.251 62.3307 147.518 61.2909 148.369C60.29 149.18 58.7629 150.94 58.6402 151.417C58.6027 151.614 58.5191 151.723 58.4795 151.684C58.3853 151.604 58.1591 151.967 57.9255 152.534C57.6414 153.2 57.5752 153.219 57.3108 152.635C57.1844 152.314 56.9831 152.056 56.8895 152.054C56.7931 152.066 56.7622 151.982 56.8278 151.885C56.8782 151.785 56.8309 151.541 56.7087 151.361C55.8857 150.013 55.2606 147.795 55.302 146.268C55.3476 144.146 55.9783 142.732 57.4135 141.534C58.0127 141.022 57.9976 141.019 57.1818 141.599C56.6899 141.959 56.1512 142.483 55.961 142.822C55.4854 143.671 55.1127 143.49 54.8977 142.322C54.5752 140.568 53.9969 139.251 53.1016 138.281C52.7241 137.88 52.755 137.964 53.2589 138.687C54.7405 140.85 55.0303 143.02 54.511 148.356C54.384 149.757 54.2396 151.249 54.2191 151.684L54.1473 152.469L53.3729 152.587C52.3933 152.713 51.4082 152.54 50.804 152.096C49.7748 151.335 48.6799 148.87 48.5712 147.064L48.535 146.352L47.6407 146.933C46.4073 147.731 43.7971 148.766 41.7615 149.254C40.825 149.482 39.9635 149.646 39.8577 149.626C39.7217 149.6 39.7062 149.19 39.8249 148.242C39.9032 147.505 40.0142 146.351 40.0507 145.669C40.1808 143.924 40.422 142.827 40.9253 141.67C41.2835 140.861 41.4298 140.67 41.6953 140.674C41.8824 140.678 42.5402 140.678 43.162 140.703C43.7686 140.725 44.7302 140.612 45.2902 140.468C46.2958 140.206 48.4116 139.217 48.3167 139.058C48.2772 139.019 47.9914 139.121 47.694 139.283C46.8682 139.752 44.7578 140.304 43.5876 140.362C41.1327 140.503 39.7901 140.152 38.2113 138.989C37.4705 138.44 37.2238 138.174 35.8873 136.399C35.4998 135.886 35.0885 135.416 34.9914 135.35C34.7216 135.205 34.9881 134.958 35.767 134.653C36.155 134.508 36.4099 134.321 36.3697 134.204C36.3295 134.087 36.3475 134.074 36.4417 134.155C36.5208 134.233 37.1197 134.05 37.7568 133.749C38.394 133.448 39.4047 133.077 40.0007 132.909C41.1207 132.622 42.6256 132.534 42.6578 132.775C42.7373 133.26 43.4243 134.582 43.8722 135.106C44.3964 135.724 45.2688 136.486 45.2948 136.35C45.3034 136.304 45.1208 136.113 44.8899 135.928C43.4989 134.847 42.6851 132.796 42.9972 131.164C43.4654 128.716 44.4925 126.704 45.7165 125.873C46.0377 125.668 46.353 125.494 46.4135 125.505C46.5041 125.523 46.6177 125.748 47.0931 127.029C47.1886 127.267 47.3533 127.471 47.4648 127.461C47.5584 127.463 47.5951 127.517 47.5353 127.584C47.2184 127.93 49.566 129.742 50.0893 129.545C50.1735 129.514 50.198 129.55 50.1202 129.629C50.0575 129.711 50.1128 129.831 50.2553 129.905C50.6221 130.116 51.1654 131.207 51.3726 132.171C51.5734 133.086 51.6041 135.301 51.4336 136.192C51.3382 136.691 51.3756 136.824 51.746 137.098C51.9768 137.283 52.1862 137.417 52.2071 137.39C52.2279 137.362 52.4246 137.071 52.6329 136.719C53.2727 135.667 53.3059 135.658 53.8827 136.081C54.6358 136.648 56.4111 136.784 57.5362 136.388C57.9904 136.225 58.4209 136.103 58.5115 136.121C58.5871 136.135 58.634 135.972 58.6227 135.703C58.6056 135.465 58.7134 134.656 58.8551 133.915C59.165 132.377 59.6377 131.543 60.5111 130.99C61.3787 130.466 62.2444 130.444 64.8975 130.904L67.3239 131.322L67.3958 132.338C67.6843 136.152 66.7834 138.815 64.6809 140.308C64.282 140.592 64.0933 140.76 64.2826 140.671C65.3316 140.182 66.8261 138.51 67.2718 137.326C67.4636 136.815 67.5385 136.751 68.0394 136.753C69.1045 136.753 70.2369 137.22 72.3387 138.515C73.4731 139.217 74.5946 139.823 74.8364 139.87C75.0933 139.919 75.2875 140.05 75.319 140.213C75.3383 140.357 75.3146 140.4 75.2203 140.319C75.0744 140.181 73.8734 140.892 73.8243 141.148C73.8098 141.224 74.0445 141.144 74.3325 140.948C74.6356 140.755 74.9783 140.602 75.1021 140.61C75.3676 140.614 76.3617 142.213 76.8883 143.473C77.815 145.671 78.0342 146.982 78.2203 151.168C78.2908 153.093 78.5849 154.339 79.1699 155.375C79.6629 156.237 80.7373 157.335 81.0475 157.269C81.1591 157.259 81.2166 157.286 81.1597 157.338C81.1028 157.39 81.9112 158.077 82.9405 158.838C84.1884 159.765 85.0032 160.501 85.3727 161.026C85.684 161.445 85.9946 161.787 86.058 161.783C86.1364 161.783 86.1428 161.831 86.0831 161.898C85.9455 162.044 87.4257 164.05 87.7129 164.105C87.8186 164.125 87.8977 164.203 87.8862 164.263C87.8717 164.339 88.4637 164.765 89.1736 165.23C91.1999 166.51 91.8923 167.395 92.0222 168.845C92.1172 169.74 92.1736 177.88 92.0978 178.195C92.0689 178.346 91.6367 178.968 91.1439 179.579Z" fill="#BDBDBD"/>
<path d="M112.87 61.4021C112.771 61.4301 112.653 61.3919 112.607 61.3048C112.576 61.2206 112.256 60.8461 111.885 60.4932C111.532 60.128 111.157 59.7118 111.074 59.5707C110.949 59.3273 110.931 59.3395 111.017 59.6224C111.058 59.8182 111.257 60.0911 111.445 60.2525C111.977 60.6674 111.848 60.768 111.049 60.5213C110.529 60.3748 110.013 60.3701 109.142 60.5012L107.934 60.6773L107.359 59.7528L106.802 58.8161L107.348 58.4977C108.261 57.9831 109.722 58.0432 110.701 58.6535C110.883 58.7667 110.925 58.712 110.926 58.3831C110.918 57.8491 111.208 57.8889 111.983 58.507C112.739 59.1373 113.273 60.1948 113.152 60.8295C113.1 61.1015 112.972 61.359 112.87 61.4021Z" fill="#BDBDBD"/>
<path d="M103.529 104.178C103.163 104.782 102.41 105.609 101.828 106.03C101.594 106.189 101.412 106.405 101.409 106.498C101.425 106.58 101.389 106.604 101.34 106.532C101.291 106.46 100.921 106.593 100.498 106.841C100.093 107.077 99.5671 107.368 99.3418 107.481C99.1193 107.58 98.2842 108.015 97.4699 108.423C94.8681 109.742 94.1618 110.077 94.1281 110.008C94.1007 109.987 94.0861 109.327 94.0888 108.575C94.0794 107.806 93.9675 106.344 93.82 105.313C93.4665 102.739 93.4421 101.638 93.7022 100.278C94.0808 98.2985 95.2401 96.578 97.0193 95.3833C97.8862 94.7816 98.1569 94.6767 98.878 94.6737C99.8013 94.678 101.532 94.8837 101.554 95.0132C101.576 95.0643 101.622 95.5588 101.669 96.1317C101.767 97.3408 102.029 98.0175 103.062 99.9066C104.122 101.817 104.258 102.986 103.529 104.178Z" fill="#BDBDBD"/>
<path d="M104.864 52.6501C104.82 52.4694 104.716 51.9483 104.628 51.5085C104.527 51.0507 104.177 49.6054 103.831 48.3018C103.174 45.8422 102.814 43.5491 102.98 42.8447C103.056 42.5302 103.089 42.5993 103.124 43.1542C103.221 44.2065 103.558 45.6338 103.787 45.9125C103.937 46.1134 103.949 46.1314 103.77 46.0031C103.594 45.8598 103.591 45.8749 103.741 46.1543C103.833 46.3285 103.95 46.6172 104.012 46.7856C104.969 49.7254 105.146 50.6834 105.019 52.0845C104.967 52.6854 104.917 52.8638 104.864 52.6501Z" fill="#BDBDBD"/>
<path d="M88.3905 111.589C87.5319 111.738 84.7221 112.015 83.4432 112.068C81.6908 112.14 79.1448 111.857 77.0618 111.365C73.5606 110.507 71.6205 111.233 70.2879 113.86C69.8929 114.614 68.8533 118.002 68.5932 119.362C68.388 120.435 68.3421 122.149 68.5098 123.074C68.6681 123.966 69.3156 125.249 70.2501 126.587C70.7721 127.298 71.1962 127.864 71.202 127.834C71.2309 127.683 73.1457 130.775 73.5574 131.652C74.4419 133.497 75.0688 136.28 75.1519 138.63C75.1921 139.812 75.1741 139.825 73.7699 138.976C71.8716 137.846 71.832 137.807 71.7865 137.062C71.6198 134.822 71.0609 132.584 70.1391 130.607C69.7519 129.765 68.7931 128.063 67.526 125.925C67.4253 125.796 67.069 125.039 66.7184 124.251C65.1047 120.731 65.1193 118.526 66.7803 114.755C67.2301 113.713 67.812 112.227 68.0861 111.449L68.5658 110.006L68.3626 108.448C67.8047 103.83 66.269 96.2998 65.4738 94.3151C65.0421 93.2144 64.5282 92.3799 64.3202 92.4028C64.2418 92.4034 64.2202 92.3523 64.28 92.2854C64.3549 92.2215 64.0114 91.5605 63.5435 90.8132C61.8528 88.1873 61.3558 86.8548 60.7352 83.3841C60.3934 81.4861 59.9977 80.361 59.2423 79.1514C58.5328 78.0289 57.0999 76.2668 56.2606 75.4954C55.6587 74.9573 55.6371 74.9062 55.9345 74.7438C56.4211 74.4923 55.8734 74.6538 54.6495 75.1559C52.6259 75.9906 52.3337 76.0444 51.8331 75.7137C51.4569 75.4694 51.3662 75.4521 51.1747 75.6347C50.9831 75.8174 50.9075 75.8029 50.4673 75.4838L49.9725 75.1229L50.3241 74.5949C50.5834 74.2216 50.8475 73.3323 51.3421 71.1557C51.8108 69.1151 52.1333 68.002 52.4187 67.4927C52.9534 66.4985 54.3311 65.274 55.2755 64.9221C56.4338 64.5171 57.0115 64.6902 58.255 65.8052C58.8325 66.3073 59.4518 66.7546 59.6331 66.7893C59.9957 66.8587 59.99 66.8889 59.408 71.2417C59.1445 73.2745 59.0819 73.3565 57.5607 74.0211C56.5414 74.437 56.5234 74.4492 56.8542 74.6848C57.5311 75.1588 58.9158 76.9274 59.6539 78.2276C60.594 79.8642 61.1527 81.3651 62.2939 85.3896C63.2263 88.6223 63.6638 89.6928 64.7405 91.4337C66.1565 93.6938 66.6284 94.9118 68.2303 100.622C69.266 104.298 69.4948 105.312 69.6649 106.88C69.6791 107.133 70.7066 107.33 71.1911 107.172C72.0276 106.893 73.9917 104.731 74.7247 103.274C74.9561 102.801 75.2501 102.247 75.3813 102.053C75.5657 101.743 75.5602 101.445 75.353 100.481C75.2146 99.8121 75.11 99.2125 75.1215 99.1521C75.1331 99.0916 75.9484 99.1693 76.9184 99.3391C78.5712 99.6239 78.7763 99.6162 79.5466 99.3562C80.0159 99.1954 80.6588 98.8641 81.0037 98.6168C81.5855 98.1955 82.3916 97.1749 82.4639 96.7972C82.4841 96.6914 82.2896 96.8892 82.0512 97.2351C81.5771 97.912 80.3839 98.8272 80.1955 98.6658C80.1437 98.609 80.0746 98.6427 80.0573 98.7334C80.0399 98.8241 79.6821 98.9749 79.2546 99.0811C78.1886 99.3314 76.4393 99.0595 73.2454 98.151C71.1344 97.5593 70.4897 97.3264 69.9553 96.9266L69.2965 96.4403L69.5542 94.4377C69.7917 92.5408 69.8357 92.3926 70.2802 91.7884C70.6887 91.2087 72.0345 90.1504 72.2914 90.1995C72.3367 90.2082 72.8767 90.9066 73.451 91.7527C74.3396 93.0034 74.7538 93.4586 75.7981 94.2222C76.4843 94.7294 77.264 95.2387 77.4943 95.3454C78.7691 95.8869 79.6159 96.1272 80.3133 96.1665C81.0739 96.2024 81.0588 96.1995 79.7946 95.8481C79.0809 95.6489 78.2456 95.3482 77.9636 95.1846C77.6665 95.0181 77.3392 94.8459 77.2212 94.8076C77.1061 94.7543 76.4566 94.3011 75.7704 93.794C74.3981 92.7796 73.2671 91.4042 72.5543 89.8895C71.9831 88.6995 71.7818 88.4417 70.7345 87.6932C69.8117 87.0311 69.2573 86.4082 69.3151 86.1059C69.3729 85.8037 70.733 84.9987 70.9214 85.1601C71.0127 85.2559 71.061 85.2494 71.0056 85.1292C70.9037 84.8434 72.6368 84.6267 73.9385 84.7817C75.5029 84.9556 76.8993 85.5986 80.3298 87.7271C80.8484 88.0456 81.2757 88.2683 81.2815 88.238C81.3017 88.1323 79.4439 86.7901 78.4764 86.1978C77.3938 85.5522 75.762 84.9112 74.6136 84.6915L73.5861 84.495L73.6049 83.4961C73.6116 82.1503 73.6759 81.8964 74.2228 80.9202C74.4967 80.4713 74.7036 79.9627 74.6872 79.8029C74.663 79.438 74.781 79.4763 76.7535 80.4644C80.0534 82.1293 80.6726 82.5767 81.449 83.759C82.0391 84.6864 82.142 84.7217 81.7396 83.8772L81.4572 83.3063L81.9393 82.5057C82.2102 82.072 82.5531 81.5893 82.7087 81.4311C82.9838 81.1392 83.0019 81.1269 83.3398 81.4892C83.5225 81.6808 83.9144 82.0063 84.2029 82.2181C84.9192 82.7311 86.0364 84.2605 86.3424 85.1178C86.4752 85.4879 86.5769 86.1025 86.568 86.4767L86.5524 87.1316L85.8727 86.6727C84.5254 85.7728 84.3097 85.5906 83.9135 85.1232C83.7 84.8474 83.4842 84.6652 83.4302 84.7018C83.2682 84.8118 84.4763 86.0297 85.5818 86.8833C86.6872 87.737 87.3256 88.6579 87.4602 89.5921C87.5146 89.9628 87.4434 90.8263 87.2845 91.6574C87.0359 92.9569 86.9472 93.1749 86.3832 93.9129C85.9236 94.5142 85.5909 94.7795 85.1395 94.9281C84.7393 95.0552 84.3224 95.3513 83.9939 95.7584C83.4832 96.3813 83.4594 96.4237 83.574 97.1348C83.7573 98.4699 83.4218 99.4866 82.0434 101.698C81.2516 102.972 80.8093 103.482 80.0684 103.998C79.4866 104.42 79.1857 104.519 78.6121 104.487C77.6946 104.453 77.2039 104.234 76.8676 103.7C76.7209 103.484 76.3729 103.01 76.0925 102.674C75.8121 102.339 75.9379 102.582 76.3778 103.23C76.8206 103.863 77.2721 104.45 77.3844 104.519C77.5541 104.614 77.4323 104.841 76.8243 105.727C76.3978 106.319 75.7486 107.339 75.389 107.99C74.8571 108.97 74.6389 109.21 74.1998 109.376C73.914 109.478 73.752 109.588 73.8426 109.606C73.9333 109.623 74.2644 109.53 74.5891 109.388C75.3587 109.05 77.0028 109.38 78.4092 110.134C79.6854 110.833 80.2956 110.918 82.4 110.725C84.028 110.567 84.2151 110.571 84.646 110.857C85.2164 111.233 87.6637 111.623 88.2626 111.44C88.4641 111.368 88.6692 111.361 88.7059 111.415C88.7425 111.469 88.6014 111.551 88.3905 111.589Z" fill="#BDBDBD"/>
<path d="M93.1242 78.8965C92.1793 78.841 91.5162 79.2781 91.1916 80.1558C91.0207 80.64 90.94 80.7343 90.7969 80.5816C90.687 80.4196 90.651 80.444 90.6529 80.6793C90.6936 81.204 90.2718 81.28 89.6676 80.8355C89.367 80.6057 89.0123 80.4125 88.8792 80.3714C87.9906 80.1858 85.0254 78.4909 85.2774 78.3198C85.3314 78.2831 85.2574 78.0967 85.1259 77.8836C85.0095 77.6733 84.94 77.2998 84.992 77.0278C85.0729 76.6047 85.1658 76.5285 85.7351 76.4181C87.2956 76.1213 88.1509 76.6452 89.7324 78.8586C90.2148 79.5304 90.6268 80.0791 90.657 80.0849C90.6872 80.0907 90.5184 79.7451 90.2733 79.3067C89.7889 78.3995 89.8632 78.2571 90.9436 77.9312C91.7714 77.6979 92.8896 77.9118 93.4642 78.4289C93.6893 78.6443 93.8871 78.8387 93.8784 78.8841C93.8726 78.9143 93.5286 78.9112 93.1242 78.8965Z" fill="#BDBDBD"/>
<path d="M92.0059 77.6175C91.8583 77.652 91.7346 77.644 91.7101 77.608C91.4486 77.0097 90.9426 75.3153 90.8968 74.8993C90.8491 74.2479 91.1916 73.358 91.6056 73.0769C91.8728 72.9087 91.885 72.9267 91.8301 73.2138C91.7954 73.3951 91.8582 74.0493 91.9628 74.6489C92.3246 76.77 92.3283 77.5696 92.0059 77.6175Z" fill="#BDBDBD"/>
<path d="M91.0437 77.6527C90.8328 77.6907 90.4361 77.8811 90.1992 78.0551C89.7434 78.3908 89.7434 78.3908 89.5292 78.0366C89.1066 77.2979 88.0754 76.3018 87.6674 76.2238C87.0025 76.0966 86.8146 75.2775 86.813 72.5831C86.81 71.862 86.81 71.862 87.1466 72.0673C87.5257 72.2965 88.5843 73.3134 88.9718 73.8261C89.1091 74.009 89.5715 74.4577 90.003 74.8222C90.6625 75.3869 90.8458 75.6569 91.1309 76.5416L91.4474 77.589L91.0437 77.6527Z" fill="#BDBDBD"/>
<path d="M92.0913 58.3364C91.0934 59.8685 90.5038 60.0847 88.1032 59.8605C86.1494 59.6748 86.1343 59.6719 84.6883 59.9435C83.7454 60.1234 83.5763 60.1068 82.759 59.7938C81.4453 59.2919 81.5704 59.4568 83.0092 60.1236C85.3444 61.1811 86.5303 62.2694 87.0531 63.7948C87.5507 65.2057 87.0228 66.6554 85.8328 67.2267C85.5772 67.3344 84.765 67.9779 84.0254 68.6509C82.4533 70.0732 81.6232 70.4 80.1099 70.2046C78.488 70.004 76.7108 68.5676 76.434 67.2303C76.1701 65.9894 77.0372 63.2575 78.3096 61.355C79.2513 59.9531 80.6205 58.445 80.9285 58.4725C81.3243 58.5326 80.4365 58.0965 79.6379 57.8498C79.163 57.712 77.9679 57.3268 76.9967 57C76.0225 56.6884 74.5618 56.2994 73.761 56.1462L72.2952 55.8658L71.4836 54.7865C70.0033 52.7803 69.5692 51.037 70.0394 48.8244C70.2077 48.0264 70.2507 47.3924 70.1689 47.0009L70.0463 46.4135L70.8221 46.4523C71.2567 46.4727 71.8303 46.5041 72.0929 46.523C72.3556 46.5419 72.8867 46.5495 73.2818 46.5311C74.2562 46.5139 75.7342 46.8122 76.3162 47.1272C76.583 47.2879 77.0541 47.6912 77.3647 48.0326C77.6725 48.389 77.9918 48.6851 78.0673 48.6995C78.1278 48.7111 78.1738 48.7982 78.1564 48.8889C78.1391 48.9795 78.272 49.3495 78.4559 49.698C78.8699 50.482 79.6516 53.0281 80.0748 54.9103C80.2354 55.7085 80.4156 56.3225 80.4516 56.2981C80.5416 56.237 79.877 52.9145 79.4851 51.5238C78.9526 49.558 78.594 48.8942 77.381 47.4561C77.189 47.2315 77.3351 46.3039 77.6218 45.9515C77.9085 45.5991 79.3947 45.4448 81.9329 45.523C82.4942 45.5364 83.2542 45.4938 83.64 45.4422C84.3209 45.3219 84.336 45.3248 84.5631 45.7754C84.6888 46.0188 84.8744 46.1952 84.9737 46.1672C85.0759 46.1241 85.1004 46.1601 85.0406 46.227C84.9628 46.3061 85.3137 46.7648 85.8156 47.2524C86.9777 48.3832 87.1457 48.9792 86.7438 50.3434C86.4826 51.2175 85.8625 52.8219 85.474 53.6248C85.3522 53.8521 85.3644 53.8701 85.5142 53.7421C85.6128 53.6357 86.0014 52.8328 86.3561 51.9609C87.0007 50.3925 87.0187 50.3803 87.7371 50.0634C89.0178 49.5096 89.2834 49.5134 89.6658 50.1347C89.8584 50.4378 90.0939 51.1721 90.2107 51.7896C90.4737 53.281 90.9578 54.517 91.2832 54.4539C91.4127 54.4317 91.4674 54.4735 91.4076 54.5404C91.3478 54.6073 91.6038 54.9068 91.9713 55.1964C92.354 55.4889 92.7041 55.8691 92.7659 56.0376C92.9303 56.5703 92.6662 57.4596 92.0913 58.3364Z" fill="#BDBDBD"/>
<path d="M79.8858 59.0094C79.6223 59.2409 78.7866 60.3342 78.0207 61.4721C76.1339 64.2126 75.2351 64.9805 73.3802 65.4245C72.3265 65.6929 70.2316 65.5898 69.5467 65.2395C69.0043 64.9635 68.0773 64.1597 67.5409 63.5245L67.1627 63.0449L67.5423 62.6163C68.1668 61.8899 68.7703 60.4546 68.8228 59.5249C68.9007 58.3807 69.2699 57.4332 69.7912 57.0003C70.0461 56.8141 70.1981 56.5926 70.1493 56.5206C70.1004 56.4486 70.1364 56.4241 70.209 56.4537C70.2939 56.5013 70.6466 56.4591 71.0079 56.3715C71.9926 56.137 73.757 56.4118 76.9207 57.3145C80.8708 58.4459 80.6737 58.3299 79.8858 59.0094Z" fill="#BDBDBD"/>
<path d="M58.3903 85.4887C58.2174 85.7376 58.0992 86.0283 58.1423 86.1305C58.1732 86.2147 58.1372 86.2392 58.0703 86.1794C57.9912 86.1016 57.8105 86.1454 57.6787 86.2611C56.8276 86.9442 54.7896 86.7893 53.6028 85.9514C52.5311 85.1669 51.2884 83.0653 50.7164 81.0606C50.3531 79.8477 50.281 79.1603 50.3797 77.9888C50.4204 77.4484 50.3905 77.1137 50.322 77.2259C50.2536 77.3381 50.1775 77.9815 50.1741 78.6543C50.1493 80.0123 50.6967 82.3099 51.3406 83.5295C51.7883 84.3826 51.7724 85.3664 51.2327 87.2055C50.6966 89.1078 49.8676 89.9204 48.0609 90.358C47.0431 90.6019 44.9596 90.7673 44.7078 90.6095C44.4956 90.4906 44.0876 88.6113 43.949 87.2064C43.7698 85.2768 44.4805 82.9536 45.8789 80.9655C46.6303 79.9031 46.5123 79.8649 45.7126 80.9337C45.2444 81.5803 45.0881 81.6601 44.2748 81.8178C41.7232 82.3009 38.3425 81.0591 36.6385 78.9945C36.1201 78.3471 36.1259 78.3169 36.982 76.789C37.9397 75.1396 39.0911 74.279 41.0633 73.7947C43.1529 73.2702 45.4528 73.3656 47.6494 74.0833C48.4481 74.33 48.4481 74.33 47.4546 73.8737C46.4488 73.3994 45.6109 72.7849 45.0983 72.1073C44.9336 71.9035 44.7365 71.7875 44.6012 71.8399C44.4839 71.8802 44.4385 71.8715 44.5134 71.8075C44.5854 71.7586 44.3793 71.2806 44.0609 70.7341C43.0266 69.0169 42.8541 66.8067 43.6138 65.2917C43.8365 64.8644 44.0318 64.4162 44.0643 64.3284C44.1639 63.9715 45.4414 63.7617 46.3934 63.9437C48.1282 64.2912 49.6115 65.2171 50.5611 66.5578C51.4741 67.8446 51.5063 68.0857 51.0241 71.0165C50.6568 73.2644 50.5428 73.6969 50.1443 74.3882L49.6953 75.1794L50.2959 75.5606C50.6146 75.7782 50.8886 76.0655 50.8928 76.2073C50.9034 76.3973 50.9603 76.3455 51.1059 76.0758C51.3401 75.588 51.3675 75.6089 53.3902 76.826C56.0165 78.4091 57.4413 79.5587 58.2996 80.8037C58.8496 81.6137 59.0982 82.1155 59.0893 82.4897C59.1058 83.3857 58.721 84.9881 58.3903 85.4887Z" fill="#BDBDBD"/>
<path d="M55.3996 56.7382C54.6949 56.901 53.9354 57.351 53.0186 58.1311C52.4944 58.579 52.1219 59.1343 51.8861 59.7941C51.6538 60.5172 51.8475 61.3061 52.5512 62.4588C52.9429 63.1133 53.3523 64.0844 53.4254 64.5213C53.4599 64.6688 53.0817 64.1893 52.5957 63.4541C51.8136 62.3021 51.4943 62.006 51.0114 61.992C50.933 61.9927 50.9294 61.9293 51.0072 61.8502C51.067 61.7833 50.9908 61.6904 50.8246 61.6586C50.6433 61.624 50.5188 61.5375 50.5333 61.462C50.5448 61.4015 50.3413 61.2373 50.1017 61.0975C49.6867 60.8928 49.6407 60.8057 49.7583 60.4366C49.9581 59.8013 50.3499 59.3906 51.5617 58.5416C52.8996 57.6071 55.5317 56.2935 55.9245 56.3687C56.3476 56.4496 56.2396 56.5229 55.3996 56.7382Z" fill="#BDBDBD"/>
<path d="M52.775 54.9831C52.5992 55.2471 52.1358 56.1139 51.7653 56.9045C51.2023 58.1282 50.9905 58.4167 50.3878 58.8653C50.0011 59.1672 49.6482 59.5383 49.6135 59.7196C49.5528 60.037 49.5377 60.0341 49.312 59.7403C48.9489 59.2636 48.9919 58.6296 49.4424 57.6663C50.5928 55.2549 50.4708 52.9447 48.9756 48.8055C48.6668 47.9632 48.4557 47.265 48.5162 47.2766C48.5766 47.2881 48.8815 47.6597 49.1928 48.0795C49.504 48.4993 50.1662 49.3778 50.6666 50.0374C51.7709 51.4704 53.2413 54.1011 53.1266 54.4551C53.1057 54.4824 52.9508 54.7191 52.775 54.9831Z" fill="#BDBDBD"/>
<path d="M49.0614 60.8044C48.6223 60.9711 47.0142 61.3527 46.4205 61.4271C46.098 61.4751 45.8453 61.5677 45.864 61.6339C45.8978 61.7031 45.194 61.6154 44.3054 61.4298C42.3136 61.0332 41.3979 60.4978 40.4792 59.2413C39.8077 58.3297 39.55 57.4659 39.6974 56.6952C39.7783 56.2721 39.8172 56.2326 40.1143 56.3991C40.2841 56.4942 40.7654 56.6802 41.1827 56.7914C41.8662 56.9848 41.9929 56.9777 42.6776 56.5917C44.4134 55.6237 45.7458 56.1918 48.0129 58.8339C49.1403 60.146 49.4192 60.6536 49.0614 60.8044Z" fill="#BDBDBD"/>
<path d="M49.2364 57.5957C48.9662 58.1078 48.7744 58.6194 48.7844 58.7309C48.8259 59.0052 48.6019 59.2756 48.5006 59.0682C48.3561 58.7587 47.376 57.741 46.5036 56.979C45.44 56.0707 45.2547 55.5653 45.2195 53.538C45.2165 52.8169 45.1365 51.9245 45.0519 51.548C44.8955 50.8916 44.0423 49.538 43.6057 49.2822C43.2841 49.0797 43.7515 48.6835 44.5822 48.4351C45.5784 48.1401 46.4497 48.4164 47.886 49.5056C49.2648 50.5682 49.6308 51.0298 49.8329 52.1022C50.2487 54.1867 50.0466 55.9806 49.2364 57.5957Z" fill="#BDBDBD"/>
<path d="M40.5383 73.4281C38.794 74.1126 37.2127 74.4367 36.2434 74.3453C35.4007 74.2467 35.213 74.1638 34.5901 73.6531C34.2133 73.3304 33.8811 72.938 33.8647 72.7782C33.8453 72.6335 33.7569 72.5226 33.6727 72.5535C33.5856 72.5995 33.5338 72.5426 33.554 72.4368C33.5714 72.3462 33.4076 71.8919 33.1957 71.4441C32.9837 70.9963 32.7244 70.3046 32.6276 69.9101C32.5307 69.5157 32.4352 69.2781 32.415 69.3839C32.3196 69.8825 33.218 72.3099 33.8197 73.1768C34.4308 74.0769 35.0011 75.5174 34.9202 75.9405C34.897 76.0613 34.9401 76.1636 35.0157 76.178C35.2272 76.2185 34.5971 77.7113 34.2731 77.9313C34.0931 78.0535 33.4193 78.3005 32.7751 78.4749C32.0646 78.668 31.205 79.0674 30.5779 79.4801L29.5698 80.1644L29.1406 79.7064C28.9241 79.4457 28.2158 78.809 27.5807 78.2803C26.3106 77.2228 25.2918 75.9159 25.1161 75.1147C24.812 73.7565 25.5723 72.3199 27.3971 70.805L28.2361 70.1039L27.3813 70.7236C26.8953 71.0536 26.2962 71.5655 26.039 71.8453C25.3094 72.6299 24.489 72.6609 23.2186 71.9324C22.6942 71.6441 22.3347 71.2308 21.7265 70.3156C21.1731 69.4422 20.8107 69.044 20.4991 68.9531C20.2631 68.8766 20.0271 68.8002 19.9696 68.7735C19.9091 68.7619 19.8605 68.361 19.8537 67.9055C19.8297 67.2117 19.8846 66.9246 20.2522 66.1491C20.8332 64.9132 21.4288 64.3379 22.4129 64.0249C23.4451 63.7054 24.7995 63.6668 25.1519 63.9535C25.559 64.282 28.0158 65.4411 27.9569 65.2575C27.9109 65.1704 27.7865 65.084 27.6505 65.058C27.5145 65.0319 26.8296 64.6817 26.1232 64.2803C25.0197 63.662 24.74 63.4048 24.1476 62.571C23.781 62.031 23.4035 61.6299 23.3164 61.6758C23.2415 61.7398 23.2322 61.7067 23.2977 61.6096C23.3755 61.5305 23.3269 61.1296 23.1847 60.7265C22.7517 59.4689 23.2712 57.7357 24.2648 57.1269C24.493 56.9982 24.609 56.8011 24.589 56.578C24.5664 56.0411 25.1675 55.7645 25.8453 55.9881C26.9346 56.3531 30.4266 57.9138 30.5913 58.1176C30.835 58.3992 31.0244 60.1114 30.9688 61.3852C30.9345 61.9738 30.7731 63.2273 30.5939 64.1642C30.4176 65.086 30.3097 65.8955 30.3795 65.9402C30.4313 65.9971 30.528 65.6553 30.5873 65.1811C30.6496 64.6918 30.9897 63.1591 31.3247 61.7352C31.9492 59.2075 31.9607 59.147 32.5354 58.5991C33.3075 57.8383 35.1251 57.2618 36.1555 57.4432C36.7146 57.5501 36.9843 57.6957 37.4136 58.1537C37.9069 58.6867 38.0069 58.7371 38.9611 58.8256C39.9002 58.9113 40.0002 58.9617 40.2266 59.334C40.5968 59.9373 41.0597 62.5947 40.9396 63.3862C40.8825 63.7669 40.7353 64.2086 40.5949 64.3697C40.4544 64.5308 39.3939 65.0798 38.2183 65.5755L36.0896 66.4684L37.7071 66.8561C39.0857 67.1825 39.4339 67.3274 40.0352 67.787C40.7976 68.387 41.0987 69.0242 40.9571 69.7646C40.7894 70.641 40.8009 71.6457 40.9722 71.5688C41.0716 71.5408 41.0809 71.5739 41.0031 71.653C40.9253 71.7321 40.9495 72.097 41.0673 72.4641L41.251 73.1415L40.5383 73.4281Z" fill="#BDBDBD"/>
</svg>
